<svg xmlns="http://www.w3.org/2000/svg" width="132.325" height="124.928" viewBox="0 0 132.325 124.928">
  <path id="Trazado_49" data-name="Trazado 49" d="M118.23,43.456v-3.6c-.039-.169-.091-.337-.116-.509a15.788,15.788,0,0,0-4.963-9.427c-5.119-4.83-11.285-6.461-18.161-5.769a43.859,43.859,0,0,0-13.614,3.92A89.514,89.514,0,0,0,63.788,38.851c-.758.58-.763.578-1.138-.277a117.789,117.789,0,0,0-5.431-10.928c-4.053-7.136-8.692-13.823-14.9-19.295A32.974,32.974,0,0,0,28.624.769,37.908,37.908,0,0,0,23.526,0h-1.8a4.784,4.784,0,0,1-.587.1,26,26,0,0,0-7.8,1.656C6.655,4.252,2.331,8.893.643,15.874.345,17.106.21,18.377,0,19.63v5.395a3.2,3.2,0,0,1,.1.436A63.022,63.022,0,0,0,3.357,40.119a152.037,152.037,0,0,0,11.85,25.914,339.786,339.786,0,0,0,27.412,41.089,6.4,6.4,0,0,0,3.235,2.417h2.1A10.8,10.8,0,0,0,50.1,108.5,348.639,348.639,0,0,0,84.056,85.246c8.511-6.646,16.695-13.661,23.687-21.937,4.932-5.838,9.312-12.01,10.487-19.852M98.756,33.694a11.374,11.374,0,0,1,6.98,2.513,6.689,6.689,0,0,1,2.866,6.371,13.156,13.156,0,0,1-.531,2.485,31.56,31.56,0,0,1-5.7,9.786,118.15,118.15,0,0,1-16.7,16.616A311.736,311.736,0,0,1,49.066,97.846c-.97.6-.974.609-1.636-.282a317.769,317.769,0,0,1-27.574-43.29,109.848,109.848,0,0,1-8.8-21.439A33.065,33.065,0,0,1,9.629,20.043a10.636,10.636,0,0,1,3.02-6.842,13.771,13.771,0,0,1,8.6-3.417A17.456,17.456,0,0,1,32.365,12.91a38.64,38.64,0,0,1,9.3,8.725,95.613,95.613,0,0,1,14.65,27.006c1.342,3.683,5.151,4.72,8.1,2.155A86.346,86.346,0,0,1,85.787,36.715a30.663,30.663,0,0,1,12.969-3.02" transform="translate(0 16.455) rotate(-8)" fill="#f1f1f1"/>
</svg>
