<svg xmlns="http://www.w3.org/2000/svg" width="278.257" height="257.802" viewBox="0 0 278.257 257.802">
  <path id="Trazado_50" data-name="Trazado 50" d="M0,102.274V93.81c.092-.4.213-.794.272-1.2A37.157,37.157,0,0,1,11.953,70.426C24,59.059,38.513,55.22,54.694,56.85c11.227,1.131,21.8,4.619,32.042,9.226,14.875,6.693,28.473,15.476,41.395,25.36,1.783,1.364,1.8,1.36,2.678-.652a277.215,277.215,0,0,1,12.783-25.72c9.539-16.794,20.457-32.533,35.067-45.411,9.43-8.311,19.929-14.7,32.231-17.844a89.217,89.217,0,0,1,12-1.809h4.232A11.257,11.257,0,0,0,228.5.239a61.2,61.2,0,0,1,18.369,3.9c15.725,5.871,25.9,16.794,29.875,33.223.7,2.9,1.018,5.891,1.512,8.84V58.9a7.52,7.52,0,0,0-.231,1.027c-1.01,11.843-3.911,23.272-7.67,34.5-7.136,21.314-16.935,41.426-27.888,60.99-18.985,33.911-40.835,65.919-64.515,96.7a15.058,15.058,0,0,1-7.613,5.688H165.4a25.412,25.412,0,0,1-5.059-2.451,820.524,820.524,0,0,1-79.914-54.723C60.4,184.987,41.138,168.476,24.682,149,13.074,135.257,2.766,120.731,0,102.274M45.833,79.3A26.769,26.769,0,0,0,29.4,85.215c-4.875,3.823-7.506,8.639-6.745,14.993a30.961,30.961,0,0,0,1.249,5.849c2.79,8.655,7.849,16,13.409,23.031,11.544,14.588,25.147,27.137,39.295,39.105,27.106,22.93,56.057,43.317,86.167,62.087,2.283,1.423,2.291,1.432,3.85-.665,24.088-32.4,46.305-65.992,64.9-101.884,8.389-16.2,15.885-32.794,20.718-50.456,2.694-9.845,4.6-19.815,3.352-30.1-.737-6.071-2.474-11.756-7.109-16.1-5.681-5.328-12.737-7.4-20.249-8.042-9.594-.823-18.187,2.236-26.152,7.355-8.556,5.5-15.62,12.623-21.889,20.534-15.189,19.17-26.139,40.668-34.478,63.559-3.158,8.668-12.123,11.109-19.057,5.071C111.381,106.241,94.92,94.71,76.356,86.408c-8.953-4-18.2-7.019-30.523-7.108" fill="#f1f1f1"/>
</svg>
