<svg xmlns="http://www.w3.org/2000/svg" xmlns:xlink="http://www.w3.org/1999/xlink" width="100" height="100" viewBox="0 0 100 100">
  <defs>
    <clipPath id="clip-path">
      <rect id="Rect치ngulo_64" data-name="Rect치ngulo 64" width="53.512" height="41.982" fill="none"/>
    </clipPath>
  </defs>
  <g id="Grupo_58" data-name="Grupo 58" transform="translate(-709 -8741)">
    <rect id="Rect치ngulo_59" data-name="Rect치ngulo 59" width="100" height="100" rx="20" transform="translate(709 8741)" fill="#7fc6ba"/>
    <g id="Grupo_64" data-name="Grupo 64" transform="translate(732.58 8769.547)">
      <g id="Grupo_67" data-name="Grupo 67" transform="translate(-0.58 0.453)">
        <g id="Grupo_66" data-name="Grupo 66" clip-path="url(#clip-path)">
          <path id="Trazado_29" data-name="Trazado 29" d="M0,29.379v-3.24a14.958,14.958,0,0,1,1.663-5.083A2.574,2.574,0,0,0,2,19.716Q1.989,13.394,2,7.072A10.281,10.281,0,0,1,2.119,5.2,6.227,6.227,0,0,1,8.513.008q19.279-.018,38.558,0a6.559,6.559,0,0,1,2.795.559,6.332,6.332,0,0,1,3.646,4.671v25.92c-.086.283-.166.567-.26.847A6.268,6.268,0,0,1,47.146,36.3q-10.448.013-20.9-.006a1.417,1.417,0,0,0-1.2.556A13.751,13.751,0,0,1,13.3,41.953,13.814,13.814,0,0,1,2.108,35.334,14.236,14.236,0,0,1,0,29.379M27.825,2.762q-9.667,0-19.333,0A3.515,3.515,0,0,0,4.743,6.484q-.007,4.99,0,9.98c0,.178-.107.431.106.52.17.071.29-.154.422-.257A13.98,13.98,0,0,1,16.045,13.76a14.164,14.164,0,0,1,12.1,11.866c.073.5.244.708.792.706q10.607-.027,21.214-.012c.686,0,.7-.02.705-.7q0-9.51,0-19.019A3.553,3.553,0,0,0,47,2.763q-9.588,0-19.176,0M25.578,27.811a11.448,11.448,0,1,0-11.469,11.46,11.454,11.454,0,0,0,11.469-11.46M39.6,29.089H29.054c-.755,0-.769,0-.876.755a14.062,14.062,0,0,1-.8,3.073c-.235.612-.236.615.434.615q9.66,0,19.32,0a3.52,3.52,0,0,0,3.726-3.688c.012-.729-.009-.753-.761-.753H39.6" transform="translate(0 0)" fill="#fff"/>
          <path id="Trazado_30" data-name="Trazado 30" d="M273.439,53.011c-1.149,0-2.3,0-3.448,0s-1.684-.523-1.688-1.648q-.014-3.5,0-7a1.433,1.433,0,0,1,1.565-1.62q3.578-.036,7.157,0a1.437,1.437,0,0,1,1.56,1.627q.016,3.5,0,7a1.452,1.452,0,0,1-1.646,1.64c-1.167.008-2.333,0-3.5,0m2.381-5.146c0-.626-.008-1.253,0-1.879.006-.354-.141-.5-.5-.5q-1.879.014-3.758,0c-.354,0-.5.142-.5.5q.012,1.879,0,3.758c0,.351.145.507.5.505q1.879-.009,3.758,0c.352,0,.506-.149.5-.5-.011-.626,0-1.253,0-1.879" transform="translate(-230.907 -36.769)" fill="#fff"/>
          <path id="Trazado_31" data-name="Trazado 31" d="M79.2,144.01c-.329,0-.723-.361-.972-.945a1.244,1.244,0,0,0-1.36-.9,1.23,1.23,0,0,0-1.041,1.2,1.372,1.372,0,0,0,1.151,1.187,9.554,9.554,0,0,1,1.03.165,3.8,3.8,0,0,1,2.946,3.351,3.65,3.65,0,0,1-1.794,3.782,1.3,1.3,0,0,0-.762,1.353,1.356,1.356,0,0,1-2.088,1.2,1.421,1.421,0,0,1-.642-1.351A1.072,1.072,0,0,0,75,151.91a3.6,3.6,0,0,1-1.687-2.053,1.414,1.414,0,0,1,.723-1.925,1.374,1.374,0,0,1,1.823.918,1.223,1.223,0,0,0,1.405.884,1.2,1.2,0,0,0,.972-1.3,1.163,1.163,0,0,0-1.132-1.09,4.668,4.668,0,0,1-2.252-.754,3.884,3.884,0,0,1,.248-6.651.859.859,0,0,0,.551-.94.608.608,0,0,1,0-.1c.041-.989.6-1.639,1.405-1.624.825.016,1.369.649,1.34,1.656A.972.972,0,0,0,79,139.953a3.648,3.648,0,0,1,1.848,2.358c.244.886-.4,1.7-1.644,1.7" transform="translate(-62.912 -118.144)" fill="#fff"/>
        </g>
      </g>
    </g>
  </g>
</svg>
