<svg id="LOGO" xmlns="http://www.w3.org/2000/svg" xmlns:xlink="http://www.w3.org/1999/xlink" width="123.512" height="25.005" viewBox="0 0 123.512 25.005">
  <defs>
    <clipPath id="clip-path">
      <rect id="Rectángulo_4" data-name="Rectángulo 4" width="123.511" height="25.005" fill="none"/>
    </clipPath>
  </defs>
  <g id="Grupo_2" data-name="Grupo 2" clip-path="url(#clip-path)">
    <path id="Trazado_1" data-name="Trazado 1" d="M430.794,28a7.254,7.254,0,0,0-3.948-1.257,19.009,19.009,0,0,0-5.238.461,23.621,23.621,0,0,0-5.312,1.843,15.145,15.145,0,0,0-1.732,1.057,11.1,11.1,0,0,0-1.9,1.659,2.881,2.881,0,0,0-.9,1.941c.013.707.566,1.256,1.691,1.679a.527.527,0,0,0,.69-.252.594.594,0,0,0-.319-.734c-.847-.371-.784-.719-.763-.834a2.522,2.522,0,0,1,.813-1.285,11.5,11.5,0,0,1,1.637-1.294,13.018,13.018,0,0,1,1.306-.784,22.707,22.707,0,0,1,4.69-1.667,19.751,19.751,0,0,1,4.788-.57,6.582,6.582,0,0,1,3.493.836,2.225,2.225,0,0,1,.975,2.407c-.143,1.177-1.027,2.785-2.625,4.779-1.857,2.222-3.959,3.5-6.621,5.121l-.024.015a27.616,27.616,0,0,1-8.307,3.432l-.169.035c-.436.1-.966.2-1.574.3a2.9,2.9,0,0,1-1.184.011.591.591,0,0,0-.855.8c.182.315.6.462,1.3.462a11.261,11.261,0,0,0,1.858-.2,27.742,27.742,0,0,0,9.146-3.49c3.135-1.833,5.343-3.218,7.379-5.668,1.745-2.161,2.728-3.984,2.92-5.417A3.377,3.377,0,0,0,430.794,28" transform="translate(-337.096 -21.999)" fill="#7fc6ba"/>
    <path id="Trazado_2" data-name="Trazado 2" d="M444.947,44h0c-.735,1.122-1.608,2.517-2.748,4.391a24.767,24.767,0,0,0-2.124,4.206.646.646,0,0,0,.136.641.465.465,0,0,0,.329.14.448.448,0,0,0,.12-.017.556.556,0,0,0,.381-.439,18.8,18.8,0,0,1,1.78-3.444c1.045-1.674,1.929-3.046,2.781-4.318.635-.957,1.218-1.865,1.678-2.615a1.165,1.165,0,0,0,.1-.144l.073-.114c.27-.42.678-1.055.224-1.407-.16-.119-.586-.434-2.289,1.493a.592.592,0,0,0-.17.561.38.38,0,0,0,.252.232,1.518,1.518,0,0,1-.116.2c-.139.224-.264.418-.407.627" transform="translate(-362.4 -33.591)" fill="#7fc6ba"/>
    <path id="Trazado_3" data-name="Trazado 3" d="M440.422,53.288a.49.49,0,0,1-.347-.148.671.671,0,0,1-.143-.666,24.833,24.833,0,0,1,2.127-4.212c1.144-1.878,2.017-3.273,2.749-4.392v0h0c.143-.21.268-.4.406-.627a1.7,1.7,0,0,0,.1-.177.406.406,0,0,1-.241-.238.613.613,0,0,1,.174-.585c1.719-1.945,2.158-1.62,2.323-1.5.473.366.058,1.013-.217,1.44l-.073.114a1.185,1.185,0,0,1-.1.146c-.457.745-1.038,1.649-1.676,2.612-.851,1.27-1.735,2.642-2.781,4.317a18.767,18.767,0,0,0-1.778,3.439.577.577,0,0,1-.4.455.472.472,0,0,1-.127.017m4.428-9.39c-.734,1.121-1.606,2.516-2.748,4.391a24.75,24.75,0,0,0-2.122,4.2.62.62,0,0,0,.131.615.44.44,0,0,0,.312.133.427.427,0,0,0,.113-.015.531.531,0,0,0,.364-.421,18.786,18.786,0,0,1,1.783-3.452c1.047-1.676,1.93-3.048,2.782-4.318.638-.962,1.219-1.866,1.678-2.614a1.212,1.212,0,0,0,.1-.144l.073-.115c.265-.413.666-1.036.229-1.374-.154-.115-.567-.42-2.255,1.49a.569.569,0,0,0-.165.535.358.358,0,0,0,.236.217l.027.008-.012.026a1.575,1.575,0,0,1-.118.208c-.138.223-.263.417-.407.628Z" transform="translate(-362.283 -33.475)" fill="#7fc6ba"/>
    <path id="Trazado_4" data-name="Trazado 4" d="M545.157,60.256a.426.426,0,0,0-.367.178c-1.135,1.445-4.985,4.626-6.429,4.626-.405,0-.49-.31-.49-.569v-.132a6.6,6.6,0,0,1,.592-2.72c.144-.366.293-.744.424-1.2a2.507,2.507,0,0,0,.106-.59.632.632,0,0,0-.122-.389.663.663,0,0,1-.116-.434,1.464,1.464,0,0,1,.031-.338l0-.025c0-.815-.146-1.9-1.412-1.9a2.349,2.349,0,0,0-1,.24c-2.61,1.123-5.1,4.525-6.141,6.534a4.309,4.309,0,0,0-.627,1.968.835.835,0,0,0,.869.944,3.919,3.919,0,0,0,2.185-1.081l4.152-3.493a.973.973,0,0,1,.234-.177,4.61,4.61,0,0,1-.149.638,8.06,8.06,0,0,0-.359,2.084,2.148,2.148,0,0,0,.016.218,2.564,2.564,0,0,1,.019.26,1.543,1.543,0,0,0,1.683,1.421,1.771,1.771,0,0,0,.423-.034c2.116-.273,5.794-3.669,6.842-5.275a.393.393,0,0,0,.094-.307.457.457,0,0,0-.462-.45m-7.631-1.195a.988.988,0,0,1-.2.634q-.436.4-.87.793c-1.276,1.166-2.6,2.372-3.982,3.446a5.893,5.893,0,0,1-1.467.991,7.847,7.847,0,0,1,.831-1.624,12.916,12.916,0,0,1,4.917-5.089.922.922,0,0,1,.415-.148c.222,0,.354.373.354,1" transform="translate(-436.162 -46.752)" fill="#7fc6ba"/>
    <path id="Trazado_5" data-name="Trazado 5" d="M604.395,5.84h0a8.924,8.924,0,0,0-1.589-.13c-.941-.013-3.814.166-4.664.16h-.028a.244.244,0,0,0-.035,0,.611.611,0,0,1,.068-.157.521.521,0,0,0,.03-.058,13.234,13.234,0,0,1,1.5-2.233l.164.012c.246.018.444-.161.682-.615.115-.206.383-.575.643-.932a6.249,6.249,0,0,0,.725-1.1L601.9.658a.631.631,0,0,0-.57-.657c-.979-.07-4.153,5.062-4.46,5.612-.2.321-.454.361-1,.447l-.2.032c-1.579.131-6.4.745-7.854,1.095a.479.479,0,0,0-.34.452.563.563,0,0,0,.518.627.158.158,0,0,0,.1-.026l.043,0a57.354,57.354,0,0,1,6.243-.88c.431-.047.794-.086,1.066-.119a.816.816,0,0,1,.259-.008c.17.012.2.053.2.053a.268.268,0,0,0-.031.07l-.333.617c-1.022,1.865-7.236,14.024-7.4,16.345a.589.589,0,0,0,.6.692c.454.032,1.032-.271,1.061-.672a.385.385,0,0,0-.07-.312.6.6,0,0,1-.11-.394,1.885,1.885,0,0,1,.137-.5l.031-.082A153.273,153.273,0,0,1,597.116,7.5a1.071,1.071,0,0,1,.855-.466,39.3,39.3,0,0,1,5.64-.184c.228.034.421.063.59.081l.033,0c.258.019.444-.347.463-.616s-.108-.458-.3-.472" transform="translate(-483.82 0)" fill="#7fc6ba"/>
    <path id="Trazado_6" data-name="Trazado 6" d="M642.706,66.868a.459.459,0,0,0-.295-.155.356.356,0,0,0-.286.066c-1.3.916-7.313,4.363-9.45,4.142a.756.756,0,0,1-.576-.268,1.006,1.006,0,0,1-.051-.809l.032-.109c.077-.262.119-.406.4-.524,1.588-.67,5.756-2.87,5.976-4.974a.777.777,0,0,0-.753-.928c-1.633-.172-3.658,1.741-4.451,2.572-1.471,1.54-2.573,3.328-2.68,4.347a1.66,1.66,0,0,0,1.511,1.9,2.809,2.809,0,0,0,.3.015c2.494,0,7.8-2.731,10.229-4.639a.413.413,0,0,0,.093-.637m-9.6.964a14.5,14.5,0,0,1,2.194-2.212c1.14-.848,1.454-.943,1.532-.943h.014c.021.092-.256.561-1.232,1.423l-1.826,1.361a6.311,6.311,0,0,1-.681.371" transform="translate(-519.304 -52.13)" fill="#7fc6ba"/>
    <path id="Trazado_7" data-name="Trazado 7" d="M0,55.341V42.347a.15.15,0,0,1,.15-.15H8.693a.15.15,0,0,1,.15.15v1.261a.15.15,0,0,1-.15.15H1.879a.15.15,0,0,0-.15.15v3.864a.15.15,0,0,0,.15.15H7.527a.15.15,0,0,1,.15.15v1.261a.15.15,0,0,1-.15.15H1.879a.15.15,0,0,0-.15.15v4.15a.15.15,0,0,0,.15.15H8.693a.15.15,0,0,1,.15.15v1.261a.15.15,0,0,1-.15.15H.15a.15.15,0,0,1-.15-.15" transform="translate(0 -34.752)" fill="#212121"/>
    <path id="Trazado_8" data-name="Trazado 8" d="M80.9,55.39,76.325,42.4a.15.15,0,0,1,.141-.2h1.48a.15.15,0,0,1,.141.1l3.9,11.05a.15.15,0,0,0,.282,0L86.2,42.3a.15.15,0,0,1,.141-.1H87.82a.15.15,0,0,1,.141.2L83.383,55.39a.15.15,0,0,1-.141.1h-2.2a.15.15,0,0,1-.141-.1" transform="translate(-62.85 -34.752)" fill="#212121"/>
    <path id="Trazado_9" data-name="Trazado 9" d="M170.769,55.341V42.347a.15.15,0,0,1,.15-.15h8.543a.15.15,0,0,1,.15.15v1.261a.15.15,0,0,1-.15.15h-6.814a.15.15,0,0,0-.15.15v3.864a.15.15,0,0,0,.15.15H178.3a.15.15,0,0,1,.15.15v1.261a.15.15,0,0,1-.15.15h-5.647a.15.15,0,0,0-.15.15v4.15a.15.15,0,0,0,.15.15h6.814a.15.15,0,0,1,.15.15v1.261a.15.15,0,0,1-.15.15h-8.543a.15.15,0,0,1-.15-.15" transform="translate(-140.638 -34.752)" fill="#212121"/>
    <path id="Trazado_10" data-name="Trazado 10" d="M253.895,55.341V42.347a.15.15,0,0,1,.15-.15h1.521a.15.15,0,0,1,.123.064L262.67,52.2a.15.15,0,0,0,.272-.086V42.347a.15.15,0,0,1,.15-.15h1.45a.15.15,0,0,1,.15.15V55.341a.15.15,0,0,1-.15.15H263.02a.15.15,0,0,1-.122-.064l-6.981-9.943a.15.15,0,0,0-.272.086v9.771a.15.15,0,0,1-.15.15h-1.45a.15.15,0,0,1-.15-.15" transform="translate(-209.096 -34.752)" fill="#212121"/>
    <path id="Trazado_11" data-name="Trazado 11" d="M348.455,55.341V43.907a.15.15,0,0,0-.15-.15h-4.472a.15.15,0,0,1-.15-.15V42.347a.15.15,0,0,1,.15-.15h10.972a.15.15,0,0,1,.15.15v1.261a.15.15,0,0,1-.15.15h-4.471a.15.15,0,0,0-.15.15V55.341a.15.15,0,0,1-.15.15h-1.43a.15.15,0,0,1-.15-.15" transform="translate(-283.043 -34.752)" fill="#212121"/>
  </g>
</svg>
