<svg id="Grupo_31" data-name="Grupo 31" xmlns="http://www.w3.org/2000/svg" width="113.179" height="18.292" viewBox="0 0 113.179 18.292">
  <path id="Icon_fa-solid-star" data-name="Icon fa-solid-star" d="M12.155.643a1.145,1.145,0,0,0-2.058,0L7.8,5.369l-5.13.757A1.143,1.143,0,0,0,2.035,8.07l3.722,3.683-.879,5.2a1.146,1.146,0,0,0,1.668,1.2L11.13,15.71l4.583,2.447a1.146,1.146,0,0,0,1.668-1.2l-.882-5.2L20.221,8.07a1.143,1.143,0,0,0-.636-1.943l-5.133-.757Z" transform="translate(-1.698)" fill="#f1b20a"/>
  <path id="Icon_fa-solid-star-2" data-name="Icon fa-solid-star" d="M12.155.643a1.145,1.145,0,0,0-2.058,0L7.8,5.369l-5.13.757A1.143,1.143,0,0,0,2.035,8.07l3.722,3.683-.879,5.2a1.146,1.146,0,0,0,1.668,1.2L11.13,15.71l4.583,2.447a1.146,1.146,0,0,0,1.668-1.2l-.882-5.2L20.221,8.07a1.143,1.143,0,0,0-.636-1.943l-5.133-.757Z" transform="translate(21.881)" fill="#f1b20a"/>
  <path id="Icon_fa-solid-star-3" data-name="Icon fa-solid-star" d="M12.155.643a1.145,1.145,0,0,0-2.058,0L7.8,5.369l-5.13.757A1.143,1.143,0,0,0,2.035,8.07l3.722,3.683-.879,5.2a1.146,1.146,0,0,0,1.668,1.2L11.13,15.71l4.583,2.447a1.146,1.146,0,0,0,1.668-1.2l-.882-5.2L20.221,8.07a1.143,1.143,0,0,0-.636-1.943l-5.133-.757Z" transform="translate(45.46)" fill="#f1b20a"/>
  <path id="Icon_fa-solid-star-4" data-name="Icon fa-solid-star" d="M12.155.643a1.145,1.145,0,0,0-2.058,0L7.8,5.369l-5.13.757A1.143,1.143,0,0,0,2.035,8.07l3.722,3.683-.879,5.2a1.146,1.146,0,0,0,1.668,1.2L11.13,15.71l4.583,2.447a1.146,1.146,0,0,0,1.668-1.2l-.882-5.2L20.221,8.07a1.143,1.143,0,0,0-.636-1.943l-5.133-.757Z" transform="translate(69.039)" fill="#f1b20a"/>
  <path id="Icon_fa-solid-star-5" data-name="Icon fa-solid-star" d="M12.155.643a1.145,1.145,0,0,0-2.058,0L7.8,5.369l-5.13.757A1.143,1.143,0,0,0,2.035,8.07l3.722,3.683-.879,5.2a1.146,1.146,0,0,0,1.668,1.2L11.13,15.71l4.583,2.447a1.146,1.146,0,0,0,1.668-1.2l-.882-5.2L20.221,8.07a1.143,1.143,0,0,0-.636-1.943l-5.133-.757Z" transform="translate(92.618)" fill="#f1b20a"/>
</svg>
