<svg xmlns="http://www.w3.org/2000/svg" width="110.802" height="103.002" viewBox="0 0 110.802 103.002">
  <g id="Grupo_317" data-name="Grupo 317" transform="translate(12.424 10.71)">
    <g id="Grupo_105" data-name="Grupo 105" transform="translate(-12.424 59.096)">
      <g id="Grupo_136" data-name="Grupo 136" transform="translate(0 0)">
        <path id="Trazado_1954" data-name="Trazado 1954" d="M24.8,5.657a1.171,1.171,0,0,1-1.171-1.171V1.171a1.171,1.171,0,0,1,2.341,0V4.487A1.171,1.171,0,0,1,24.8,5.657" transform="translate(-17.48 0)" fill="#e5e5e5"/>
        <path id="Trazado_1955" data-name="Trazado 1955" d="M24.8,40.167A1.171,1.171,0,0,1,23.627,39V35.681a1.171,1.171,0,0,1,2.341,0V39A1.171,1.171,0,0,1,24.8,40.167" transform="translate(-17.48 -25.532)" fill="#e5e5e5"/>
        <path id="Trazado_1956" data-name="Trazado 1956" d="M39,25.969H35.682a1.171,1.171,0,1,1,0-2.341H39a1.171,1.171,0,0,1,0,2.341" transform="translate(-25.533 -17.481)" fill="#e5e5e5"/>
        <path id="Trazado_1957" data-name="Trazado 1957" d="M4.486,25.969H1.171a1.171,1.171,0,1,1,0-2.341H4.486a1.171,1.171,0,1,1,0,2.341" transform="translate(0 -17.481)" fill="#e5e5e5"/>
      </g>
    </g>
    <g id="Grupo_106" data-name="Grupo 106" transform="translate(76.957 -10.71)">
      <g id="Grupo_137" data-name="Grupo 137" transform="translate(0 0)">
        <path id="Trazado_1954-2" data-name="Trazado 1954" d="M25.341,8.28a1.714,1.714,0,0,1-1.714-1.714V1.714a1.714,1.714,0,0,1,3.427,0V6.567A1.714,1.714,0,0,1,25.341,8.28" transform="translate(-14.63 0)" fill="#e5e5e5"/>
        <path id="Trazado_1955-2" data-name="Trazado 1955" d="M25.341,42.79a1.714,1.714,0,0,1-1.714-1.714V36.224a1.714,1.714,0,0,1,3.427,0v4.853a1.714,1.714,0,0,1-1.714,1.714" transform="translate(-14.63 -21.369)" fill="#e5e5e5"/>
        <path id="Trazado_1956-2" data-name="Trazado 1956" d="M41.077,27.055H36.225a1.714,1.714,0,1,1,0-3.427h4.853a1.714,1.714,0,1,1,0,3.427" transform="translate(-21.37 -14.631)" fill="#e5e5e5"/>
        <path id="Trazado_1957-2" data-name="Trazado 1957" d="M6.566,27.055H1.714a1.714,1.714,0,1,1,0-3.427H6.566a1.714,1.714,0,1,1,0,3.427" transform="translate(0 -14.631)" fill="#e5e5e5"/>
      </g>
    </g>
    <g id="Grupo_330" data-name="Grupo 330" transform="translate(4.282 14.239) rotate(-13)">
      <path id="Trazado_2075" data-name="Trazado 2075" d="M60.773.038C42.15.038,23.528.074,4.906,0A4.708,4.708,0,0,0,0,4.871C.093,15.492.038,26.114.038,36.735V68.767c0,.251.007.5,0,.753-.014.5.134.7.626.381a8.571,8.571,0,0,1,4.872-1.187q27.6.029,55.2.012c1.822,0,2.293-.464,2.293-2.262q0-32.073,0-64.147c0-1.837-.438-2.278-2.255-2.278M23.873,13.07a8.3,8.3,0,0,1,6.9,2.761c.541.567.832.631,1.421.025a8.569,8.569,0,0,1,9.495-2.205c3.422,1.422,5.379,4.6,5.389,8.755a11.577,11.577,0,0,1-3.064,7.751,67.445,67.445,0,0,1-7.554,7.324q-1.935,1.723-3.888,3.426a1.33,1.33,0,0,1-2.019.074c-3.767-3.39-7.8-6.5-11.145-10.336a12.727,12.727,0,0,1-3.467-7.355c-.408-4.871,2.375-9.748,7.93-10.22M47.639,61.3a3,3,0,0,1-1.154.13H31.518q-7.483,0-14.966,0c-1.372,0-2.011-.424-2.032-1.332-.023-.958.61-1.4,2.033-1.4q14.925,0,29.849,0a3.108,3.108,0,0,1,1.238.122,1.3,1.3,0,0,1,0,2.474m3.971-5.683a9.149,9.149,0,0,1-1,.026H12.48c-.334,0-.67.01-1-.021a1.282,1.282,0,0,1-1.278-1.28,1.39,1.39,0,0,1,1.275-1.318,6.7,6.7,0,0,1,.752-.015q19.273,0,38.546,0a4.266,4.266,0,0,1,1,.062,1.2,1.2,0,0,1,1,1.346,1.168,1.168,0,0,1-1.154,1.2" transform="translate(0 -0.001)" fill="#ffba03"/>
      <path id="Trazado_2076" data-name="Trazado 2076" d="M60.972,325.566c-.306,0-.613-.007-.92-.007H16.989c-.362,0-.726.011-1.086-.017a1.215,1.215,0,0,1-1.268-1.263,1.278,1.278,0,0,1,1.225-1.333,8.386,8.386,0,0,1,1-.021q21.532,0,43.064,0c1.975,0,1.719.21,1.734-1.742.011-1.324,0-1.326-1.335-1.326H6.977c-.725,0-1.451-.023-2.174.01a4.573,4.573,0,0,0-4.638,3.981,4.31,4.31,0,0,0,4.5,4.769q27.427.007,54.854,0c1.781,0,2.241-.523,2.154-2.341-.024-.5-.225-.709-.7-.71" transform="translate(-0.116 -248.504)" fill="#ffba03"/>
    </g>
  </g>
</svg>
