<svg xmlns="http://www.w3.org/2000/svg" width="118.802" height="86.488" viewBox="0 0 118.802 86.488">
  <g id="Grupo_317" data-name="Grupo 317" transform="translate(20.424 10.71)">
    <g id="Grupo_318" data-name="Grupo 318" transform="translate(3.314 2.977)">
      <path id="Trazado_2059" data-name="Trazado 2059" d="M0,42.424c.206-1.242.373-2.492.624-3.725A28.269,28.269,0,0,1,24,16.6c.152-.023.3-.072.609-.147-.293-.231-.5-.365-.673-.534-1.622-1.575-3.357-3.054-4.823-4.764a6.916,6.916,0,0,1-1.744-6.023A6.008,6.008,0,0,1,21.522.364a6.063,6.063,0,0,1,6.257,1.319c.157.136.31.276.5.444A6.47,6.47,0,0,1,31.738.156a6.045,6.045,0,0,1,6.091,2.156,6.1,6.1,0,0,1,1.019,6.319,12.072,12.072,0,0,1-3.163,4.584c-1.154,1.111-2.391,2.137-3.653,3.255.734.145,1.444.27,2.147.425A28.17,28.17,0,0,1,56.135,39.865,27.707,27.707,0,0,1,51.98,59.91c-.223.349-.42.615-.922.549a16.319,16.319,0,0,1-6.924-2.473c.142-.2.264-.394.4-.572A20.764,20.764,0,1,0,24.9,64.968a6.262,6.262,0,0,1,3.8,2.064C30.3,68.7,32.165,70.1,33.918,71.617a1.471,1.471,0,0,1,.472.6c-1.6.186-3.2.462-4.8.545A28.334,28.334,0,0,1,.341,48.958C.215,48.154.113,47.346,0,46.54V42.424" transform="translate(0 0)" fill="#ffba03"/>
      <path id="Trazado_2060" data-name="Trazado 2060" d="M172.549,107.336a45.494,45.494,0,0,1-.877,4.887c-3.33,11.476-10.8,18.676-22.575,20.9a28.245,28.245,0,0,1-28.655-43,1.218,1.218,0,0,1,1.4-.676,16.3,16.3,0,0,1,6.58,2.428c-.123.18-.216.329-.322.469-4.775,6.3-5.984,13.228-3.078,20.573,2.94,7.429,8.586,11.819,16.517,12.955a20.74,20.74,0,1,0,4.606-41.213,1.528,1.528,0,0,1-.953-.417,34.174,34.174,0,0,0-6.839-6.2c-.082-.056-.15-.133-.381-.341,1.558-.206,2.948-.46,4.35-.565a28.306,28.306,0,0,1,28.108,17.46,27.783,27.783,0,0,1,1.986,8.105,6.035,6.035,0,0,0,.135.68Z" transform="translate(-91.51 -60.796)" fill="#ffba03"/>
    </g>
    <g id="Grupo_105" data-name="Grupo 105" transform="translate(-20.424 59.096)">
      <g id="Grupo_136" data-name="Grupo 136" transform="translate(0 0)">
        <path id="Trazado_1954" data-name="Trazado 1954" d="M24.8,5.657a1.171,1.171,0,0,1-1.171-1.171V1.171a1.171,1.171,0,0,1,2.341,0V4.487A1.171,1.171,0,0,1,24.8,5.657" transform="translate(-17.48 0)" fill="#e5e5e5"/>
        <path id="Trazado_1955" data-name="Trazado 1955" d="M24.8,40.167A1.171,1.171,0,0,1,23.627,39V35.681a1.171,1.171,0,0,1,2.341,0V39A1.171,1.171,0,0,1,24.8,40.167" transform="translate(-17.48 -25.532)" fill="#e5e5e5"/>
        <path id="Trazado_1956" data-name="Trazado 1956" d="M39,25.969H35.682a1.171,1.171,0,1,1,0-2.341H39a1.171,1.171,0,0,1,0,2.341" transform="translate(-25.533 -17.481)" fill="#e5e5e5"/>
        <path id="Trazado_1957" data-name="Trazado 1957" d="M4.486,25.969H1.171a1.171,1.171,0,1,1,0-2.341H4.486a1.171,1.171,0,1,1,0,2.341" transform="translate(0 -17.481)" fill="#e5e5e5"/>
      </g>
    </g>
    <g id="Grupo_106" data-name="Grupo 106" transform="translate(76.957 -10.71)">
      <g id="Grupo_137" data-name="Grupo 137" transform="translate(0 0)">
        <path id="Trazado_1954-2" data-name="Trazado 1954" d="M25.341,8.28a1.714,1.714,0,0,1-1.714-1.714V1.714a1.714,1.714,0,0,1,3.427,0V6.567A1.714,1.714,0,0,1,25.341,8.28" transform="translate(-14.63 0)" fill="#e5e5e5"/>
        <path id="Trazado_1955-2" data-name="Trazado 1955" d="M25.341,42.79a1.714,1.714,0,0,1-1.714-1.714V36.224a1.714,1.714,0,0,1,3.427,0v4.853a1.714,1.714,0,0,1-1.714,1.714" transform="translate(-14.63 -21.369)" fill="#e5e5e5"/>
        <path id="Trazado_1956-2" data-name="Trazado 1956" d="M41.077,27.055H36.225a1.714,1.714,0,1,1,0-3.427h4.853a1.714,1.714,0,1,1,0,3.427" transform="translate(-21.37 -14.631)" fill="#e5e5e5"/>
        <path id="Trazado_1957-2" data-name="Trazado 1957" d="M6.566,27.055H1.714a1.714,1.714,0,1,1,0-3.427H6.566a1.714,1.714,0,1,1,0,3.427" transform="translate(0 -14.631)" fill="#e5e5e5"/>
      </g>
    </g>
  </g>
</svg>
