<svg xmlns="http://www.w3.org/2000/svg" width="110.802" height="100.525" viewBox="0 0 110.802 100.525">
  <g id="Grupo_317" data-name="Grupo 317" transform="translate(12.424 14.288)">
    <g id="Grupo_105" data-name="Grupo 105" transform="translate(-12.424 59.096)">
      <g id="Grupo_136" data-name="Grupo 136" transform="translate(0 0)">
        <path id="Trazado_1954" data-name="Trazado 1954" d="M24.8,5.657a1.171,1.171,0,0,1-1.171-1.171V1.171a1.171,1.171,0,0,1,2.341,0V4.487A1.171,1.171,0,0,1,24.8,5.657" transform="translate(-17.48 0)" fill="#e5e5e5"/>
        <path id="Trazado_1955" data-name="Trazado 1955" d="M24.8,40.167A1.171,1.171,0,0,1,23.627,39V35.681a1.171,1.171,0,0,1,2.341,0V39A1.171,1.171,0,0,1,24.8,40.167" transform="translate(-17.48 -25.532)" fill="#e5e5e5"/>
        <path id="Trazado_1956" data-name="Trazado 1956" d="M39,25.969H35.682a1.171,1.171,0,1,1,0-2.341H39a1.171,1.171,0,0,1,0,2.341" transform="translate(-25.533 -17.481)" fill="#e5e5e5"/>
        <path id="Trazado_1957" data-name="Trazado 1957" d="M4.486,25.969H1.171a1.171,1.171,0,1,1,0-2.341H4.486a1.171,1.171,0,1,1,0,2.341" transform="translate(0 -17.481)" fill="#e5e5e5"/>
      </g>
    </g>
    <g id="Grupo_321" data-name="Grupo 321" transform="matrix(0.985, -0.174, 0.174, 0.985, 8.333, -6.778)">
      <path id="Trazado_2061" data-name="Trazado 2061" d="M1.864,312.695c-1.94-1.153-2.214-2.352-1.513-4.488A19.877,19.877,0,0,1,5.7,300.223c10.628-10.49,21.147-21.09,31.706-31.65.152-.152.3-.306.457-.456.723-.707.774-.7,1.153.218q1.561,3.791,3.11,7.588c.558,1.364,1.08,2.745,1.688,4.088a1.288,1.288,0,0,1-.329,1.687c-3.2,3.147-6.356,6.332-9.529,9.5q-10.233,10.233-20.465,20.469c-.324.325-.617.682-.924,1.023Z" transform="translate(0 -218.246)" fill="#ffba03"/>
      <path id="Trazado_2062" data-name="Trazado 2062" d="M109.1,396.492a2.022,2.022,0,0,1,.631-.776q12.341-12.349,24.687-24.692c.92-.92.925-.919,1.412.272q4.239,10.355,8.474,20.712c.879,2.152.515,3.263-1.445,4.485Z" transform="translate(-88.977 -302.043)" fill="#ffba03"/>
      <path id="Trazado_2063" data-name="Trazado 2063" d="M83.693,0a3.268,3.268,0,0,1,1.922,3.451c-.077,1.333-.016,2.674-.016,4.3,1.429-1.438,2.658-2.67,3.881-3.908a2.853,2.853,0,1,1,4.24,3.819c-1.041,1.128-2.162,2.183-3.245,3.273-.211.213-.411.436-.77.818,1.77,0,3.351,0,4.932,0a4.9,4.9,0,0,1,1.462.126,2.767,2.767,0,0,1,2.049,2.827A2.726,2.726,0,0,1,95.93,17.4a21.915,21.915,0,0,1-3.953.133c-.636.02-1.273,0-2.059,0A12.9,12.9,0,0,0,91.8,19.593c.57.6,1.181,1.167,1.752,1.768A2.973,2.973,0,0,1,93.7,25.51a2.823,2.823,0,0,1-4.134-.036c-2.017-1.936-3.969-3.94-5.949-5.915-.884-.882-.884-.881-1.748-.017Q79,22.411,76.128,25.278c-1.385,1.377-3.016,1.48-4.252.288s-1.16-2.945.22-4.332c1.146-1.151,2.319-2.276,3.474-3.408-.283-.429-.62-.279-.894-.284-1.444-.021-2.89.02-4.332-.032a2.886,2.886,0,0,1-2.781-1.782,2.687,2.687,0,0,1,.382-2.861,2.826,2.826,0,0,1,2.327-1.109c1.444-.011,2.889,0,4.333-.011a1.444,1.444,0,0,0,.939-.132,4.428,4.428,0,0,0-.958-1.08c-.9-.923-1.848-1.805-2.72-2.755a2.826,2.826,0,0,1-.014-4.058,2.865,2.865,0,0,1,4.129.072c1.062,1.023,2.086,2.086,3.138,3.12.208.2.36.5.808.564,0-1.4.057-2.77-.015-4.137A3.19,3.19,0,0,1,81.849,0Z" transform="translate(-54.897)" fill="#ffba03"/>
      <path id="Trazado_2064" data-name="Trazado 2064" d="M41.655,193.994c.882-2.169,1.708-4.21,2.542-6.247Q51.5,169.884,58.8,152.018c.581-1.428,1.282-2.63,3.026-2.633s2.457,1.215,3.028,2.637q2.542,6.325,5.165,12.618a1.32,1.32,0,0,1-.317,1.691Q56.122,179.86,42.578,193.425a1.345,1.345,0,0,1-.923.569" transform="translate(-33.971 -121.828)" fill="#ffba03"/>
    </g>
    <g id="Grupo_106" data-name="Grupo 106" transform="translate(76.957 -10.71)">
      <g id="Grupo_137" data-name="Grupo 137" transform="translate(0 0)">
        <path id="Trazado_1954-2" data-name="Trazado 1954" d="M25.341,8.28a1.714,1.714,0,0,1-1.714-1.714V1.714a1.714,1.714,0,0,1,3.427,0V6.567A1.714,1.714,0,0,1,25.341,8.28" transform="translate(-14.63 0)" fill="#e5e5e5"/>
        <path id="Trazado_1955-2" data-name="Trazado 1955" d="M25.341,42.79a1.714,1.714,0,0,1-1.714-1.714V36.224a1.714,1.714,0,0,1,3.427,0v4.853a1.714,1.714,0,0,1-1.714,1.714" transform="translate(-14.63 -21.369)" fill="#e5e5e5"/>
        <path id="Trazado_1956-2" data-name="Trazado 1956" d="M41.077,27.055H36.225a1.714,1.714,0,1,1,0-3.427h4.853a1.714,1.714,0,1,1,0,3.427" transform="translate(-21.37 -14.631)" fill="#e5e5e5"/>
        <path id="Trazado_1957-2" data-name="Trazado 1957" d="M6.566,27.055H1.714a1.714,1.714,0,1,1,0-3.427H6.566a1.714,1.714,0,1,1,0,3.427" transform="translate(0 -14.631)" fill="#e5e5e5"/>
      </g>
    </g>
  </g>
</svg>
