<svg xmlns="http://www.w3.org/2000/svg" width="110.802" height="100.103" viewBox="0 0 110.802 100.103">
  <g id="Grupo_317" data-name="Grupo 317" transform="translate(12.424 10.71)">
    <g id="Grupo_105" data-name="Grupo 105" transform="translate(-12.424 59.096)">
      <g id="Grupo_136" data-name="Grupo 136" transform="translate(0 0)">
        <path id="Trazado_1954" data-name="Trazado 1954" d="M24.8,5.657a1.171,1.171,0,0,1-1.171-1.171V1.171a1.171,1.171,0,0,1,2.341,0V4.487A1.171,1.171,0,0,1,24.8,5.657" transform="translate(-17.48 0)" fill="#e5e5e5"/>
        <path id="Trazado_1955" data-name="Trazado 1955" d="M24.8,40.167A1.171,1.171,0,0,1,23.627,39V35.681a1.171,1.171,0,0,1,2.341,0V39A1.171,1.171,0,0,1,24.8,40.167" transform="translate(-17.48 -25.532)" fill="#e5e5e5"/>
        <path id="Trazado_1956" data-name="Trazado 1956" d="M39,25.969H35.682a1.171,1.171,0,1,1,0-2.341H39a1.171,1.171,0,0,1,0,2.341" transform="translate(-25.533 -17.481)" fill="#e5e5e5"/>
        <path id="Trazado_1957" data-name="Trazado 1957" d="M4.486,25.969H1.171a1.171,1.171,0,1,1,0-2.341H4.486a1.171,1.171,0,1,1,0,2.341" transform="translate(0 -17.481)" fill="#e5e5e5"/>
      </g>
    </g>
    <g id="Grupo_106" data-name="Grupo 106" transform="translate(76.957 -10.71)">
      <g id="Grupo_137" data-name="Grupo 137" transform="translate(0 0)">
        <path id="Trazado_1954-2" data-name="Trazado 1954" d="M25.341,8.28a1.714,1.714,0,0,1-1.714-1.714V1.714a1.714,1.714,0,0,1,3.427,0V6.567A1.714,1.714,0,0,1,25.341,8.28" transform="translate(-14.63 0)" fill="#e5e5e5"/>
        <path id="Trazado_1955-2" data-name="Trazado 1955" d="M25.341,42.79a1.714,1.714,0,0,1-1.714-1.714V36.224a1.714,1.714,0,0,1,3.427,0v4.853a1.714,1.714,0,0,1-1.714,1.714" transform="translate(-14.63 -21.369)" fill="#e5e5e5"/>
        <path id="Trazado_1956-2" data-name="Trazado 1956" d="M41.077,27.055H36.225a1.714,1.714,0,1,1,0-3.427h4.853a1.714,1.714,0,1,1,0,3.427" transform="translate(-21.37 -14.631)" fill="#e5e5e5"/>
        <path id="Trazado_1957-2" data-name="Trazado 1957" d="M6.566,27.055H1.714a1.714,1.714,0,1,1,0-3.427H6.566a1.714,1.714,0,1,1,0,3.427" transform="translate(0 -14.631)" fill="#e5e5e5"/>
      </g>
    </g>
    <g id="Grupo_327" data-name="Grupo 327" transform="translate(6.393 -10.71)">
      <path id="Trazado_2070" data-name="Trazado 2070" d="M17,168.851c-3.694-1.159-7.465-2.034-11.194-3.066-1.41-.391-2.83-.751-4.234-1.163-1.2-.351-1.762-1.189-1.509-2.131a1.781,1.781,0,0,1,2.395-1.215c1.735.437,3.465.9,5.182,1.394.655.19.915.022,1.089-.634q3.012-11.366,6.085-22.715c.176-.649.007-.911-.555-1.2a13.347,13.347,0,0,1-6.434-17.331c3.681-8.9,7.479-17.751,11.235-26.62a1.932,1.932,0,0,1,2.707-1.335Q28.7,94.668,35.62,96.544a1.9,1.9,0,0,1,1.6,2.461q-1.774,14.322-3.553,28.643A13.458,13.458,0,0,1,19.1,139.506c-.8-.061-.83.4-.963.9l-5.177,19.322c-.253.942-.462,1.9-.774,2.822-.3.9-.136,1.351.868,1.567,1.62.348,3.207.843,4.812,1.264.835.219,1.541.581,1.7,1.523a1.835,1.835,0,0,1-1.007,1.947Z" transform="translate(0 -68.748)" fill="#ffba03"/>
      <path id="Trazado_2071" data-name="Trazado 2071" d="M182.462,62.021a13.557,13.557,0,0,1-6.573,11.6c-.644.4-.815.717-.543,1.461q3.978,10.863,7.866,21.76c.3.833.636.955,1.413.644,1.6-.639,3.234-1.2,4.859-1.778,1.264-.45,2.221-.112,2.616.9.388.993-.128,1.911-1.4,2.376q-7.429,2.711-14.868,5.392a3.885,3.885,0,0,1-.466.145,1.779,1.779,0,0,1-2.231-1.075,1.727,1.727,0,0,1,1.11-2.2c1.665-.656,3.346-1.276,5.048-1.826.813-.263.971-.571.668-1.395q-3.986-10.86-7.88-21.754c-.229-.638-.454-.954-1.23-.823a13.647,13.647,0,0,1-15.341-11.155c-1.833-9.219-3.863-18.4-5.8-27.6-.32-1.519.011-2.182,1.478-2.72q6.738-2.469,13.5-4.875c1.378-.492,2.023-.176,2.8,1.3q4.285,8.118,8.549,16.247c1.8,3.431,3.709,6.8,5.349,10.312a14.241,14.241,0,0,1,1.079,5.061" transform="translate(-110.952 -21.421)" fill="#ffba03"/>
      <path id="Trazado_2072" data-name="Trazado 2072" d="M100.725,18.2a1.665,1.665,0,0,1-1.194,1.538,1.587,1.587,0,0,1-2.007-.78c-.467-.854-.845-1.758-1.246-2.648q-1.723-3.828-3.433-7.662c-.053-.119-.109-.237-.153-.359a1.794,1.794,0,0,1,.789-2.345,1.742,1.742,0,0,1,2.368.9c.567,1.135,1.062,2.3,1.58,3.463q1.474,3.3,2.939,6.6a3.069,3.069,0,0,1,.355,1.29" transform="translate(-68.641 -4.279)" fill="#ffba03"/>
      <path id="Trazado_2073" data-name="Trazado 2073" d="M138.836,2.244c-.384,2.026-.818,4.325-1.258,6.624-.165.862-.314,1.729-.526,2.58a1.752,1.752,0,0,1-2,1.446,1.726,1.726,0,0,1-1.382-2.046q.836-4.754,1.812-9.483A1.651,1.651,0,0,1,137.445.027c.9.154,1.415.866,1.39,2.217" transform="translate(-99.118 0)" fill="#ffba03"/>
      <path id="Trazado_2074" data-name="Trazado 2074" d="M57.452,37.886a2.137,2.137,0,0,1,1.3.319c2.653,1.584,5.311,3.158,7.944,4.775a1.671,1.671,0,0,1,.823,2.241,1.7,1.7,0,0,1-2.016.966,2.328,2.328,0,0,1-.628-.259c-2.624-1.569-5.259-3.12-7.858-4.729-1.406-.87-1.436-2.438-.118-3.13a2.551,2.551,0,0,1,.551-.182" transform="translate(-41.488 -28.097)" fill="#ffba03"/>
    </g>
  </g>
</svg>
