<svg xmlns="http://www.w3.org/2000/svg" width="110.802" height="84.442" viewBox="0 0 110.802 84.442">
  <g id="Grupo_317" data-name="Grupo 317" transform="translate(12.424 10.71)">
    <g id="Grupo_105" data-name="Grupo 105" transform="translate(-12.424 59.096)">
      <g id="Grupo_136" data-name="Grupo 136" transform="translate(0 0)">
        <path id="Trazado_1954" data-name="Trazado 1954" d="M24.8,5.657a1.171,1.171,0,0,1-1.171-1.171V1.171a1.171,1.171,0,0,1,2.341,0V4.487A1.171,1.171,0,0,1,24.8,5.657" transform="translate(-17.48 0)" fill="#e5e5e5"/>
        <path id="Trazado_1955" data-name="Trazado 1955" d="M24.8,40.167A1.171,1.171,0,0,1,23.627,39V35.681a1.171,1.171,0,0,1,2.341,0V39A1.171,1.171,0,0,1,24.8,40.167" transform="translate(-17.48 -25.532)" fill="#e5e5e5"/>
        <path id="Trazado_1956" data-name="Trazado 1956" d="M39,25.969H35.682a1.171,1.171,0,1,1,0-2.341H39a1.171,1.171,0,0,1,0,2.341" transform="translate(-25.533 -17.481)" fill="#e5e5e5"/>
        <path id="Trazado_1957" data-name="Trazado 1957" d="M4.486,25.969H1.171a1.171,1.171,0,1,1,0-2.341H4.486a1.171,1.171,0,1,1,0,2.341" transform="translate(0 -17.481)" fill="#e5e5e5"/>
      </g>
    </g>
    <g id="Grupo_106" data-name="Grupo 106" transform="translate(76.957 -10.71)">
      <g id="Grupo_137" data-name="Grupo 137" transform="translate(0 0)">
        <path id="Trazado_1954-2" data-name="Trazado 1954" d="M25.341,8.28a1.714,1.714,0,0,1-1.714-1.714V1.714a1.714,1.714,0,0,1,3.427,0V6.567A1.714,1.714,0,0,1,25.341,8.28" transform="translate(-14.63 0)" fill="#e5e5e5"/>
        <path id="Trazado_1955-2" data-name="Trazado 1955" d="M25.341,42.79a1.714,1.714,0,0,1-1.714-1.714V36.224a1.714,1.714,0,0,1,3.427,0v4.853a1.714,1.714,0,0,1-1.714,1.714" transform="translate(-14.63 -21.369)" fill="#e5e5e5"/>
        <path id="Trazado_1956-2" data-name="Trazado 1956" d="M41.077,27.055H36.225a1.714,1.714,0,1,1,0-3.427h4.853a1.714,1.714,0,1,1,0,3.427" transform="translate(-21.37 -14.631)" fill="#e5e5e5"/>
        <path id="Trazado_1957-2" data-name="Trazado 1957" d="M6.566,27.055H1.714a1.714,1.714,0,1,1,0-3.427H6.566a1.714,1.714,0,1,1,0,3.427" transform="translate(0 -14.631)" fill="#e5e5e5"/>
      </g>
    </g>
    <g id="Grupo_324" data-name="Grupo 324" transform="translate(9.896 -2.317) rotate(8)">
      <path id="Trazado_2065" data-name="Trazado 2065" d="M0,20.4c1.084-2.157,2.439-2.512,4.46-1.165l14.094,9.395c.228.152.462.3.754.483,1.057-1.366,2.1-2.709,3.138-4.055Q31.588,13.2,40.729,1.344c1.38-1.791,3.129-1.793,4.513,0Q55.667,14.861,66.09,28.379c.185.24.375.475.59.748l8.692-5.794q3.069-2.047,6.138-4.1c2.014-1.346,3.379-.991,4.46,1.166v1.176a2.247,2.247,0,0,0-.152.384q-1.942,9.695-3.877,19.391c-.4,1.991-.8,3.982-1.2,5.956H5.255c-.065-.238-.127-.423-.165-.613Q3.217,37.329,1.345,27.962C.916,25.83.449,23.706,0,21.578V20.4M50.7,31.7l-.154-.022c0-.476.01-.951,0-1.427a7.586,7.586,0,0,0-6.784-7.324,7.487,7.487,0,0,0-8.16,6.04,22.108,22.108,0,0,0-.168,4.1,7.545,7.545,0,0,0,14.7,2.255A23.735,23.735,0,0,0,50.7,31.7" transform="translate(0 0)" fill="#ffba03"/>
      <path id="Trazado_2066" data-name="Trazado 2066" d="M66.937,57.023l-4.794,6.223-5.509-3.669c1.016-1.963,1.932-3.937,3.038-5.8a2.349,2.349,0,0,1,3.606-.393c1.251,1.155,2.421,2.4,3.66,3.638" transform="translate(-43.955 -40.92)" fill="#ffba03"/>
      <path id="Trazado_2067" data-name="Trazado 2067" d="M286.086,63.323a4.535,4.535,0,0,0-.238-.39c-1.5-1.948-2.993-3.893-4.523-5.88,1.241-1.236,2.411-2.48,3.667-3.63a2.427,2.427,0,0,1,3.806.67c.975,1.789,1.857,3.628,2.823,5.533l-5.535,3.7" transform="translate(-218.343 -40.961)" fill="#ffba03"/>
      <path id="Trazado_2068" data-name="Trazado 2068" d="M25.784,230.272h74.423v.935q0,3.736,0,7.472c0,2.16-.912,3.092-3.042,3.092q-34.168,0-68.337,0c-2.1,0-3.038-.931-3.042-3.007-.005-2.794,0-5.589,0-8.493" transform="translate(-20.01 -178.719)" fill="#ffba03"/>
      <path id="Trazado_2069" data-name="Trazado 2069" d="M185.69,128.577c0,.446.024.894,0,1.339a2.521,2.521,0,0,1-5.032.017c-.046-.918-.045-1.842,0-2.761a2.522,2.522,0,0,1,5.033-.017c.032.472,0,.948.005,1.422" transform="translate(-140.182 -96.867)" fill="#ffba03"/>
    </g>
  </g>
</svg>
