<svg id="Icon_ionic-ios-bowtie" data-name="Icon ionic-ios-bowtie" xmlns="http://www.w3.org/2000/svg" width="96.451" height="62.018" viewBox="0 0 96.451 62.018">
  <path id="Trazado_3546" data-name="Trazado 3546" d="M31.309,16.68c-1.034-1.83-2.972-2.433-5.34-2.433V14.2a28.653,28.653,0,0,0-4.867.624,13.837,13.837,0,0,0-4.242,1.529,58.273,58.273,0,0,1,.022,12.6c-.754,6.719-1.7,9.152-1.7,9.152s1.141,2.606,8.614,3.23c.84.065,1.637.108,2.369.108,5.276,0,7.838-1.572,7.838-1.572s.711-1.163.926-4.759C35.336,28.179,33.42,20.362,31.309,16.68Z" transform="translate(24.42 5.177)" fill="#e9ae69"/>
  <path id="Trazado_3547" data-name="Trazado 3547" d="M39.654,28.72C34.917,20.063,21.092,7.875,13.534,7.875,7.827,7.875,2.25,22.626,2.25,38.884S7.2,69.893,13.34,69.893c7.192,0,23.8-17.227,23.8-17.227a36.677,36.677,0,0,0,2.132-7.235l.388-2.24c.151-1.012.28-2.089.366-3.23q.1-1.131.129-2.132l.065-2.11A33.6,33.6,0,0,0,39.654,28.72Z" transform="translate(-2.25 -7.875)" fill="#e9ae69"/>
  <path id="Trazado_3548" data-name="Trazado 3548" d="M47.338,7.875C39.5,7.875,26.58,20.042,21.864,28.72l-.172.3s.3.538.409.732a23.707,23.707,0,0,1,2.024,5.168l.624,2.519a42.369,42.369,0,0,1,.9,6.934l.043,1.938c0,.624-.022,1.227-.065,1.83-.215,3.6-.991,4.759-.991,4.759,1.637,2.261,14.858,16.99,22.869,16.99,6.137,0,11.09-14.751,11.09-31.009S53.045,7.875,47.338,7.875Z" transform="translate(37.85 -7.875)" fill="#e9ae69"/>
</svg>
