<svg xmlns="http://www.w3.org/2000/svg" width="24.88" height="25" viewBox="0 0 24.88 25">
  <path id="Icon_akar-whatsapp-fill" data-name="Icon akar-whatsapp-fill" d="M18.141,14.981c-.31-.155-1.832-.9-2.116-1.007s-.49-.154-.7.156-.8,1.006-.979,1.212-.361.232-.671.078a8.5,8.5,0,0,1-2.49-1.536A9.318,9.318,0,0,1,9.467,11.74c-.18-.309-.02-.477.135-.631.14-.139.309-.361.465-.542a2.1,2.1,0,0,0,.309-.518.564.564,0,0,0-.026-.542c-.077-.155-.7-1.679-.954-2.3-.251-.6-.506-.521-.7-.531s-.387-.01-.594-.01a1.134,1.134,0,0,0-.825.387A3.467,3.467,0,0,0,6.2,9.636a6.023,6.023,0,0,0,1.264,3.2,13.8,13.8,0,0,0,5.287,4.674,17.686,17.686,0,0,0,1.765.651,4.226,4.226,0,0,0,1.95.123,3.191,3.191,0,0,0,2.09-1.472,2.6,2.6,0,0,0,.18-1.472c-.077-.129-.283-.206-.594-.361Zm-5.648,7.711h0a10.283,10.283,0,0,1-5.243-1.436l-.373-.222-3.9,1.023,1.041-3.8-.245-.39a10.3,10.3,0,1,1,8.723,4.825ZM21.255,3.633A12.391,12.391,0,0,0,1.757,18.58L0,25l6.567-1.723a12.376,12.376,0,0,0,5.921,1.508h.005A12.394,12.394,0,0,0,21.255,3.633" fill="#fff"/>
</svg>
