<svg xmlns="http://www.w3.org/2000/svg" width="25" height="25" viewBox="0 0 25 25">
  <path id="Icon_akar-instagram-fill" data-name="Icon akar-instagram-fill" d="M7.347.075C8.68.014,9.1,0,12.5,0s3.82.015,5.152.075a9.2,9.2,0,0,1,3.036.581,6.4,6.4,0,0,1,3.655,3.656,9.193,9.193,0,0,1,.582,3.034C24.986,8.681,25,9.106,25,12.5s-.015,3.82-.075,5.153a9.164,9.164,0,0,1-.582,3.034,6.382,6.382,0,0,1-3.655,3.656,9.193,9.193,0,0,1-3.034.582C16.32,24.986,15.9,25,12.5,25s-3.82-.015-5.153-.075a9.164,9.164,0,0,1-3.034-.582A6.133,6.133,0,0,1,2.1,22.9,6.127,6.127,0,0,1,.656,20.689a9.226,9.226,0,0,1-.581-3.034C.014,16.319,0,15.894,0,12.5S.015,8.68.075,7.348A9.2,9.2,0,0,1,.656,4.311,6.132,6.132,0,0,1,2.1,2.1,6.127,6.127,0,0,1,4.311.656,9.226,9.226,0,0,1,7.345.075Zm10.2,2.25c-1.318-.06-1.714-.073-5.051-.073s-3.733.013-5.051.073a6.909,6.909,0,0,0-2.322.431A3.882,3.882,0,0,0,3.69,3.69a3.877,3.877,0,0,0-.934,1.437,6.909,6.909,0,0,0-.431,2.322c-.06,1.318-.073,1.714-.073,5.051s.012,3.733.073,5.051a6.909,6.909,0,0,0,.431,2.322A3.88,3.88,0,0,0,3.69,21.31a3.88,3.88,0,0,0,1.438.934,6.909,6.909,0,0,0,2.322.431c1.318.06,1.712.073,5.051.073s3.733-.012,5.051-.073a6.909,6.909,0,0,0,2.322-.431,4.128,4.128,0,0,0,2.372-2.372,6.909,6.909,0,0,0,.431-2.322c.06-1.318.073-1.714.073-5.051s-.012-3.733-.073-5.051a6.909,6.909,0,0,0-.431-2.322A3.882,3.882,0,0,0,21.31,3.69a3.878,3.878,0,0,0-1.437-.934,6.909,6.909,0,0,0-2.322-.431ZM10.9,16.353A4.17,4.17,0,1,0,8.33,12.5,4.169,4.169,0,0,0,10.9,16.353Zm-2.947-8.4a6.425,6.425,0,1,1,0,9.086,6.425,6.425,0,0,1,0-9.086ZM20.35,7.032A1.519,1.519,0,1,0,18.233,7,1.519,1.519,0,0,0,20.35,7.032Z" transform="translate(0 25) rotate(-90)" fill="#fff"/>
</svg>
