<svg xmlns="http://www.w3.org/2000/svg" xmlns:xlink="http://www.w3.org/1999/xlink" width="100" height="100" viewBox="0 0 100 100">
  <defs>
    <clipPath id="clip-path">
      <rect id="Rect치ngulo_63" data-name="Rect치ngulo 63" width="52.841" height="41.98" fill="none"/>
    </clipPath>
  </defs>
  <g id="Grupo_59" data-name="Grupo 59" transform="translate(-989 -8737)">
    <rect id="Rect치ngulo_60" data-name="Rect치ngulo 60" width="100" height="100" rx="20" transform="translate(989 8737)" fill="#7fc6ba"/>
    <g id="Grupo_65" data-name="Grupo 65" transform="translate(1013 8766)">
      <g id="Grupo_63" data-name="Grupo 63" clip-path="url(#clip-path)">
        <path id="Trazado_27" data-name="Trazado 27" d="M52.842,6.234V8.4c-.022.135-.054.269-.065.405q-.374,4.544-.745,9.089Q51.519,24.082,51,30.268A4.1,4.1,0,0,1,47.7,34.287a5.834,5.834,0,0,1-1.85.01c-.4-.048-.521.082-.517.466.014,1.1.022,2.2,0,3.3a3.988,3.988,0,0,1-3.942,3.91q-18.751.012-37.5,0A3.882,3.882,0,0,1,1.229,40.9,4.728,4.728,0,0,1,0,38.846V13.871a4.1,4.1,0,0,1,4.427-3.234c.619,0,1.24-.027,1.857.008.5.029.657-.2.7-.658.167-1.761.351-3.521.541-5.28a12.242,12.242,0,0,1,.258-1.731C8.32.893,10.26-.232,12.638.04c1.825.209,3.661.327,5.493.479,2.294.19,4.589.366,6.883.558,2.653.222,5.305.458,7.959.681,2.26.189,4.521.365,6.781.551,2.791.23,5.581.459,8.37.7a8.262,8.262,0,0,1,2.034.3,4.226,4.226,0,0,1,2.683,2.922M22.616,25.26H2.807c-.688,0-.7.013-.7.688q0,5.83,0,11.659a1.906,1.906,0,0,0,2.186,2.175q18.34,0,36.68,0c1.525,0,2.157-.637,2.158-2.167q0-5.778,0-11.556c0-.8,0-.8-.807-.8H22.616M25.6,10.637q7.686,0,15.373,0a4.057,4.057,0,0,1,4.373,4.381q0,7.867,0,15.734c0,1.238,0,1.238,1.189,1.4a1.89,1.89,0,0,0,2.256-1.874c.035-.583.09-1.165.139-1.747q.289-3.44.581-6.879c.187-2.242.367-4.485.556-6.727.217-2.567.448-5.133.658-7.7a1.834,1.834,0,0,0-1.1-1.773A3.891,3.891,0,0,0,48.4,5.235q-2.774-.222-5.547-.452c-2.294-.191-4.587-.389-6.88-.58-2.259-.188-4.519-.371-6.778-.559q-3.414-.285-6.828-.576c-1.882-.159-3.764-.324-5.647-.477-1.66-.135-3.321-.281-4.984-.373A1.747,1.747,0,0,0,9.834,3.9C9.62,5.883,9.412,7.864,9.2,9.844c-.085.792-.089.792.714.792H25.6M22.589,23.056h19.5c.189,0,.378-.006.567,0a.413.413,0,0,0,.473-.472c0-1.049,0-2.1,0-3.147,0-.351-.165-.5-.507-.489-.172.006-.344,0-.516,0h-39c-.155,0-.31.01-.464,0-.4-.027-.554.148-.546.548.017.894,0,1.788.005,2.682s0,.883.882.883h19.6m.013-6.327H38.959c1.2,0,2.408-.009,3.612,0,.39,0,.574-.133.562-.538-.017-.567.011-1.136-.02-1.7a1.726,1.726,0,0,0-1.632-1.63c-.274-.019-.55-.016-.825-.016H4.639c-.258,0-.516,0-.774.011a1.765,1.765,0,0,0-1.671,1.364,4.031,4.031,0,0,0-.089,1.127c.021,1.587-.224,1.375,1.352,1.376q9.572.01,19.144,0" transform="translate(-0.001 0)" fill="#fff"/>
        <path id="Trazado_28" data-name="Trazado 28" d="M208.443,204.873c1.53,0,3.06,0,4.59,0,1.077,0,1.453.388,1.454,1.468q0,2.94,0,5.88c0,.91-.4,1.344-1.313,1.348q-4.719.021-9.438,0c-.954,0-1.369-.448-1.374-1.416q-.014-2.914,0-5.828c0-1.025.425-1.447,1.441-1.452,1.547-.007,3.094,0,4.642,0m-.013,2.217c-1.081,0-2.163.018-3.244-.008-.479-.011-.632.168-.621.634.025,1.029.021,2.06,0,3.089-.008.43.164.568.58.565q3.27-.019,6.539,0c.446,0,.616-.164.609-.6-.016-1.012-.021-2.026,0-3.038.012-.5-.194-.658-.675-.647-1.064.024-2.128.008-3.192.008" transform="translate(-174.51 -176.68)" fill="#fff"/>
      </g>
    </g>
  </g>
</svg>
