<svg xmlns="http://www.w3.org/2000/svg" xmlns:xlink="http://www.w3.org/1999/xlink" width="100" height="100" viewBox="0 0 100 100">
  <defs>
    <clipPath id="clip-path">
      <rect id="Rect치ngulo_62" data-name="Rect치ngulo 62" width="45" height="44.944" fill="none"/>
    </clipPath>
  </defs>
  <g id="Grupo_60" data-name="Grupo 60" transform="translate(-341 -8732)">
    <rect id="Rect치ngulo_58" data-name="Rect치ngulo 58" width="100" height="100" rx="20" transform="translate(341 8732)" fill="#7fc6ba"/>
    <g id="Grupo_62" data-name="Grupo 62" transform="translate(368.5 8759.484)">
      <g id="Grupo_61" data-name="Grupo 61" clip-path="url(#clip-path)">
        <path id="Trazado_24" data-name="Trazado 24" d="M18.582,4.026c-.5-.456-.984-.858-1.419-1.309a1.5,1.5,0,0,1-.341-1.674A1.554,1.554,0,0,1,18.187.01a1.475,1.475,0,0,1,1.247.438c1.408,1.4,2.831,2.793,4.211,4.223a1.585,1.585,0,0,1-.852,2.691,3.679,3.679,0,0,1-.776.06c-4.66,0-9.321.039-13.981-.013a4.693,4.693,0,0,0-4.73,4.012,5.61,5.61,0,0,0-.041.779c0,6.844.021,13.688-.013,20.532a4.7,4.7,0,0,0,4.774,4.8c1.888-.057,3.78-.013,5.67-.008a3.957,3.957,0,0,1,.776.067,1.616,1.616,0,0,1,1.3,1.657A1.573,1.573,0,0,1,14.3,40.757a64.881,64.881,0,0,1-7.617-.091A7.834,7.834,0,0,1,.069,33.737C.018,33.151,0,32.567,0,31.981q0-9.875,0-19.749A7.807,7.807,0,0,1,2.5,6.326,7.6,7.6,0,0,1,7.8,4.169c3.373-.023,6.746-.006,10.119-.01a1,1,0,0,0,.663-.133" transform="translate(0 0)" fill="#fff"/>
        <path id="Trazado_25" data-name="Trazado 25" d="M165.717,68.71c.467.423.957.824,1.393,1.277a1.49,1.49,0,0,1,.347,1.63,1.554,1.554,0,0,1-1.34,1.065,1.442,1.442,0,0,1-1.256-.408c-1.423-1.412-2.856-2.814-4.248-4.255a1.584,1.584,0,0,1,.867-2.686,3.746,3.746,0,0,1,.777-.058c4.66,0,9.321,0,13.981-.005a4.555,4.555,0,0,0,4.71-3.956,4.737,4.737,0,0,0,.052-.827c0-6.844-.019-13.688.012-20.532a4.7,4.7,0,0,0-4.783-4.787c-1.888.057-3.78.012-5.67.009a3.862,3.862,0,0,1-.633-.039,1.614,1.614,0,0,1,.237-3.217c2.037-.012,4.074,0,6.111-.007a8.3,8.3,0,0,1,2.171.29,7.879,7.879,0,0,1,5.754,6.812c.047.488.065.974.065,1.463q0,10,0,19.994a7.806,7.806,0,0,1-2.5,5.9,7.611,7.611,0,0,1-5.306,2.152c-3.357.024-6.714.007-10.07.007h-.534l-.135.175" transform="translate(-139.266 -27.753)" fill="#fff"/>
        <path id="Trazado_26" data-name="Trazado 26" d="M126.9,87.911a1.8,1.8,0,0,0,1.36,1.811c1.525.521,3.061,1.01,4.584,1.535a5.082,5.082,0,0,1-.684,9.86c-.447.067-.585.246-.547.664a5.19,5.19,0,0,1,0,.83,1.612,1.612,0,0,1-1.576,1.45,1.509,1.509,0,0,1-1.581-1.467c.114-1.081-.264-1.5-1.307-1.822a5.158,5.158,0,0,1-3.367-3.428,1.609,1.609,0,1,1,3-1.166,2.611,2.611,0,0,0,2.771,1.79c.569-.022,1.14,0,1.71-.008a1.85,1.85,0,0,0,.632-3.606c-1.518-.539-3.053-1.032-4.583-1.54a5.089,5.089,0,0,1,.55-9.9c.425-.065.616-.2.568-.645a5.108,5.108,0,0,1,0-.781,1.6,1.6,0,0,1,1.606-1.519,1.512,1.512,0,0,1,1.557,1.493c-.105,1.053.26,1.474,1.284,1.784a5.174,5.174,0,0,1,3.378,3.418,1.615,1.615,0,0,1-.935,2.122,1.586,1.586,0,0,1-2.071-.956,2.561,2.561,0,0,0-2.684-1.767c-.635.019-1.271-.009-1.905.012a1.78,1.78,0,0,0-1.758,1.838" transform="translate(-107.521 -69.542)" fill="#fff"/>
      </g>
    </g>
  </g>
</svg>
