<svg xmlns="http://www.w3.org/2000/svg" width="28.757" height="28.019" viewBox="0 0 28.757 28.019">
  <path id="Trazado_17" data-name="Trazado 17" d="M6.358,23.913c2.21-1.694,4.453-3.344,6.711-4.973-.67,2.609-1.317,5.224-1.9,7.854-.177.8,1.042.953,1.55.877A2.008,2.008,0,0,0,14.475,26.3c.579-2.6,1.219-5.188,1.881-7.769L21.6,27.141a2.039,2.039,0,0,0,2.246.8,1.169,1.169,0,0,0,.865-1.667l-5.477-9c2.075.165,4.153.3,6.235.376a1.968,1.968,0,0,0,1.959-1.367,1.247,1.247,0,0,0-1.294-1.47c-2.207-.078-4.408-.225-6.606-.406,2.648-1.805,5.317-3.583,8.022-5.3.537-.342,1.393-1.138,1.171-1.869s-1.228-.4-1.669-.12c-3.151,2-6.253,4.077-9.327,6.2Q19.416,7.2,21.391,1.176c.568-1.723-2.722-1.376-3.143-.1-1.058,3.211-2.035,6.448-2.972,9.7L12.871,6.825a2.041,2.041,0,0,0-2.246-.8A1.17,1.17,0,0,0,9.759,7.69l3.716,6.1q-5.58-.7-11.1-1.842A2.051,2.051,0,0,0,.153,12.9a1.2,1.2,0,0,0,.755,1.768Q6.9,15.92,12.976,16.657c-2.645,1.9-5.269,3.823-7.853,5.8-.449.344-1.144,1.265-.685,1.833.481.6,1.513-.069,1.92-.381" transform="translate(0 0)" fill="#f1b20a"/>
</svg>
