<svg xmlns="http://www.w3.org/2000/svg" width="177.343" height="177.485" viewBox="0 0 177.343 177.485">
  <path id="Trazado_58" data-name="Trazado 58" d="M163.022,119.842c3.636,5.309,7.25,10.633,10.919,15.92,1.816,2.616,4.7,5.217,2.763,8.591-2.112,3.675-5.941,2.67-9.648,2.693-17.995.114-34.348-7.376-51.478-11.1-5.216-1.135-6.992-.322-9.49,3.312-7.815,11.367-15.809,22.611-23.732,33.907a4.835,4.835,0,0,1-1.506,3.224,2.655,2.655,0,0,1-.89.456,4.922,4.922,0,0,1-3-.27c-16.035,4.37-23.147-.418-25.8-15.919-1.819-10.611-1.075-21.048.187-31.446.827-6.814-2.594-10.575-7.678-12.106-12.08-3.637-22.711-11.079-35.5-12.9A9.559,9.559,0,0,1,.2,96.226a11.005,11.005,0,0,1,5.854-11.81c11.008-5.78,20.984-14.253,33.836-15.728,8.169-.938,9.426-5.907,10.751-12.714C53.519,41.2,55.71,26.328,59.352,11.627,61.366,3.5,64.128.533,68.173.633a15.332,15.332,0,0,1,5.5,1.454c1.032.443,2.122.974,3.278,1.577a21.155,21.155,0,0,1,3.376,1.607,15.553,15.553,0,0,1,6.338,6.924A21.3,21.3,0,0,1,88.391,18.2a39.84,39.84,0,0,1,.333,6.776q3.422,5.733,6.846,11.464l9.816,6.586q6.07-1.081,12.142-2.166c1.633-2.146,3.614-2.565,5.955-1.208l6.23-.593c2.713-4.2,5.85-4.427,9.38-1.014,6.239.918,12.254-.43,18.19-2.032,3.933-1.06,7.993-2.48,10.836,1.5,2.41,3.375-.366,6.648-1.351,9.919-3.526,11.7-11.208,21.744-19.545,29-9.742,8.48-11.527,13.772-2.346,22.485,1.8,1.709,3.016,4.039,4.5,6.083,3.947-1.086,3.944.94,2.941,3.752l3.121,2.905C160.8,111.753,161.426,116.249,163.022,119.842Zm-39.5-20.216c-6.422-4.849-5.46-9.06-.5-14.281,9.612-10.123,18.576-20.8,26.55-34.486-7.029.822-12.393,1.243-17.685,2.109-11.424,1.868-22.358,6.114-34.187,6.3-5.017.081-7.781-.142-9.159-5.831a38.664,38.664,0,0,0-2.528-7.172C82.874,39.5,78.043,33.626,73.2,27.847c.059-.08.1-.167.158-.248h0c-.106-.083-.213-.165-.32-.247h0q-.066-.624-.133-1.249l-.692.614.825.636h0c.012.114.025.229.036.344l.2-.068-.2.068c.041.05.084.1.127.151,0,0,0,0,0,0-7.377,9.977-5.866,21.857-5.691,32.938.134,8.463-2.807,11.962-9.807,15.8-11.1,6.083-23.366,7.646-34.939,11.7-2.264.793-5.282,1.522-5.331,4.631-.052,3.325,3.016,3.371,5.367,4.292q18.184,7.119,36.242,14.56c8.471,3.48,12.048,9.564,10.892,19.019-1.107,9.056-1.084,18.25-1.558,27.385,9.693-9.672,17.813-19.45,24.184-30.264,4.53-7.687,9.8-9.019,17.938-8.4,12.728.971,24.195,6.871,37.072,8.271C137.553,119.808,133.483,107.145,123.524,99.626Z" transform="translate(-0.005 -0.63)" fill="#e9e9e9" fill-rule="evenodd"/>
</svg>
