<svg xmlns="http://www.w3.org/2000/svg" width="97.525" height="97.604" viewBox="0 0 97.525 97.604">
  <path id="Trazado_62" data-name="Trazado 62" d="M7.883,66.188c-2,2.919-3.987,5.847-6,8.755-1,1.438-2.585,2.869-1.519,4.724,1.161,2.021,3.267,1.468,5.306,1.481,9.9.063,18.889-4.056,28.309-6.106,2.868-.624,3.845-.177,5.219,1.821,4.3,6.251,8.694,12.434,13.051,18.646a2.659,2.659,0,0,0,.828,1.773,1.46,1.46,0,0,0,.489.251,2.707,2.707,0,0,0,1.649-.148c8.818,2.4,12.729-.23,14.19-8.754,1-5.835.591-11.575-.1-17.293-.455-3.747,1.426-5.816,4.222-6.657,6.643-2,12.489-6.093,19.523-7.092A5.257,5.257,0,0,0,97.423,53.2,6.052,6.052,0,0,0,94.2,46.706C88.15,43.527,82.664,38.868,75.6,38.057c-4.492-.516-5.183-3.248-5.912-6.992C68.1,22.943,66.9,14.762,64.893,6.678c-1.107-4.47-2.626-6.1-4.851-6.046a8.431,8.431,0,0,0-3.026.8c-.568.244-1.167.536-1.8.867a11.633,11.633,0,0,0-1.857.884A8.553,8.553,0,0,0,49.871,6.99a11.712,11.712,0,0,0-.947,3.3,21.909,21.909,0,0,0-.183,3.726q-1.882,3.153-3.765,6.3l-5.4,3.622L32.9,22.754a2.262,2.262,0,0,0-3.275-.664L26.2,21.764c-1.492-2.312-3.217-2.434-5.158-.558-3.431.505-6.739-.237-10-1.117-2.163-.583-4.4-1.364-5.959.827-1.325,1.856.2,3.656.743,5.455A35.307,35.307,0,0,0,16.571,42.319c5.357,4.663,6.339,7.574,1.29,12.365a23.192,23.192,0,0,0-2.475,3.345c-2.171-.6-2.169.517-1.617,2.064l-1.716,1.6C9.106,61.74,8.761,64.212,7.883,66.188ZM29.6,55.07c3.532-2.667,3-4.982.276-7.853a100.223,100.223,0,0,1-14.6-18.965c3.866.452,6.815.683,9.725,1.16,6.282,1.027,12.3,3.362,18.8,3.466,2.759.045,4.279-.078,5.037-3.206a21.262,21.262,0,0,1,1.39-3.944C51.958,22,54.615,18.776,57.279,15.6c-.033-.044-.053-.092-.087-.136h0l.176-.136h0q.036-.343.073-.687l.381.337-.454.349h0c-.006.063-.013.126-.02.189l-.111-.038.11.038-.07.083h0c4.057,5.487,3.226,12.02,3.13,18.114-.074,4.654,1.544,6.578,5.393,8.687,6.107,3.345,12.849,4.2,19.214,6.432,1.245.436,2.9.837,2.932,2.547.028,1.828-1.659,1.854-2.951,2.36q-10,3.915-19.931,8.007C60.407,63.659,58.44,67,59.076,72.2c.609,4.98.6,10.036.857,15.06a83.485,83.485,0,0,1-13.3-16.643c-2.491-4.227-5.39-4.96-9.864-4.618-7,.534-13.305,3.778-20.387,4.548C21.889,66.169,24.127,59.205,29.6,55.07Z" transform="translate(-0.005 -0.63)" fill="#e9e9e9" fill-rule="evenodd"/>
</svg>
