<svg xmlns="http://www.w3.org/2000/svg" width="70.463" height="68.654" viewBox="0 0 70.463 68.654">
  <path id="Trazado_74" data-name="Trazado 74" d="M15.579,58.594C20.994,54.443,26.49,50.4,32.022,46.409c-1.641,6.393-3.227,12.8-4.662,19.244-.434,1.95,2.554,2.335,3.8,2.149,1.881-.279,3.872-1.412,4.308-3.371,1.419-6.375,2.986-12.712,4.609-19.035L52.927,66.5a5,5,0,0,0,5.5,1.964c1.717-.487,3.206-2.3,2.121-4.084L47.13,42.34c5.085.4,10.176.741,15.276.921a4.822,4.822,0,0,0,4.8-3.349c.465-2.046-1.247-3.534-3.172-3.6-5.407-.192-10.8-.552-16.187-1,6.489-4.424,13.027-8.779,19.657-12.994,1.315-.837,3.413-2.788,2.869-4.58s-3.009-.983-4.09-.294c-7.72,4.907-15.322,9.991-22.854,15.181q4.143-14.972,8.983-29.745c1.391-4.221-6.669-3.371-7.7-.236-2.594,7.869-4.987,15.8-7.281,23.763q-2.948-4.842-5.894-9.683a5,5,0,0,0-5.5-1.964c-1.717.487-3.206,2.3-2.121,4.084L33.018,33.8Q19.344,32.084,5.824,29.289A5.026,5.026,0,0,0,.376,31.615a2.932,2.932,0,0,0,1.85,4.333Q16.9,39.008,31.8,40.816c-6.48,4.65-12.911,9.367-19.243,14.219-1.1.844-2.8,3.1-1.678,4.492,1.179,1.458,3.706-.168,4.7-.933" transform="translate(0 0)" fill="#f1b20a"/>
</svg>
