<svg xmlns="http://www.w3.org/2000/svg" width="207.288" height="107.017" viewBox="0 0 207.288 107.017">
  <path id="Trazado_60" data-name="Trazado 60" d="M207.314,35.662c-1.1,6.926-3.211,15.374-9.388,19.552-4.187,2.833-10.268,3.507-15.16,2.673-4.272-.728-5.748-3.776-6.7-7.67a79.119,79.119,0,0,1-1.722-28.039c.441-3.747,1.263-7.247,5.237-8.519a22.968,22.968,0,0,1,8.8-.949,9.687,9.687,0,0,1,3.24-.721c2.143-.26,4.938-.574,6.938.418C207.169,16.675,208.684,27.072,207.314,35.662Zm-15.626-19.2a13.744,13.744,0,0,1-5.01-.023,11.58,11.58,0,0,0-.942,3.532,73.841,73.841,0,0,0-.731,11.737c.084,6.762.651,14.436,3.126,20.8a8.766,8.766,0,0,0,.664,1.363,19.259,19.259,0,0,0,4.526-6.9C196.96,38.045,199.153,23.87,191.688,16.465Zm-27.8,61.208c-1.355.3-4.709,1.226-5.758-.075Q148.006,65.044,138.58,51.956c-7.214,10.672-14.194,21.48-19.2,33.377-1.1,2.622-11.428.309-11.218-.189,6.26-14.869,15.592-28.042,24.62-41.366q-9.945-14.272-19.077-29.1c-.434-.707,9.514-4.75,10.962-2.393q6.907,11.243,14.311,22.16c6.546-10.15,12.478-20.627,16.352-32.22.848-2.537,11.473-.574,11.218.189-4.926,14.742-13.178,27.677-21.791,40.426q11.627,16.58,24.342,32.362C169.729,75.989,164.275,77.589,163.892,77.673ZM91.957,74.16c-4.188,2.833-10.269,3.506-15.161,2.673-4.271-.728-5.747-3.776-6.7-7.67a79.146,79.146,0,0,1-1.721-28.04c.441-3.746,1.263-7.246,5.236-8.518a22.968,22.968,0,0,1,8.8-.949,9.693,9.693,0,0,1,3.241-.721c2.143-.26,4.937-.574,6.938.417,8.614,4.269,10.129,14.666,8.759,23.256C100.239,61.534,98.134,69.981,91.957,74.16ZM85.719,35.41a13.75,13.75,0,0,1-5.011-.022,11.6,11.6,0,0,0-.942,3.532,73.722,73.722,0,0,0-.73,11.737c.084,6.761.65,14.436,3.125,20.8a8.949,8.949,0,0,0,.664,1.363,19.243,19.243,0,0,0,4.527-6.9C90.99,56.99,93.184,42.815,85.719,35.41ZM56.205,99.1c-1.355.3-4.709,1.226-5.758-.074Q40.319,86.47,30.893,73.383C23.679,84.054,16.7,94.862,11.69,106.759c-1.1,2.623-11.428.31-11.218-.188C6.732,91.7,16.064,78.528,25.092,65.2q-9.945-14.271-19.077-29.1c-.434-.707,9.514-4.75,10.963-2.392q6.906,11.241,14.31,22.159C37.834,45.725,43.766,35.248,47.64,23.655c.848-2.538,11.473-.574,11.218.189C53.931,38.586,45.68,51.52,37.067,64.27Q48.694,80.848,61.409,96.632C62.042,97.416,56.588,99.016,56.205,99.1Z" transform="translate(-0.469 -0.971)" fill="#e9e9e9" fill-rule="evenodd"/>
</svg>
