<svg xmlns="http://www.w3.org/2000/svg" width="100" height="90" viewBox="0 0 100 90">
  <g id="Icon_material-camera-alt" data-name="Icon material-camera-alt" transform="translate(-3 -3)">
    <path id="Trazado_3562" data-name="Trazado 3562" d="M51.232,32.216A19.016,19.016,0,1,1,32.216,13.2,19.016,19.016,0,0,1,51.232,32.216Z" transform="translate(20.784 20.264)" fill="#fff"/>
    <path id="Trazado_3563" data-name="Trazado 3563" d="M38,3,28.85,13H13A10.029,10.029,0,0,0,3,23V83A10.029,10.029,0,0,0,13,93H93a10.029,10.029,0,0,0,10-10V23A10.029,10.029,0,0,0,93,13H77.15L68,3ZM53,78A25,25,0,1,1,78,53,25.009,25.009,0,0,1,53,78Z" fill="#fff"/>
  </g>
</svg>
