<svg xmlns="http://www.w3.org/2000/svg" width="112.5" height="90" viewBox="0 0 112.5 90">
  <path id="Icon_awesome-user-check" data-name="Icon awesome-user-check" d="M39.375,45a22.5,22.5,0,1,0-22.5-22.5A22.5,22.5,0,0,0,39.375,45Zm15.75,5.625H52.189a30.6,30.6,0,0,1-25.629,0H23.625A23.631,23.631,0,0,0,0,74.25v7.313A8.44,8.44,0,0,0,8.438,90H70.312a8.44,8.44,0,0,0,8.438-8.437V74.25A23.631,23.631,0,0,0,55.125,50.625ZM111.9,28.055l-4.887-4.939a2.085,2.085,0,0,0-2.953-.018L85.641,41.379l-8-8.051a2.085,2.085,0,0,0-2.953-.018l-4.939,4.9a2.085,2.085,0,0,0-.018,2.953L84.094,55.635a2.085,2.085,0,0,0,2.953.018l24.838-24.645a2.1,2.1,0,0,0,.018-2.953Z" fill="#c18fd2"/>
</svg>
