<svg xmlns="http://www.w3.org/2000/svg" xmlns:xlink="http://www.w3.org/1999/xlink" width="395.143" height="364.364" viewBox="0 0 395.143 364.364">
  <defs>
    <clipPath id="clip-path">
      <rect id="Rectángulo_24" data-name="Rectángulo 24" width="395.143" height="364.364" fill="none"/>
    </clipPath>
  </defs>
  <g id="CORAZONES" opacity="0.75">
    <g id="Grupo_14" data-name="Grupo 14" clip-path="url(#clip-path)">
      <path id="Trazado_3565" data-name="Trazado 3565" d="M80.623,38.345c3.879-7.063,6.326-16.589.969-22.609-5.268-5.92-15.094-4.685-21.871-.578C53,19.23,47.861,25.4,42.852,31.45a102.735,102.735,0,0,0-8.018-19.676c-2.279-4.268-5.105-8.6-9.5-10.628C17.773-2.35,8.545,2.627,4.145,9.7A27.64,27.64,0,0,0,.011,23.461c-.266,9.647,4.515,18.7,9.954,26.671a145.654,145.654,0,0,0,16.092,19.66c2,2.047,4.141,4.09,6.823,5.084,6.88,2.551,21.1-8.277,26.554-12.329a75.741,75.741,0,0,0,21.189-24.2" transform="translate(310.458 0)" fill="#fff"/>
      <path id="Trazado_3566" data-name="Trazado 3566" d="M388.955,138.2c15.976-11.883,32.935-28.736,39.639-47.885,1.716-4.9,2.694-10.4.762-15.227-2.925-7.306-11.481-8.418-17.844-5.1-5.192,2.707-8.869,7.558-12.367,12.253L387.568,97.777a90.917,90.917,0,0,0,1.882-32.931c-1.018-8.047-7.193-9.873-13.638-5.046-10.23,7.661-11.394,22.4-12.308,34.08-.758,9.7-.13,19.885-.122,29.77.009,10.776-1.772,20.406-4.055,30.764,2.293-1.321,4.891-1.773,7.276-2.858s4.715-2.245,7.023-3.509a132.088,132.088,0,0,0,15.329-9.848" transform="translate(-271.862 -19.523)" fill="#f0cdf5"/>
      <path id="Trazado_3567" data-name="Trazado 3567" d="M232.105,127.547c-1.859-7.947-5.465-15.375-11.761-18.749-7.694-4.122-17.759.419-22.575,7.7s-5.658,16.414-6.067,25.133c-2.721-6.528-5.575-13.253-10.677-18.15s-13.1-7.507-19.416-4.317c-5.595,2.827-8.392,9.342-9.111,15.569-1.612,13.971,5.172,27.914,15.087,37.888,11.6,11.67,28.466,18.25,42.8,25.98,9.716-16.512,21.938-32.212,23.259-51.916a67.939,67.939,0,0,0-1.538-19.136" transform="translate(61.117 -36.63)" fill="#f0cdf5"/>
      <path id="Trazado_3568" data-name="Trazado 3568" d="M443.584,306.9a10.266,10.266,0,0,0-.033-6.531c-.853-2.046-3.084-3.641-5.246-3.152-2.038.46-3.3,2.461-4.226,4.332a57.633,57.633,0,0,0-3.927,10.269,111.175,111.175,0,0,0-3.763-14.165c-1.1-3.036-2.615-6.15-5.371-7.833a4.225,4.225,0,0,0-1.956-.691c-1.84-.091-3.278,1.574-4.089,3.228-3.253,6.634-1.2,14.6,1.669,21.41a93.548,93.548,0,0,0,6.478,12.758c1.888,3.068,3.249,4.291,6.015,1.422,5.634-5.845,12.325-13.046,14.45-21.046" transform="translate(-321.092 -98.761)" fill="#fff"/>
      <path id="Trazado_3569" data-name="Trazado 3569" d="M257.257,517.295c.75.516,1.506,1.005,2.253,1.472,5.979,3.732,12.13,7.14,18.091,10.921a.643.643,0,0,0,1.044-.185c7.293-8.95,21.89-39.835,3.141-44.735-4.094-1.07-8.4,1.879-10.226,5.7s-1.74,8.246-1.414,12.465a33.136,33.136,0,0,0-8.756-6.878c-3.564-1.931-8.153-.968-11.217,1.588-7.546,6.292,1.626,15.9,7.086,19.657" transform="translate(-58.658 -165.514)" fill="#f0cdf5"/>
      <path id="Trazado_3570" data-name="Trazado 3570" d="M74.505,215.1a7.759,7.759,0,0,0,.7-4.6c-.674-2.594-3.878-3.845-6.495-3.266s-4.724,2.469-6.612,4.372a89.121,89.121,0,0,0-8.927,10.516,112.093,112.093,0,0,0,.45-18.489c-.173-2.98-.647-6.3-3-8.139-3.534-2.761-8.8-.345-11.877,2.92-8.384,8.9-9.317,22.322-9.236,34.552.063,9.485.528,19.275,4.6,27.84a2.565,2.565,0,0,0,1.355,1.516,2.675,2.675,0,0,0,2.256-.809c15.745-12.229,30.837-26.429,36.786-46.409" transform="translate(300.38 -66.367)" fill="#fff"/>
      <path id="Trazado_3571" data-name="Trazado 3571" d="M397.627,474.8c-1.239-5.591-1.142-11.066,1.6-15.231,3.628-5.518,11.47-5.072,16.4-1.72,4.249,2.888,7.02,7.451,9.479,11.962.158-6.888,6.556-21.314,15.6-19.54,2.006.393,3.411,2.181,4.448,3.943,6.238,10.613,4.654,22.651.51,33.694-.861,2.3-13.376,27.865-11.89,28.586-9.61-4.668-20.42-11.578-26.547-20.591-3.4-5-7.844-13.169-9.6-21.1" transform="translate(-315.473 -153.755)" fill="#fff"/>
      <path id="Trazado_3572" data-name="Trazado 3572" d="M522.269,384.951a45.781,45.781,0,0,1-9.486-15.248c-2.788-8-2.965-25.107,9.62-24.409,8.557.475,16.275,12.389,20.458,18.723-3.5-5.3-3.6-19.176.285-24.018,4.739-5.9,14.529-6.4,19.442-.523,6.7,8.012,5.421,22.162,3.434,31.6-1.454,6.907-3.445,13.785-3.473,20.844-.032,7.763,2.956,12.742,7.228,18.723-2.522.839-5.735-.535-8.144-1.454-14.3-5.458-26.963-11.21-37.768-22.515q-.81-.848-1.6-1.723" transform="translate(-511.24 -114.538)" fill="#f0cdf5"/>
      <path id="Trazado_3573" data-name="Trazado 3573" d="M300.184,392.154c-15.674-4.88-29.634-13.678-33.252-28.717a16.919,16.919,0,0,1,.516-10.589c1.849-4.29,6.03-7.251,10.5-8.6,7.18-2.162,15.07-.591,21.8,2.711s12.52,8.215,18.229,13.077a56.1,56.1,0,0,1-4.144-27.852c.478-4.434,1.883-9.353,5.828-11.431,5.117-2.7,11.378.975,15.027,5.463a33.783,33.783,0,0,1,7.477,22.173c-.535,16.634-5.415,32.08-4.573,49.144a131.549,131.549,0,0,1-37.415-5.381" transform="translate(-122.402 -109.252)" fill="#f0cdf5"/>
      <path id="Trazado_3574" data-name="Trazado 3574" d="M193.385,344.243a30.042,30.042,0,0,0,4.92-13.087c.535-5.544-3.58-13.582-10.216-10.721a14.111,14.111,0,0,0-7.727,9.991c.684-3.516-5.443-8.944-8.351-10.015-3.935-1.448-7.677.167-9.053,4.2-3.744,10.971,4.327,22.975,11.953,30.212,5.224,4.958,8.845.452,12.678-3.5a48.288,48.288,0,0,0,5.8-7.077" transform="translate(90.121 -109.252)" fill="#fff"/>
      <path id="Trazado_3575" data-name="Trazado 3575" d="M304.59,208.975c2.288-2.579,5.657-4.538,9.065-4.016s6.034,3.39,7.55,6.493c2.923,5.982,2.711,12.989,1.921,19.6l4.712-11.09c1.906-4.487,3.945-9.155,7.711-12.25s9.816-4,13.363-.657c3.386,3.192,3.151,8.637,1.944,13.132-4.233,16.416-16.421,23.869-28.972,33.505a2.292,2.292,0,0,1-1.231.6,2.247,2.247,0,0,1-1.346-.577C307.029,244.7,291.7,223.5,304.59,208.975" transform="translate(-153.855 -69.982)" fill="#fff"/>
      <path id="Trazado_3576" data-name="Trazado 3576" d="M509.165,258.927c5.346-4.342,9.777-10.162,11.136-16.914.321-1.6.43-3.394-.506-4.729-1.207-1.72-3.688-2-5.735-1.529-5.957,1.373-9.648,7.168-12.7,12.467a43.687,43.687,0,0,0-.3-11.477c-.772-3.761-2.682-7.447-5.9-9.537s-7.866-2.182-10.687.422c-3.4,3.135-3.038,8.707-1.123,12.913,2.278,5.007,6.25,9.049,8.926,13.855a19.8,19.8,0,0,1,2.341,6.626c.306,2.046-.551,4.737.329,6.42,5-1.669,10.143-5.206,14.218-8.517" transform="translate(-442.685 -77.081)" fill="#f0cdf5"/>
      <path id="Trazado_3577" data-name="Trazado 3577" d="M279.548,44.623c2.639-6.362,3.771-13.589,1.756-20.174-.477-1.56-1.235-3.191-2.694-3.92-1.879-.94-4.195-.007-5.772,1.382-4.588,4.039-5.081,10.893-5.244,17a43.67,43.67,0,0,0-5.721-9.955c-2.466-2.942-5.9-5.276-9.727-5.584s-7.958,1.821-9.2,5.452c-1.5,4.373,1.467,9.1,5.151,11.895,4.386,3.322,9.8,4.989,14.44,7.945a19.8,19.8,0,0,1,5.21,4.717c1.242,1.655,1.767,4.428,3.341,5.491,3.6-3.844,6.448-9.4,8.46-14.252" transform="translate(-46.887 -6.882)" fill="#f0cdf5"/>
    </g>
  </g>
</svg>
