<svg xmlns="http://www.w3.org/2000/svg" xmlns:xlink="http://www.w3.org/1999/xlink" width="405.594" height="374" viewBox="0 0 405.594 374">
  <defs>
    <clipPath id="clip-path">
      <rect id="Rectángulo_24" data-name="Rectángulo 24" width="405.594" height="374" fill="none"/>
    </clipPath>
  </defs>
  <g id="CORAZONES" opacity="0.75">
    <g id="Grupo_14" data-name="Grupo 14" clip-path="url(#clip-path)">
      <path id="Trazado_3566" data-name="Trazado 3566" d="M389.739,140.343c16.4-12.2,33.806-29.5,40.688-49.152,1.762-5.034,2.765-10.679.783-15.63-3-7.5-11.784-8.641-18.316-5.236-5.33,2.779-9.1,7.758-12.694,12.577L388.315,98.852a93.322,93.322,0,0,0,1.932-33.8c-1.045-8.26-7.383-10.134-14-5.18-10.5,7.864-11.7,22.988-12.634,34.981-.779,9.953-.134,20.411-.125,30.558.009,11.061-1.819,20.945-4.162,31.578,2.353-1.356,5.021-1.82,7.469-2.933s4.84-2.3,7.208-3.6a135.583,135.583,0,0,0,15.734-10.108" transform="translate(-269.548 -18.527)" fill="#c18fd2"/>
      <path id="Trazado_3567" data-name="Trazado 3567" d="M234.217,128.084c-1.909-8.157-5.61-15.781-12.072-19.245-7.9-4.231-18.229.43-23.172,7.9s-5.807,16.848-6.227,25.8c-2.793-6.7-5.722-13.6-10.96-18.631s-13.45-7.706-19.929-4.431c-5.743,2.9-8.614,9.589-9.352,15.981-1.655,14.34,5.309,28.652,15.486,38.891,11.908,11.978,29.219,18.733,43.931,26.667,9.973-16.949,22.519-33.063,23.874-53.289a69.736,69.736,0,0,0-1.579-19.642" transform="translate(66.761 -34.763)" fill="#c18fd2"/>
      <path id="Trazado_3569" data-name="Trazado 3569" d="M257.52,518.161c.77.529,1.546,1.032,2.313,1.511,6.137,3.831,12.451,7.329,18.57,11.21a.66.66,0,0,0,1.071-.19c7.485-9.187,22.469-40.888,3.224-45.918-4.2-1.1-8.622,1.929-10.5,5.847s-1.786,8.464-1.452,12.795a34.012,34.012,0,0,0-8.988-7.06c-3.658-1.982-8.369-.993-11.514,1.63-7.746,6.459,1.669,16.323,7.273,20.177" transform="translate(-53.668 -157.076)" fill="#c18fd2"/>
      <path id="Trazado_3572" data-name="Trazado 3572" d="M522.561,386.264a46.991,46.991,0,0,1-9.737-15.651c-2.861-8.215-3.043-25.771,9.875-25.055,8.784.487,16.705,12.716,21,19.218-3.591-5.437-3.7-19.683.293-24.654,4.864-6.058,14.913-6.564,19.956-.537,6.88,8.223,5.564,22.748,3.524,32.437-1.493,7.089-3.536,14.15-3.565,21.4-.032,7.969,3.034,13.079,7.419,19.218-2.588.862-5.887-.549-8.359-1.492-14.681-5.6-27.676-11.506-38.767-23.111q-.831-.871-1.637-1.769" transform="translate(-511.24 -108.699)" fill="#c18fd2"/>
      <path id="Trazado_3573" data-name="Trazado 3573" d="M301.079,394.066c-16.089-5.009-30.418-14.04-34.131-29.476a17.366,17.366,0,0,1,.529-10.869c1.9-4.4,6.189-7.443,10.782-8.825,7.37-2.219,15.469-.606,22.38,2.783s12.851,8.432,18.712,13.423a57.581,57.581,0,0,1-4.254-28.589c.491-4.551,1.933-9.6,5.982-11.734,5.252-2.768,11.679,1,15.424,5.607a34.676,34.676,0,0,1,7.675,22.759c-.549,17.074-5.559,32.928-4.694,50.444a135.029,135.029,0,0,1-38.4-5.523" transform="translate(-118.595 -103.682)" fill="#c18fd2"/>
      <g id="Grupo_97" data-name="Grupo 97" transform="translate(83.544 0)">
        <path id="Trazado_3565" data-name="Trazado 3565" d="M82.756,39.359c3.981-7.25,6.493-17.028.995-23.207-5.407-6.076-15.493-4.809-22.45-.593-6.9,4.18-12.174,10.51-17.316,16.723a105.452,105.452,0,0,0-8.23-20.2C33.415,7.7,30.514,3.26,26.006,1.176,18.243-2.412,8.771,2.7,4.255,9.958A28.371,28.371,0,0,0,.011,24.082c-.273,9.9,4.635,19.192,10.217,27.376a149.506,149.506,0,0,0,16.518,20.18c2.051,2.1,4.25,4.2,7,5.219,7.062,2.618,21.661-8.5,27.257-12.655A77.744,77.744,0,0,0,82.756,39.359" transform="translate(235.125 0)" fill="#f0cdf5" opacity="0.38"/>
        <path id="Trazado_3568" data-name="Trazado 3568" d="M444.384,307.37a10.538,10.538,0,0,0-.034-6.7c-.875-2.1-3.166-3.737-5.385-3.236-2.092.472-3.385,2.526-4.338,4.446a59.156,59.156,0,0,0-4.031,10.541,114.121,114.121,0,0,0-3.862-14.54c-1.129-3.116-2.684-6.313-5.513-8.04a4.336,4.336,0,0,0-2.008-.71c-1.888-.093-3.364,1.616-4.2,3.313-3.339,6.81-1.227,14.986,1.713,21.977a96.027,96.027,0,0,0,6.649,13.1c1.938,3.149,3.335,4.4,6.174,1.46,5.783-6,12.651-13.391,14.832-21.6" transform="translate(-402.197 -93.726)" fill="#f0cdf5" opacity="0.38"/>
        <path id="Trazado_3570" data-name="Trazado 3570" d="M75.7,215.655a7.964,7.964,0,0,0,.714-4.725c-.691-2.663-3.981-3.947-6.666-3.353s-4.849,2.534-6.787,4.488a91.476,91.476,0,0,0-9.164,10.794,115.058,115.058,0,0,0,.462-18.978c-.178-3.059-.664-6.468-3.078-8.355-3.627-2.834-9.036-.354-12.191,3-8.605,9.14-9.563,22.913-9.48,35.466.065,9.736.542,19.785,4.724,28.577a2.633,2.633,0,0,0,1.391,1.556,2.746,2.746,0,0,0,2.315-.831C54.1,250.739,69.589,236.164,75.7,215.655" transform="translate(225.561 -62.984)" fill="#f0cdf5" opacity="0.38"/>
        <path id="Trazado_3571" data-name="Trazado 3571" d="M397.647,475.453c-1.272-5.739-1.173-11.359,1.639-15.634,3.724-5.664,11.773-5.207,16.836-1.766,4.362,2.964,7.206,7.648,9.73,12.278.162-7.071,6.729-21.877,16.016-20.057,2.059.4,3.5,2.238,4.565,4.048,6.4,10.894,4.777,23.25.524,34.585-.884,2.356-13.729,28.6-12.2,29.342-9.864-4.791-20.96-11.884-27.249-21.136-3.489-5.132-8.052-13.517-9.856-21.66" transform="translate(-396.864 -145.917)" fill="#f0cdf5" opacity="0.38"/>
        <path id="Trazado_3574" data-name="Trazado 3574" d="M194.215,344.889a30.836,30.836,0,0,0,5.05-13.433c.549-5.691-3.675-13.941-10.486-11a14.484,14.484,0,0,0-7.932,10.255c.7-3.609-5.587-9.18-8.572-10.279-4.039-1.487-7.88.171-9.292,4.308-3.843,11.261,4.442,23.583,12.269,31.011,5.362,5.089,9.079.464,13.013-3.593a49.567,49.567,0,0,0,5.949-7.264" transform="translate(13.245 -103.683)" fill="#f0cdf5" opacity="0.38"/>
        <path id="Trazado_3575" data-name="Trazado 3575" d="M304.719,209.084c2.348-2.647,5.807-4.658,9.3-4.123s6.193,3.479,7.75,6.664c3,6.141,2.782,13.332,1.972,20.119l4.836-11.384c1.957-4.606,4.049-9.4,7.915-12.574s10.075-4.107,13.717-.674c3.476,3.276,3.235,8.865,2,13.479-4.345,16.85-16.855,24.5-29.738,34.392a2.353,2.353,0,0,1-1.264.612,2.306,2.306,0,0,1-1.382-.592c-12.6-9.245-28.337-31.006-15.105-45.92" transform="translate(-233.541 -66.415)" fill="#f0cdf5" opacity="0.38"/>
      </g>
      <path id="Trazado_3576" data-name="Trazado 3576" d="M509.886,259.807c5.487-4.457,10.036-10.431,11.431-17.361.33-1.642.441-3.484-.52-4.854-1.239-1.766-3.785-2.053-5.887-1.569-6.114,1.41-9.9,7.358-13.033,12.8.243-3.933.484-7.921-.308-11.781s-2.753-7.644-6.059-9.789-8.074-2.24-10.969.433c-3.486,3.218-3.118,8.937-1.153,13.255,2.338,5.14,6.415,9.288,9.162,14.221a20.324,20.324,0,0,1,2.4,6.8c.314,2.1-.566,4.862.338,6.589,5.13-1.713,10.411-5.344,14.595-8.742" transform="translate(-441.648 -73.151)" fill="#c18fd2"/>
      <path id="Trazado_3577" data-name="Trazado 3577" d="M280.526,45.271c2.709-6.53,3.87-13.948,1.8-20.708-.49-1.6-1.268-3.275-2.766-4.024-1.929-.965-4.306-.007-5.924,1.419-4.71,4.146-5.215,11.181-5.382,17.454-1.656-3.576-3.34-7.2-5.872-10.219s-6.056-5.415-9.984-5.732-8.168,1.869-9.445,5.6c-1.537,4.488,1.506,9.345,5.287,12.209,4.5,3.41,10.06,5.121,14.822,8.155a20.319,20.319,0,0,1,5.348,4.842c1.275,1.7,1.814,4.546,3.43,5.636,3.7-3.945,6.618-9.651,8.684-14.629" transform="translate(-41.712 -6.532)" fill="#c18fd2"/>
    </g>
  </g>
</svg>
