<svg xmlns="http://www.w3.org/2000/svg" xmlns:xlink="http://www.w3.org/1999/xlink" width="527.674" height="486.571" viewBox="0 0 527.674 486.571">
  <defs>
    <clipPath id="clip-path">
      <rect id="Rectángulo_24" data-name="Rectángulo 24" width="527.674" height="486.571" fill="none"/>
    </clipPath>
  </defs>
  <g id="CORAZONES" opacity="0.75">
    <g id="Grupo_14" data-name="Grupo 14" clip-path="url(#clip-path)">
      <path id="Trazado_3565" data-name="Trazado 3565" d="M5.424,51.206C.244,41.774-3.024,29.052,4.13,21.014c7.035-7.905,20.157-6.256,29.207-.772C42.309,25.68,49.174,33.916,55.865,42A137.193,137.193,0,0,1,66.572,15.723c3.044-5.7,6.818-11.482,12.683-14.193,10.1-4.668,22.423,1.977,28.3,11.426a36.911,36.911,0,0,1,5.522,18.374c.355,12.883-6.03,24.969-13.292,35.616A194.507,194.507,0,0,1,78.292,93.2c-2.669,2.734-5.53,5.462-9.112,6.79C59.994,103.4,41,88.937,33.72,83.526a101.144,101.144,0,0,1-28.3-32.32" transform="translate(0 0)" fill="#fff"/>
      <path id="Trazado_3566" data-name="Trazado 3566" d="M414.7,165.383c-21.335-15.869-43.982-38.375-52.934-63.946-2.292-6.549-3.6-13.894-1.018-20.334,3.906-9.757,15.331-11.242,23.829-6.812,6.934,3.615,11.843,10.093,16.515,16.363L416.55,111.4a121.41,121.41,0,0,1-2.514-43.975c1.359-10.746,9.6-13.184,18.212-6.739C445.91,70.919,447.464,90.6,448.685,106.2c1.013,12.949.174,26.554.163,39.755-.012,14.39,2.367,27.25,5.414,41.083-3.062-1.765-6.532-2.368-9.717-3.816s-6.3-3-9.378-4.686a176.39,176.39,0,0,1-20.47-13.151" transform="translate(-43.39 -6.901)" fill="#f0cdf5"/>
      <path id="Trazado_3567" data-name="Trazado 3567" d="M154.491,134.36c2.483-10.612,7.3-20.531,15.705-25.037,10.274-5.5,23.716.559,30.147,10.281s7.555,21.92,8.1,33.563c3.634-8.717,7.445-17.7,14.259-24.238s17.5-10.025,25.928-5.765c7.471,3.775,11.207,12.475,12.167,20.791,2.153,18.657-6.906,37.277-20.147,50.6-15.492,15.584-38.013,24.371-57.154,34.693-12.974-22.051-29.3-43.015-31.06-69.329a90.726,90.726,0,0,1,2.054-25.554" transform="translate(-18.386 -12.949)" fill="#f0cdf5"/>
      <path id="Trazado_3568" data-name="Trazado 3568" d="M414.008,312.862c-.761-2.862-1.094-5.989.044-8.722s4.118-4.862,7.006-4.21c2.721.614,4.4,3.287,5.644,5.785a76.966,76.966,0,0,1,5.244,13.714,148.461,148.461,0,0,1,5.025-18.916c1.469-4.054,3.492-8.213,7.173-10.46a5.643,5.643,0,0,1,2.612-.923c2.457-.121,4.377,2.1,5.46,4.31,4.343,8.859,1.6,19.5-2.229,28.591a124.924,124.924,0,0,1-8.651,17.037c-2.522,4.1-4.339,5.73-8.032,1.9-7.524-7.806-16.459-17.421-19.3-28.1" transform="translate(-49.909 -34.913)" fill="#fff"/>
      <path id="Trazado_3569" data-name="Trazado 3569" d="M292.329,528.279c-1,.688-2.011,1.343-3.009,1.965-7.984,4.984-16.2,9.535-24.159,14.584a.859.859,0,0,1-1.394-.247c-9.739-11.952-29.232-53.2-4.194-59.74,5.467-1.429,11.217,2.509,13.656,7.607s2.323,11.012,1.889,16.646a44.249,44.249,0,0,1,11.693-9.185c4.759-2.579,10.888-1.292,14.98,2.12,10.077,8.4-2.172,21.236-9.462,26.25" transform="translate(-29.864 -58.511)" fill="#f0cdf5"/>
      <path id="Trazado_3570" data-name="Trazado 3570" d="M30.614,222.086c-.747-1.97-1.459-4.108-.929-6.148.9-3.464,5.179-5.135,8.673-4.362s6.309,3.3,8.829,5.838a119.013,119.013,0,0,1,11.922,14.043,149.69,149.69,0,0,1-.6-24.69c.231-3.979.863-8.415,4-10.869,4.719-3.687,11.756-.461,15.861,3.9,11.2,11.891,12.441,29.809,12.333,46.141-.084,12.666-.705,25.74-6.146,37.178a3.426,3.426,0,0,1-1.809,2.024c-1.063.323-2.135-.4-3.012-1.081-21.026-16.33-41.18-35.293-49.124-61.975" transform="translate(-3.562 -23.461)" fill="#fff"/>
      <path id="Trazado_3571" data-name="Trazado 3571" d="M465.888,483.078c1.655-7.467,1.525-14.777-2.132-20.34-4.845-7.369-15.316-6.774-21.9-2.3-5.675,3.856-9.375,9.95-12.659,15.974-.211-9.2-8.755-28.462-20.837-26.094-2.678.525-4.555,2.912-5.939,5.266-8.331,14.173-6.215,30.248-.681,44.995,1.15,3.065,17.862,37.211,15.878,38.174,12.833-6.233,27.269-15.461,35.45-27.5,4.54-6.676,10.475-17.586,12.823-28.18" transform="translate(-47.923 -54.354)" fill="#fff"/>
      <path id="Trazado_3572" data-name="Trazado 3572" d="M574.681,401.6c5.386-6.01,10.021-12.76,12.668-20.362,3.723-10.688,3.959-33.527-12.847-32.6-11.428.634-21.733,16.544-27.319,25,4.671-7.074,4.81-25.608-.381-32.074-6.328-7.882-19.4-8.54-25.963-.7-8.951,10.7-7.239,29.6-4.585,42.2,1.942,9.223,4.6,18.409,4.638,27.835.042,10.367-3.947,17.015-9.652,25,3.367,1.121,7.659-.714,10.875-1.941,19.1-7.289,36.007-14.969,50.435-30.067q1.081-1.133,2.13-2.3" transform="translate(-61.734 -40.49)" fill="#f0cdf5"/>
      <path id="Trazado_3573" data-name="Trazado 3573" d="M322.425,416.409c20.931-6.517,39.573-18.265,44.4-38.348,1.123-4.669,1.213-9.731-.688-14.141-2.47-5.728-8.052-9.683-14.027-11.481-9.588-2.887-20.125-.789-29.116,3.621s-16.719,10.97-24.344,17.463a74.912,74.912,0,0,0,5.534-37.194c-.638-5.921-2.515-12.49-7.783-15.265-6.833-3.6-15.194,1.3-20.067,7.3a45.113,45.113,0,0,0-9.985,29.609c.714,22.213,7.232,42.84,6.107,65.627,13.911,0,32.715-1.815,49.964-7.185" transform="translate(-32.161 -38.622)" fill="#f0cdf5"/>
      <path id="Trazado_3574" data-name="Trazado 3574" d="M168.644,352.429a40.118,40.118,0,0,1-6.57-17.477c-.714-7.4,4.781-18.137,13.642-14.317,5.269,2.272,9.242,7.806,10.319,13.342-.914-4.7,7.269-11.944,11.151-13.373,5.255-1.934,10.252.222,12.089,5.605,5,14.65-5.778,30.681-15.962,40.345-6.976,6.621-11.812.6-16.93-4.674a64.486,64.486,0,0,1-7.74-9.451" transform="translate(-19.564 -38.622)" fill="#fff"/>
      <path id="Trazado_3575" data-name="Trazado 3575" d="M362.573,210.351c-3.055-3.444-7.554-6.06-12.105-5.363s-8.057,4.526-10.082,8.67c-3.9,7.989-3.62,17.345-2.566,26.175q-3.145-7.405-6.292-14.81c-2.545-5.992-5.268-12.226-10.3-16.358s-13.108-5.343-17.845-.877c-4.522,4.263-4.208,11.534-2.6,17.537,5.653,21.922,21.928,31.874,38.689,44.743a3.061,3.061,0,0,0,1.644.8,3,3,0,0,0,1.8-.77c16.394-12.028,36.867-40.339,19.652-59.741" transform="translate(-36.19 -24.739)" fill="#fff"/>
      <path id="Trazado_3576" data-name="Trazado 3576" d="M497.089,270.086c-7.139-5.8-13.057-13.57-14.872-22.587-.429-2.136-.574-4.533.676-6.316,1.612-2.3,4.925-2.671,7.659-2.042,7.955,1.834,12.884,9.572,16.955,16.649-.317-5.117-.63-10.3.4-15.327s3.582-9.945,7.882-12.736,10.5-2.914,14.271.564c4.535,4.187,4.057,11.627,1.5,17.245-3.042,6.687-8.346,12.083-11.92,18.5a26.442,26.442,0,0,0-3.127,8.849c-.409,2.733.736,6.325-.44,8.573-6.673-2.229-13.545-6.952-18.987-11.373" transform="translate(-58.192 -27.249)" fill="#f0cdf5"/>
      <path id="Trazado_3577" data-name="Trazado 3577" d="M246.268,52.832c-3.524-8.5-5.035-18.147-2.345-26.941.637-2.084,1.649-4.261,3.6-5.235,2.509-1.256,5.6-.009,7.707,1.846,6.127,5.394,6.785,14.546,7,22.707,2.154-4.653,4.345-9.366,7.64-13.294s7.879-7.045,12.989-7.457,10.627,2.431,12.287,7.281c2,5.839-1.959,12.157-6.878,15.884-5.857,4.436-13.088,6.663-19.284,10.61a26.433,26.433,0,0,0-6.957,6.3c-1.658,2.21-2.36,5.914-4.462,7.332-4.811-5.133-8.61-12.556-11.3-19.032" transform="translate(-29.289 -2.433)" fill="#f0cdf5"/>
    </g>
  </g>
</svg>
