<svg width="1920" height="226" viewBox="0 0 1920 226" fill="none" xmlns="http://www.w3.org/2000/svg">
<g clip-path="url(#clip0_127_41)">
<mask id="mask0_127_41" style="mask-type:luminance" maskUnits="userSpaceOnUse" x="0" y="0" width="1920" height="226">
<path d="M1920 0H0V226H1920V0Z" fill="white"/>
</mask>
<g mask="url(#mask0_127_41)">
<mask id="mask1_127_41" style="mask-type:luminance" maskUnits="userSpaceOnUse" x="-118" y="-1324" width="2039" height="1762">
<path d="M1920.24 -1324H-118V437.22H1920.24V-1324Z" fill="white"/>
</mask>
<g mask="url(#mask1_127_41)">
<path opacity="0.6" d="M0.244995 78.3569V-1119.87H6.245V-1458.12C6.245 -1458.12 331.555 -1230.23 936.962 -1419.4C1542.37 -1608.57 1913.98 -1419.4 1913.98 -1419.4V-1119.87H1920.24V77.2489C1920.24 77.2489 1560.51 -110.815 963.581 78.3569C764.617 141.411 591.237 162.431 448.525 162.434C163.076 162.439 0.244995 78.3569 0.244995 78.3569Z" fill="#F0CDF5"/>
<path d="M956.908 86.2648C359.979 -85.1162 0.244995 85.2648 0.244995 85.2648V-1457.83C0.244995 -1457.83 366.653 -1629.21 963.582 -1457.83C1560.51 -1286.45 1920.24 -1456.83 1920.24 -1456.83V86.2648C1920.24 86.2648 1757.41 162.439 1471.96 162.434C1329.25 162.432 1155.87 143.389 956.908 86.2648Z" fill="#C18FD2"/>
<path d="M-116.936 -19.5156C-116.936 -19.5156 23.064 207.152 382.458 225.334C658.113 239.279 1180.85 29.1035 1589.45 41.2505C1713.18 44.9285 1826.65 69.1304 1919.43 126.365" stroke="#F0CDF5" stroke-width="2.5"/>
</g>
</g>
</g>
<defs>
<clipPath id="clip0_127_41">
<rect width="1920" height="226" fill="white"/>
</clipPath>
</defs>
</svg>
