<svg xmlns="http://www.w3.org/2000/svg" width="110" height="96.25" viewBox="0 0 110 96.25">
  <path id="Icon_awesome-gift" data-name="Icon awesome-gift" d="M6.875,91.625A6.868,6.868,0,0,0,13.75,98.5H48.125V64.125H6.875Zm55,6.875H96.25a6.868,6.868,0,0,0,6.875-6.875v-27.5H61.875Zm41.25-68.75H94.08a18.733,18.733,0,0,0,2.17-8.594A18.934,18.934,0,0,0,77.344,2.25c-8.937,0-14.717,4.576-22.129,14.674C47.8,6.826,42.023,2.25,33.086,2.25A18.934,18.934,0,0,0,14.18,21.156a18.47,18.47,0,0,0,2.17,8.594H6.875A6.868,6.868,0,0,0,0,36.625V53.813A3.448,3.448,0,0,0,3.438,57.25H106.563A3.448,3.448,0,0,0,110,53.813V36.625A6.868,6.868,0,0,0,103.125,29.75Zm-70.061,0a8.594,8.594,0,1,1,0-17.187c4.275,0,7.434.709,18.5,17.187Zm44.279,0h-18.5c11.043-16.436,14.115-17.187,18.5-17.187a8.594,8.594,0,1,1,0,17.187Z" transform="translate(0 -2.25)" fill="#fff"/>
</svg>
