<svg id="Icon_awesome-instagram" data-name="Icon awesome-instagram" xmlns="http://www.w3.org/2000/svg" width="82" height="81.981" viewBox="0 0 82 81.981">
  <path id="Icon_awesome-instagram-2" data-name="Icon awesome-instagram" d="M41,22.209A21.019,21.019,0,1,0,62.023,43.229,20.986,20.986,0,0,0,41,22.209Zm0,34.684A13.665,13.665,0,1,1,54.669,43.229,13.69,13.69,0,0,1,41,56.894ZM67.785,21.35a4.9,4.9,0,1,1-4.9-4.9A4.891,4.891,0,0,1,67.785,21.35Zm13.921,4.976C81.4,19.758,79.9,13.941,75.084,9.148c-4.793-4.793-10.61-6.293-17.177-6.622-6.769-.384-27.056-.384-33.824,0-6.549.311-12.366,1.811-17.177,6.6S.612,19.74.283,26.307C-.1,33.076-.1,53.363.283,60.132.594,66.7,2.094,72.516,6.905,77.309s10.61,6.293,17.177,6.622c6.769.384,27.056.384,33.824,0,6.567-.311,12.385-1.811,17.177-6.622,4.793-4.793,6.293-10.61,6.622-17.177.384-6.769.384-27.038,0-33.806ZM72.962,67.394a13.835,13.835,0,0,1-7.793,7.793c-5.4,2.14-18.2,1.646-24.166,1.646s-18.787.476-24.166-1.646a13.835,13.835,0,0,1-7.793-7.793C6.905,62,7.4,49.192,7.4,43.229S6.923,24.441,9.045,19.063a13.835,13.835,0,0,1,7.793-7.793C22.235,9.13,35.04,9.624,41,9.624s18.787-.476,24.166,1.646a13.835,13.835,0,0,1,7.793,7.793c2.14,5.4,1.646,18.2,1.646,24.166S75.1,62.016,72.962,67.394Z" transform="translate(0.005 -2.238)" fill="#c18fd2"/>
</svg>
