<svg width="44" height="40" viewBox="0 0 44 40" fill="none" xmlns="http://www.w3.org/2000/svg">
<g clip-path="url(#clip0_3_9)">
<path d="M4.78482 39.9988C4.14393 39.9988 3.82849 39.7263 3.72584 39.0847C3.50554 37.7148 3.30025 36.3437 3.08996 34.9725C2.59427 31.7407 2.10359 28.5088 1.60539 25.277C1.07841 21.8654 0.543917 18.4563 0.0181856 15.046C-0.0807019 14.402 0.224723 13.992 0.909426 13.8907C3.05992 13.5748 5.21291 13.2757 7.36466 12.9694C9.46508 12.6703 11.5655 12.364 13.6672 12.0734C14.0302 12.0228 14.1253 11.7912 14.2204 11.5115C15.4083 8.04686 16.6025 4.58347 17.7954 1.12008C17.823 1.0417 17.8505 0.963316 17.878 0.886137C18.1835 0.021496 18.544 -0.158185 19.4277 0.122793C21.771 0.87046 24.113 1.62054 26.455 2.36941C31.9376 4.12161 37.4202 5.8738 42.9016 7.626C44.0532 7.9938 44.1921 8.26272 43.8079 9.3794C41.223 16.8874 38.6382 24.3955 36.0521 31.9023C35.7216 32.861 35.3999 33.0165 34.3998 32.6982C33.163 32.3038 31.9238 31.9155 30.6921 31.5079C30.3254 31.3861 30.2139 31.4199 30.2878 31.8311C30.4756 32.8875 30.6133 33.9523 30.786 35.0123C30.94 35.9602 30.6971 36.2978 29.732 36.4365C23.1441 37.3844 16.5549 38.3334 9.96703 39.2813C8.34101 39.5152 6.71375 39.7431 5.08774 39.9723C4.96882 39.9891 4.84866 39.994 4.78482 40V39.9988ZM6.08663 18.7783C6.23308 19.7081 6.38204 20.6366 6.52474 21.5664C7.14811 25.6291 7.77272 29.6918 8.38983 33.7558C8.4399 34.0886 8.57134 34.1887 8.93684 34.1332C10.6617 33.8703 12.3917 33.64 14.1191 33.3928C17.5063 32.908 20.891 32.4124 24.2794 31.9409C24.7038 31.8818 24.8214 31.76 24.7438 31.3379C24.5298 30.1682 24.3683 28.9912 24.1868 27.8166C23.6048 24.0482 23.0214 20.2797 22.4481 16.51C22.4056 16.2338 22.3568 16.1084 22.0088 16.1591C16.8116 16.9103 11.6118 17.6484 6.41208 18.384C6.15047 18.4214 6.04031 18.5251 6.08538 18.7795L6.08663 18.7783ZM37.3251 11.5802C37.3564 11.3667 37.2012 11.3089 37.056 11.2606C36.6679 11.1304 36.2749 11.0122 35.8843 10.8868C31.3455 9.43366 26.8055 7.98777 22.2729 6.51776C21.8185 6.37064 21.6508 6.45505 21.5118 6.88918C21.1188 8.12042 20.6757 9.33598 20.2563 10.5588C20.0811 11.0689 20.1487 11.1461 20.7007 11.0665C22.3943 10.8217 24.0879 10.5769 25.7803 10.326C26.6152 10.203 26.9957 10.4744 27.1209 11.2859C27.8344 15.9046 28.5541 20.5221 29.2539 25.1419C29.3052 25.4796 29.4491 25.6279 29.7646 25.7195C30.3879 25.9016 31.0126 26.0861 31.6159 26.3189C32.0528 26.4865 32.243 26.4009 32.3932 25.9595C33.9917 21.2685 35.6102 16.5835 37.2224 11.8973C37.26 11.7876 37.2925 11.6767 37.3238 11.579L37.3251 11.5802Z" fill="white"/>
<path d="M10.0013 23.3753C10.0103 21.2234 12.4042 19.8439 14.3382 20.9531C14.6493 21.1315 14.7803 21.0816 15.0119 20.8489C16.0662 19.7929 17.773 19.7176 18.9056 20.6484C20.0841 21.6157 20.3628 23.2656 19.4864 24.4989C18.4892 25.9017 17.4372 27.2658 16.3964 28.6365C16.0729 29.062 15.7114 29.1118 15.2783 28.7971C13.8815 27.7821 12.4848 26.7671 11.1093 25.7233C10.3617 25.156 9.97445 24.3826 10.0013 23.3753Z" fill="white"/>
</g>
<defs>
<clipPath id="clip0_3_9">
<rect width="44" height="40" fill="white"/>
</clipPath>
</defs>
</svg>
