<svg xmlns="http://www.w3.org/2000/svg" width="50.502" height="50.148" viewBox="0 0 50.502 50.148">
  <g id="Grupo_108" data-name="Grupo 108" transform="translate(2.291 2.149)">
    <g id="Grupo_135" data-name="Grupo 135" transform="translate(-2.291 -2.149)">
      <path id="Trazado_1958" data-name="Trazado 1958" d="M94.448,231.091l-1.834,1.843a1.408,1.408,0,0,1-1.993,0l-.02-.02a1.408,1.408,0,0,1,0-1.994l1.786-1.776-1.844-1.826a1.408,1.408,0,0,1,0-2l.068-.068a1.408,1.408,0,0,1,1.991.006l1.779,1.79,1.835-1.846a1.408,1.408,0,0,1,1.994,0l.067.067a1.408,1.408,0,0,1,0,2l-1.789,1.77,1.847,1.827a1.408,1.408,0,0,1,0,2l-.066.066a1.408,1.408,0,0,1-1.991,0l-1.829-1.833" transform="translate(-76.962 -194.501)" fill="#f9ca4e"/>
      <path id="Trazado_1959" data-name="Trazado 1959" d="M218.355,97.672l-2.813-2.809a1.372,1.372,0,0,1,0-1.942l.02-.02a1.372,1.372,0,0,1,1.942,0l1.787,1.8,4.723-4.735a1.373,1.373,0,0,1,1.944,0l.057.057a1.372,1.372,0,0,1,0,1.941l-5.719,5.708a1.372,1.372,0,0,1-1.939,0" transform="translate(-185.985 -76.572)" fill="#f9ca4e"/>
      <path id="Trazado_1960" data-name="Trazado 1960" d="M33.154,0a15.716,15.716,0,0,0-15.63,17.3A15.7,15.7,0,1,0,31.34,31.315,15.71,15.71,0,1,0,33.154,0M28.734,32.9a13.02,13.02,0,1,1-10.668-12.81A15.776,15.776,0,0,0,28.552,30.732a13.058,13.058,0,0,1,.182,2.171m4.419-4.168A13.058,13.058,0,0,1,30.8,28.52a12.921,12.921,0,0,1-3.255-1.058,13.107,13.107,0,0,1-6.22-6.311,12.916,12.916,0,0,1-1.011-3.27A13.024,13.024,0,1,1,33.154,28.734" transform="translate(1.638 1.536)" fill="#7fc6ba"/>
      <g id="Grupo_134" data-name="Grupo 134">
        <path id="Trazado_1961" data-name="Trazado 1961" d="M61.281,42.594A1.081,1.081,0,0,1,60.2,41.514V38.453a1.081,1.081,0,0,1,2.161,0v3.061a1.081,1.081,0,0,1-1.081,1.081" transform="translate(-54.526 -37.372)" fill="#e5e5e5"/>
        <path id="Trazado_1962" data-name="Trazado 1962" d="M61.281,77.1A1.081,1.081,0,0,1,60.2,76.024V72.963a1.081,1.081,0,1,1,2.161,0v3.061A1.081,1.081,0,0,1,61.281,77.1" transform="translate(-54.526 -63.594)" fill="#e5e5e5"/>
        <path id="Trazado_1963" data-name="Trazado 1963" d="M75.225,63.16H72.165a1.081,1.081,0,1,1,0-2.161h3.061a1.081,1.081,0,1,1,0,2.161" transform="translate(-62.796 -55.325)" fill="#e5e5e5"/>
        <path id="Trazado_1964" data-name="Trazado 1964" d="M40.715,63.16H37.655a1.081,1.081,0,1,1,0-2.161h3.061a1.081,1.081,0,1,1,0,2.161" transform="translate(-36.574 -55.325)" fill="#e5e5e5"/>
      </g>
      <g id="Grupo_130" data-name="Grupo 130" transform="translate(39.1 36.946)">
        <path id="Trazado_1965" data-name="Trazado 1965" d="M322,281.268a.912.912,0,0,1-.912-.912v-2.583a.912.912,0,1,1,1.824,0v2.583a.912.912,0,0,1-.912.912" transform="translate(-316.301 -276.861)" fill="#e5e5e5"/>
        <path id="Trazado_1966" data-name="Trazado 1966" d="M322,322.422a.912.912,0,0,1-.912-.912v-2.583a.912.912,0,1,1,1.824,0v2.583a.912.912,0,0,1-.912.912" transform="translate(-316.301 -311.021)" fill="#e5e5e5"/>
        <path id="Trazado_1967" data-name="Trazado 1967" d="M337.563,306.861H334.98a.912.912,0,0,1,0-1.824h2.583a.912.912,0,0,1,0,1.824" transform="translate(-327.074 -300.248)" fill="#e5e5e5"/>
        <path id="Trazado_1968" data-name="Trazado 1968" d="M296.409,306.861h-2.583a.912.912,0,0,1,0-1.824h2.583a.912.912,0,0,1,0,1.824" transform="translate(-292.914 -300.248)" fill="#e5e5e5"/>
      </g>
    </g>
  </g>
</svg>
