<svg id="Grupo_161" data-name="Grupo 161" xmlns="http://www.w3.org/2000/svg" xmlns:xlink="http://www.w3.org/1999/xlink" width="24.467" height="29.835" viewBox="0 0 24.467 29.835">
  <defs>
    <clipPath id="clip-path">
      <rect id="Rectángulo_63" data-name="Rectángulo 63" width="24.467" height="29.835" fill="#fff"/>
    </clipPath>
  </defs>
  <g id="Grupo_160" data-name="Grupo 160" clip-path="url(#clip-path)">
    <path id="Trazado_2023" data-name="Trazado 2023" d="M17.012,127.061l-2.779,2.817a2.743,2.743,0,0,1-3.982.01l-2.773-2.8c-.1.092-.173.161-.246.233-.868.865-1.731,1.733-2.6,2.594a2.617,2.617,0,0,1-3.327.466A2.369,2.369,0,0,1,.05,128.4a17.315,17.315,0,0,1,.029-3,4,4,0,0,1,4.155-3.446c2.09-.008,4.18,0,6.27,0h.371v-2.7h2.7v2.675c.148.008.269.02.39.02h6.241a4.064,4.064,0,0,1,3.71,2.058,3.9,3.9,0,0,1,.548,2.029c0,.787.01,1.575-.034,2.36a2.642,2.642,0,0,1-2.794,2.358,2.833,2.833,0,0,1-1.819-.875c-.919-.923-1.835-1.848-2.8-2.824" transform="translate(0 -109.772)" fill="#fff"/>
    <path id="Trazado_2024" data-name="Trazado 2024" d="M24.5,255.468c.007.136.015.229.015.321q0,2.873,0,5.746a1.383,1.383,0,0,1-1.553,1.54H1.61a1.367,1.367,0,0,1-1.459-.963,1.88,1.88,0,0,1-.07-.517q-.007-2.946,0-5.892c0-.064.01-.129.019-.227.111.059.2.1.276.146a4.6,4.6,0,0,0,4.064.342,4.569,4.569,0,0,0,1.681-1.127l1.368-1.4c.1.092.176.159.249.23.464.457.912.932,1.395,1.369A4.765,4.765,0,0,0,15.508,255c.531-.495,1.007-1.049,1.528-1.6.514.516.966.968,1.418,1.423a4.648,4.648,0,0,0,3.211,1.453,4.6,4.6,0,0,0,2.41-.559c.134-.073.264-.152.429-.247" transform="translate(-0.071 -233.241)" fill="#fff"/>
    <path id="Trazado_2025" data-name="Trazado 2025" d="M122.47,0c.052.077.1.137.134.2.719,1.243,1.443,2.484,2.155,3.731a2.665,2.665,0,0,1-.3,3.286,2.612,2.612,0,0,1-2.9.725,2.711,2.711,0,0,1-1.778-2.25,2.662,2.662,0,0,1,.324-1.626c.755-1.323,1.52-2.641,2.281-3.961A1.157,1.157,0,0,1,122.47,0" transform="translate(-110.239)" fill="#fff"/>
  </g>
</svg>
