<svg width="30" height="22" viewBox="0 0 30 22" fill="none" xmlns="http://www.w3.org/2000/svg">
<g clip-path="url(#clip0_3_5)">
<path d="M14.6894 15.8295C14.2111 15.8682 13.7699 15.7358 13.3588 15.516C9.06615 13.2215 4.77599 10.9232 0.48331 8.62878C0.181553 8.46776 -0.00252658 8.26263 -4.93908e-06 7.91892C0.00251671 7.5729 0.202567 7.37628 0.500962 7.21759C1.93578 6.45277 3.36891 5.68331 4.80205 4.91695C7.63133 3.40281 10.4598 1.88866 13.2891 0.376067C14.2263 -0.124777 15.1677 -0.126326 16.1049 0.375293C20.3387 2.63954 24.5717 4.90612 28.8056 7.17037C29.0796 7.31745 29.3427 7.46607 29.3847 7.79662C29.436 8.19296 29.2502 8.44996 28.8795 8.64735C26.326 10.0059 23.7791 11.3753 21.2297 12.74C19.5175 13.6566 17.8028 14.5708 16.0906 15.4873C15.6586 15.7188 15.2038 15.8659 14.6886 15.8295H14.6894Z" fill="white"/>
<path d="M24.5953 14.6111C24.5953 15.2258 24.6272 15.8427 24.5877 16.4558C24.5305 17.3453 24.0203 17.9816 23.1857 18.4205C21.6096 19.2488 20.0378 20.0848 18.4702 20.9263C17.6095 21.3884 16.7303 21.7925 15.7275 21.9287C14.1826 22.1377 12.7377 21.8892 11.3869 21.1709C9.65116 20.2482 7.92047 19.3177 6.17886 18.4042C5.22231 17.9018 4.78607 17.1394 4.77766 16.1493C4.76926 15.0826 4.77346 14.0159 4.77598 12.9491C4.77682 12.5869 4.81885 12.566 5.1702 12.7533C7.56828 14.0352 9.97057 15.3094 12.3594 16.6045C13.9262 17.4544 15.4652 17.4544 17.032 16.606C19.4116 15.3171 21.8046 14.0476 24.1926 12.7711C24.5894 12.559 24.618 12.576 24.6188 13.0103C24.6205 13.5436 24.6188 14.077 24.6188 14.6104C24.6104 14.6104 24.602 14.6104 24.5944 14.6104L24.5953 14.6111Z" fill="white"/>
<path d="M29.2511 13.8759C29.2511 15.003 29.2553 16.1301 29.2477 17.2571C29.246 17.4638 29.2981 17.6202 29.4671 17.7735C30.0555 18.3068 30.1614 19.0701 29.7638 19.7211C29.394 20.3272 28.6013 20.6415 27.8448 20.4828C27.1094 20.3288 26.5361 19.6987 26.5075 18.9726C26.489 18.5011 26.6672 18.0831 27.0547 17.7642C27.2212 17.6272 27.2733 17.4785 27.2724 17.2796C27.2665 15.3428 27.2724 13.4068 27.264 11.47C27.2632 11.2253 27.3388 11.0728 27.5784 10.9552C28.0398 10.7291 28.4912 10.4845 28.9359 10.2314C29.1897 10.0874 29.2561 10.1455 29.2544 10.4025C29.2477 11.5605 29.2511 12.7178 29.2519 13.8759H29.2511Z" fill="white"/>
</g>
<defs>
<clipPath id="clip0_3_5">
<rect width="30" height="22" fill="white"/>
</clipPath>
</defs>
</svg>
