<svg width="40" height="30" viewBox="0 0 40 30" fill="none" xmlns="http://www.w3.org/2000/svg">
<g clip-path="url(#clip0_3_2)">
<path d="M0.0107426 27.4444V16.265C0.403239 15.7077 0.844648 15.5714 1.35406 15.8956C2.03287 16.3155 2.84411 16.5281 3.66728 16.5002C7.82965 16.4873 11.9908 16.4948 16.1484 16.4948H16.6614C16.6614 17.2583 16.6531 17.9584 16.6614 18.6596C16.6065 19.0709 16.9334 19.4435 17.3891 19.4918C17.438 19.4972 17.4882 19.4983 17.5371 19.4961C19.1762 19.5036 20.8154 19.5036 22.4534 19.4961C22.9067 19.5208 23.2969 19.2094 23.3243 18.8014C23.3243 18.7896 23.3255 18.7767 23.3255 18.7649C23.3422 18.6027 23.3326 18.4373 23.3338 18.2731V16.4927H36.4473C37.1666 16.5142 37.8753 16.337 38.4789 15.9869C39.178 15.5692 39.5491 15.6401 39.9893 16.2607V27.4401C39.9153 27.686 39.8246 27.9276 39.7185 28.1639C39.1625 29.3451 37.8359 30.0796 36.4139 29.9926C25.4681 29.9851 14.5212 29.9851 3.57422 29.9926C3.44419 29.9926 3.31415 29.9926 3.18411 29.9861C1.77519 29.9357 0.555942 29.0884 0.146744 27.8729C0.0978314 27.7301 0.0477255 27.5872 -0.00238037 27.4444" fill="white"/>
<path d="M0.0107422 12.4679V7.05488C0.0262511 7.03663 0.0513041 7.02159 0.0572691 7.00012C0.342395 5.44417 1.91715 4.35426 3.66131 4.50567H11.6687V3.14945C11.5745 1.49686 12.9882 0.0880278 14.8242 0.00427091C14.9316 -0.00109812 15.0389 -0.00109812 15.1475 0.00427091C18.3865 0.00427091 21.6255 0.00749233 24.8645 0.0128614C25.2402 0.00963995 25.6148 0.053666 25.9775 0.143866C27.4115 0.53151 28.379 1.73417 28.3408 3.08073C28.3492 3.54461 28.3408 4.00849 28.3408 4.50674H28.8562C31.4319 4.50674 34.0076 4.49922 36.5833 4.50674C38.2141 4.45305 39.6409 5.48605 39.9344 6.93032C39.9511 6.97435 39.9738 7.01623 40.0012 7.05596V12.4003C39.9797 12.4411 39.9606 12.483 39.9451 12.5259C39.6481 14.0658 38.0876 15.1428 36.3578 15.0021H23.3446V14.3954C23.3326 13.7844 23.0368 13.5106 22.3651 13.5095C20.7772 13.5052 19.1894 13.5052 17.6015 13.5095C17.1434 13.4591 16.727 13.7522 16.6721 14.1646C16.665 14.2193 16.6638 14.2752 16.6698 14.3299C16.6614 14.5479 16.6698 14.7659 16.6698 14.9645C16.6268 14.9785 16.5815 14.9892 16.5361 14.9957C12.0839 14.9957 7.6328 15.0086 3.18054 14.9882C1.78115 14.9431 0.569065 14.1012 0.165832 12.8942C0.115726 12.7525 0.0632341 12.6108 0.0119352 12.469M24.9861 3.0163H15.0246V4.48419H24.9861V3.0163Z" fill="white"/>
</g>
<defs>
<clipPath id="clip0_3_2">
<rect width="40" height="30" fill="white"/>
</clipPath>
</defs>
</svg>
