<svg id="Componente_12_1" data-name="Componente 12 – 1" xmlns="http://www.w3.org/2000/svg" width="49" height="49" viewBox="0 0 49 49">
  <circle id="Elipse_1" data-name="Elipse 1" cx="24.5" cy="24.5" r="24.5" fill="#7fc6ba"/>
  <g id="Icon_akar-eye" data-name="Icon akar-eye" transform="translate(6.855 6.089)">
    <path id="Trazado_26" data-name="Trazado 26" d="M30.777,16.093a2.44,2.44,0,0,1,0,2.992c-2.152,2.809-7.314,8.593-13.342,8.593S6.245,21.894,4.094,19.085a2.439,2.439,0,0,1,0-2.992C6.245,13.284,11.408,7.5,17.436,7.5S28.626,13.284,30.777,16.093Z" transform="translate(0.564 0.411)" fill="none" stroke="#fff" stroke-linecap="round" stroke-linejoin="round" stroke-width="3"/>
    <path id="Trazado_27" data-name="Trazado 27" d="M22.29,17.9a4.4,4.4,0,1,1-4.4-4.4A4.4,4.4,0,0,1,22.29,17.9Z" transform="translate(0.105 0.105)" fill="none" stroke="#fff" stroke-linecap="round" stroke-linejoin="round" stroke-width="3"/>
  </g>
</svg>
