<svg xmlns="http://www.w3.org/2000/svg" width="47.075" height="54.486" viewBox="0 0 47.075 54.486">
  <g id="Grupo_103" data-name="Grupo 103" transform="translate(5.763 13.12)">
    <g id="Grupo_138" data-name="Grupo 138" transform="translate(-2.225 -4.81)">
      <path id="Trazado_1952" data-name="Trazado 1952" d="M119.082,104.467a8.22,8.22,0,0,1-2.706-.955,4.693,4.693,0,0,1-2.586-4.316,4.582,4.582,0,0,1,2.534-3.917,7.6,7.6,0,0,1,7.213-.293c.451.2.447.213.447-.277,0-5.555.011-11.11-.011-16.665a1.594,1.594,0,0,1,1.092-1.658q8.694-3.7,17.375-7.425a1.382,1.382,0,0,1,1.983.71V92.5a5.194,5.194,0,0,1-2.037,3.033,7.733,7.733,0,0,1-8.456.154c-3.08-2.078-3.1-5.878.02-7.894a7.478,7.478,0,0,1,7.463-.435c.431.191.428.2.428-.266q0-4.708,0-9.417c0-.486,0-.489-.447-.3q-7.166,3.064-14.334,6.121a.661.661,0,0,0-.473.723c.013,4.949-.013,9.9.019,14.846a4.913,4.913,0,0,1-2.641,4.469,8.289,8.289,0,0,1-2.671.931ZM126.6,79.691c0,.269.011.538,0,.806-.015.285.09.3.324.2.646-.289,1.3-.56,1.951-.838q6.287-2.688,12.576-5.371a.542.542,0,0,0,.4-.6c-.026-.437-.006-.876-.006-1.315,0-.475,0-.478-.457-.284q-6.892,2.946-13.782,5.9c-1.241.535-.975.159-1.007,1.5m11.449,9.536a4.953,4.953,0,0,0-2.884.917,1.87,1.87,0,0,0-.029,3.154,5.008,5.008,0,0,0,5.862-.026,1.852,1.852,0,0,0,0-3.073,4.9,4.9,0,0,0-2.948-.973M120.2,101.885a4.826,4.826,0,0,0,2.979-1.005,1.842,1.842,0,0,0,.021-2.992,5.021,5.021,0,0,0-5.965-.048,1.859,1.859,0,0,0,.015,3.076,4.924,4.924,0,0,0,2.95.969" transform="translate(-100.885 -60.984)" fill="#7fc6ba"/>
      <path id="Trazado_1953" data-name="Trazado 1953" d="M0,22.181C.683,19.2,3.692,17.9,5.968,17.823a7.7,7.7,0,0,1,3.906.81c.221.115.314.075.3-.179-.006-.113,0-.226,0-.339q0-8.338,0-16.677A1.3,1.3,0,0,1,11.622.006,1.194,1.194,0,0,1,12.41.38a36.818,36.818,0,0,1,6.926,9.389,10.548,10.548,0,0,1,1.095,3.724,6.582,6.582,0,0,1-.692,3.41,11.413,11.413,0,0,1-2.13,3.05,1.319,1.319,0,1,1-1.908-1.81,12.8,12.8,0,0,0,1.344-1.8,4.525,4.525,0,0,0,.457-4.059A20.1,20.1,0,0,0,14.647,7.1c-.56-.781-1.145-1.544-1.8-2.3a.9.9,0,0,0-.059.5c0,5.715-.037,11.429.015,17.143a4.908,4.908,0,0,1-2.9,4.78,7.461,7.461,0,0,1-7.616-.32A4.99,4.99,0,0,1,0,23.709Zm6.385,3.274a4.826,4.826,0,0,0,2.981-1.007,1.842,1.842,0,0,0,.017-2.992,5.021,5.021,0,0,0-5.965-.045,1.859,1.859,0,0,0,.018,3.076,4.925,4.925,0,0,0,2.948.968" transform="translate(0 0)" fill="#f8cc57"/>
    </g>
    <g id="Grupo_105" data-name="Grupo 105" transform="translate(-5.763 31.429)">
      <g id="Grupo_136" data-name="Grupo 136" transform="translate(0 0)">
        <path id="Trazado_1954" data-name="Trazado 1954" d="M24.422,3.841a.8.8,0,0,1-.795-.795V.795a.795.795,0,0,1,1.59,0V3.046a.8.8,0,0,1-.795.795" transform="translate(-19.453 0)" fill="#e5e5e5"/>
        <path id="Trazado_1955" data-name="Trazado 1955" d="M24.422,38.351a.8.8,0,0,1-.795-.795V35.3a.795.795,0,0,1,1.59,0v2.251a.8.8,0,0,1-.795.795" transform="translate(-19.453 -28.414)" fill="#e5e5e5"/>
        <path id="Trazado_1956" data-name="Trazado 1956" d="M37.557,25.218H35.306a.795.795,0,1,1,0-1.59h2.251a.795.795,0,0,1,0,1.59" transform="translate(-28.415 -19.454)" fill="#e5e5e5"/>
        <path id="Trazado_1957" data-name="Trazado 1957" d="M3.046,25.218H.795a.795.795,0,1,1,0-1.59H3.046a.795.795,0,1,1,0,1.59" transform="translate(0 -19.454)" fill="#e5e5e5"/>
      </g>
    </g>
    <g id="Grupo_106" data-name="Grupo 106" transform="translate(24.457 -13.12)">
      <g id="Grupo_137" data-name="Grupo 137" transform="translate(0 0)">
        <path id="Trazado_1954-2" data-name="Trazado 1954" d="M24.557,4.493a.93.93,0,0,1-.93-.93V.93a.93.93,0,1,1,1.86,0V3.563a.93.93,0,0,1-.93.93" transform="translate(-18.745 0)" fill="#e5e5e5"/>
        <path id="Trazado_1955-2" data-name="Trazado 1955" d="M24.557,39a.93.93,0,0,1-.93-.93V35.44a.93.93,0,0,1,1.86,0v2.634a.93.93,0,0,1-.93.93" transform="translate(-18.745 -27.379)" fill="#e5e5e5"/>
        <path id="Trazado_1956-2" data-name="Trazado 1956" d="M38.074,25.488H35.441a.93.93,0,1,1,0-1.86h2.633a.93.93,0,1,1,0,1.86" transform="translate(-27.38 -18.746)" fill="#e5e5e5"/>
        <path id="Trazado_1957-2" data-name="Trazado 1957" d="M3.563,25.488H.93a.93.93,0,1,1,0-1.86H3.563a.93.93,0,1,1,0,1.86" transform="translate(0 -18.746)" fill="#e5e5e5"/>
      </g>
    </g>
  </g>
</svg>
