<svg xmlns="http://www.w3.org/2000/svg" width="21.212" height="23.346" viewBox="0 0 21.212 23.346">
  <g id="Icon_feather-share-2" data-name="Icon feather-share-2" transform="translate(1 1)">
    <path id="Trazado_1939" data-name="Trazado 1939" d="M28.9,6.2A3.2,3.2,0,1,1,25.7,3,3.2,3.2,0,0,1,28.9,6.2Z" transform="translate(-9.692 -3)" fill="none" stroke="#fff" stroke-linecap="round" stroke-linejoin="round" stroke-width="2"/>
    <path id="Trazado_1940" data-name="Trazado 1940" d="M10.9,16.7a3.2,3.2,0,1,1-3.2-3.2A3.2,3.2,0,0,1,10.9,16.7Z" transform="translate(-4.5 -6.029)" fill="none" stroke="#fff" stroke-linecap="round" stroke-linejoin="round" stroke-width="2"/>
    <path id="Trazado_1941" data-name="Trazado 1941" d="M28.9,27.2A3.2,3.2,0,1,1,25.7,24,3.2,3.2,0,0,1,28.9,27.2Z" transform="translate(-9.692 -9.058)" fill="none" stroke="#fff" stroke-linecap="round" stroke-linejoin="round" stroke-width="2"/>
    <path id="Trazado_1942" data-name="Trazado 1942" d="M12.885,17.236l7.29,4.248M20.164,9.765l-7.279,4.248" transform="translate(-6.919 -4.951)" fill="none" stroke="#fff" stroke-linecap="round" stroke-linejoin="round" stroke-width="2"/>
  </g>
</svg>
