<svg xmlns="http://www.w3.org/2000/svg" width="357.517" height="142.157" viewBox="0 0 357.517 142.157">
  <g id="Grupo_313" data-name="Grupo 313" transform="translate(0.503 0)">
    <path id="Trazado_1946" data-name="Trazado 1946" d="M344.965,72.307l-16.651,8.308.287-3.363,11.627-12.275Z" transform="translate(-43.73 -8.655)" fill="#cb970e"/>
    <g id="Grupo_92" data-name="Grupo 92" transform="translate(0 0)">
      <g id="Grupo_129" data-name="Grupo 129">
        <path id="Trazado_1948" data-name="Trazado 1948" d="M326.095,49.124l38.1,35.443A3.392,3.392,0,0,0,369.7,83.2L397.235,4.516a3.392,3.392,0,0,0-4.073-4.4l-87.2,23.176a3.392,3.392,0,0,0-1.439,5.761Z" transform="translate(-40.417 0)" fill="#f9ca4e"/>
        <path id="Trazado_1949" data-name="Trazado 1949" d="M388.562,13.012,339.828,60.821,328.254,73.5a1.283,1.283,0,0,1-2.179-1.1l3.248-21.359Z" transform="translate(-43.43 -1.733)" fill="#f1b20a"/>
        <path id="Trazado_1950" data-name="Trazado 1950" d="M.547,140.8a.559.559,0,0,1-.2-.036.547.547,0,0,1-.315-.706c.2-.525.41-1.055.62-1.572a.547.547,0,1,1,1.013.41c-.207.512-.413,1.035-.612,1.554a.548.548,0,0,1-.511.351m120.6-.418h-.035c-.749-.047-1.512-.123-2.265-.23a.547.547,0,1,1,.152-1.083c.726.1,1.46.176,2.181.221a.547.547,0,0,1-.033,1.092m5.574-.22a.547.547,0,0,1-.075-1.088c.714-.1,1.44-.231,2.157-.388a.547.547,0,1,1,.235,1.068c-.745.163-1.5.3-2.24.4a.564.564,0,0,1-.076.005m-13.229-1.279a.561.561,0,0,1-.171-.027c-.706-.231-1.424-.491-2.132-.773a.547.547,0,1,1,.4-1.016c.687.273,1.383.525,2.069.749a.547.547,0,0,1-.17,1.067m20.75-.793a.547.547,0,0,1-.208-1.053c.669-.276,1.344-.58,2.007-.9a.546.546,0,0,1,.479.982c-.682.334-1.378.647-2.07.932a.55.55,0,0,1-.208.042m-27.888-2.379a.55.55,0,0,1-.267-.069c-.647-.362-1.3-.748-1.946-1.148a.547.547,0,1,1,.576-.93c.631.392,1.272.77,1.9,1.123a.547.547,0,0,1-.267,1.024m61.882-.955a.547.547,0,1,1,0-1.093c.728,0,1.473-.018,2.211-.05a.547.547,0,0,1,.047,1.093c-.754.032-1.513.049-2.256.05Zm-5.576-.3a.489.489,0,0,1-.062,0c-.444-.049-.894-.106-1.337-.168-.3-.042-.6-.088-.906-.137a.547.547,0,1,1,.175-1.079q.441.072.882.133c.433.061.872.115,1.305.164a.547.547,0,0,1-.059,1.09m-21.557-.1a.547.547,0,0,1-.309-1c.6-.41,1.2-.845,1.787-1.292a.547.547,0,1,1,.665.869c-.6.459-1.219.906-1.835,1.327a.547.547,0,0,1-.308.1m34.929-.158a.547.547,0,0,1-.074-1.089c.719-.1,1.457-.211,2.191-.336a.547.547,0,0,1,.184,1.078c-.746.127-1.5.242-2.227.342a.546.546,0,0,1-.075.005M3.422,134.128a.553.553,0,0,1-.238-.055.547.547,0,0,1-.255-.731c.326-.676.665-1.353,1.006-2.012a.547.547,0,1,1,.971.5c-.336.649-.671,1.318-.992,1.984a.548.548,0,0,1-.492.309M155,132.912a.564.564,0,0,1-.155-.023c-.719-.212-1.443-.446-2.153-.7a.547.547,0,1,1,.362-1.031c.693.243,1.4.472,2.1.679a.547.547,0,0,1-.154,1.071m28.711-.191a.547.547,0,0,1-.129-1.078c.7-.172,1.426-.358,2.151-.555a.547.547,0,0,1,.285,1.056c-.734.2-1.467.387-2.177.562a.555.555,0,0,1-.13.016M99.831,131.4a.547.547,0,0,1-.33-.111c-.585-.444-1.181-.912-1.773-1.39a.547.547,0,0,1,.688-.85c.582.472,1.17.933,1.747,1.37a.547.547,0,0,1-.331.982m91.4-.845a.547.547,0,0,1-.171-1.066c.686-.225,1.395-.464,2.11-.712a.547.547,0,0,1,.358,1.034c-.72.249-1.436.491-2.127.717a.556.556,0,0,1-.17.027m-43.5-.5a.542.542,0,0,1-.243-.057c-.673-.334-1.347-.687-2-1.053a.547.547,0,1,1,.532-.955c.251.14.506.279.762.416.51-.5,1.012-1.027,1.5-1.554a.547.547,0,0,1,.806.739c-.416.453-.846.9-1.281,1.342l.172.085a.547.547,0,0,1-.243,1.038m50.867-2.139a.547.547,0,0,1-.2-1.057q1.041-.4,2.076-.814a.547.547,0,0,1,.4,1.016q-1.039.413-2.086.818a.564.564,0,0,1-.2.036M7.174,127.27a.546.546,0,0,1-.464-.835c.4-.641.806-1.278,1.217-1.894a.547.547,0,1,1,.91.606c-.4.607-.807,1.233-1.2,1.864a.545.545,0,0,1-.465.258m86.673-.9a.546.546,0,0,1-.368-.143c-.525-.479-1.064-.979-1.645-1.525a.547.547,0,1,1,.749-.8c.578.543,1.112,1.038,1.634,1.514a.547.547,0,0,1-.369.951m47.2-.361a.542.542,0,0,1-.322-.1c-.607-.443-1.211-.907-1.794-1.378a.547.547,0,0,1,.687-.85c.569.46,1.159.913,1.751,1.344a.547.547,0,0,1-.322.989m64.8-1.02a.547.547,0,0,1-.211-1.051q1.03-.43,2.055-.869a.547.547,0,0,1,.429,1.006q-1.028.439-2.061.871a.552.552,0,0,1-.212.042M152.2,123.441a.547.547,0,0,1-.442-.868c.427-.591.849-1.2,1.254-1.819a.546.546,0,1,1,.914.6c-.413.63-.845,1.257-1.282,1.861a.548.548,0,0,1-.444.226m60.826-1.557a.547.547,0,0,1-.223-1.046q1.019-.454,2.036-.914a.547.547,0,1,1,.451,1q-1.019.462-2.042.916a.549.549,0,0,1-.222.047m-124.859-.9a.545.545,0,0,1-.38-.153q-.8-.775-1.61-1.548a.547.547,0,1,1,.757-.79q.807.774,1.612,1.551a.547.547,0,0,1-.38.94m-76.494-.1a.547.547,0,0,1-.426-.889c.471-.585.956-1.168,1.445-1.731a.547.547,0,1,1,.826.717c-.479.552-.956,1.124-1.418,1.7a.545.545,0,0,1-.426.2m123.479-.015a.546.546,0,0,1-.394-.167c-.523-.544-1.036-1.107-1.526-1.672a.547.547,0,0,1,.827-.716c.478.551.979,1.1,1.487,1.63a.547.547,0,0,1-.394.926m84.986-2.241a.547.547,0,0,1-.233-1.042q1.009-.476,2.016-.957a.547.547,0,1,1,.472.986q-1.009.484-2.021.96a.547.547,0,0,1-.233.053m-63.87-1.859a.54.54,0,0,1-.247-.06.548.548,0,0,1-.24-.735c.332-.654.654-1.324.957-1.993a.547.547,0,1,1,1,.452c-.309.684-.639,1.369-.978,2.036a.546.546,0,0,1-.488.3M82.48,115.615a.546.546,0,0,1-.367-.141c-.567-.514-1.127-1.01-1.663-1.476a.547.547,0,0,1,.717-.826c.543.471,1.108.973,1.681,1.491a.547.547,0,0,1-.368.953m144.7-.4a.547.547,0,0,1-.244-1.037q1-.5,1.995-1a.547.547,0,0,1,.493.976q-1,.5-2,1a.543.543,0,0,1-.244.057m-210.209-.08a.547.547,0,0,1-.375-.945c.549-.517,1.113-1.025,1.676-1.512a.547.547,0,1,1,.715.828c-.552.477-1.1.975-1.642,1.481a.543.543,0,0,1-.374.148m113.311-.375a.547.547,0,0,1-.459-.248c-.413-.632-.813-1.281-1.187-1.93a.547.547,0,0,1,.947-.547c.364.631.752,1.263,1.155,1.877a.547.547,0,0,1-.457.847m103.862-3.107a.547.547,0,0,1-.255-1.031q.988-.519,1.972-1.044a.547.547,0,1,1,.515.965q-.987.527-1.978,1.047a.548.548,0,0,1-.254.063M76.471,110.61a.545.545,0,0,1-.328-.109c-.6-.451-1.2-.887-1.794-1.3a.547.547,0,1,1,.623-.9c.6.418,1.216.862,1.827,1.321a.547.547,0,0,1-.329.984m-53.419-.377a.547.547,0,0,1-.309-1c.621-.426,1.258-.84,1.892-1.233a.547.547,0,1,1,.576.929c-.621.385-1.243.791-1.85,1.207a.542.542,0,0,1-.309.1m136.214-.683a.538.538,0,0,1-.171-.028.546.546,0,0,1-.348-.69c.229-.7.446-1.408.645-2.115a.547.547,0,0,1,1.053.3c-.2.722-.426,1.449-.66,2.16a.545.545,0,0,1-.519.376m81.765-1.607a.547.547,0,0,1-.265-1.025q.976-.541,1.949-1.086a.546.546,0,1,1,.535.953q-.975.549-1.955,1.09a.54.54,0,0,1-.264.068m-114.357-.107a.545.545,0,0,1-.507-.344c-.28-.7-.543-1.415-.783-2.126a.547.547,0,1,1,1.037-.348c.232.693.489,1.388.761,2.068a.548.548,0,0,1-.508.751m-56.809-1.395a.55.55,0,0,1-.242-.057c-.649-.321-1.323-.63-2-.919a.547.547,0,1,1,.427-1.006c.7.3,1.393.615,2.06.945a.547.547,0,0,1-.243,1.038m-40.032-.084a.547.547,0,0,1-.231-1.042c.68-.317,1.376-.622,2.07-.907a.547.547,0,0,1,.415,1.012c-.678.278-1.358.576-2.023.886a.546.546,0,0,1-.231.051m218-2.277a.547.547,0,0,1-.277-1.019q.965-.562,1.925-1.129a.547.547,0,0,1,.556.942q-.963.568-1.93,1.132a.546.546,0,0,1-.275.075m-185.272-.407a.569.569,0,0,1-.146-.02c-.7-.2-1.424-.377-2.142-.539a.547.547,0,0,1,.241-1.067c.736.166,1.474.352,2.194.552a.547.547,0,0,1-.146,1.074m-25.4-.015a.547.547,0,0,1-.145-1.074c.721-.2,1.459-.384,2.193-.549a.546.546,0,1,1,.24,1.066c-.717.162-1.438.342-2.143.537a.526.526,0,0,1-.146.02m17.72-1.439a.428.428,0,0,1-.058,0c-.729-.076-1.47-.137-2.2-.179a.547.547,0,0,1,.064-1.092c.749.043,1.507.106,2.253.185a.547.547,0,0,1-.056,1.09m-10.042-.007a.547.547,0,0,1-.056-1.091c.747-.077,1.5-.139,2.254-.181a.547.547,0,0,1,.062,1.092c-.732.042-1.473.1-2.2.177a.423.423,0,0,1-.057,0m116.3-.249a.56.56,0,0,1-.093-.008.547.547,0,0,1-.447-.631c.122-.723.231-1.459.322-2.188a.546.546,0,1,1,1.084.137c-.093.744-.2,1.5-.329,2.234a.547.547,0,0,1-.538.456m-36.655-1.627a.547.547,0,0,1-.537-.446c-.14-.738-.262-1.49-.362-2.235a.547.547,0,0,1,1.084-.146c.1.726.216,1.458.352,2.177a.547.547,0,0,1-.435.639.592.592,0,0,1-.1.01m130.06-.267a.547.547,0,0,1-.286-1.013q.952-.582,1.9-1.171a.547.547,0,1,1,.576.929q-.95.59-1.9,1.174a.545.545,0,0,1-.285.081m6.626-4.157a.546.546,0,0,1-.3-1.006q.939-.6,1.873-1.213a.547.547,0,1,1,.6.916q-.937.611-1.879,1.216a.545.545,0,0,1-.3.087m-99.31-1.731h-.01a.546.546,0,0,1-.537-.556q.007-.43.007-.861c0-.448-.006-.9-.018-1.35a.547.547,0,0,1,.532-.562.541.541,0,0,1,.562.532c.012.458.018.921.018,1.379q0,.439-.008.88a.547.547,0,0,1-.546.537m-38.1-1.623h0a.546.546,0,0,1-.547-.547c0-.751.021-1.513.061-2.262a.547.547,0,1,1,1.092.058c-.039.731-.059,1.473-.059,2.205a.547.547,0,0,1-.547.546m143.948-.948a.547.547,0,0,1-.306-1q.924-.624,1.845-1.253a.547.547,0,1,1,.617.9q-.923.632-1.852,1.258a.544.544,0,0,1-.305.094m6.436-4.446a.547.547,0,0,1-.316-.993q.91-.645,1.817-1.294a.547.547,0,1,1,.638.888q-.91.653-1.824,1.3a.547.547,0,0,1-.316.1M161.4,86.381a.547.547,0,0,1-.541-.472c-.1-.73-.219-1.464-.353-2.183a.547.547,0,1,1,1.076-.2c.136.734.257,1.485.361,2.23a.547.547,0,0,1-.466.617.572.572,0,0,1-.076.005m-36.905-1.6a.594.594,0,0,1-.1-.01.547.547,0,0,1-.435-.639c.14-.74.3-1.485.481-2.213a.547.547,0,1,1,1.063.262c-.175.709-.333,1.435-.47,2.154a.547.547,0,0,1-.536.446m35.221-6.032a.548.548,0,0,1-.523-.387c-.217-.7-.452-1.409-.7-2.1a.547.547,0,1,1,1.029-.37c.253.7.494,1.424.715,2.144a.546.546,0,0,1-.361.683.525.525,0,0,1-.161.025m-33.044-1.468a.548.548,0,0,1-.508-.75c.279-.7.581-1.4.9-2.08a.547.547,0,1,1,.992.462c-.308.661-.6,1.343-.873,2.023a.547.547,0,0,1-.508.345m30.1-5.767a.546.546,0,0,1-.481-.287c-.355-.655-.73-1.29-1.116-1.886a.547.547,0,1,1,.917-.6c.4.621.793,1.281,1.162,1.962a.548.548,0,0,1-.221.741.542.542,0,0,1-.26.066m-26.474-1.149a.546.546,0,0,1-.449-.858c.435-.629.9-1.241,1.375-1.819a.547.547,0,0,1,.844.7c-.458.555-.9,1.142-1.32,1.746a.546.546,0,0,1-.45.236m21.75-5.041a.541.541,0,0,1-.364-.139,14.81,14.81,0,0,0-1.7-1.317.547.547,0,1,1,.6-.913,15.869,15.869,0,0,1,1.83,1.414.546.546,0,0,1-.364.954m-16.366-.589a.547.547,0,0,1-.322-.99,17.681,17.681,0,0,1,1.949-1.233.547.547,0,0,1,.521.961A16.585,16.585,0,0,0,136,64.632a.547.547,0,0,1-.321.1M145.1,62a.635.635,0,0,1-.069,0l-.157-.019a10.975,10.975,0,0,0-1.968-.042.547.547,0,0,1-.075-1.091,12.1,12.1,0,0,1,2.163.046l.173.021A.547.547,0,0,1,145.1,62" transform="translate(0 -8.101)" fill="#7fc6ba" stroke="#7fc6ba" stroke-width="1"/>
        <path id="Trazado_1951" data-name="Trazado 1951" d="M383.2,158.664c0,2.255-12.731,4.083-28.435,4.083s-28.435-1.828-28.435-4.083,12.731-4.083,28.435-4.083,28.435,1.828,28.435,4.083" transform="translate(-43.465 -20.59)" fill="#e2e2e2"/>
      </g>
    </g>
  </g>
</svg>
