<svg xmlns="http://www.w3.org/2000/svg" xmlns:xlink="http://www.w3.org/1999/xlink" width="52.627" height="54.473" viewBox="0 0 52.627 54.473">
  <defs>
    <clipPath id="clip-path">
      <rect id="Rectángulo_210" data-name="Rectángulo 210" width="52.627" height="54.473" fill="none"/>
    </clipPath>
  </defs>
  <g id="Grupo_2817" data-name="Grupo 2817" clip-path="url(#clip-path)">
    <path id="Trazado_3470" data-name="Trazado 3470" d="M57.978,38.765q5.77,0,11.54,0a3.652,3.652,0,0,1,3.87,3.875c0,.992.012,1.985-.006,2.977-.006.347.087.481.462.484A2.211,2.211,0,0,1,76.32,48.63c0,1.572,0,3.145,0,4.717a2.2,2.2,0,0,1-2.313,2.336c-.617.005-.617.005-.617.635q0,5.45,0,10.9a3.625,3.625,0,0,1-2.582,3.689.433.433,0,0,0-.353.492c.02.381.012.763,0,1.145A1.437,1.437,0,0,1,69,74q-2.244.02-4.488,0a1.456,1.456,0,0,1-1.444-1.47,9.309,9.309,0,0,1,0-.961c.029-.375-.1-.5-.489-.5-1.77.017-3.541.007-5.312.007-1.3,0-2.6.015-3.892-.009-.411-.008-.546.13-.512.527a8.125,8.125,0,0,1,0,.961A1.437,1.437,0,0,1,51.4,74q-2.221.019-4.442,0a1.462,1.462,0,0,1-1.481-1.48c-.008-.351-.023-.7,0-1.053.025-.333-.105-.475-.419-.585A3.6,3.6,0,0,1,42.6,68.057a4.067,4.067,0,0,1-.052-.82c0-3.664-.009-7.327.006-10.991,0-.432-.109-.579-.56-.574a2.177,2.177,0,0,1-2.38-2.394q0-2.427,0-4.854a2.182,2.182,0,0,1,2.311-2.332c.618-.005.618-.005.618-.634,0-1.023-.006-2.046,0-3.068a3.634,3.634,0,0,1,3.614-3.622c3.938-.01,7.877,0,11.815,0M57.2,52.755c0-2.029-.01-4.058.008-6.087,0-.4-.115-.522-.519-.52-3.86.013-7.719.007-11.579.009-.789,0-1.035.25-1.036,1.047q0,4.828,0,9.656a2.224,2.224,0,0,0,2.427,2.42c3.387.005,6.773,0,10.16.01.418,0,.55-.113.546-.54-.021-2-.009-4-.009-6m1.53-.068c0,2.029.01,4.058-.008,6.087,0,.406.125.518.523.516,3.386-.014,6.773-.005,10.159-.009a2.23,2.23,0,0,0,2.45-2.443q.008-4.805,0-9.61c0-.826-.241-1.069-1.06-1.07-3.844,0-7.689.005-11.533-.01-.425,0-.546.125-.542.544.02,2,.009,4,.009,6m-.8,16.854q5.746,0,11.491,0a2.2,2.2,0,0,0,2.423-2.283c.023-2.228,0-4.456.011-6.684,0-.3-.052-.4-.352-.226a3.843,3.843,0,0,1-2.021.47q-11.536-.012-23.073,0a3.807,3.807,0,0,1-1.977-.465c-.263-.153-.367-.134-.366.206.009,2.243,0,4.487.011,6.73a2.195,2.195,0,0,0,.651,1.613,2.43,2.43,0,0,0,1.8.64h11.4m.026-24.915q3.845,0,7.689,0c1.983,0,3.966.011,5.949.034.274,0,.256-.143.256-.313,0-.61.02-1.221-.007-1.831a2.147,2.147,0,0,0-1.235-1.99,2.906,2.906,0,0,0-1.294-.235q-11.351,0-22.7,0c-.091,0-.183,0-.275,0a2.2,2.2,0,0,0-2.266,2.259c-.014.412,0,.824,0,1.236,0,.839,0,.836.842.836H57.964M42.547,50.88q0-1.3,0-2.608c0-.66-.182-.794-.824-.61a.766.766,0,0,0-.574.831q-.006,2.4,0,4.8a1.087,1.087,0,0,0,.065.357.908.908,0,0,0,1.067.5c.448-.075.248-.433.255-.662.024-.868.01-1.738.01-2.607m30.842-.033c0,.961.009,1.921-.005,2.882,0,.311.092.434.418.43.683-.009.982-.275.985-.966q.01-2.31,0-4.621a1.423,1.423,0,0,0-.068-.448.9.9,0,0,0-1.063-.5c-.452.072-.25.431-.257.659-.025.853-.01,1.708-.01,2.562M49.213,71.071c-.427,0-.855,0-1.282,0-1.045.014-.9-.153-.929.924-.013.4.146.489.509.482.961-.019,1.923,0,2.885-.009,1.071-.012.926.192.95-.992.007-.333-.134-.42-.438-.411-.565.016-1.13,0-1.695,0m17.593,0c-.428,0-.855-.006-1.282,0-1.051.016-.907-.173-.934.964-.008.348.125.447.456.441.977-.016,1.954,0,2.931-.008,1.077-.012.931.19.956-.986.007-.327-.121-.427-.432-.418-.564.017-1.13,0-1.694,0" transform="translate(-29.036 -28.411)" fill="#7fc6ba"/>
    <path id="Trazado_3471" data-name="Trazado 3471" d="M65.96,133.475c-.686,0-1.372,0-2.057,0a2.189,2.189,0,0,1-2.332-2.353q0-.434,0-.868a2.218,2.218,0,0,1,2.747-2.3c1.016.2,2.024.434,3.031.672a3.043,3.043,0,0,1,2.32,3.657,1.454,1.454,0,0,1-1.424,1.189c-.762.013-1.524,0-2.286,0Zm-.132-1.53c.641,0,1.283-.015,1.923.006.366.012.448-.146.4-.472a1.429,1.429,0,0,0-1.2-1.326c-.964-.229-1.933-.437-2.9-.641a.7.7,0,0,0-.942.695,7.208,7.208,0,0,0-.006.869.786.786,0,0,0,.892.867c.61.012,1.221,0,1.831,0" transform="translate(-45.129 -93.746)" fill="#f8cc57"/>
    <path id="Trazado_3472" data-name="Trazado 3472" d="M128.428,133.5c-.733,0-1.466.006-2.2,0a1.466,1.466,0,0,1-1.543-1.512,3.015,3.015,0,0,1,2.713-3.415c.849-.184,1.7-.387,2.545-.567a2.226,2.226,0,0,1,2.866,2.3c0,.336,0,.672,0,1.008a2.182,2.182,0,0,1-2.183,2.187c-.733.01-1.465,0-2.2,0m.093-1.529c.4,0,.793-.016,1.188,0,1.692.081,1.588-.366,1.567-1.747a.368.368,0,0,0,0-.045.711.711,0,0,0-.959-.681c-.967.206-1.934.415-2.9.64a1.468,1.468,0,0,0-1.2,1.428c-.023.3.077.414.381.408.64-.014,1.279,0,1.919,0" transform="translate(-91.39 -93.771)" fill="#f8cc57"/>
    <path id="Trazado_3473" data-name="Trazado 3473" d="M98.259,129.322c.914,0,1.828,0,2.742,0,.57,0,.89.274.9.744.011.493-.315.782-.908.783q-2.787.006-5.575,0c-.57,0-.89-.274-.9-.744-.01-.495.312-.779.907-.782.945,0,1.889,0,2.834,0" transform="translate(-69.278 -94.787)" fill="#7fc6ba"/>
    <path id="Trazado_3474" data-name="Trazado 3474" d="M100.191,141.825c-.7,0-1.4.007-2.1,0a.765.765,0,1,1,.017-1.523q2.124-.01,4.248,0a.765.765,0,1,1-.017,1.523c-.716.009-1.431,0-2.147,0" transform="translate(-71.291 -102.83)" fill="#7fc6ba"/>
    <path id="Trazado_3475" data-name="Trazado 3475" d="M90.171,49.738h5.535a2.336,2.336,0,0,1,.456.016.711.711,0,0,1,.625.731.729.729,0,0,1-.636.768,3.21,3.21,0,0,1-.457.014H84.624c-.091,0-.183,0-.275,0a.748.748,0,0,1-.807-.746.739.739,0,0,1,.819-.778c1.936-.007,3.873,0,5.809,0" transform="translate(-61.233 -36.454)" fill="#7fc6ba"/>
    <path id="Trazado_3476" data-name="Trazado 3476" d="M178.771,174.2a.708.708,0,0,1-.708-.708v-2a.708.708,0,1,1,1.413,0v2a.708.708,0,0,1-.708.708" transform="translate(-130.512 -125.15)" fill="#e5e5e5"/>
    <path id="Trazado_3477" data-name="Trazado 3477" d="M178.776,194.743a.708.708,0,0,1-.708-.708v-2a.708.708,0,0,1,1.413,0v2a.708.708,0,0,1-.708.708" transform="translate(-130.517 -140.271)" fill="#e5e5e5"/>
    <path id="Trazado_3478" data-name="Trazado 3478" d="M187.3,186.224h-2a.708.708,0,0,1,0-1.413h2a.708.708,0,0,1,0,1.413" transform="translate(-135.335 -135.459)" fill="#e5e5e5"/>
    <path id="Trazado_3479" data-name="Trazado 3479" d="M166.764,186.219h-2a.708.708,0,1,1,0-1.413h2a.708.708,0,1,1,0,1.413" transform="translate(-120.213 -135.455)" fill="#e5e5e5"/>
    <path id="Trazado_3480" data-name="Trazado 3480" d="M17.155,4.014a.826.826,0,0,1-.826-.826V.85A.826.826,0,1,1,17.981.8c0,.015,0,.031,0,.046V3.19a.826.826,0,0,1-.826.824" transform="translate(-11.968 -0.001)" fill="#e5e5e5"/>
    <path id="Trazado_3481" data-name="Trazado 3481" d="M17.156,27.866a.826.826,0,0,1-.826-.826V24.7a.826.826,0,0,1,1.652,0v2.34a.826.826,0,0,1-.826.826" transform="translate(-11.969 -17.515)" fill="#e5e5e5"/>
    <path id="Trazado_3482" data-name="Trazado 3482" d="M26.913,17.993H24.574a.826.826,0,1,1-.046-1.652h2.385a.826.826,0,0,1,.046,1.652h-.046" transform="translate(-17.389 -11.977)" fill="#e5e5e5"/>
    <path id="Trazado_3483" data-name="Trazado 3483" d="M3.189,17.993H.849A.826.826,0,0,1,.8,16.341H3.189a.826.826,0,1,1,.046,1.652H3.189" transform="translate(0 -11.977)" fill="#e5e5e5"/>
  </g>
</svg>
