<svg xmlns="http://www.w3.org/2000/svg" xmlns:xlink="http://www.w3.org/1999/xlink" width="52" height="52" viewBox="0 0 52 52">
  <defs>
    <clipPath id="clip-path">
      <rect id="Rectángulo_85" data-name="Rectángulo 85" width="52" height="52" transform="translate(0 0.377)" fill="none"/>
    </clipPath>
  </defs>
  <g id="Grupo_197" data-name="Grupo 197" transform="translate(0 -0.377)" clip-path="url(#clip-path)">
    <path id="Trazado_2056" data-name="Trazado 2056" d="M334.025,227.246a5.931,5.931,0,0,0-1.688-1.383,5.324,5.324,0,0,0,1.086-1A4.383,4.383,0,0,0,334.4,222a4.63,4.63,0,0,0-.972-2.957,6.413,6.413,0,0,0-2.683-1.93,11.673,11.673,0,0,0-7.953,0,6.4,6.4,0,0,0-2.7,1.93,4.627,4.627,0,0,0-.972,2.957,4.342,4.342,0,0,0,.986,2.861,5.466,5.466,0,0,0,1.083.992,5.932,5.932,0,0,0-1.7,1.39,4.671,4.671,0,0,0-1.054,3.08,5.042,5.042,0,0,0,1.054,3.189,6.74,6.74,0,0,0,2.916,2.094,13.227,13.227,0,0,0,8.72,0,6.642,6.642,0,0,0,2.916-2.094,5.087,5.087,0,0,0,1.04-3.189,4.673,4.673,0,0,0-1.054-3.08m-8.911-6.5a2.5,2.5,0,0,1,1.643-.52,2.554,2.554,0,0,1,1.656.52,2.051,2.051,0,0,1,.014,2.97,2.5,2.5,0,0,1-1.67.534,2.452,2.452,0,0,1-1.643-.534,1.817,1.817,0,0,1-.63-1.465,1.841,1.841,0,0,1,.63-1.506m3.737,11.17a3.8,3.8,0,0,1-4.189,0,2.342,2.342,0,0,1,0-3.491,3.73,3.73,0,0,1,4.189,0,2.342,2.342,0,0,1,0,3.491" transform="translate(-294.892 -200.376)" fill="#fff"/>
    <path id="Trazado_2057" data-name="Trazado 2057" d="M27.153.031a25.913,25.913,0,0,1,7.681,50.2A25.913,25.913,0,0,1,16.982,1.581,25.746,25.746,0,0,1,27.153.031M24.875,47.37A21.487,21.487,0,1,0,4.445,24.875,21.511,21.511,0,0,0,24.875,47.37" transform="translate(0.085 0.099)" fill="#fff"/>
    <path id="Trazado_2058" data-name="Trazado 2058" d="M159,225.81h3.559v14.975h5.421V221.621H159Z" transform="translate(-147.201 -205.196)" fill="#fff"/>
  </g>
</svg>
