<svg id="Grupo_177" data-name="Grupo 177" xmlns="http://www.w3.org/2000/svg" xmlns:xlink="http://www.w3.org/1999/xlink" width="48.088" height="45.376" viewBox="0 0 48.088 45.376">
  <defs>
    <clipPath id="clip-path">
      <rect id="Rectángulo_70" data-name="Rectángulo 70" width="48.088" height="45.376" fill="none"/>
    </clipPath>
  </defs>
  <g id="Grupo_176" data-name="Grupo 176" clip-path="url(#clip-path)">
    <path id="Trazado_2032" data-name="Trazado 2032" d="M5.23,45.376a1.036,1.036,0,0,1-1.157-1.037c-.24-1.554-.466-3.11-.7-4.665q-.812-5.5-1.623-11Q.891,22.871.02,17.069a1.04,1.04,0,0,1,.974-1.31c2.35-.359,4.7-.7,7.054-1.045,2.3-.34,4.591-.687,6.888-1.016.4-.057.5-.321.6-.637q1.948-5.9,3.907-11.789c.03-.089.061-.177.091-.266.334-.98.728-1.185,1.694-.865q3.841,1.271,7.68,2.549L46.887,8.653c1.259.418,1.411.723.991,1.989Q43.641,23.417,39.4,36.192c-.361,1.088-.713,1.263-1.805.9-1.352-.447-2.706-.887-4.052-1.351-.4-.138-.522-.1-.442.366.205,1.2.356,2.407.544,3.608.169,1.075-.1,1.458-1.153,1.615q-10.8,1.613-21.6,3.227-2.666.4-5.333.784c-.13.019-.261.024-.331.031M6.652,21.3c.16,1.054.323,2.108.479,3.163Q8.154,31.38,9.17,38.295c.055.377.2.491.6.428,1.885-.3,3.776-.56,5.663-.84,3.7-.55,7.4-1.112,11.1-1.647.464-.067.592-.205.508-.683-.234-1.326-.411-2.663-.609-4q-.953-6.412-1.9-12.826c-.046-.313-.1-.456-.481-.4q-8.52,1.279-17.045,2.524c-.285.042-.407.16-.356.449m34.14-8.166c.034-.241-.135-.307-.294-.362-.424-.148-.854-.282-1.28-.424Q31.778,9.881,24.342,7.4c-.5-.167-.68-.071-.831.421-.43,1.4-.914,2.776-1.372,4.163-.191.578-.117.666.486.575q2.777-.416,5.552-.84c.913-.14,1.329.168,1.466,1.09.779,5.239,1.566,10.477,2.331,15.719a.692.692,0,0,0,.558.655c.681.207,1.364.416,2.024.679.477.191.686.093.85-.407q2.62-7.982,5.277-15.952c.041-.124.077-.251.11-.362" transform="translate(0 -0.001)" fill="#fff"/>
    <path id="Trazado_2033" data-name="Trazado 2033" d="M76.316,170.775a3.523,3.523,0,0,1,5.3-2.991c.38.22.54.159.824-.128a3.56,3.56,0,0,1,5.47,4.506c-1.218,1.732-2.505,3.415-3.778,5.108a.861.861,0,0,1-1.367.2c-1.707-1.253-3.415-2.507-5.1-3.795a3.341,3.341,0,0,1-1.354-2.9" transform="translate(-65.875 -143.816)" fill="#fff"/>
  </g>
</svg>
