<svg id="Componente_33_2" data-name="Componente 33 – 2" xmlns="http://www.w3.org/2000/svg" width="45.753" height="45.753" viewBox="0 0 45.753 45.753">
  <circle id="Elipse_1" data-name="Elipse 1" cx="22.877" cy="22.877" r="22.877" fill="#212121"/>
  <path id="Icon_corebrands-apple" data-name="Icon corebrands-apple" d="M7.619,20.709A4.653,4.653,0,0,1,6.526,19.7a13.16,13.16,0,0,1-.938-1.278,12.45,12.45,0,0,1-1.566-3.2,12,12,0,0,1-.653-3.82,7.1,7.1,0,0,1,.883-3.6A5.065,5.065,0,0,1,6.1,5.884a4.913,4.913,0,0,1,2.5-.739,4.25,4.25,0,0,1,1,.131c.254.072.563.185.941.326.481.185.745.3.835.326a2.115,2.115,0,0,0,.7.148,2.176,2.176,0,0,0,.567-.113c.127-.045.367-.124.711-.271.34-.124.608-.23.821-.309a7.727,7.727,0,0,1,.924-.23,4.394,4.394,0,0,1,1.01-.042,5.976,5.976,0,0,1,1.707.367A4.6,4.6,0,0,1,19.97,7.2a4.185,4.185,0,0,0-.639.484,5.376,5.376,0,0,0-1.082,1.322,4.5,4.5,0,0,0-.567,2.215,4.566,4.566,0,0,0,.739,2.515,4.725,4.725,0,0,0,1.35,1.35,3.612,3.612,0,0,0,.739.4c-.106.33-.22.649-.353.966a12.647,12.647,0,0,1-1.1,2.033c-.381.553-.68.966-.907,1.24a4.87,4.87,0,0,1-1.037.962,2.317,2.317,0,0,1-1.278.384,2.9,2.9,0,0,1-.91-.11c-.254-.086-.505-.179-.752-.285a6.022,6.022,0,0,0-.793-.3,4.134,4.134,0,0,0-2.044,0,6.52,6.52,0,0,0-.8.285c-.367.154-.611.258-.752.3a3.9,3.9,0,0,1-.869.151,2.4,2.4,0,0,1-1.305-.4ZM13.646,4.475a3.287,3.287,0,0,1-1.734.384,3.525,3.525,0,0,1,.237-1.793,4.791,4.791,0,0,1,.879-1.477A4.68,4.68,0,0,1,14.46.483,4.039,4.039,0,0,1,16.123,0a4.028,4.028,0,0,1-.22,1.82,5.264,5.264,0,0,1-.879,1.546,4.5,4.5,0,0,1-1.395,1.109Z" transform="translate(11.012 11.202)" fill="#fff"/>
</svg>
