<svg xmlns="http://www.w3.org/2000/svg" xmlns:xlink="http://www.w3.org/1999/xlink" width="20" height="16.825" viewBox="0 0 20 16.825">
  <defs>
    <clipPath id="clip-path">
      <rect id="Rectángulo_86" data-name="Rectángulo 86" width="20" height="16.825" fill="none"/>
    </clipPath>
  </defs>
  <g id="Grupo_184" data-name="Grupo 184" clip-path="url(#clip-path)">
    <path id="Trazado_2042" data-name="Trazado 2042" d="M20,4.357a1.757,1.757,0,0,1-.754,1.03,1.387,1.387,0,0,1-.466.191.241.241,0,0,0-.218.23Q17.9,9.255,17.239,12.7c-.05.262-.107.522-.152.785a.164.164,0,0,1-.182.159l-.2,0H3.3c-.052,0-.1,0-.156,0-.142.009-.2-.053-.23-.2q-.476-2.509-.964-5.015c-.169-.874-.34-1.748-.5-2.623a.251.251,0,0,0-.217-.232,1.605,1.605,0,0,1,.14-3.151A1.612,1.612,0,0,1,3.1,3.387a1.589,1.589,0,0,1-.507,1.9c-.137.1-.138.177-.073.318A7.421,7.421,0,0,0,4.04,7.883a3.6,3.6,0,0,0,.913.66A2.13,2.13,0,0,0,7.4,8.226,4.953,4.953,0,0,0,8.561,6.671a12.037,12.037,0,0,0,.893-2.553c.038-.15-.038-.177-.143-.215a2.007,2.007,0,0,1-1.2-2.559A2.035,2.035,0,0,1,10.377.037a2.006,2.006,0,0,1,1.632,2.1A1.945,1.945,0,0,1,10.7,3.9c-.094.038-.176.056-.14.2a10.3,10.3,0,0,0,1.27,3.213,4.124,4.124,0,0,0,.7.834,2.193,2.193,0,0,0,2.941.154,6.018,6.018,0,0,0,1.779-2.191c.093-.179.17-.366.265-.544.061-.114.042-.177-.064-.257a1.576,1.576,0,0,1-.409-2.152,1.517,1.517,0,0,1,1.469-.749,1.559,1.559,0,0,1,1.424,1.1L20,3.693Z" transform="translate(0 0)" fill="#ffc200"/>
    <path id="Trazado_2043" data-name="Trazado 2043" d="M56.58,296.638q-3.19,0-6.38,0a1.192,1.192,0,0,1-1.212-1,1.209,1.209,0,0,1,.969-1.4,2.318,2.318,0,0,1,.387-.035q6.234,0,12.468,0a1.3,1.3,0,0,1,1.143.514,1.146,1.146,0,0,1,.106,1.252,1.131,1.131,0,0,1-1.061.672c-2.14.005-4.28,0-6.42,0Z" transform="translate(-46.573 -279.813)" fill="#ffc200"/>
  </g>
</svg>
