<svg id="Grupo_161" data-name="Grupo 161" xmlns="http://www.w3.org/2000/svg" xmlns:xlink="http://www.w3.org/1999/xlink" width="36.046" height="43.955" viewBox="0 0 36.046 43.955">
  <defs>
    <clipPath id="clip-path">
      <rect id="Rectángulo_63" data-name="Rectángulo 63" width="36.046" height="43.955" fill="#fff"/>
    </clipPath>
  </defs>
  <g id="Grupo_160" data-name="Grupo 160" clip-path="url(#clip-path)">
    <path id="Trazado_2023" data-name="Trazado 2023" d="M25.064,130.753,20.969,134.9a4.041,4.041,0,0,1-5.866.015L11.018,130.8c-.143.135-.255.237-.362.344-1.278,1.274-2.55,2.554-3.834,3.821a3.855,3.855,0,0,1-4.9.686,3.49,3.49,0,0,1-1.846-2.925,25.51,25.51,0,0,1,.043-4.414,5.9,5.9,0,0,1,6.121-5.077c3.079-.012,6.158,0,9.238,0h.546v-3.971H20v3.94c.218.012.4.03.574.03q4.6,0,9.195,0a5.987,5.987,0,0,1,5.465,3.033,5.739,5.739,0,0,1,.807,2.99c.006,1.159.015,2.32-.051,3.477a3.893,3.893,0,0,1-4.116,3.474,4.175,4.175,0,0,1-2.68-1.289c-1.353-1.359-2.7-2.722-4.13-4.16" transform="translate(0 -105.282)" fill="#fff"/>
    <path id="Trazado_2024" data-name="Trazado 2024" d="M36.064,256.447c.01.2.022.337.022.474q0,4.233,0,8.466a2.038,2.038,0,0,1-2.288,2.268H2.336a2.014,2.014,0,0,1-2.15-1.418,2.77,2.77,0,0,1-.1-.761q-.011-4.34,0-8.681c0-.095.015-.19.028-.335.164.086.288.147.407.215a6.78,6.78,0,0,0,5.987.5,6.731,6.731,0,0,0,2.476-1.66c.662-.675,1.322-1.351,2.015-2.059.146.135.259.234.367.339.684.673,1.343,1.373,2.055,2.016a7.02,7.02,0,0,0,9.4-.064c.783-.729,1.484-1.545,2.252-2.352.757.759,1.424,1.427,2.089,2.1a6.848,6.848,0,0,0,4.731,2.14,6.776,6.776,0,0,0,3.55-.823c.2-.107.389-.224.632-.364" transform="translate(-0.068 -223.701)" fill="#fff"/>
    <path id="Trazado_2025" data-name="Trazado 2025" d="M123.75,0c.077.114.143.2.2.3,1.06,1.831,2.126,3.659,3.175,5.5a3.926,3.926,0,0,1-.442,4.842A3.848,3.848,0,0,1,122.41,11.7a3.994,3.994,0,0,1-2.62-3.315,3.923,3.923,0,0,1,.477-2.4c1.112-1.95,2.239-3.891,3.361-5.835A1.706,1.706,0,0,1,123.75,0" transform="translate(-105.73)" fill="#fff"/>
  </g>
</svg>
