<svg xmlns="http://www.w3.org/2000/svg" width="15" height="19.286" viewBox="0 0 15 19.286">
  <path id="Icon_material-round-delete-forever" data-name="Icon material-round-delete-forever" d="M8.571,21.643a2.149,2.149,0,0,0,2.143,2.143h8.571a2.149,2.149,0,0,0,2.143-2.143V8.786H8.571Zm3.4-6.868a1.068,1.068,0,1,1,1.511-1.511L15,14.775l1.511-1.511a1.068,1.068,0,1,1,1.511,1.511l-1.511,1.511L18.021,17.8a1.068,1.068,0,1,1-1.511,1.511L15,17.8l-1.511,1.511A1.068,1.068,0,1,1,11.979,17.8l1.511-1.511Zm9.461-9.2H18.75l-.761-.761a1.081,1.081,0,0,0-.75-.311H12.761a1.081,1.081,0,0,0-.75.311l-.761.761H8.571a1.071,1.071,0,1,0,0,2.143H21.429a1.071,1.071,0,0,0,0-2.143Z" transform="translate(-7.5 -4.5)" fill="#fff"/>
</svg>
