<svg id="Grupo_181" data-name="Grupo 181" xmlns="http://www.w3.org/2000/svg" xmlns:xlink="http://www.w3.org/1999/xlink" width="54.772" height="47.219" viewBox="0 0 54.772 47.219">
  <defs>
    <clipPath id="clip-path">
      <rect id="Rectángulo_72" data-name="Rectángulo 72" width="54.772" height="47.219" fill="none"/>
    </clipPath>
  </defs>
  <g id="Grupo_180" data-name="Grupo 180" clip-path="url(#clip-path)">
    <path id="Trazado_2042" data-name="Trazado 2042" d="M54.668,40.466a2.051,2.051,0,0,0-2.719-1.192c-1.344.414-2.7.8-4.037,1.225-.506.16-.739-.006-.882-.49q-1.76-5.945-3.544-11.883a.623.623,0,0,1,.336-.839,7.811,7.811,0,0,0,1.773-1.358c2.7-2.745,3.837-6.026,2.842-9.772-1.246-4.693-2.709-9.33-4.107-13.982C43.855.6,42.868.131,41.262.619c-1.2.366-2.405.733-3.61,1.091C33.9,2.83,30.135,3.937,26.381,5.068a3.721,3.721,0,0,0-.9.394c.28-1.961-.285-2.636-2.276-2.952C20.087,2.017,16.977,1.5,13.864.994,11.8.662,9.741.331,7.676.027A1.888,1.888,0,0,0,5.637,1.038a3.662,3.662,0,0,0-.348,1.289q-.965,5.93-1.923,11.862a13.974,13.974,0,0,0-.264,4.95,10.206,10.206,0,0,0,5.933,7.683c.383.181.574.369.5.815q-1,6.118-1.982,12.241c-.08.5-.289.694-.811.6-1.4-.253-2.816-.469-4.223-.708A2.061,2.061,0,0,0,.049,41.253,2,2,0,0,0,1.8,43.706c2.247.386,4.5.724,6.751,1.095s4.493.757,6.74,1.136l1.536.005c1.095-.656,1.484-1.346,1.307-2.318-.165-.909-.878-1.478-2.089-1.672-1.367-.219-2.731-.466-4.1-.65-.474-.064-.537-.234-.467-.663q1.016-6.181,1.994-12.369a.626.626,0,0,1,.659-.615,10.091,10.091,0,0,0,9.1-8.3c.613-3.532,1.177-7.072,1.737-10.613,1.229,4.088,2.465,8.175,3.648,12.276A10.212,10.212,0,0,0,39,28.732c.412-.007.565.186.668.53q1.771,5.975,3.56,11.944c.142.469.1.662-.421.8-1.48.4-2.947.855-4.4,1.331a1.933,1.933,0,0,0-1.308,2.384,2.131,2.131,0,0,0,1.528,1.5l1.523-.2c2.2-.67,4.4-1.345,6.6-2.008,2.142-.646,4.29-1.27,6.43-1.922a2.012,2.012,0,0,0,1.493-2.619M21.211,6.938c-.228,1.17-.41,2.35-.57,3.531a.776.776,0,0,1-.637.752q-6.051,1.618-12.1,3.256c-.323.087-.563.156-.471-.384.52-3.065,1-6.136,1.492-9.206.053-.336.143-.584.6-.533,1.06.168,2.175.341,3.289.523,2.606.424,5.209.865,7.819,1.268.528.081.678.259.573.794m18,7.355c-2.7-.365-5.4-.741-8.107-1.085a.875.875,0,0,1-.869-.745c-.3-1.153-.655-2.293-1.022-3.427-.151-.467,0-.638.442-.77C33.2,7.217,36.75,6.146,40.3,5.082c.081-.024.165-.043.247-.064.4-.088.511.16.606.481.762,2.572,1.537,5.14,2.305,7.71a10.977,10.977,0,0,0,.34,1.164c.21.492.005.547-.41.489-1.392-.194-2.786-.38-4.179-.568" transform="translate(0 0)" fill="#fff"/>
  </g>
</svg>
