<svg width="352" height="332" viewBox="0 0 352 332" fill="none" xmlns="http://www.w3.org/2000/svg">
<g clip-path="url(#clip0_3_9)">
<path d="M38.23 331.69C33.11 331.69 30.59 329.43 29.77 324.11C28.01 312.75 26.37 301.38 24.69 290.01C20.73 263.21 16.81 236.41 12.83 209.61C8.62001 181.32 4.35001 153.05 0.150013 124.77C-0.639987 119.43 1.80001 116.03 7.27001 115.19C24.45 112.57 41.65 110.09 58.84 107.55C75.62 105.07 92.4 102.53 109.19 100.12C112.09 99.7 112.85 97.78 113.61 95.46C123.1 66.73 132.64 38.01 142.17 9.28996C142.39 8.63996 142.61 7.98996 142.83 7.34996C145.27 0.179964 148.15 -1.31004 155.21 1.01996C173.93 7.21996 192.64 13.44 211.35 19.65C255.15 34.18 298.95 48.71 342.74 63.24C351.94 66.29 353.05 68.52 349.98 77.78C329.33 140.04 308.68 202.3 288.02 264.55C285.38 272.5 282.81 273.79 274.82 271.15C264.94 267.88 255.04 264.66 245.2 261.28C242.27 260.27 241.38 260.55 241.97 263.96C243.47 272.72 244.57 281.55 245.95 290.34C247.18 298.2 245.24 301 237.53 302.15C184.9 310.01 132.26 317.88 79.63 325.74C66.64 327.68 53.64 329.57 40.65 331.47C39.7 331.61 38.74 331.65 38.23 331.7V331.69ZM48.63 155.72C49.8 163.43 50.99 171.13 52.13 178.84C57.11 212.53 62.1 246.22 67.03 279.92C67.43 282.68 68.48 283.51 71.4 283.05C85.18 280.87 99 278.96 112.8 276.91C139.86 272.89 166.9 268.78 193.97 264.87C197.36 264.38 198.3 263.37 197.68 259.87C195.97 250.17 194.68 240.41 193.23 230.67C188.58 199.42 183.92 168.17 179.34 136.91C179 134.62 178.61 133.58 175.83 134C134.31 140.23 92.77 146.35 51.23 152.45C49.14 152.76 48.26 153.62 48.62 155.73L48.63 155.72ZM298.19 96.03C298.44 94.26 297.2 93.78 296.04 93.38C292.94 92.3 289.8 91.32 286.68 90.28C250.42 78.23 214.15 66.24 177.94 54.05C174.31 52.83 172.97 53.53 171.86 57.13C168.72 67.34 165.18 77.42 161.83 87.56C160.43 91.79 160.97 92.43 165.38 91.77C178.91 89.74 192.44 87.71 205.96 85.63C212.63 84.61 215.67 86.86 216.67 93.59C222.37 131.89 228.12 170.18 233.71 208.49C234.12 211.29 235.27 212.52 237.79 213.28C242.77 214.79 247.76 216.32 252.58 218.25C256.07 219.64 257.59 218.93 258.79 215.27C271.56 176.37 284.49 137.52 297.37 98.66C297.67 97.75 297.93 96.83 298.18 96.02L298.19 96.03Z" fill="white"/>
<path d="M76.33 197.07C76.41 177.65 97.8 165.2 115.08 175.21C117.86 176.82 119.03 176.37 121.1 174.27C130.52 164.74 145.77 164.06 155.89 172.46C166.42 181.19 168.91 196.08 161.08 207.21C152.17 219.87 142.77 232.18 133.47 244.55C130.58 248.39 127.35 248.84 123.48 246C111 236.84 98.52 227.68 86.23 218.26C79.55 213.14 76.09 206.16 76.33 197.07Z" fill="white"/>
</g>
<defs>
<clipPath id="clip0_3_9">
<rect width="351.52" height="331.69" fill="white"/>
</clipPath>
</defs>
</svg>
