<svg xmlns="http://www.w3.org/2000/svg" xmlns:xlink="http://www.w3.org/1999/xlink" width="25.404" height="24.957" viewBox="0 0 25.404 24.957">
  <defs>
    <clipPath id="clip-path">
      <rect id="Rectángulo_214" data-name="Rectángulo 214" width="25.404" height="24.957" fill="none"/>
    </clipPath>
  </defs>
  <g id="Grupo_2842" data-name="Grupo 2842" clip-path="url(#clip-path)">
    <path id="Trazado_3485" data-name="Trazado 3485" d="M26.968,18.667l.26-2.823c.01-.11.025-.219.029-.329a2.43,2.43,0,0,1,.754-1.716Q34.4,7.445,40.767,1.076a3.33,3.33,0,0,1,4.8-.109,5.762,5.762,0,0,1,1.463,1.741,3.2,3.2,0,0,1-.563,3.562c-.427.456-.879.889-1.322,1.331-3.821,3.814-7.653,7.617-11.453,11.451a3.236,3.236,0,0,1-2.239,1.009c-.945.054-1.885.177-2.829.247a1.516,1.516,0,0,1-1.653-1.642m2.043-.248c.869-.082,1.738-.166,2.607-.244a.835.835,0,0,0,.57-.222q5.186-5.188,10.384-10.365c.156-.155.149-.25,0-.4q-1.258-1.238-2.5-2.493c-.13-.131-.206-.154-.349-.01Q34.5,9.919,29.277,15.143a.484.484,0,0,0-.171.3c-.086.922-.177,1.844-.265,2.766-.012.125.01.225.171.207M45.492,4.068a1.293,1.293,0,0,0-.383-.971c-.293-.3-.591-.6-.9-.9a1.4,1.4,0,0,0-1.965,0c-.3.284-.583.586-.881.872-.123.118-.146.2-.009.333q1.276,1.256,2.536,2.529c.122.123.205.146.335.009.284-.3.585-.583.873-.88a1.322,1.322,0,0,0,.391-1" transform="translate(-24.292 0)" fill="#fff"/>
    <path id="Trazado_3486" data-name="Trazado 3486" d="M12.7,233.281H24.269a1.515,1.515,0,0,1,.465.044.9.9,0,0,1,0,1.742,1.666,1.666,0,0,1-.492.055H1.161a1.716,1.716,0,0,1-.438-.04.907.907,0,0,1,.132-1.793c.109-.011.221-.006.331-.006H12.7" transform="translate(0 -210.164)" fill="#fff"/>
  </g>
</svg>
