<svg xmlns="http://www.w3.org/2000/svg" xmlns:xlink="http://www.w3.org/1999/xlink" width="53.7" height="42.76" viewBox="0 0 53.7 42.76">
  <defs>
    <clipPath id="clip-path">
      <rect id="Rectángulo_71" data-name="Rectángulo 71" width="53.7" height="42.76" fill="none"/>
    </clipPath>
  </defs>
  <g id="Grupo_178" data-name="Grupo 178" clip-path="url(#clip-path)">
    <path id="Trazado_2034" data-name="Trazado 2034" d="M26.294,30.767a3.993,3.993,0,0,1-2.382-.609Q12.387,23.468.866,16.772A1.484,1.484,0,0,1,0,15.392a1.5,1.5,0,0,1,.9-1.364Q4.75,11.8,8.6,9.556q7.6-4.413,15.192-8.824a4.713,4.713,0,0,1,5.041,0Q40.2,7.331,51.563,13.937c.491.285.961.575,1.037,1.217a1.554,1.554,0,0,1-.9,1.653Q44.84,20.768,38,24.762q-4.6,2.673-9.2,5.34a4.255,4.255,0,0,1-2.509.665" transform="translate(0 0)" fill="#fff"/>
    <path id="Trazado_2035" data-name="Trazado 2035" d="M92.264,167.086c0,1.2.057,2.394-.014,3.585a4.54,4.54,0,0,1-2.51,3.819Q85.509,176.9,81.3,179.36a13.742,13.742,0,0,1-4.91,1.948,11.7,11.7,0,0,1-7.769-1.473c-3.107-1.793-6.205-3.6-9.322-5.378a4.736,4.736,0,0,1-2.508-4.382c-.015-2.073-.008-4.146,0-6.219,0-.7.077-.745.706-.38,4.292,2.491,8.592,4.968,12.868,7.486a7.682,7.682,0,0,0,8.364,0c4.26-2.506,8.543-4.973,12.818-7.454.71-.412.761-.379.763.466,0,1.037,0,2.073,0,3.11h-.044" transform="translate(-48.239 -138.688)" fill="#fff"/>
    <path id="Trazado_2036" data-name="Trazado 2036" d="M320.256,138.4c0,2.191.007,4.381-.006,6.572a1.265,1.265,0,0,0,.392,1,3.07,3.07,0,0,1,.531,3.785,3.123,3.123,0,0,1-5.829-1.455,2.9,2.9,0,0,1,.98-2.349,1.136,1.136,0,0,0,.39-.941c-.01-3.764,0-7.528-.015-11.292a.977.977,0,0,1,.563-1c.825-.439,1.633-.915,2.429-1.406.454-.28.573-.167.57.332-.013,2.25-.005,4.5-.005,6.751" transform="translate(-267.897 -111.434)" fill="#fff"/>
  </g>
</svg>
