<svg xmlns="http://www.w3.org/2000/svg" xmlns:xlink="http://www.w3.org/1999/xlink" width="40.642" height="33.865" viewBox="0 0 40.642 33.865">
  <defs>
    <clipPath id="clip-path">
      <rect id="Rectángulo_64" data-name="Rectángulo 64" width="40.642" height="33.865" fill="#fff"/>
    </clipPath>
  </defs>
  <g id="Grupo_162" data-name="Grupo 162" clip-path="url(#clip-path)">
    <path id="Trazado_2026" data-name="Trazado 2026" d="M0,180.926V168.3c.4-.63.847-.783,1.366-.417a3.89,3.89,0,0,0,2.35.682c4.23-.014,8.46-.007,12.691-.007h.521c0,.861-.009,1.653,0,2.445a.846.846,0,0,0,.891.945q2.5.014,5,0a.836.836,0,0,0,.887-.825c.017-.184.008-.37.008-.555,0-.656,0-1.313,0-2.01h.519q6.4,0,12.809,0a3.6,3.6,0,0,0,2.065-.572c.71-.471,1.088-.392,1.534.31v12.622a7.282,7.282,0,0,1-.275.817,3.4,3.4,0,0,1-3.358,2.065q-16.687-.013-33.374,0c-.132,0-.265,0-.4-.008A3.364,3.364,0,0,1,.151,181.41c-.049-.162-.1-.323-.151-.484" transform="translate(0 -149.943)" fill="#fff"/>
    <path id="Trazado_2027" data-name="Trazado 2027" d="M0,14.074V7.961c.016-.021.04-.039.046-.062A3.382,3.382,0,0,1,3.71,5.084h8.137c0-.555,0-1.043,0-1.531A3.384,3.384,0,0,1,15.384.005q4.938-.011,9.875,0a4.129,4.129,0,0,1,1.132.148,3.372,3.372,0,0,1,2.4,3.317c.009.524,0,1.048,0,1.609h.523c2.618,0,5.235-.008,7.853,0a3.338,3.338,0,0,1,3.4,2.737.694.694,0,0,0,.066.138v6.033a1.27,1.27,0,0,0-.056.142,3.39,3.39,0,0,1-3.646,2.8H23.714c0-.263,0-.474,0-.685-.012-.69-.313-1-.995-1q-2.421-.007-4.842,0a.849.849,0,0,0-.947.926c-.009.245,0,.491,0,.717a.833.833,0,0,1-.135.036c-4.524,0-9.049.014-13.573-.009A3.321,3.321,0,0,1,.157,14.554c-.05-.161-.1-.32-.157-.48M25.383,3.4H15.259V5.059H25.383Z" transform="translate(0 0)" fill="#fff"/>
  </g>
</svg>
