<?xml version="1.0" encoding="UTF-8"?>
<svg id="Capa_2" data-name="Capa 2" xmlns="http://www.w3.org/2000/svg" viewBox="0 0 675.86 444.35">
  <defs>
    <style>
      .cls-1 {
        fill: #69afa1;
      }

      .cls-1, .cls-2, .cls-3, .cls-4, .cls-5, .cls-6, .cls-7, .cls-8, .cls-9, .cls-10, .cls-11, .cls-12, .cls-13, .cls-14, .cls-15 {
        stroke-width: 0px;
      }

      .cls-16 {
        opacity: .6;
      }

      .cls-3 {
        fill: #e0e0e0;
      }

      .cls-4 {
        fill: #6f4439;
      }

      .cls-5 {
        fill: #ae7461;
      }

      .cls-6 {
        fill: #fff;
      }

      .cls-17 {
        opacity: .3;
      }

      .cls-7 {
        fill: #f1b20a;
      }

      .cls-8 {
        fill: #fafafa;
      }

      .cls-9 {
        fill: #263238;
      }

      .cls-10 {
        fill: #7fc6ba;
      }

      .cls-11 {
        fill: #ff725e;
      }

      .cls-12 {
        fill: #ebebeb;
      }

      .cls-13 {
        fill: #ff9a6c;
      }

      .cls-14 {
        fill: #455a64;
      }

      .cls-15 {
        fill: #ffbf9d;
      }
    </style>
  </defs>
  <g id="Background_Complete" data-name="Background Complete">
    <g>
      <path class="cls-3" d="m567.73,304.32s0-.08-.01-.21c0-.16,0-.36-.01-.6,0-.55-.02-1.32-.03-2.31-.02-2.03-.04-4.95-.08-8.62l.14.14c-10.15.02-26.28.05-44.43.09.1-.1-.23.23.22-.23h0v.38s0,.38,0,.38v.75c0,.5,0,1,0,1.5,0,1,0,1.99,0,2.97,0,1.96,0,3.89,0,5.78l-.22-.22c12.65.04,23.72.08,31.66.1,3.96.03,7.13.05,9.35.06,1.08.01,1.92.02,2.53.03.27,0,.49.01.66.01.15,0,.23,0,.23.01,0,0-.06,0-.21.01-.16,0-.37,0-.63.01-.59,0-1.42.02-2.48.03-2.2.01-5.36.04-9.29.06-7.98.03-19.1.06-31.82.1h-.22s0-.22,0-.22c0-1.89,0-3.82,0-5.78,0-.98,0-1.97,0-2.97,0-.5,0-1,0-1.5v-.75s0-.38,0-.38v-.35h0v-.02h0c.45-.46.13-.13.23-.23,18.15.04,34.28.07,44.43.09h.14s0,.14,0,.14c-.03,3.71-.06,6.66-.08,8.71-.01.98-.03,1.74-.03,2.28,0,.24-.01.43-.01.58,0,.13,0,.19-.01.19Z"/>
      <path class="cls-3" d="m573.75,292.57s-.01-.08-.02-.22c0-.17-.01-.37-.02-.62,0-.58-.02-1.36-.04-2.36-.02-2.06-.05-4.97-.09-8.55l.16.16c-6.92.02-16.32.04-26.69.06-.2.2.27-.28.22-.23h0v.38s0,.39,0,.39v.77c0,.51,0,1.02,0,1.52,0,1.01,0,2.01,0,2.99,0,1.97,0,3.87,0,5.7l-.22-.22c7.71.04,14.34.08,19.1.1,2.35.03,4.23.05,5.56.06.62.01,1.12.02,1.5.03.34,0,.53.02.54.03,0,0-.16.02-.48.03-.37,0-.85.02-1.46.03-1.33.01-3.19.03-5.51.06-4.79.03-11.48.06-19.24.1h-.22s0-.22,0-.22c0-1.83,0-3.73,0-5.7,0-.98,0-1.98,0-2.99,0-.51,0-1.01,0-1.52v-.77s0-.39,0-.39v-.36h0v-.02h0s.43-.43.23-.23c10.37.02,19.78.05,26.69.06h.16s0,.16,0,.16c-.04,3.62-.07,6.57-.09,8.65-.02.98-.03,1.75-.04,2.32-.01.53-.02.8-.03.78Z"/>
    </g>
    <g>
      <rect class="cls-12" x="48.2" y="64.65" width="48.65" height="12.87"/>
      <path class="cls-3" d="m76.28,91.08s-.01-.08-.02-.23c0-.17,0-.39-.02-.66,0-.61-.02-1.45-.04-2.53-.02-2.22-.05-5.42-.08-9.44l.15.15c-11.11.02-28.78.06-48.65.1.11-.11-.25.25.24-.25h0v.82s0,.83,0,.83c0,.55,0,1.1,0,1.64,0,1.09,0,2.17,0,3.25,0,2.15,0,4.26,0,6.33l-.24-.24c13.85.04,25.98.08,34.67.11,4.33.03,7.81.05,10.23.07,1.18.01,2.11.02,2.77.03.3,0,.54.01.72.02.16,0,.25.01.26.02,0,0-.07.01-.23.02-.18,0-.41,0-.69.02-.65,0-1.56.02-2.71.03-2.41.02-5.87.04-10.18.07-8.74.03-20.92.07-34.84.11h-.24s0-.24,0-.24c0-2.07,0-4.18,0-6.33,0-1.07,0-2.16,0-3.25,0-.55,0-1.09,0-1.64v-.83s0-.41,0-.41v-.39h0v-.02h0c.5-.5.14-.14.25-.25,19.87.04,37.54.07,48.65.1h.15s0,.15,0,.15c-.04,4.07-.06,7.29-.08,9.53-.02,1.07-.03,1.9-.04,2.5,0,.26-.01.47-.02.63,0,.14,0,.21-.01.2Z"/>
    </g>
    <g>
      <rect class="cls-12" x="394.33" y="318.83" width="44.43" height="11.75"/>
      <path class="cls-3" d="m419.97,342.97s0-.08-.01-.21c0-.16,0-.36-.01-.6,0-.55-.02-1.32-.03-2.31-.02-2.03-.04-4.95-.08-8.62l.14.14c-10.15.02-26.28.05-44.43.09.1-.1-.23.23.22-.23h0v.75s0,.75,0,.75c0,.5,0,1,0,1.5,0,1,0,1.99,0,2.97,0,1.96,0,3.89,0,5.78l-.22-.22c12.65.04,23.72.08,31.66.1,3.96.03,7.13.05,9.35.06,1.08.01,1.92.02,2.53.03.27,0,.49.01.66.01.15,0,.23,0,.23.01,0,0-.06,0-.21.01-.16,0-.37,0-.63.01-.59,0-1.42.02-2.48.03-2.2.01-5.36.04-9.3.06-7.98.03-19.1.06-31.82.1h-.22s0-.22,0-.22c0-1.89,0-3.82,0-5.78,0-.98,0-1.97,0-2.97,0-.5,0-1,0-1.5v-.75s0-.38,0-.38v-.35h0v-.02h0c.45-.46.13-.13.23-.23,18.15.04,34.28.07,44.43.09h.14s0,.14,0,.14c-.03,3.71-.06,6.66-.08,8.71-.01.98-.03,1.74-.03,2.28,0,.24-.01.43-.01.58,0,.13,0,.19-.01.19Z"/>
    </g>
    <rect class="cls-12" x="453.6" y="92.75" width="48.65" height="15.71"/>
    <rect class="cls-12" x="622.1" y="148.75" width="48.65" height="12.87"/>
    <g>
      <path class="cls-3" d="m186.76,26.04s0-.08-.01-.23c0-.17,0-.39-.02-.66,0-.61-.02-1.45-.04-2.53-.02-2.22-.05-5.42-.08-9.44l.15.15c-11.11.02-28.78.06-48.65.1.11-.11-.25.25.24-.25h0v.41s0,.41,0,.41v.83c0,.55,0,1.1,0,1.64,0,1.09,0,2.17,0,3.25,0,2.15,0,4.26,0,6.33l-.24-.24c13.85.04,25.98.08,34.67.11,4.33.03,7.81.05,10.23.07,1.18.01,2.11.02,2.77.03.3,0,.54.01.72.02.16,0,.25.01.26.02,0,0-.07.01-.23.02-.18,0-.41,0-.69.02-.65,0-1.56.02-2.71.03-2.41.02-5.87.04-10.18.07-8.74.03-20.92.07-34.84.11h-.24s0-.24,0-.24c0-2.07,0-4.18,0-6.33,0-1.07,0-2.16,0-3.25,0-.55,0-1.09,0-1.64v-.83s0-.41,0-.41v-.39h0v-.02h0c.5-.5.14-.14.25-.25,19.87.04,37.54.07,48.65.1h.15s0,.15,0,.15c-.04,4.07-.06,7.29-.08,9.53-.02,1.07-.03,1.9-.04,2.5,0,.26-.01.47-.02.63,0,.14,0,.21-.02.2Z"/>
      <path class="cls-3" d="m193.35,13.17s-.01-.09-.02-.24c0-.18-.01-.41-.02-.68-.01-.63-.03-1.49-.04-2.58-.02-2.26-.06-5.44-.1-9.36l.18.18c-7.57.02-17.88.04-29.23.07-.22.22.3-.3.25-.25h0v.42s0,.42,0,.42v.84c0,.56,0,1.12,0,1.67,0,1.11,0,2.2,0,3.28,0,2.15,0,4.24,0,6.24l-.24-.24c8.44.05,15.7.08,20.91.11,2.57.03,4.63.05,6.09.07.68.01,1.23.02,1.64.03.38,0,.58.02.59.03,0,0-.17.02-.53.03-.4,0-.93.02-1.59.03-1.45.02-3.49.04-6.04.07-5.25.03-12.57.07-21.07.11h-.24s0-.24,0-.24c0-2,0-4.09,0-6.24,0-1.08,0-2.17,0-3.28,0-.55,0-1.11,0-1.67v-.84s0-.42,0-.42v-.4h0v-.02h0c-.05.05.47-.47.25-.25,11.35.03,21.66.05,29.23.07h.18s0,.18,0,.18c-.04,3.96-.07,7.19-.1,9.47-.02,1.07-.03,1.92-.04,2.54-.01.58-.03.87-.04.86Z"/>
    </g>
    <g>
      <path class="cls-3" d="m583.46,32.73s0-.08-.01-.23c0-.17,0-.39-.02-.66,0-.61-.02-1.45-.04-2.53-.02-2.22-.05-5.42-.08-9.44l.15.15c-11.11.02-28.78.06-48.65.1.11-.11-.25.25.25-.25h0v.41s0,.41,0,.41v.83c0,.55,0,1.1,0,1.64,0,1.09,0,2.17,0,3.25,0,2.15,0,4.26,0,6.33l-.24-.24c13.85.04,25.98.08,34.67.11,4.33.03,7.81.05,10.23.07,1.18.01,2.11.02,2.77.03.3,0,.54.01.72.02.16,0,.25.01.26.02,0,0-.07.01-.23.02-.18,0-.41,0-.69.02-.65,0-1.56.02-2.71.03-2.41.02-5.87.04-10.18.07-8.74.03-20.92.07-34.84.11h-.24s0-.24,0-.24c0-2.07,0-4.18,0-6.33,0-1.07,0-2.16,0-3.25,0-.55,0-1.09,0-1.64v-.83s0-.41,0-.41v-.39h0v-.02h0c.5-.5.14-.14.25-.25,19.87.04,37.54.07,48.65.1h.15s0,.15,0,.15c-.04,4.07-.06,7.29-.08,9.53-.02,1.07-.03,1.9-.04,2.5,0,.26-.01.47-.02.63,0,.14,0,.21-.02.2Z"/>
      <path class="cls-3" d="m590.05,19.86s-.01-.09-.02-.24c0-.18-.01-.41-.02-.68-.01-.63-.03-1.49-.04-2.58-.02-2.26-.06-5.44-.1-9.36l.18.18c-7.57.02-17.88.04-29.23.07-.22.22.3-.3.25-.25h0v.42s0,.42,0,.42v.84c0,.56,0,1.12,0,1.67,0,1.11,0,2.2,0,3.28,0,2.15,0,4.24,0,6.24l-.24-.24c8.44.05,15.7.08,20.91.11,2.57.03,4.63.05,6.09.07.68.01,1.23.02,1.64.03.38,0,.58.02.59.03,0,0-.17.02-.53.03-.4,0-.93.02-1.59.03-1.45.02-3.49.04-6.04.07-5.25.03-12.57.07-21.07.11h-.24s0-.24,0-.24c0-2,0-4.09,0-6.24,0-1.08,0-2.17,0-3.28,0-.55,0-1.11,0-1.67v-.84s0-.42,0-.42v-.4h0v-.02h0c-.05.05.47-.47.25-.25,11.35.03,21.66.05,29.23.07h.18s0,.18,0,.18c-.04,3.96-.07,7.19-.1,9.47-.02,1.07-.03,1.92-.04,2.54-.01.58-.03.87-.04.86Z"/>
    </g>
    <g>
      <path class="cls-3" d="m232.51,100.62s0-.08-.02-.23c0-.17,0-.39-.02-.66,0-.61-.02-1.45-.04-2.53-.02-2.22-.05-5.42-.08-9.44l.15.15c-11.11.02-28.78.06-48.65.1.11-.11-.25.25.24-.25h0v.41s0,.41,0,.41v.83c0,.55,0,1.1,0,1.64,0,1.09,0,2.17,0,3.25,0,2.15,0,4.26,0,6.33l-.24-.24c13.85.04,25.98.08,34.67.11,4.33.03,7.81.05,10.23.07,1.18.01,2.11.02,2.77.03.3,0,.54.01.72.02.16,0,.25.01.26.02,0,0-.07.01-.23.02-.18,0-.41,0-.69.02-.65,0-1.56.02-2.71.03-2.41.02-5.87.04-10.18.07-8.74.03-20.92.07-34.84.11h-.24s0-.24,0-.24c0-2.07,0-4.18,0-6.33,0-1.07,0-2.16,0-3.25,0-.55,0-1.09,0-1.64v-.83s0-.41,0-.41v-.39h0v-.02h0c.5-.5.14-.14.25-.25,19.87.04,37.54.07,48.65.1h.15s0,.15,0,.15c-.04,4.07-.06,7.29-.08,9.53-.02,1.07-.03,1.9-.04,2.5,0,.26-.01.47-.02.63,0,.14,0,.21-.02.2Z"/>
      <path class="cls-3" d="m239.1,87.75s-.01-.09-.02-.24c0-.18-.01-.41-.02-.68-.01-.63-.03-1.49-.04-2.58-.02-2.26-.06-5.44-.1-9.36l.18.18c-7.57.02-17.88.04-29.23.07-.22.22.3-.3.25-.25h0v.42s0,.42,0,.42v.84c0,.56,0,1.12,0,1.67,0,1.11,0,2.2,0,3.28,0,2.15,0,4.24,0,6.24l-.24-.24c8.44.05,15.7.08,20.91.11,2.57.03,4.63.05,6.09.07.68.01,1.23.02,1.64.03.38,0,.58.02.59.03,0,0-.17.02-.53.03-.4,0-.93.02-1.59.03-1.45.02-3.49.04-6.04.07-5.25.03-12.57.07-21.07.11h-.24s0-.24,0-.24c0-2,0-4.09,0-6.24,0-1.08,0-2.17,0-3.28,0-.55,0-1.11,0-1.67v-.84s0-.42,0-.42v-.4h0v-.02h0c-.05.05.47-.47.25-.25,11.35.03,21.66.05,29.23.07h.18s0,.18,0,.18c-.04,3.96-.07,7.19-.1,9.47-.02,1.07-.03,1.92-.04,2.54-.01.58-.03.87-.04.86Z"/>
    </g>
    <g>
      <path class="cls-3" d="m58.57,217.8s0-.08-.01-.21c0-.16,0-.36-.01-.6,0-.55-.02-1.32-.03-2.31-.02-2.03-.04-4.95-.08-8.62l.14.14c-10.15.02-26.28.05-44.43.09.1-.1-.23.23.22-.23h0v.38s0,.38,0,.38v.75c0,.5,0,1,0,1.5,0,1,0,1.99,0,2.97,0,1.96,0,3.89,0,5.78l-.22-.22c12.65.04,23.72.08,31.66.1,3.96.03,7.13.05,9.35.06,1.08.01,1.92.02,2.53.03.27,0,.49.01.66.01.15,0,.23,0,.23.01,0,0-.06,0-.21.01-.16,0-.37,0-.63.01-.59,0-1.42.02-2.48.03-2.2.01-5.36.04-9.29.06-7.98.03-19.1.06-31.82.1h-.22s0-.22,0-.22c0-1.89,0-3.82,0-5.78,0-.98,0-1.97,0-2.97,0-.5,0-1,0-1.5v-.75s0-.38,0-.38v-.35h0v-.02h0c.45-.46.13-.13.23-.23,18.15.04,34.28.07,44.43.09h.14s0,.14,0,.14c-.03,3.71-.06,6.66-.08,8.71-.01.98-.03,1.74-.03,2.28,0,.24-.01.43-.01.58,0,.13,0,.19-.01.19Z"/>
      <path class="cls-3" d="m64.59,206.04s-.01-.08-.02-.22c0-.17-.01-.37-.02-.62,0-.58-.02-1.36-.04-2.36-.02-2.06-.05-4.97-.09-8.55l.16.16c-6.92.02-16.32.04-26.69.06-.2.2.27-.28.22-.23h0v.38s0,.39,0,.39v.77c0,.51,0,1.02,0,1.52,0,1.01,0,2.01,0,2.99,0,1.97,0,3.87,0,5.7l-.22-.22c7.71.04,14.34.08,19.1.1,2.35.03,4.23.05,5.56.06.62.01,1.12.02,1.5.03.34,0,.53.02.54.03,0,0-.16.02-.48.03-.37,0-.85.02-1.46.03-1.33.01-3.19.03-5.51.06-4.79.03-11.48.06-19.24.1h-.22s0-.22,0-.22c0-1.83,0-3.73,0-5.7,0-.98,0-1.98,0-2.99,0-.51,0-1.01,0-1.52v-.77s0-.39,0-.39v-.36h0v-.02h0s.43-.43.23-.23c10.37.02,19.78.05,26.69.06h.16s0,.16,0,.16c-.04,3.62-.07,6.57-.09,8.65-.02.98-.03,1.75-.04,2.32-.01.53-.02.8-.03.78Z"/>
    </g>
    <g>
      <g>
        <path class="cls-3" d="m21.36,331.84c-3.61-2.27-7.75-3.69-11.99-4.13-1.96-.2-4.1-.14-5.67,1.04-.33.25-.66.62-.58,1.04.05.3.31.52.55.71,4.88,3.72,12.26,4.19,17.69,1.34"/>
        <path class="cls-3" d="m21.06,331.5c-2.71-2.12-5.44-4.25-7.74-6.81-2.3-2.56-4.17-5.61-4.86-8.98-.21-1.02-.27-2.19.38-3,6.17,4.82,11.02,11.06,12.22,18.8"/>
        <path class="cls-3" d="m21.3,331.79c-.46-3.38-.63-6.85.14-10.17.78-3.32,2.58-6.5,5.42-8.39,1.07,2.49.61,5.37-.14,7.97-1.16,4.03-2.98,7.86-5.37,11.31"/>
        <path class="cls-3" d="m27.35,342.64c-3.67.45-6.87,2.38-9.62,4.87-2.74,2.48-4.69,5.83-5.5,9.44,3.6-.22,6.66-2.76,8.88-5.61,2.22-2.85,3.75-5.98,6.19-8.64"/>
        <path class="cls-3" d="m28.67,344.37c-2.96-7.29-1.89-16.07,2.74-22.43,2.09,7.44,1.32,15.85-2.74,22.43"/>
        <path class="cls-3" d="m36.66,353.89c-3.33-.21-6.72.59-9.62,2.25-2.89,1.67-5.28,4.2-6.78,7.19-.2.41-.38.92-.11,1.29.24.32.69.35,1.09.32,3.23-.21,6.1-2.15,8.46-4.37,2.36-2.21,4.42-4.77,7.03-6.69"/>
        <path class="cls-3" d="m36.41,353.37c-1.72-5.5-1.83-11.5-.3-17.06.6-2.2,1.61-4.51,3.64-5.54.17-.09.38-.17.56-.1.17.06.27.24.35.41.72,1.51.93,3.22.86,4.89-.07,1.67-.42,3.32-.77,4.95-.64,3.03-.98,6.28-2.64,8.89-.39.62-.74,1.29-1.06,1.95-.31.66-.32.9-.6,1.43"/>
        <path class="cls-3" d="m57.57,356.53c-1.57-5.96.1-13.2,3.85-18.08.28-.36.64-.75,1.1-.7.69.06.87.99.84,1.68-.27,6.09-2.31,12.1-5.79,17.11"/>
        <path class="cls-3" d="m59.48,357.83c7.25,1.89,15.56.05,21.59-4.39-3.57-1.81-7.78-2.33-11.69-1.43-3.9.89-7.47,2.64-9.9,5.82"/>
        <path class="cls-3" d="m61.09,353.86c4.06-6.62,11.84-10.94,19.59-11.33-.89,3.15-3.48,5.6-6.41,7.08-2.92,1.48-6.19,2.13-9.4,2.75-1.25.24-2.97.51-3.78,1.49"/>
        <path class="cls-3" d="m57.97,334.59c1.1-3.77,2.2-7.56,2.51-11.47.3-3.91-.26-7.99-2.29-11.35-3.79,7.34-4.17,15.91-.33,23.22"/>
        <path class="cls-3" d="m70.74,328.14c4.43-8.06,13.48-14.49,22.63-15.4-3.53,8.79-13.16,15.58-22.63,15.4"/>
        <path class="cls-3" d="m67.95,329.72c6.61,1.01,12.24,5.23,18.42,7.79,1.32.55,2.75.98,4.16.8,1.42-.19,2.82-1.14,3.14-2.53.26-1.16-.26-2.39-1.09-3.24-.83-.85-1.93-1.38-3.03-1.84-6.73-2.8-13.95-2.87-21.04-1.17"/>
        <path class="cls-3" d="m64.12,334.35c1.5.43,2.01,1.2,3.19,2.21,4.02,3.42,8.84,5.9,13.97,7.18.53.13,1.23.19,1.5-.3.23-.42-.06-.93-.36-1.31-2.15-2.69-5.21-4.53-8.44-5.73-3.22-1.2-6.02-2.65-9.87-2.34"/>
        <path class="cls-3" d="m59.8,306.35c5.38,5.02,12.95,7.59,20.27,6.9.33-.03.7-.08.92-.33.51-.55-.1-1.41-.7-1.88-5.96-4.65-13.18-6.57-20.5-4.69"/>
        <path class="cls-3" d="m64.92,304.47c7.11-5.33,16.85-6.94,25.29-4.17-3.19,3.14-7.6,4.83-12.05,5.29-4.45.46-8.9-.03-13.24-1.12"/>
        <path class="cls-3" d="m62.89,291.6c-.59-5.95-.21-10.64-.62-16.62-.03-.48-.14-1.05-.58-1.22-.62-.24-1.14.52-1.34,1.16-1.77,5.51-.8,11.83,2.54,16.55"/>
        <path class="cls-3" d="m62.46,292.26c4.03-2.49,7.06-5.75,9.85-9.58,1.95-2.66,3.59-5.85,3.14-9.12-2.73-.05-5.33,1.45-7.11,3.53-1.78,2.08-2.83,4.67-3.62,7.29-.79,2.62-1.34,5.31-2.27,7.88"/>
        <path class="cls-3" d="m72.14,289.57c8.85-3.27,17.1-8.14,24.25-14.3-2.9-1.17-6.21-.47-9.11.7-6.62,2.67-12.02,7.18-15.27,13.53"/>
        <path class="cls-3" d="m65.18,295.52c4.48.49,9.02.81,13.47.07,4.37-.73,8.49-2.46,12.57-4.18.34-.14.71-.31.85-.65.16-.36-.01-.81-.31-1.08-.3-.27-.69-.4-1.07-.5-4.43-1.24-9.22-.66-13.58.81-4.36,1.47-7.94,3.22-11.93,5.53"/>
        <path class="cls-3" d="m39.62,306.55c-3.05-6.16-2.86-13.36-.22-19.71,1.86,2.83,2.08,6.43,1.74,9.8-.34,3.37-1.36,6.83-1.43,10.22"/>
        <path class="cls-3" d="m27.42,300.4c-7.63-.15-15.25,3.1-20.43,8.7,3.81.6,7.73-.38,11.19-2.07,3.46-1.69,6.54-4.06,9.59-6.42"/>
        <path class="cls-3" d="m19.22,297.65c-3.73-.3-7.32-.76-10.91.33-3.59,1.1-6.85,3.59-8.31,7.05,3.49.39,7.03-.48,10.22-1.93,3.2-1.45,6.11-3.46,8.99-5.45"/>
        <path class="cls-3" d="m31.36,297.78c-3.36-2.2-6.8-4.44-10.71-5.35-3.91-.91-8.44-.24-11.16,2.71,3.16,1.86,7,2.08,10.67,2.07,3.67,0,8.16-.04,11.62,1.18"/>
        <path class="cls-3" d="m31.38,297.96c-5.74-5.63-7.91-15.75-5.6-23.46,4.51,6.85,6.53,15.31,5.6,23.46"/>
        <path class="cls-3" d="m47.16,281.99c1.08-2.52,1.84-5.16,2.81-7.72.97-2.56,2.18-5.08,4.01-7.11,1.83-2.03,4.37-3.55,7.11-3.68-1.71,7.75-6.86,14.68-13.79,18.55"/>
        <path class="cls-3" d="m44.3,285.32c-1.79-2.46-3.86-5.81-6.29-7.65-2.43-1.84-5.59-2.95-8.55-2.25,3.01,5.39,8.71,9.19,14.84,9.9"/>
        <path class="cls-3" d="m44.88,282.2c-1.17-2.98-2.36-6-2.83-9.17-.47-3.17-.19-6.55,1.43-9.32,3.15,5.95,4.16,12.34,1.56,18.55"/>
        <path class="cls-3" d="m47.19,263.71c1.78-5.9,7.19-10.25,13.02-12.24.74-.25,1.51-.46,2.28-.34.77.12,1.52.64,1.68,1.4.21,1-.62,1.9-1.4,2.57-4.54,3.88-9.88,6.83-15.59,8.61"/>
        <path class="cls-3" d="m47.25,258.89c.23-3.81.46-7.67,1.7-11.27,1.24-3.61,3.62-6.99,7.09-8.56.59,3.84-1.11,7.67-3.15,10.97-2.04,3.31-4.51,6.43-5.74,10.12"/>
        <path class="cls-3" d="m47.16,261.51c-1.47-4.3-1.63-9.76-4.2-13.51-1.8-2.62-4.68-4.4-6.23-7.18-1.03,2.59-.72,5.58.36,8.15,1.08,2.57,2.86,4.79,4.76,6.82,1.91,2.04,3.54,3.57,5.31,5.72"/>
        <path class="cls-3" d="m47.19,388.16c-.11,0-.21-28.69-.22-64.07,0-35.4.08-64.08.19-64.08s.21,28.68.22,64.08c0,35.38-.08,64.07-.19,64.07Z"/>
        <path class="cls-3" d="m72.26,302.22s-.38.17-1.08.41c-.77.26-1.77.6-2.97,1-2.5.85-5.94,2.09-9.67,3.62-3.7,1.59-7.18,2.87-9.16,4.59-.99.85-1.56,1.77-1.84,2.44-.28.67-.34,1.09-.37,1.08-.01,0,0-.1.01-.3.03-.19.08-.48.21-.84.24-.71.8-1.69,1.8-2.6,1-.91,2.39-1.73,3.98-2.47,1.59-.74,3.35-1.52,5.23-2.29,3.74-1.53,7.21-2.73,9.74-3.51,1.26-.39,2.3-.69,3.01-.88.72-.19,1.12-.28,1.13-.25Z"/>
        <path class="cls-3" d="m80.48,282.03s-.09.12-.3.32c-.24.23-.55.52-.92.86-.86.78-2.02,1.83-3.44,3.12-2.97,2.64-6.99,6.23-11.44,10.19-4.47,3.97-8.32,7.77-11,10.63-1.34,1.43-2.39,2.61-3.11,3.44-.34.38-.61.7-.83.95-.19.21-.3.32-.31.31-.01,0,.07-.14.25-.37.17-.23.43-.57.77-1,.68-.86,1.71-2.07,3.02-3.53,2.63-2.92,6.46-6.76,10.94-10.74,4.48-3.97,8.56-7.53,11.52-10.1,1.45-1.25,2.65-2.27,3.52-3.02.39-.33.71-.59.97-.81.23-.18.35-.27.36-.26Z"/>
        <path class="cls-3" d="m59.56,300.57c-.12-.05.82-2.21,1.75-4.93.94-2.72,1.38-5.02,1.5-5,.11.01-.16,2.38-1.11,5.14-.47,1.38-.98,2.59-1.39,3.45-.41.86-.7,1.37-.75,1.35Z"/>
        <path class="cls-3" d="m47.21,317.94s-.27-.27-.69-.8c-.47-.6-1.06-1.36-1.76-2.26-1.48-1.91-3.53-4.56-5.82-7.45-2.3-2.89-4.4-5.49-5.93-7.36-.72-.89-1.32-1.64-1.8-2.23-.42-.53-.64-.83-.62-.85.02-.02.29.25.74.75.46.5,1.11,1.23,1.9,2.15,1.59,1.83,3.73,4.4,6.03,7.29,2.3,2.89,4.31,5.57,5.73,7.53.71.98,1.28,1.78,1.66,2.34.38.56.58.88.56.89Z"/>
        <path class="cls-3" d="m41.72,310.88c-.07.07-1.53-1.67-2.3-4.31-.57-1.86-.59-3.57-.52-4.35h.18c-.08.35-.14.52-.17.52-.03,0-.03-.19,0-.53h.18c.07.79.18,2.43.74,4.24.74,2.56,2.02,4.36,1.91,4.43Z"/>
        <path class="cls-3" d="m34.62,301.95c-.05.06-.53-.54-1.61-.93-1.07-.42-2.69-.51-4.46-.36-1.78.13-3.36.45-4.5.73-1.13.28-1.83.5-1.85.44-.02-.05.64-.37,1.77-.73,1.13-.35,2.74-.72,4.54-.86,1.79-.15,3.5-.02,4.61.5,1.13.5,1.54,1.2,1.5,1.21Z"/>
        <path class="cls-3" d="m32.94,299.79c-.03.06-.94-.38-2.46-.9-1.52-.52-3.7-1.07-6.15-1.27-2.45-.18-4.68.03-6.27.32-1.59.28-2.55.58-2.57.51,0-.03.22-.12.65-.28.43-.16,1.06-.34,1.86-.52,1.59-.36,3.86-.63,6.36-.44,2.5.19,4.7.8,6.22,1.4.76.3,1.36.58,1.76.8.4.22.62.35.6.37Z"/>
        <path class="cls-3" d="m47.16,290.64c-.11.03-.92-2.77-1.8-6.24-.88-3.48-1.51-6.31-1.39-6.34s.92,2.77,1.8,6.24c.88,3.47,1.51,6.31,1.39,6.34Z"/>
        <path class="cls-3" d="m47.27,290.64c-.12.04-.64-1.83-1.99-3.74-1.31-1.95-2.99-2.93-2.93-3.02.02-.04.48.13,1.13.58.65.45,1.45,1.21,2.14,2.2,1.4,1.99,1.75,3.97,1.65,3.97Z"/>
        <path class="cls-3" d="m47.19,372.87s-.13-.69-.45-1.91c-.32-1.22-.92-2.95-1.92-4.97-1.98-4.05-5.59-9.19-10.17-14.33-2.27-2.59-4.47-5.04-6.34-7.39-1.87-2.34-3.41-4.57-4.54-6.54-1.13-1.97-1.86-3.66-2.29-4.86-.21-.6-.37-1.07-.45-1.39-.09-.32-.13-.49-.12-.5.04-.01.25.66.72,1.83.47,1.17,1.24,2.83,2.39,4.77,1.15,1.94,2.7,4.14,4.58,6.45,1.88,2.32,4.08,4.75,6.36,7.35,4.6,5.16,8.19,10.36,10.12,14.48.97,2.05,1.54,3.82,1.81,5.06.13.62.22,1.11.25,1.44.04.33.06.51.04.51Z"/>
        <path class="cls-3" d="m69.84,347.28s-.42.25-1.19.67c-.76.43-1.84,1.09-3.08,2.04-1.24.95-2.62,2.19-4.04,3.69-1.42,1.5-2.88,3.24-4.37,5.11-2.98,3.74-5.78,7.06-7.45,9.7-.85,1.31-1.47,2.42-1.87,3.19-.41.77-.62,1.21-.65,1.2-.01,0,.03-.12.11-.34.09-.21.21-.53.4-.93.36-.8.94-1.94,1.77-3.28,1.62-2.71,4.39-6.07,7.37-9.8,1.5-1.87,2.98-3.61,4.42-5.11,1.45-1.49,2.87-2.73,4.14-3.66,1.27-.93,2.39-1.56,3.18-1.94.39-.2.71-.32.93-.41.21-.09.33-.13.34-.11Z"/>
        <path class="cls-3" d="m70.29,355.58c0,.06-.96.18-2.51.36-1.55.2-3.7.46-5.95,1.17-2.25.73-4.11,1.85-5.33,2.8-1.23.95-1.81,1.73-1.86,1.69-.02-.01.1-.23.37-.58.27-.35.71-.82,1.31-1.34,1.2-1.03,3.08-2.21,5.39-2.96,2.31-.73,4.49-.94,6.05-1.07,1.57-.11,2.53-.13,2.54-.07Z"/>
        <path class="cls-3" d="m55.36,360.69c-.13-.07,1-1.8,1.88-4.13.82-2.34,1.02-4.4,1.16-4.38.05,0,.05.52-.04,1.35-.1.82-.3,1.97-.73,3.17-.44,1.2-1.01,2.21-1.46,2.91-.45.7-.77,1.1-.81,1.07Z"/>
        <path class="cls-3" d="m77.18,324.99s-.13.09-.4.21c-.31.14-.7.32-1.18.54-.52.22-1.14.5-1.85.87-.71.37-1.54.74-2.4,1.26-.44.25-.89.51-1.37.78-.47.27-.94.6-1.44.91-1.01.61-2.02,1.37-3.1,2.14-2.11,1.6-4.33,3.5-6.47,5.69-2.12,2.21-3.94,4.5-5.47,6.66-.73,1.11-1.45,2.14-2.03,3.17-.3.51-.6.99-.86,1.47-.25.48-.5.95-.73,1.4-.49.88-.84,1.72-1.18,2.44-.35.72-.61,1.35-.81,1.88-.2.49-.36.88-.5,1.2-.12.27-.19.41-.2.41-.01,0,.03-.15.12-.44.11-.32.25-.73.42-1.23.18-.53.42-1.18.75-1.91.32-.73.65-1.59,1.13-2.48.23-.45.46-.92.71-1.42.25-.49.55-.98.84-1.5.57-1.04,1.28-2.09,2.01-3.21,1.52-2.19,3.35-4.5,5.48-6.73,2.15-2.21,4.4-4.11,6.54-5.71,1.09-.77,2.12-1.52,3.14-2.12.51-.31.98-.63,1.47-.9.48-.26.95-.52,1.39-.76.88-.5,1.72-.86,2.44-1.21.72-.35,1.36-.61,1.89-.81.49-.19.89-.34,1.21-.47.28-.1.43-.15.43-.14Z"/>
        <path class="cls-3" d="m59.25,337.01s.16-.7.99-1.47c.8-.76,2.27-1.47,3.97-1.52,1.7-.04,3.17.43,4.18.82,1.01.4,1.6.72,1.58.77-.02.06-.65-.17-1.68-.49-1.02-.31-2.46-.72-4.07-.68-1.61.05-2.99.67-3.79,1.33-.82.66-1.11,1.29-1.18,1.25Z"/>
        <path class="cls-3" d="m56.57,339.77c-.11-.06.9-1.55,1.13-3.67.26-2.12-.38-3.8-.25-3.83.05-.02.27.37.47,1.07.2.69.33,1.71.2,2.81-.13,1.1-.49,2.06-.84,2.69-.35.63-.66.96-.7.93Z"/>
      </g>
      <path class="cls-3" d="m27.37,376.98c.62,10.96,3.92,22.12,9,33.39h22.1c4.85-11.16,7.92-22.3,8.47-33.39H27.37Z"/>
      <path class="cls-8" d="m63.36,394.72c0,.11-7.28.21-16.25.21s-16.25-.09-16.25-.21,7.27-.21,16.25-.21,16.25.09,16.25.21Z"/>
      <path class="cls-8" d="m62.87,398.69c0,.11-6.82.21-15.23.21s-15.24-.09-15.24-.21,6.82-.21,15.24-.21,15.23.09,15.23.21Z"/>
      <path class="cls-8" d="m36.73,384.18c.11,0,.21,2.28.21,5.09s-.09,5.09-.21,5.09-.21-2.28-.21-5.09.09-5.09.21-5.09Z"/>
      <path class="cls-8" d="m48.57,384.18c.11,0,.21,2.36.21,5.27s-.09,5.27-.21,5.27-.21-2.36-.21-5.27.09-5.27.21-5.27Z"/>
      <path class="cls-8" d="m59.69,384.09c.11,0,.21,2.41.21,5.38s-.09,5.38-.21,5.38-.21-2.41-.21-5.38.09-5.38.21-5.38Z"/>
      <path class="cls-8" d="m66.24,384.18c0,.11-8.53.21-19.06.21s-19.06-.09-19.06-.21,8.53-.21,19.06-.21,19.06.09,19.06.21Z"/>
    </g>
    <g>
      <g>
        <path class="cls-3" d="m600.84,331.84c-3.61-2.27-7.75-3.69-11.99-4.13-1.96-.2-4.1-.14-5.67,1.04-.33.25-.66.62-.58,1.04.05.3.31.52.55.71,4.88,3.72,12.26,4.19,17.69,1.34"/>
        <path class="cls-3" d="m600.53,331.5c-2.71-2.12-5.44-4.25-7.74-6.81-2.3-2.56-4.17-5.61-4.86-8.98-.21-1.02-.27-2.19.38-3,6.17,4.82,11.02,11.06,12.22,18.8"/>
        <path class="cls-3" d="m600.77,331.79c-.46-3.38-.63-6.85.14-10.17.78-3.32,2.58-6.5,5.42-8.39,1.07,2.49.61,5.37-.14,7.97-1.16,4.03-2.98,7.86-5.37,11.31"/>
        <path class="cls-3" d="m606.82,342.64c-3.67.45-6.87,2.38-9.62,4.87-2.74,2.48-4.69,5.83-5.5,9.44,3.6-.22,6.66-2.76,8.88-5.61,2.22-2.85,3.75-5.98,6.19-8.64"/>
        <path class="cls-3" d="m608.14,344.37c-2.96-7.29-1.89-16.07,2.74-22.43,2.09,7.44,1.32,15.85-2.74,22.43"/>
        <path class="cls-3" d="m616.13,353.89c-3.33-.21-6.72.59-9.62,2.25-2.89,1.67-5.28,4.2-6.78,7.19-.2.41-.38.92-.11,1.29.24.32.69.35,1.09.32,3.23-.21,6.1-2.15,8.46-4.37,2.36-2.21,4.42-4.77,7.03-6.69"/>
        <path class="cls-3" d="m615.88,353.37c-1.72-5.5-1.83-11.5-.3-17.06.6-2.2,1.61-4.51,3.64-5.54.17-.09.38-.17.56-.1.17.06.27.24.35.41.72,1.51.93,3.22.86,4.89-.07,1.67-.42,3.32-.77,4.95-.64,3.03-.98,6.28-2.64,8.89-.39.62-.74,1.29-1.06,1.95-.31.66-.32.9-.6,1.43"/>
        <path class="cls-3" d="m637.04,356.53c-1.57-5.96.1-13.2,3.85-18.08.28-.36.64-.75,1.1-.7.69.06.87.99.84,1.68-.27,6.09-2.31,12.1-5.79,17.11"/>
        <path class="cls-3" d="m638.95,357.83c7.25,1.89,15.56.05,21.59-4.39-3.57-1.81-7.78-2.33-11.69-1.43-3.9.89-7.47,2.64-9.9,5.82"/>
        <path class="cls-3" d="m640.56,353.86c4.06-6.62,11.84-10.94,19.59-11.33-.89,3.15-3.48,5.6-6.41,7.08-2.92,1.48-6.19,2.13-9.4,2.75-1.25.24-2.97.51-3.78,1.49"/>
        <path class="cls-3" d="m637.45,334.59c1.1-3.77,2.2-7.56,2.51-11.47.3-3.91-.26-7.99-2.29-11.35-3.79,7.34-4.17,15.91-.33,23.22"/>
        <path class="cls-3" d="m650.21,328.14c4.43-8.06,13.48-14.49,22.63-15.4-3.53,8.79-13.16,15.58-22.63,15.4"/>
        <path class="cls-3" d="m647.42,329.72c6.61,1.01,12.24,5.23,18.42,7.79,1.32.55,2.75.98,4.16.8,1.42-.19,2.82-1.14,3.14-2.53.26-1.16-.26-2.39-1.09-3.24-.83-.85-1.93-1.38-3.03-1.84-6.73-2.8-13.95-2.87-21.04-1.17"/>
        <path class="cls-3" d="m643.6,334.35c1.5.43,2.01,1.2,3.19,2.21,4.02,3.42,8.84,5.9,13.97,7.18.53.13,1.23.19,1.5-.3.23-.42-.06-.93-.36-1.31-2.15-2.69-5.21-4.53-8.44-5.73-3.22-1.2-6.02-2.65-9.87-2.34"/>
        <path class="cls-3" d="m639.28,306.35c5.38,5.02,12.95,7.59,20.27,6.9.33-.03.7-.08.92-.33.51-.55-.1-1.41-.7-1.88-5.96-4.65-13.18-6.57-20.5-4.69"/>
        <path class="cls-3" d="m644.4,304.47c7.11-5.33,16.85-6.94,25.29-4.17-3.19,3.14-7.6,4.83-12.05,5.29-4.45.46-8.9-.03-13.24-1.12"/>
        <path class="cls-3" d="m642.36,291.6c-.59-5.95-.21-10.64-.62-16.62-.03-.48-.14-1.05-.58-1.22-.62-.24-1.14.52-1.34,1.16-1.77,5.51-.8,11.83,2.54,16.55"/>
        <path class="cls-3" d="m641.93,292.26c4.03-2.49,7.06-5.75,9.85-9.58,1.95-2.66,3.59-5.85,3.14-9.12-2.73-.05-5.33,1.45-7.11,3.53-1.78,2.08-2.83,4.67-3.62,7.29-.79,2.62-1.34,5.31-2.27,7.88"/>
        <path class="cls-3" d="m651.62,289.57c8.85-3.27,17.1-8.14,24.25-14.3-2.9-1.17-6.21-.47-9.11.7-6.62,2.67-12.02,7.18-15.27,13.53"/>
        <path class="cls-3" d="m644.66,295.52c4.48.49,9.02.81,13.47.07,4.37-.73,8.49-2.46,12.57-4.18.34-.14.71-.31.85-.65.16-.36-.01-.81-.31-1.08-.3-.27-.69-.4-1.07-.5-4.43-1.24-9.22-.66-13.58.81-4.36,1.47-7.94,3.22-11.93,5.53"/>
        <path class="cls-3" d="m619.1,306.55c-3.05-6.16-2.86-13.36-.22-19.71,1.86,2.83,2.08,6.43,1.74,9.8-.34,3.37-1.36,6.83-1.43,10.22"/>
        <path class="cls-3" d="m606.9,300.4c-7.63-.15-15.25,3.1-20.43,8.7,3.81.6,7.73-.38,11.19-2.07,3.46-1.69,6.54-4.06,9.59-6.42"/>
        <path class="cls-3" d="m598.69,297.65c-3.73-.3-7.32-.76-10.91.33-3.59,1.1-6.85,3.59-8.31,7.05,3.49.39,7.03-.48,10.22-1.93,3.2-1.45,6.11-3.46,8.99-5.45"/>
        <path class="cls-3" d="m610.84,297.78c-3.36-2.2-6.8-4.44-10.71-5.35-3.91-.91-8.44-.24-11.16,2.71,3.16,1.86,7,2.08,10.67,2.07,3.67,0,8.16-.04,11.62,1.18"/>
        <path class="cls-3" d="m610.86,297.96c-5.74-5.63-7.91-15.75-5.6-23.46,4.51,6.85,6.53,15.31,5.6,23.46"/>
        <path class="cls-3" d="m626.63,281.99c1.08-2.52,1.84-5.16,2.81-7.72.97-2.56,2.18-5.08,4.01-7.11,1.83-2.03,4.37-3.55,7.11-3.68-1.71,7.75-6.86,14.68-13.79,18.55"/>
        <path class="cls-3" d="m623.78,285.32c-1.79-2.46-3.86-5.81-6.29-7.65-2.43-1.84-5.59-2.95-8.55-2.25,3.01,5.39,8.71,9.19,14.84,9.9"/>
        <path class="cls-3" d="m624.35,282.2c-1.17-2.98-2.36-6-2.83-9.17-.47-3.17-.19-6.55,1.43-9.32,3.15,5.95,4.16,12.34,1.56,18.55"/>
        <path class="cls-3" d="m626.66,263.71c1.78-5.9,7.19-10.25,13.02-12.24.74-.25,1.51-.46,2.28-.34.77.12,1.52.64,1.68,1.4.21,1-.62,1.9-1.4,2.57-4.54,3.88-9.88,6.83-15.59,8.61"/>
        <path class="cls-3" d="m626.73,258.89c.23-3.81.46-7.67,1.7-11.27,1.24-3.61,3.62-6.99,7.09-8.56.59,3.84-1.11,7.67-3.15,10.97-2.04,3.31-4.51,6.43-5.74,10.12"/>
        <path class="cls-3" d="m626.63,261.51c-1.47-4.3-1.63-9.76-4.2-13.51-1.8-2.62-4.68-4.4-6.23-7.18-1.03,2.59-.72,5.58.36,8.15,1.08,2.57,2.86,4.79,4.76,6.82,1.91,2.04,3.54,3.57,5.31,5.72"/>
        <path class="cls-3" d="m626.66,388.16c-.11,0-.21-28.69-.22-64.07,0-35.4.08-64.08.19-64.08s.21,28.68.22,64.08c0,35.38-.08,64.07-.19,64.07Z"/>
        <path class="cls-3" d="m651.73,302.22s-.38.17-1.08.41c-.77.26-1.77.6-2.97,1-2.5.85-5.94,2.09-9.67,3.62-3.7,1.59-7.18,2.87-9.16,4.59-.99.85-1.56,1.77-1.84,2.44-.28.67-.34,1.09-.37,1.08-.01,0,0-.1.01-.3.03-.19.08-.48.21-.84.24-.71.8-1.69,1.8-2.6,1-.91,2.39-1.73,3.98-2.47,1.59-.74,3.35-1.52,5.23-2.29,3.74-1.53,7.21-2.73,9.74-3.51,1.26-.39,2.3-.69,3.01-.88.72-.19,1.12-.28,1.13-.25Z"/>
        <path class="cls-3" d="m659.95,282.03s-.09.12-.3.32c-.24.23-.55.52-.92.86-.86.78-2.02,1.83-3.44,3.12-2.97,2.64-6.99,6.23-11.44,10.19-4.47,3.97-8.32,7.77-11,10.63-1.34,1.43-2.39,2.61-3.11,3.44-.34.38-.61.7-.83.95-.19.21-.3.32-.31.31-.01,0,.07-.14.25-.37.17-.23.43-.57.77-1,.68-.86,1.71-2.07,3.02-3.53,2.63-2.92,6.46-6.76,10.94-10.74,4.48-3.97,8.56-7.53,11.52-10.1,1.45-1.25,2.65-2.27,3.52-3.02.39-.33.71-.59.97-.81.23-.18.35-.27.36-.26Z"/>
        <path class="cls-3" d="m639.03,300.57c-.12-.05.82-2.21,1.75-4.93.94-2.72,1.38-5.02,1.5-5,.11.01-.16,2.38-1.11,5.14-.47,1.38-.98,2.59-1.39,3.45-.41.86-.7,1.37-.75,1.35Z"/>
        <path class="cls-3" d="m626.69,317.94s-.27-.27-.69-.8c-.47-.6-1.06-1.36-1.76-2.26-1.48-1.91-3.53-4.56-5.82-7.45-2.3-2.89-4.4-5.49-5.93-7.36-.72-.89-1.32-1.64-1.8-2.23-.42-.53-.64-.83-.62-.85.02-.02.29.25.74.75.46.5,1.11,1.23,1.9,2.15,1.59,1.83,3.73,4.4,6.03,7.29,2.3,2.89,4.31,5.57,5.73,7.53.71.98,1.28,1.78,1.66,2.34.38.56.58.88.56.89Z"/>
        <path class="cls-3" d="m621.19,310.88c-.07.07-1.53-1.67-2.3-4.31-.57-1.86-.59-3.57-.52-4.35h.18c-.08.35-.14.52-.17.52-.03,0-.03-.19,0-.53h.18c.07.79.18,2.43.74,4.24.74,2.56,2.02,4.36,1.91,4.43Z"/>
        <path class="cls-3" d="m614.09,301.95c-.05.06-.53-.54-1.61-.93-1.07-.42-2.69-.51-4.46-.36-1.78.13-3.36.45-4.5.73-1.13.28-1.83.5-1.85.44-.02-.05.64-.37,1.77-.73,1.13-.35,2.74-.72,4.54-.86,1.79-.15,3.5-.02,4.61.5,1.13.5,1.54,1.2,1.5,1.21Z"/>
        <path class="cls-3" d="m612.41,299.79c-.03.06-.94-.38-2.46-.9-1.52-.52-3.7-1.07-6.15-1.27-2.45-.18-4.68.03-6.27.32-1.59.28-2.55.58-2.57.51,0-.03.22-.12.65-.28.43-.16,1.06-.34,1.86-.52,1.59-.36,3.86-.63,6.36-.44,2.5.19,4.7.8,6.22,1.4.76.3,1.36.58,1.76.8.4.22.62.35.6.37Z"/>
        <path class="cls-3" d="m626.63,290.64c-.11.03-.92-2.77-1.8-6.24-.88-3.48-1.51-6.31-1.39-6.34s.92,2.77,1.8,6.24c.88,3.47,1.51,6.31,1.39,6.34Z"/>
        <path class="cls-3" d="m626.75,290.64c-.12.04-.64-1.83-1.99-3.74-1.31-1.95-2.99-2.93-2.93-3.02.02-.04.48.13,1.13.58.65.45,1.45,1.21,2.14,2.2,1.4,1.99,1.75,3.97,1.65,3.97Z"/>
        <path class="cls-3" d="m626.66,372.87s-.13-.69-.45-1.91c-.32-1.22-.92-2.95-1.92-4.97-1.98-4.05-5.59-9.19-10.17-14.33-2.27-2.59-4.47-5.04-6.34-7.39-1.87-2.34-3.41-4.57-4.54-6.54-1.13-1.97-1.86-3.66-2.29-4.86-.21-.6-.37-1.07-.45-1.39-.09-.32-.13-.49-.12-.5.04-.01.25.66.72,1.83.47,1.17,1.24,2.83,2.39,4.77,1.15,1.94,2.7,4.14,4.58,6.45,1.88,2.32,4.08,4.75,6.36,7.35,4.6,5.16,8.19,10.36,10.12,14.48.97,2.05,1.54,3.82,1.81,5.06.13.62.22,1.11.25,1.44.04.33.06.51.04.51Z"/>
        <path class="cls-3" d="m649.32,347.28s-.42.25-1.19.67c-.76.43-1.84,1.09-3.08,2.04-1.24.95-2.62,2.19-4.04,3.69-1.42,1.5-2.88,3.24-4.37,5.11-2.98,3.74-5.78,7.06-7.45,9.7-.85,1.31-1.47,2.42-1.87,3.19-.41.77-.62,1.21-.65,1.2-.01,0,.03-.12.11-.34.09-.21.21-.53.4-.93.36-.8.94-1.94,1.77-3.28,1.62-2.71,4.39-6.07,7.37-9.8,1.5-1.87,2.98-3.61,4.42-5.11,1.45-1.49,2.87-2.73,4.14-3.66,1.27-.93,2.39-1.56,3.18-1.94.39-.2.71-.32.93-.41.21-.09.33-.13.34-.11Z"/>
        <path class="cls-3" d="m649.76,355.58c0,.06-.96.18-2.51.36-1.55.2-3.7.46-5.95,1.17-2.25.73-4.11,1.85-5.33,2.8-1.23.95-1.81,1.73-1.86,1.69-.02-.01.1-.23.37-.58.27-.35.71-.82,1.31-1.34,1.2-1.03,3.08-2.21,5.39-2.96,2.31-.73,4.49-.94,6.05-1.07,1.57-.11,2.53-.13,2.54-.07Z"/>
        <path class="cls-3" d="m634.84,360.69c-.13-.07,1-1.8,1.88-4.13.82-2.34,1.02-4.4,1.16-4.38.05,0,.05.52-.04,1.35-.1.82-.3,1.97-.73,3.17-.44,1.2-1.01,2.21-1.46,2.91-.45.7-.77,1.1-.81,1.07Z"/>
        <path class="cls-3" d="m656.66,324.99s-.13.09-.4.21c-.31.14-.7.32-1.18.54-.52.22-1.14.5-1.85.87-.71.37-1.54.74-2.4,1.26-.44.25-.89.51-1.37.78-.47.27-.94.6-1.44.91-1.01.61-2.02,1.37-3.1,2.14-2.11,1.6-4.33,3.5-6.47,5.69-2.12,2.21-3.94,4.5-5.47,6.66-.73,1.11-1.45,2.14-2.03,3.17-.3.51-.6.99-.86,1.47-.25.48-.5.95-.73,1.4-.49.88-.84,1.72-1.18,2.44-.35.72-.61,1.35-.81,1.88-.2.49-.36.88-.5,1.2-.12.27-.19.41-.2.41-.01,0,.03-.15.12-.44.11-.32.25-.73.42-1.23.18-.53.42-1.18.75-1.91.32-.73.65-1.59,1.13-2.48.23-.45.46-.92.71-1.42.25-.49.55-.98.84-1.5.57-1.04,1.28-2.09,2.01-3.21,1.52-2.19,3.35-4.5,5.48-6.73,2.15-2.21,4.4-4.11,6.54-5.71,1.09-.77,2.12-1.52,3.14-2.12.51-.31.98-.63,1.47-.9.48-.26.95-.52,1.39-.76.88-.5,1.72-.86,2.44-1.21.72-.35,1.36-.61,1.89-.81.49-.19.89-.34,1.21-.47.28-.1.43-.15.43-.14Z"/>
        <path class="cls-3" d="m638.72,337.01s.16-.7.99-1.47c.8-.76,2.27-1.47,3.97-1.52,1.7-.04,3.17.43,4.18.82,1.01.4,1.6.72,1.58.77-.02.06-.65-.17-1.68-.49-1.02-.31-2.46-.72-4.07-.68-1.61.05-2.99.67-3.79,1.33-.82.66-1.11,1.29-1.18,1.25Z"/>
        <path class="cls-3" d="m636.04,339.77c-.11-.06.9-1.55,1.13-3.67.26-2.12-.38-3.8-.25-3.83.05-.02.27.37.47,1.07.2.69.33,1.71.2,2.81-.13,1.1-.49,2.06-.84,2.69-.35.63-.66.96-.7.93Z"/>
      </g>
      <path class="cls-3" d="m606.85,376.98c.62,10.96,3.92,22.12,9,33.39h22.1c4.85-11.16,7.92-22.3,8.47-33.39h-39.57Z"/>
      <path class="cls-8" d="m642.84,394.72c0,.11-7.28.21-16.25.21s-16.25-.09-16.25-.21,7.27-.21,16.25-.21,16.25.09,16.25.21Z"/>
      <path class="cls-8" d="m642.34,398.69c0,.11-6.82.21-15.23.21s-15.24-.09-15.24-.21,6.82-.21,15.24-.21,15.23.09,15.23.21Z"/>
      <path class="cls-8" d="m616.21,384.18c.11,0,.21,2.28.21,5.09s-.09,5.09-.21,5.09-.21-2.28-.21-5.09.09-5.09.21-5.09Z"/>
      <path class="cls-8" d="m628.05,384.18c.11,0,.21,2.36.21,5.27s-.09,5.27-.21,5.27-.21-2.36-.21-5.27.09-5.27.21-5.27Z"/>
      <path class="cls-8" d="m639.16,384.09c.11,0,.21,2.41.21,5.38s-.09,5.38-.21,5.38-.21-2.41-.21-5.38.09-5.38.21-5.38Z"/>
      <path class="cls-8" d="m645.72,384.18c0,.11-8.53.21-19.06.21s-19.06-.09-19.06-.21,8.53-.21,19.06-.21,19.06.09,19.06.21Z"/>
    </g>
  </g>
  <g id="Floor">
    <path class="cls-9" d="m630.34,410.87c0,.13-134.76.24-300.95.24s-300.98-.11-300.98-.24,134.73-.24,300.98-.24,300.95.11,300.95.24Z"/>
  </g>
  <g id="Character_3" data-name="Character 3">
    <g>
      <g>
        <path class="cls-15" d="m552.52,235.06s-6.48-.2-10.13,3.56l5.24,9.44,9.99-2,.87-3.16,1.6-6-7.58-1.84Z"/>
        <path class="cls-14" d="m486.77,226.82s3.16,2.01,3.95,4.18c.79,2.17,18.9,15.05,18.9,15.05l2.44-.66,29.13-8.94,7.31,13.16-36.04,13.54c-1.05.23-26.67-8.12-26.67-8.12l1-28.21Z"/>
      </g>
      <g>
        <path class="cls-7" d="m555.98,257.01l-22.18-7.07-9.12,28.6-30.74-9.8,9.12-28.6-73.34-23.39,6.76-21.2,91.74-65.9,33.07,10.55-85.65,62.91,36.57,11.66,8.13-25.48,29.76,9.49-8.13,25.48,22.18,7.07-8.19,25.68Z"/>
        <g class="cls-17">
          <path class="cls-2" d="m555.98,257.01l-22.18-7.07-9.12,28.6-30.74-9.8,9.12-28.6-73.34-23.39,6.76-21.2,91.74-65.9,33.07,10.55-85.65,62.91,36.57,11.66,8.13-25.48,29.76,9.49-8.13,25.48,22.18,7.07-8.19,25.68Z"/>
        </g>
        <path class="cls-7" d="m547.59,254.45l-22.18-7.07-9.12,28.6-30.74-9.8,9.12-28.6-73.34-23.39,6.76-21.21,91.74-65.9,33.07,10.55-85.65,62.91,36.57,11.66,8.13-25.48,29.76,9.49-8.13,25.48,22.18,7.07-8.19,25.68Z"/>
      </g>
      <g class="cls-17">
        <path class="cls-2" d="m489.99,236.11l-.3-8.94.75-4.4s8.45.23,10.24-2.84c1.79-3.07,3.3-7.88,3.3-7.88l-10.51-2.48-7.7,12.05-2.33,5.89,3.7,7.71,2.85.89Z"/>
      </g>
      <g>
        <g>
          <path class="cls-9" d="m475.98,198.22c.19-3.55.4-7.12,1.19-10.58.8-3.46,2.21-6.85,4.56-9.51.36-.4,3.07-2.99,3.55-2.75.34.17-1.71,2.77-1.65,3.15.59,3.63-.32,7.37-1.91,10.69s-3.48,6.11-5.75,9.01"/>
          <path class="cls-15" d="m487.51,223.76c.93-2.33,1.66-4.17,1.68-4.17,0,0,8.35,2.28,11.94-5.48,1.73-3.75,4.67-11.76,7.25-19.04,2.77-7.83-.93-16.47-8.51-19.87l-.75-.34c-8.33-3.16-15.67,2.15-18.6,10.57l-11.18,29.12,3.06,8.9c2.44,7.09,12.4,7.29,15.12.3h0Z"/>
          <path class="cls-13" d="m489.19,219.6s-5.05-1.91-8.82-7.55c0,0-.06,6.79,8.04,9.57l.78-2.02Z"/>
          <path class="cls-9" d="m500.8,200.69c-.24.6-.95.89-1.58.64-.63-.24-.94-.92-.7-1.52.24-.6.95-.89,1.58-.65.63.24.94.92.7,1.52Z"/>
          <path class="cls-9" d="m505.27,197.56c-.2.08-.77-.92-1.97-1.45-1.19-.55-2.35-.33-2.41-.53-.03-.09.22-.29.73-.4.5-.11,1.27-.09,2.01.25.75.34,1.25.89,1.49,1.34.24.45.25.77.15.8Z"/>
          <path class="cls-9" d="m490.66,196.59c-.24.6-.95.89-1.58.64-.63-.24-.94-.92-.7-1.52.24-.6.95-.89,1.58-.64.63.24.94.92.7,1.52Z"/>
          <path class="cls-9" d="m493.91,192.99c-.2.08-.77-.92-1.97-1.45-1.19-.55-2.35-.33-2.41-.53-.03-.09.22-.29.73-.4.5-.11,1.27-.09,2.01.25.75.34,1.25.9,1.49,1.34.24.45.25.77.15.8Z"/>
          <path class="cls-9" d="m493.48,203.93c.02-.07.83.13,2.11.52.32.11.64.17.78-.01.17-.19.19-.58.2-1,.04-.87.09-1.78.14-2.74.23-3.88.54-7.02.7-7.01.16.01.1,3.17-.13,7.05-.06.95-.12,1.86-.18,2.73-.04.4-.02.88-.38,1.27-.18.19-.48.26-.7.22-.22-.03-.4-.1-.55-.16-1.25-.48-2-.81-1.98-.88Z"/>
          <path class="cls-9" d="m495.62,188.9c-.31.23-1.3-.65-2.69-1.35-1.37-.73-2.66-1.05-2.65-1.43,0-.18.38-.34.99-.35.61-.01,1.45.16,2.28.59.83.43,1.45,1.02,1.79,1.53.34.5.42.9.28,1.01Z"/>
          <path class="cls-9" d="m506.79,193.21c-.33.18-1.03-.47-2.02-.93-.97-.49-1.92-.64-1.98-1.01-.02-.18.23-.39.71-.48.48-.09,1.18-.03,1.85.29.67.33,1.15.84,1.38,1.27.23.44.22.77.06.86Z"/>
          <path class="cls-15" d="m478.57,191.51c-.11-.12-4.65-3.99-6.87,1.43-2.22,5.41,3.67,6.52,3.75,6.37.07-.15,3.12-7.8,3.12-7.8Z"/>
          <path class="cls-13" d="m474.63,196.58s-.12.03-.31.04c-.18,0-.47-.05-.71-.27-.49-.44-.6-1.55-.22-2.54.19-.5.48-.93.82-1.24.33-.33.7-.5,1.01-.43.31.05.45.31.45.49.01.18-.07.27-.04.3,0,.02.15-.04.2-.28.02-.12.01-.27-.07-.43-.09-.16-.26-.29-.46-.35-.43-.14-.96.09-1.33.44-.39.34-.73.82-.95,1.37-.41,1.11-.27,2.35.42,2.9.34.26.7.27.92.21.22-.07.3-.17.29-.19Z"/>
          <path class="cls-9" d="m508.47,184.67c1.07-.13-.43-4.04-2.2-5.88-2.67-2.79-7.3-5.69-10.65-6.04-4.04-.42-7.77.18-10.91,2.75-3.14,2.57-5.36,6.14-6.76,9.95-.43,1.16-.79,2.41-.56,3.62.28,1.5,1.43,2.84.71,4.47-.27.6-.34,1.28-.1,1.88.57,1.45,2.18.95,3.14.17,2.04-1.65,3.19-4.14,4.27-6.53.77-1.7,1.54-3.44,1.72-5.3.1-1.01.01-2.04.16-3.04.15-1,.6-2.04,1.47-2.56.14-.08.36-.18.62-.27,2.08-.73,4.39-.28,6.05,1.18,2.63,2.3,7.21,6.01,8.98,5.51,2.56-.71,3.42-1.5,3.42-1.5l.62,1.57Z"/>
        </g>
        <path class="cls-9" d="m493.65,208.22c0,.1-.31.2-.81.13-.5-.07-1.17-.34-1.75-.87-.57-.53-.9-1.18-1.01-1.67-.11-.49-.04-.81.06-.82.23-.03.52,1.04,1.49,1.9.94.89,2.03,1.1,2.02,1.33Z"/>
      </g>
      <path class="cls-13" d="m496.2,161.25c.11.07-1.39,2.62-3.36,5.68-1.96,3.07-3.65,5.5-3.76,5.43-.11-.07,1.39-2.62,3.36-5.68,1.96-3.07,3.65-5.5,3.76-5.43Z"/>
      <g>
        <path class="cls-9" d="m472.5,329.61l16.98,16.13s-8.21,55.05-6.77,55.16c1.44.1,20.29,1.45,20.29,1.45,0,0,12.23-63.73,11.31-67.46-.92-3.73-30.59-33.14-30.59-33.14l-.37-5.05-8.44-1.12-2.43,34.04Z"/>
        <path class="cls-9" d="m440.58,307.57c1.64,3.72,4.38,8.13,4.95,11.82l10.35,37.66-36.85,44.79,16.45,13.79s44.39-47.91,45.93-53.81c1.24-4.71-3.73-52.05-3.73-52.05l1.63-13.51-38.34-9.14-.03.06c-3.11,6.42-3.25,13.88-.36,20.4Z"/>
        <g>
          <path class="cls-9" d="m444.03,402.99l-11.89,13.72s9.17,16.14,7.21,18.88l-25.94-21.04,17.7-22.11,12.93,10.54Z"/>
          <path class="cls-3" d="m425.08,409.02c-.62-.26-1.45.05-1.76.68-.32.63-.05,1.47.56,1.74.61.27,1.62-.07,1.87-.73.25-.66-.12-1.63-.79-1.74"/>
          <path class="cls-14" d="m413.41,414.55l1.87-2.16,24.18,20.98s.73,1.47-.1,2.22l-25.94-21.04Z"/>
          <path class="cls-6" d="m432.67,416.91c-.11.13-.79-.32-1.77-.4-.97-.1-1.76.22-1.83.07-.1-.12.74-.77,1.91-.65,1.17.1,1.81.88,1.68.98Z"/>
          <path class="cls-6" d="m434.43,420.3c-.08.15-.81-.06-1.7.15-.89.19-1.5.71-1.62.61-.14-.08.41-.93,1.52-1.18,1.11-.26,1.9.29,1.8.42Z"/>
          <path class="cls-6" d="m433.2,425c-.14-.07.23-.88,1.14-1.34.92-.48,1.75-.28,1.71-.13-.02.17-.72.25-1.47.65-.76.38-1.25.91-1.39.82Z"/>
          <path class="cls-6" d="m435.06,413.5c-.15.08-.58-.58-1.34-1.11-.75-.55-1.51-.74-1.48-.91,0-.16.95-.21,1.83.43.89.63,1.14,1.54.99,1.59Z"/>
        </g>
        <g>
          <path class="cls-9" d="m502.2,391.22l-.23,18.49s17.74,6.52,18.02,9.94l-34.01.69-.77-28.83,16.99-.3Z"/>
          <path class="cls-3" d="m491.42,408.37c-.65.2-1.09.99-.92,1.69.17.7.93,1.18,1.58.99.66-.19,1.21-1.12.97-1.8-.24-.67-1.16-1.19-1.76-.83"/>
          <path class="cls-14" d="m485.98,420.35l.03-2.91,32.6.42s1.53.66,1.38,1.79l-34.01.69Z"/>
          <path class="cls-6" d="m502.52,409.52c0,.18-.83.27-1.64.85-.82.56-1.22,1.33-1.38,1.26-.15-.03.07-1.08,1.06-1.77.98-.69,1.99-.5,1.96-.34Z"/>
          <path class="cls-6" d="m506.12,411c.04.17-.67.48-1.22,1.23-.57.74-.69,1.54-.86,1.53-.16.03-.29-.99.41-1.91.69-.93,1.67-1.02,1.67-.85Z"/>
          <path class="cls-6" d="m508.25,415.46c-.15.04-.4-.83,0-1.8.4-.97,1.17-1.37,1.25-1.22.1.14-.4.67-.72,1.47-.34.79-.37,1.53-.54,1.55Z"/>
          <path class="cls-6" d="m502.13,405.3c-.07.16-.83-.07-1.77.02-.94.07-1.66.41-1.75.26-.1-.12.6-.79,1.71-.87,1.1-.09,1.9.45,1.82.59Z"/>
        </g>
        <path class="cls-14" d="m477.94,306.58s.05.17.09.49c.05.38.11.84.18,1.41.15,1.23.33,3.01.54,5.21.42,4.4.9,10.5,1.36,17.23.42,6.71.8,12.77,1.08,17.25.12,2.16.22,3.93.29,5.23.02.57.04,1.04.06,1.42,0,.33,0,.5-.01.5-.02,0-.04-.17-.08-.49-.04-.38-.09-.85-.15-1.42-.11-1.3-.26-3.07-.44-5.22-.35-4.41-.76-10.5-1.22-17.24-.47-6.7-.9-12.76-1.22-17.23-.16-2.15-.29-3.92-.39-5.22-.04-.57-.07-1.04-.09-1.42-.02-.33-.02-.5,0-.5Z"/>
      </g>
      <g>
        <g>
          <path class="cls-15" d="m567.7,234.63c.72,1.37-2.11,2.6-2.11,2.6.66.53,0,2.86-1.15,2.97.49.37.83.41,1.05.98.22.57.2,1.25-.14,1.76-.34.51-1.04.78-1.61.55.6.73.67,1.84.18,2.65-.3.48-.79.83-1.33.99-.27.08-.56.1-.84.08-.1,0-.22,0-.32-.05-.05-.02-.08-.06-.12-.09-.16-.17-.28-.36-.45-.52-.06-.06-.13-.12-.2-.17-.31-.25-.66-.45-1.03-.6-.17-.07-.37-.11-.52-.21-.11-.06-.17-.17-.26-.25-.58-.51-1.41-.72-2.13-.94-.82-.25-1.67-.55-2.22-1.21-.55-.66-.62-1.78.07-2.29-.54-.07-.92-.64-.88-1.19.04-.54.43-1.02.92-1.26.49-.24,1.05-.29,1.59-.25-.62-.17-.93-.94-.73-1.55.2-.61.79-1.02,1.41-1.17.62-.14,1.27-.06,1.9.08.62.13,3.23.67,3.86.72l.66-1.69.09-.22c1.16-.14,1.5-.24,2.53-.31.77-.05,1.51,0,1.81.57Z"/>
          <path class="cls-15" d="m561.5,249.47c-.15.5-.44,1.01-.93,1.22-.57.24-1.7-.06-2.28-.3-.02,0,.44-1.76.44-1.76l.11-.44c-.12-.4-.85-.57-1.18-.82-.56-.44-.6-1.37-.15-1.92.45-.56,1.27-.73,1.96-.54.69.2,1.25.72,1.62,1.34.58.96.73,2.16.41,3.23Z"/>
          <path class="cls-13" d="m563.94,243.55c.04-.13-2.03-.84-4.62-1.57-2.59-.74-4.72-1.23-4.75-1.1-.04.13,2.03.84,4.62,1.57,2.59.74,4.72,1.23,4.75,1.1Z"/>
          <path class="cls-13" d="m564.59,240.23c.05-.12-1.78-.93-4.16-1.52-2.38-.59-4.37-.73-4.39-.6-.02.14,1.92.49,4.27,1.08,2.35.58,4.23,1.17,4.28,1.04Z"/>
        </g>
        <path class="cls-13" d="m565.22,236.98c.04-.13-1.5-.72-3.48-1.12-1.98-.4-3.59-.63-3.62-.5-.03.14,1.55.58,3.51.99,1.96.4,3.54.77,3.58.64Z"/>
        <path class="cls-13" d="m561.52,248.36c.05.02.24-.29.19-.84-.04-.54-.41-1.27-1.05-1.78-.65-.5-1.25-.8-1.79-.96-.59-.14-.9.22-.83.25.04.05.31-.1.73.08.39.2,1.03.57,1.58,1.01.57.45.9,1.01,1.02,1.46.13.45.08.76.16.77Z"/>
      </g>
      <path class="cls-9" d="m485.49,264.61s0-.49.08-1.36c.09-.96.21-2.2.35-3.69.29-3.11.63-7.42.82-12.19.19-4.77.19-9.09.15-12.22-.02-1.5-.04-2.74-.06-3.71-.01-.88,0-1.36.03-1.36.03,0,.09.48.16,1.35.07.87.15,2.14.21,3.7.13,3.13.18,7.46,0,12.25-.19,4.78-.58,9.1-.96,12.21-.19,1.56-.36,2.81-.5,3.68-.14.87-.23,1.34-.26,1.34Z"/>
      <g>
        <path class="cls-10" d="m471.32,208.95c-.84.47-16.36,8.05-19.67,11.76-3.3,3.71-8.34,27.51-8.34,27.51l-3.71,21.07-2.9,31.28,48.54.55c1.92-4.28.66-8.73-1.6-13.22l3.77-49.5-.64-11.57-15.45-17.88Z"/>
        <g>
          <path class="cls-1" d="m450.46,234.16s-8.15-3.48-8.99-8.64c-.83-5.17.18-6.55,1.54-8.73,1.36-2.18,26.18-28.62,26.18-28.62l12.12,9.96-17.51,20.63s2.59.39,1.73,3.66"/>
          <path class="cls-9" d="m465.53,222.42s.11-.4.12-1.17c0-.38-.06-.87-.34-1.35-.28-.47-.83-.91-1.53-1.05l-.16-.03.1-.12c3.44-4.09,9.66-11.47,17.42-20.7l.03.31c-3.73-3.05-7.83-6.42-12.13-9.95l.32-.02c-1.47,1.58-3.03,3.24-4.61,4.93-5.08,5.48-9.92,10.69-14.32,15.44-2.18,2.39-4.27,4.65-6.14,6.83-.47.55-.92,1.06-1.29,1.65-.37.59-.73,1.16-1,1.75-.55,1.19-.7,2.46-.66,3.67.04,1.2.15,2.38.41,3.42.28,1.03.78,1.95,1.39,2.69,1.18,1.52,2.55,2.52,3.66,3.31,1.13.77,2.06,1.29,2.69,1.63.3.16.54.28.73.38.16.08.25.13.24.14,0,0-.09-.02-.26-.09-.17-.07-.42-.18-.75-.34-.65-.31-1.6-.81-2.75-1.56-1.13-.77-2.53-1.75-3.77-3.29-.63-.75-1.17-1.7-1.47-2.78-.28-1.1-.4-2.25-.45-3.49-.05-1.23.09-2.57.66-3.83.57-1.23,1.35-2.43,2.32-3.51,1.87-2.19,3.95-4.47,6.12-6.87,4.36-4.79,9.2-10.01,14.3-15.47,1.58-1.69,3.13-3.35,4.61-4.92l.15-.16.17.14c4.3,3.54,8.39,6.92,12.11,9.98l.17.14-.14.17c-7.85,9.16-14.13,16.49-17.61,20.55l-.06-.16c.77.17,1.34.64,1.63,1.16.28.53.32,1.04.31,1.43-.02.39-.08.69-.13.88-.05.19-.08.29-.09.29Z"/>
        </g>
        <g>
          <path class="cls-15" d="m470.82,166.94s-1.42-1.12-1.71,1.26,1.98,11.89,2.25,11.84c.27-.05,1.69,5.44,1.46,6.23s-2.29,3.01-2.29,3.01l9.66,7.94,2.99-5.38s3.49-1.22,5.67-4.42c2.18-3.2,10.46-15.39,10.69-17.1.23-1.71-1.48-1.94-2.75-.3-1.27,1.64-4.15,5.53-4.67,5.72-.52.19-.84-.49-.55-.92.29-.43,5.71-9.16,6.23-10.76.69-2.14-1.65-2.59-1.65-2.59,0,0,.81-2.27-.38-2.7-1.2-.42-2.37.73-3.68,2.65-1.31,1.92-5.67,8.24-6.13,8.51-.38.23-.81-.03-.41-.85.4-.82,5.71-8.57,5.69-9.66-.02-1.09-.81-2.8-3.07-.51-2.26,2.29-7.31,11.9-8.09,12.69-.78.8-3.06,3.45-3.95,3.16-.89-.29-3-3.05-3.46-5-.47-1.96-1.84-2.81-1.84-2.81Z"/>
          <path class="cls-13" d="m470.82,166.94s.41.2.95.86c.26.33.56.77.77,1.36.12.29.19.62.29.95.12.33.26.68.44,1.03.36.71.84,1.47,1.45,2.22.59.65,1.43,1.9,2.41.9.91-.67,1.74-1.59,2.63-2.54.46-.45.75-1.05,1.12-1.64.35-.6.71-1.21,1.07-1.84,1.47-2.52,3.02-5.33,5.02-8.19.52-.7,1.08-1.42,1.83-1.97.38-.26.82-.54,1.38-.49.58.05.96.57,1.1,1.03.08.24.13.49.13.74,0,.13-.04.29-.07.41l-.14.34c-.2.44-.43.86-.66,1.29-.47.84-.98,1.67-1.5,2.51-1.05,1.66-2.14,3.37-3.25,5.12-.12.2-.22.44-.21.62,0,.09.03.12.05.13.03.02.11,0,.18-.04l.09-.09.12-.14c.08-.09.16-.2.24-.3l.48-.63c.63-.85,1.25-1.73,1.88-2.61,1.24-1.78,2.51-3.61,3.8-5.46.35-.46.72-.9,1.16-1.3.44-.38.99-.77,1.68-.76.32.01.67.09.95.35.27.26.36.61.39.93.05.64-.08,1.23-.27,1.81l-.18-.31c.73.17,1.47.57,1.81,1.34.33.78.04,1.6-.28,2.23-.64,1.3-1.37,2.54-2.1,3.8-.75,1.25-1.5,2.51-2.26,3.77-.39.63-.78,1.26-1.17,1.89l-.3.47-.14.23s-.05.11-.05.17c-.02.12.03.25.1.33.07.06.15.08.25.03.09-.05.28-.24.41-.39l.43-.49c.28-.33.56-.67.83-1.01.54-.69,1.07-1.38,1.6-2.06.55-.69,1.01-1.38,1.63-2.06.32-.32.71-.6,1.18-.74.44-.15,1.09-.09,1.42.38.31.45.3.97.18,1.42-.06.24-.15.44-.25.63-.09.2-.18.4-.29.58-.39.76-.82,1.49-1.26,2.2-.87,1.44-1.75,2.84-2.64,4.21-1.78,2.75-3.56,5.4-5.3,7.96-.44.64-.85,1.28-1.32,1.9-.48.61-1.01,1.17-1.59,1.68-1.16,1-2.44,1.79-3.83,2.33l.11-.1c-1.03,1.85-2.03,3.64-3,5.38l-.12.21-.18-.15c-3.47-2.86-6.69-5.53-9.64-7.96l-.14-.11.12-.13c.65-.71,1.28-1.42,1.81-2.16.13-.18.26-.37.35-.56.11-.19.13-.34.11-.57-.03-.43-.1-.87-.18-1.3-.16-.85-.36-1.68-.56-2.47-.1-.4-.21-.78-.33-1.16-.06-.19-.12-.37-.19-.55-.03-.08-.08-.18-.11-.23,0,0,0-.01,0,0,0,.03.13.02.04.01-.06,0-.13-.07-.13-.08l-.02-.04c-.04-.06-.05-.1-.07-.15-.49-1.49-.78-2.89-1.07-4.18-.28-1.29-.5-2.48-.68-3.55-.32-2.13-.59-3.88-.06-4.97.13-.26.34-.46.56-.52.22-.06.42-.01.55.04.28.11.38.23.38.23,0,.01-.12-.09-.4-.18-.13-.04-.32-.08-.52-.02-.2.06-.38.24-.5.49-.49,1.05-.19,2.78.15,4.9.4,2.12.9,4.76,1.81,7.66.02.04.03.09.05.11v.02s-.07-.02-.07.06c-.01-.04.02.16-.02-.08.01,0,.03,0,.04,0,.03,0,.06.02.09.03.03.02.03.03.05.05.08.11.11.2.15.3.08.19.14.38.2.57.12.38.24.77.34,1.17.22.8.42,1.63.59,2.49.08.43.16.87.2,1.33,0,.12.01.24,0,.37-.02.15-.08.26-.13.37-.11.22-.24.41-.38.6-.55.76-1.17,1.48-1.83,2.2l-.02-.25c2.96,2.42,6.19,5.07,9.67,7.91l-.3.06c.96-1.74,1.95-3.53,2.98-5.39l.04-.07.08-.03c1.31-.52,2.58-1.29,3.69-2.26.55-.49,1.07-1.03,1.52-1.62.45-.59.87-1.25,1.3-1.89,1.73-2.57,3.5-5.22,5.28-7.96.89-1.37,1.77-2.77,2.63-4.2.43-.71.85-1.44,1.24-2.18.1-.18.19-.37.27-.56.09-.19.17-.38.22-.55.11-.35.08-.78-.1-1.03-.18-.26-.55-.32-.91-.21-.36.11-.69.34-.97.62-.54.59-1.05,1.34-1.58,2.01-.53.69-1.07,1.38-1.61,2.07-.27.34-.55.69-.84,1.03l-.44.5c-.17.17-.27.32-.56.5-.23.13-.59.08-.78-.13-.19-.2-.26-.46-.24-.71.01-.12.05-.25.11-.36l.15-.24.3-.47c.39-.63.78-1.26,1.17-1.89.76-1.26,1.51-2.52,2.26-3.76.73-1.25,1.46-2.5,2.08-3.76.32-.61.51-1.28.27-1.85-.23-.56-.86-.92-1.47-1.06l-.26-.06.08-.25c.17-.52.29-1.09.25-1.61-.02-.26-.1-.5-.25-.64-.14-.14-.39-.21-.64-.22-.49-.01-.96.29-1.37.64-.41.36-.76.79-1.1,1.23-1.29,1.85-2.56,3.66-3.8,5.44-.63.89-1.25,1.76-1.89,2.62l-.49.64c-.08.1-.16.21-.25.31l-.13.16c-.06.06-.13.12-.2.17-.15.08-.35.15-.57.06-.23-.09-.32-.35-.31-.51,0-.35.13-.6.27-.84,1.1-1.79,2.23-3.45,3.27-5.12.52-.83,1.03-1.66,1.5-2.49.23-.41.46-.83.65-1.25l.13-.31c.02-.1.05-.17.05-.28,0-.22-.05-.43-.11-.63-.12-.4-.4-.75-.77-.78-.37-.04-.77.18-1.12.42-.7.52-1.25,1.2-1.76,1.88-1.99,2.81-3.56,5.62-5.05,8.13-.37.63-.74,1.24-1.09,1.84-.37.58-.69,1.2-1.17,1.67-.9.95-1.74,1.86-2.69,2.55-.24.17-.49.32-.79.4-.14.04-.33.04-.47-.03-.14-.06-.25-.14-.37-.22-.43-.34-.77-.74-1.08-1.12-.61-.78-1.09-1.55-1.44-2.27-.18-.36-.32-.72-.43-1.06-.1-.35-.16-.67-.27-.95-.2-.58-.48-1.02-.72-1.35-.25-.33-.48-.55-.64-.7-.16-.14-.25-.21-.24-.21Z"/>
        </g>
        <g>
          <path class="cls-14" d="m463.85,218.81c-1.38,2.38-2.8,4.77-4.75,6.72s-4.51,3.41-7.26,3.48"/>
          <path class="cls-9" d="m451.85,229.01c0-.09.93-.09,2.32-.57,1.39-.46,3.19-1.49,4.77-3.09,1.58-1.6,2.72-3.32,3.53-4.56.81-1.25,1.32-2.02,1.38-1.99.05.03-.35.86-1.09,2.16-.75,1.29-1.85,3.08-3.48,4.72-1.63,1.65-3.54,2.68-5,3.07-.73.2-1.34.28-1.77.29-.42.01-.66-.02-.66-.05Z"/>
        </g>
        <path class="cls-9" d="m464.79,225.85s-.41.77-1.33,1.82c-.92,1.04-2.36,2.36-4.18,3.49-1.82,1.12-3.64,1.83-4.99,2.19-1.35.37-2.21.44-2.22.39-.05-.15,3.39-.74,6.96-2.98,3.59-2.2,5.65-5.01,5.76-4.9Z"/>
        <g class="cls-17">
          <path class="cls-2" d="m452.19,228.58c2.28.83,4.45,1.14,6.66.13,2.2-1.01,3.98-2.92,4.84-5.19.62-1.66.77-3.48,1.5-5.1,1.63-3.59,5.9-5.65,6.87-9.47-3.4,3.73-6.6,7.05-9.23,11.53-1.11,1.88-2.75,4.08-4.86,5.74-2.01,1.59-3.27,2.05-5.9,2.37"/>
        </g>
      </g>
      <g class="cls-17">
        <path class="cls-2" d="m486.5,255.26l2.14.63s.82-15.95-1.46-20.78l-.68,20.15Z"/>
      </g>
    </g>
  </g>
  <g id="Character_2" data-name="Character 2">
    <g>
      <g>
        <g>
          <path class="cls-5" d="m276.91,213.43l-6.11-34.06c-1.8-8.42,1.61-16.49,10.08-18.05l.79-.1c7.96-.99,15.35,4.29,16.98,12.15,1.52,7.31,3.1,15.4,3.54,19.37.92,8.21-7.12,10.51-7.12,10.51-.02,0,.78,4.96,1.18,7.35l2.85,5.27-6.97-.51-15.21-1.93Z"/>
          <path class="cls-4" d="m295.07,203.26s-5.13.95-11.07-1.82c0,0,3.34,5.84,11.43,4.09l-.36-2.26Z"/>
          <path class="cls-9" d="m296.4,181.35c.1.62-.34,1.21-.98,1.32-.64.11-1.24-.29-1.34-.91-.1-.62.34-1.21.98-1.32.64-.12,1.24.29,1.34.91Z"/>
          <path class="cls-9" d="m297.36,177.22c-.13.17-1.09-.38-2.35-.21-1.26.14-2.1.91-2.26.77-.08-.06.04-.35.4-.7.36-.34,1-.71,1.79-.8.79-.09,1.48.11,1.9.36.42.25.59.51.53.59Z"/>
          <path class="cls-9" d="m285.24,182.77c.1.62-.34,1.21-.98,1.32-.64.12-1.24-.29-1.34-.91-.1-.62.34-1.21.98-1.32.64-.12,1.24.29,1.34.91Z"/>
          <path class="cls-9" d="m285.04,179.05c-.13.17-1.1-.37-2.36-.21-1.26.14-2.1.91-2.26.77-.08-.06.04-.35.4-.7.36-.34,1-.71,1.79-.8.79-.09,1.48.11,1.9.36.42.25.59.51.53.59Z"/>
          <path class="cls-9" d="m290.77,188.17c-.01-.07.75-.3,2-.62.32-.07.61-.17.64-.4.05-.24-.13-.57-.33-.93-.4-.74-.82-1.52-1.26-2.33-1.76-3.32-3.07-6.07-2.94-6.14.13-.07,1.67,2.57,3.42,5.89.43.82.83,1.6,1.22,2.35.17.35.43.74.32,1.24-.06.25-.27.46-.47.54-.2.09-.38.11-.54.14-1.27.23-2.06.33-2.07.26Z"/>
          <path class="cls-9" d="m284.96,175.06c-.13.34-1.4.16-2.89.31-1.5.12-2.7.54-2.9.23-.09-.15.13-.47.62-.8.49-.33,1.26-.63,2.16-.71.9-.08,1.71.07,2.25.3.54.23.81.51.76.67Z"/>
          <path class="cls-9" d="m296.95,173.5c-.22.32-1.29.17-2.52.33-1.24.12-2.25.51-2.53.24-.13-.13,0-.44.42-.77.41-.33,1.13-.66,1.98-.75.85-.1,1.62.06,2.09.29.48.23.66.51.56.66Z"/>
          <path class="cls-5" d="m272.23,185.37c-.15-.04-5.84-.96-4.96,4.62.88,5.58,6.3,3.55,6.29,3.39-.02-.16-1.32-8.01-1.32-8.01Z"/>
          <path class="cls-4" d="m271.51,191.53s-.09.08-.24.18c-.15.1-.42.19-.72.13-.62-.12-1.27-.98-1.45-1.98-.09-.51-.06-1.01.05-1.44.11-.44.33-.76.61-.86.28-.11.52.03.62.18.1.14.08.26.11.27.02.01.11-.11.02-.34-.04-.11-.13-.23-.27-.32-.15-.09-.36-.11-.56-.06-.43.1-.75.55-.88,1.03-.15.48-.2,1.04-.09,1.61.21,1.12.95,2.08,1.8,2.19.41.04.72-.13.87-.29.15-.17.16-.29.14-.3Z"/>
          <path class="cls-9" d="m286.97,189.6c.19-.04.41,1.23,1.66,1.95,1.25.72,2.59.35,2.63.52.03.08-.26.3-.83.41-.56.12-1.42.08-2.18-.36-.76-.44-1.18-1.14-1.31-1.65-.14-.53-.05-.87.04-.88Z"/>
        </g>
        <g>
          <path class="cls-9" d="m308.68,164.17c-.14-.32-.42-.55-.74-.68-.7-.28-1.43-.11-2.14-.01-1.78.25-3.6.07-5.31-.49.51-.36.97-.78,1.34-1.29.76-1.04,1.07-2.5.47-3.64-.11-.21-.28-.43-.52-.47-.38-.06-.64.35-.85.67-.69,1.06-1.39,1.58-2.65,1.64-.78.04-1.56-.02-2.22-.3-.03-.02-.05-.05-.08-.07-.34-.25-.66-.5-.99-.73,0,0,0,0,0,0h0c-2.42-1.76-4.46-2.92-6.43-3.38-2.9-.67-7.53-.41-10.25.78-2.73,1.19-4.92,3.89-4.87,6.86-1.8-1.1-4.2-.72-6.02.36h-.05c-2.04,1.09-2.92,3.57-3.21,5.87-.02.13-.03.25-.04.38-.55,1.27-1.39,2.42-2.47,3.29-.19.15-.41.34-.39.58.01.24.24.41.46.52.58.29,1.22.44,1.86.46-.12.55-.27,1.1-.48,1.63-.18.45-.39.99-.11,1.39.22.31.66.38,1.02.27.36-.11.65-.36.94-.61-.15.61-.3,1.23-.45,1.84.8.01,1.6-.17,2.33-.52.78,1.99,1.72,5.76,2.47,7.07,1.49-.2,1.82-.42,2.61-.29,1.02.17.91,1.94,2.1,1.26.6-.35,1.21-2.93,1.32-3.61.75-4.55.5-9.26-.71-13.71.75-1.09,1.71-2.04,2.81-2.78l-.08.1c2.16-1.15,4.62-2.33,6.96-1.59,1.81.57,3.07,2.16,4.54,3.36,2.79,2.27,5.71,3.26,9.28,2.86.7,2.42,1.42,6.43,1.9,8.72l1.25-4.91v.02c.12-.29.21-.59.29-.88l.03-.09h0c.13-.48.26-.95.44-1.42,0,0,.02.01.03.02,1.42.91,2.99-1.06,1.8-2.25-.24-.24-.51-.44-.8-.59.65.45,1.54.57,2.25.23.71-.35,1.17-1.19.99-1.96-.13-.52-.58-.94-1.09-1.08,1.02-.08,2.01-.46,2.81-1.09.52-.42,1.01-1.05.7-1.74Z"/>
          <path class="cls-14" d="m276.14,163.6s-.31.27-.7.88c-.39.6-.78,1.61-.83,2.91-.03.65,0,1.36.11,2.11.11.75.3,1.55.49,2.39.19.84.39,1.73.48,2.67.04.47.06.95.03,1.44-.03.48-.07,1.01-.36,1.46-.23.37-.67.59-1.09.57-.42,0-.82-.17-1.13-.43-.62-.53-.87-1.29-1.11-1.96h.17c-.18.65-.38,1.31-.73,1.86-.34.55-.87.97-1.46,1.11-.29.07-.59.07-.87-.02-.28-.09-.5-.27-.66-.48-.16-.21-.26-.45-.29-.7-.02-.24.04-.49.16-.68l.1.06c-.52.82-1.12,1.3-1.55,1.59-.22.14-.39.24-.51.3-.12.06-.19.08-.19.08,0,0,.06-.04.17-.11.11-.07.28-.17.49-.32.41-.3.99-.79,1.49-1.6l.1.06c-.23.33-.17.85.13,1.22.15.18.35.35.6.42.24.08.52.07.78,0,.53-.14,1.03-.53,1.35-1.05.33-.53.52-1.16.7-1.82l.08-.28.1.27c.24.66.49,1.39,1.06,1.87.28.23.64.37,1.01.38.37.01.73-.16.93-.48.25-.39.3-.89.33-1.37.03-.48.01-.95-.03-1.41-.09-.93-.28-1.81-.46-2.65-.18-.84-.37-1.64-.47-2.41-.11-.76-.13-1.49-.09-2.14.07-1.32.49-2.34.91-2.94.42-.61.77-.84.77-.84Z"/>
          <path class="cls-14" d="m302.66,167.63s-.02.02-.06.07c-.05.05-.11.11-.18.18-.08.08-.18.18-.31.28-.13.1-.27.23-.46.34-.7.48-1.87,1.03-3.4,1.17-1.52.15-3.41-.1-5.22-1.06-1.82-.92-3.52-2.43-5-4.23-.75-.9-1.39-1.84-2.07-2.69-.68-.86-1.4-1.63-2.21-2.2-.81-.58-1.7-.96-2.58-1.06-.44-.06-.86-.02-1.26.05-.4.08-.77.22-1.1.39-.67.35-1.18.82-1.55,1.29-.37.47-.59.94-.74,1.34-.26.81-.2,1.29-.23,1.29,0,0,0-.03,0-.09,0-.07,0-.15,0-.26,0-.23.05-.56.17-.97.13-.41.35-.89.72-1.38.37-.48.88-.98,1.57-1.35.34-.18.72-.33,1.14-.42.41-.08.86-.12,1.31-.06.91.1,1.83.49,2.66,1.08.84.58,1.57,1.37,2.26,2.23.69.86,1.33,1.8,2.07,2.69,1.47,1.79,3.15,3.28,4.93,4.19,1.77.95,3.62,1.21,5.12,1.08,1.51-.13,2.66-.65,3.37-1.1.71-.46,1.03-.82,1.05-.8Z"/>
          <path class="cls-14" d="m302.85,163.93s-.08.1-.26.25c-.17.15-.45.35-.8.58-.35.22-.79.45-1.3.66-.51.2-1.09.38-1.72.51-.63.11-1.24.16-1.79.15-.55-.01-1.05-.06-1.46-.14-.41-.08-.74-.17-.95-.25-.22-.08-.34-.12-.33-.14.01-.03.5.13,1.31.25.41.06.89.1,1.44.1.54,0,1.14-.05,1.75-.17.61-.12,1.18-.29,1.69-.48.5-.2.95-.41,1.3-.62.71-.41,1.11-.74,1.13-.71Z"/>
        </g>
      </g>
      <path class="cls-5" d="m379.69,267.55l3.16-.5s1.45-1.52,3.27-2.58c1.82-1.06,3.41-1.06,3.87-.18.46.88.23,1.93-.7,2.8-.93.87-4.5,1.79-4.7,3.34s11.26,6.41,11.26,6.41l-9.05,10.31-13.15-7-.61-1.08-.14-2.83,6.78-8.7Z"/>
      <g>
        <path class="cls-9" d="m287.96,295.98l3.97,46.94-1.35,8.16s-16.28,46.75-15.93,66.11l19.04-.91s18.58-52.93,20.04-58.78c1.46-5.85,8.96-44.96,8.96-44.96l12.35,30.93.34,7.21-7.11,44.87,22.12,1.15s9.05-50.93,8.16-57.53c-.89-6.61-15.5-58.25-15.5-58.25l-7.54-6.58-43.03,7.26-4.52,14.38Z"/>
        <g>
          <path class="cls-9" d="m348.34,383.01l-.68,18.82s17.91,7.07,18.1,10.56l-34.64-.12-.08-29.37,17.3.11Z"/>
          <path class="cls-3" d="m336.95,400.21c-.67.19-1.14.98-.98,1.7.15.72.92,1.22,1.59,1.04.67-.18,1.26-1.11,1.03-1.81-.23-.69-1.15-1.24-1.77-.89"/>
          <path class="cls-14" d="m331.12,412.28l.1-2.96,33.18,1.22s1.54.71,1.36,1.86l-34.64-.12Z"/>
          <path class="cls-6" d="m348.22,401.65c0,.18-.85.26-1.69.83-.85.55-1.28,1.32-1.43,1.25-.16-.03.1-1.1,1.12-1.77,1.01-.68,2.04-.47,2-.3Z"/>
          <path class="cls-6" d="m351.85,403.25c.04.17-.69.47-1.27,1.23-.6.73-.74,1.55-.91,1.54-.16.03-.27-1.02.46-1.94.73-.93,1.72-1,1.72-.83Z"/>
          <path class="cls-6" d="m353.91,407.84c-.15.04-.39-.85.05-1.83.43-.98,1.23-1.36,1.3-1.21.1.15-.42.67-.77,1.48-.36.8-.41,1.55-.58,1.57Z"/>
          <path class="cls-6" d="m347.93,397.34c-.07.16-.85-.09-1.8-.02-.96.04-1.7.38-1.79.23-.1-.13.63-.79,1.76-.85,1.13-.07,1.92.5,1.84.64Z"/>
        </g>
        <g>
          <path class="cls-9" d="m291.85,402.82l.13,21.61,5.03,17.06c.36,1.23-.39,2.51-1.64,2.79h0c-.7.16-1.43-.03-1.96-.51-3.39-3.07-15.8-14.41-15.72-15.99.09-1.83-1.65-22.79-1.65-22.79l15.81-2.17Z"/>
          <path class="cls-14" d="m295.37,444.28l-17.72-17.96.03.92c.02.79.32,1.55.85,2.14,1.42,1.57,5.43,5.83,14.82,14.4.55.5,1.31.69,2.03.51h0Z"/>
          <g class="cls-16">
            <path class="cls-6" d="m281.88,419.22c.55.36.75,1.17.42,1.74-.34.57-1.16.78-1.72.43-.56-.35-.83-1.32-.43-1.84.4-.53,1.38-.72,1.84-.25"/>
          </g>
          <path class="cls-6" d="m290.16,434.99c.12.06.58-1.09,1.85-1.74,1.25-.68,2.45-.41,2.47-.55.02-.05-.26-.21-.77-.27-.5-.06-1.23.03-1.93.4-.69.37-1.18.92-1.41,1.37-.24.45-.26.77-.21.79Z"/>
          <path class="cls-6" d="m291.78,437.84c.11.09.78-.63,1.89-.98,1.1-.38,2.07-.2,2.1-.33.06-.11-.99-.54-2.25-.12-1.26.41-1.85,1.38-1.74,1.44Z"/>
          <path class="cls-6" d="m287.19,431.36c.1.1,1.13-1.02,2.81-1.72,1.66-.73,3.18-.7,3.18-.84.03-.12-1.58-.37-3.37.4-1.79.75-2.73,2.09-2.62,2.15Z"/>
          <path class="cls-6" d="m286.6,424.8c.06.13,1.24-.41,2.79-.51,1.55-.12,2.79.24,2.84.1.06-.11-1.2-.7-2.87-.57-1.67.11-2.83.88-2.76.98Z"/>
          <path class="cls-6" d="m286.4,418.45c.07.12,1.25-.63,2.89-.6,1.64,0,2.81.76,2.89.64.03-.05-.21-.31-.72-.58-.5-.27-1.28-.52-2.17-.53-.88,0-1.67.23-2.17.5-.51.27-.76.53-.72.58Z"/>
        </g>
      </g>
      <g>
        <path class="cls-1" d="m266.8,214.48s-11.58,7-3.22,23.69c10.26,20.46,20.02,49.23,23.37,51.14,1.37.78,7.8-2.45,7.8-2.45l5.11-9.45-13.54-35.38-8.84-20.46-10.68-7.08Z"/>
        <path class="cls-10" d="m275.25,209.06l-8.45,5.42,22.42,39.54-3.24,35.33,5.07,2.87,52.32-7.25,1.69-2.36-5.74-16.6-7.65-18.63s-7.57-16.93-12.04-24.14c-4.47-7.21-9.27-14.51-9.27-14.51l-12.83-.88-1.57-1.74s-1.93,3.51-7.2,3.83c-4.28.26-13.37-2.06-13.37-2.06l-.15,1.19Z"/>
        <path class="cls-1" d="m379.69,267.55s-30.69-24.58-33.2-27.45c-2.5-2.87-23.84-25.34-23.84-25.34,0,0-7.81-7.49-12.29-6.03-5.49,1.79,5.45,28.22,5.45,28.22,0,0,22.58,18.74,26.24,22.3,3.66,3.56,25.65,17.72,25.65,17.72l5.22-.72,6.78-8.7Z"/>
        <path class="cls-9" d="m280.13,230.28s.09.16.23.47c.15.36.34.82.58,1.37.49,1.2,1.21,2.92,2.11,5.05,1.8,4.25,4.42,10.08,7.3,16.51,2.88,6.44,5.38,12.33,7.03,16.65.83,2.16,1.47,3.92,1.88,5.15.19.57.34,1.04.46,1.42.1.33.15.5.13.5-.02,0-.09-.16-.22-.47-.14-.37-.33-.82-.55-1.38-.46-1.21-1.15-2.95-2.02-5.09-1.73-4.28-4.28-10.14-7.15-16.58-2.88-6.44-5.45-12.29-7.18-16.58-.87-2.14-1.54-3.89-1.98-5.11-.2-.57-.36-1.03-.49-1.41-.11-.32-.16-.5-.14-.5Z"/>
        <path class="cls-9" d="m317.71,220.29s.11.08.28.26c.19.18.4.49.67.88.54.79,1.25,1.98,2.07,3.47,1.65,2.99,3.78,7.19,6.04,11.87,2.26,4.69,4.23,8.96,5.62,12.08.69,1.56,1.25,2.82,1.61,3.7.37.88.56,1.37.53,1.39-.03.01-.28-.45-.7-1.31-.45-.93-1.04-2.16-1.75-3.64-1.5-3.15-3.52-7.36-5.74-12.01-2.26-4.68-4.34-8.9-5.91-11.92-.78-1.51-1.44-2.72-1.93-3.53-.47-.83-.83-1.2-.8-1.24Z"/>
        <g class="cls-17">
          <path class="cls-2" d="m287.14,247.05s-2.18-12.18-.92-19.29c1.26-7.11,4.88-17.47,4.88-17.47l6.39-2.71,33.29,16.18,2.46,2.99-4.41,14.02,3.29,25.58-44.98-19.3Z"/>
        </g>
      </g>
      <g>
        <path class="cls-7" d="m295.15,225.67c2.5-45.79,28.21-70.44,60.86-68.66,32.84,1.79,55.53,29.07,53.03,74.87-2.5,45.79-28.02,70.45-60.86,68.66-32.65-1.78-55.53-29.07-53.03-74.87Zm82.95,4.52c1.72-31.52-8.2-45.18-23.57-46.02-15.19-.83-26.53,11.68-28.25,43.2-1.72,31.52,8.2,45.18,23.38,46.01,15.38.84,26.72-11.67,28.44-43.19Z"/>
        <g class="cls-17">
          <path class="cls-2" d="m295.15,225.67c2.5-45.79,28.21-70.44,60.86-68.66,32.84,1.79,55.53,29.07,53.03,74.87-2.5,45.79-28.02,70.45-60.86,68.66-32.65-1.78-55.53-29.07-53.03-74.87Zm82.95,4.52c1.72-31.52-8.2-45.18-23.57-46.02-15.19-.83-26.53,11.68-28.25,43.2-1.72,31.52,8.2,45.18,23.38,46.01,15.38.84,26.72-11.67,28.44-43.19Z"/>
        </g>
        <path class="cls-7" d="m285.74,225.71c2.5-45.79,28.21-70.44,60.86-68.66,32.84,1.79,55.53,29.07,53.03,74.87-2.5,45.79-28.02,70.45-60.86,68.66-32.65-1.78-55.53-29.07-53.03-74.87Zm82.95,4.52c1.72-31.52-8.2-45.18-23.57-46.02-15.19-.83-26.53,11.68-28.25,43.2-1.72,31.52,8.2,45.18,23.38,46.01,15.38.84,26.72-11.67,28.44-43.19Z"/>
      </g>
      <path class="cls-5" d="m320.22,294.98l-5.68-3.45s-5.8-3.82-6.15-4.41c-.35-.59-.71-2.14-.72-2.98,0-.84,2.61-2.72,2.9-4.35.29-1.63-1.43-3.19-2.05-3.46-.62-.27-1.26.69-1.39,1.4-.14.71-1.18,1.75-2.81,2.12-1.63.37-3.88,2.49-3.88,2.49l-4.91,9.24c.84,1.58,10.9,5.34,11.21,5.53.31.18,11.04.38,12.11-.01,1.07-.4,1.44-.81,1.38-2.1Z"/>
      <g>
        <g>
          <path class="cls-5" d="m400.15,275.73c.06,1.54-3.03,1.44-3.03,1.44.36.76-1.24,2.58-2.32,2.18.28.54.57.73.52,1.34s-.36,1.22-.89,1.53c-.53.31-1.27.26-1.69-.19.23.92-.19,1.95-.98,2.47-.48.31-1.07.41-1.63.32-.28-.05-.55-.14-.79-.29-.09-.05-.2-.1-.27-.18-.03-.04-.05-.08-.06-.13-.07-.22-.1-.45-.18-.66-.03-.08-.07-.16-.1-.24-.17-.36-.4-.69-.67-.98-.12-.14-.28-.26-.38-.41-.07-.1-.08-.23-.13-.34-.3-.71-.96-1.26-1.52-1.77-.63-.58-1.27-1.22-1.48-2.05-.21-.83.21-1.87,1.05-2.03-.46-.3-.56-.98-.29-1.45.27-.47.83-.73,1.37-.74.54-.01,1.07.19,1.54.46-.48-.42-.43-1.25,0-1.71.44-.46,1.15-.58,1.78-.45.62.14,1.17.5,1.68.89.51.39,2.62,2,3.18,2.31l1.32-1.24.17-.16c1.11.37,1.46.43,2.41.81.72.29,1.36.65,1.38,1.3Z"/>
          <path class="cls-5" d="m388.16,286.45c-.35.39-.83.72-1.36.7-.62-.03-1.51-.78-1.92-1.25-.02-.01,1.15-1.4,1.15-1.4l.29-.35c.06-.41-.52-.88-.71-1.25-.32-.64.05-1.49.7-1.8.65-.31,1.46-.12,2,.36s.82,1.19.89,1.9c.11,1.11-.27,2.27-1.03,3.09Z"/>
          <path class="cls-4" d="m392.91,282.16c.09-.1-1.47-1.63-3.49-3.41-2.02-1.78-3.73-3.14-3.82-3.04-.09.1,1.47,1.63,3.49,3.41,2.02,1.78,3.73,3.14,3.82,3.04Z"/>
          <path class="cls-4" d="m394.93,279.44c.1-.09-1.2-1.61-3.1-3.16-1.89-1.56-3.63-2.54-3.7-2.43-.08.12,1.52,1.27,3.39,2.81,1.87,1.53,3.31,2.88,3.41,2.78Z"/>
        </g>
        <path class="cls-4" d="m396.9,276.78c.1-.1-1.04-1.3-2.66-2.51-1.61-1.22-2.97-2.11-3.05-2.01-.09.11,1.15,1.19,2.75,2.4,1.6,1.21,2.86,2.22,2.96,2.12Z"/>
        <path class="cls-4" d="m388.65,285.46s.34-.15.53-.68c.19-.51.18-1.32-.18-2.06-.37-.73-.79-1.26-1.2-1.64-.47-.38-.91-.19-.86-.13.01.07.33.04.62.38.27.35.68.96.99,1.59.32.65.38,1.3.29,1.76-.07.46-.25.72-.19.77Z"/>
      </g>
    </g>
  </g>
  <g id="Character_1" data-name="Character 1">
    <g>
      <g>
        <path class="cls-9" d="m186.76,392.75l-2.94,17.38s17.42,7.12,17.58,10.53l-33.86-.51,4.24-28.56,14.99,1.16Z"/>
        <path class="cls-3" d="m173.37,408.42c-.66.18-1.12.95-.98,1.65.14.7.88,1.2,1.54,1.04.66-.17,1.24-1.07,1.03-1.75-.22-.68-1.11-1.22-1.72-.89"/>
        <path class="cls-14" d="m167.53,420.14l.43-2.88,32.12,1.56s1.5.71,1.31,1.83l-33.86-.51Z"/>
        <path class="cls-6" d="m184.37,409.95c0,.17-.84.24-1.66.79-.84.53-1.26,1.28-1.42,1.2-.15-.04.11-1.08,1.11-1.72,1-.65,2-.43,1.96-.27Z"/>
        <path class="cls-6" d="m187.9,411.55c.04.17-.68.46-1.26,1.18-.59.71-.74,1.51-.91,1.5-.16.03-.26-1,.47-1.89.72-.9,1.69-.96,1.69-.79Z"/>
        <path class="cls-6" d="m189.85,416.07c-.15.03-.37-.84.07-1.79.43-.95,1.22-1.32,1.28-1.17.09.14-.42.65-.77,1.43-.37.78-.42,1.51-.59,1.53Z"/>
        <path class="cls-6" d="m184.13,405.74c-.07.16-.83-.09-1.76-.04-.94.03-1.67.35-1.75.2-.09-.13.63-.76,1.73-.81,1.1-.05,1.87.51,1.79.65Z"/>
      </g>
      <g>
        <path class="cls-9" d="m137.8,395.47l-8.99,16.07s12.42,14.14,11.04,17.26l-30.08-15.56,13.03-25.59,15,7.81Z"/>
        <path class="cls-3" d="m120.22,405.36c-.67-.13-1.43.35-1.61,1.04-.18.69.25,1.47.92,1.62.67.15,1.59-.41,1.7-1.11.11-.7-.45-1.59-1.14-1.56"/>
        <path class="cls-14" d="m109.77,413.25l1.41-2.53,28.32,15.86s1.02,1.31.36,2.23l-30.08-15.56Z"/>
        <path class="cls-6" d="m129.39,411.63c-.08.15-.86-.16-1.84-.03-.98.1-1.7.58-1.8.45-.12-.1.58-.91,1.76-1.04,1.19-.14,1.98.5,1.87.63Z"/>
        <path class="cls-6" d="m131.83,414.64c-.04.17-.82.1-1.65.5-.85.37-1.34,1.02-1.48.93-.15-.05.22-1.01,1.26-1.48,1.04-.48,1.94-.1,1.87.05Z"/>
        <path class="cls-6" d="m131.57,419.55c-.15-.04.04-.92.86-1.57.81-.66,1.68-.64,1.67-.48.02.17-.66.4-1.32.94-.67.53-1.05,1.16-1.21,1.1Z"/>
        <path class="cls-6" d="m131.05,407.75c-.13.11-.7-.45-1.56-.82-.85-.39-1.65-.43-1.66-.6-.03-.16.9-.4,1.91.05,1.01.44,1.45,1.29,1.31,1.38Z"/>
      </g>
      <g>
        <path class="cls-9" d="m158.77,289.14s6.05,58.55,4.25,65.33c-1.8,6.78-30.76,58.54-30.76,58.54l-20.01-11.11s24.33-46.88,24.02-48.87c-.31-1.98.65-7.62.65-7.62l-13.42-44.91,2.67-19.29,23.75-2.39,8.85,10.31Z"/>
        <path class="cls-9" d="m142.89,311.23c.61,1.8,32.81,38.57,32.81,38.57,0,0-.21,1.35.37,2.31.79,1.3,2.75,1.94,2.75,1.94l-12.77,52.98,22.36,2.06s13.35-53.02,12.84-59.68c-.51-6.66-32.5-58.58-32.5-58.58l-22.87-1.24-3,21.64Z"/>
        <path class="cls-14" d="m159.36,301.94s-.05.53-.23,1.46c-.11.94-.19,2.3-.11,4,.15,3.39.98,8.01,1.94,13.11.96,5.1,1.81,9.74,1.99,13.16.1,1.71.04,3.1-.07,4.04-.17.95-.28,1.46-.31,1.45-.03,0,.02-.53.13-1.47.06-.94.06-2.31-.08-4-.27-3.38-1.16-7.99-2.13-13.1-.96-5.1-1.74-9.76-1.81-13.19-.04-1.71.09-3.1.26-4.04.24-.93.38-1.44.42-1.43Z"/>
      </g>
      <path class="cls-15" d="m207.09,211.76s4.08-6.56,7.81-7.15,10.2-.02,10.2-.02l-3.45,14.15-7.77,1.34-6.8-8.32Z"/>
      <polygon class="cls-14" points="147.51 222.49 176.4 224.25 206.02 210.46 215.19 221.68 178.9 240.97 158.82 243.49 147.51 222.49"/>
      <g>
        <path class="cls-7" d="m237.49,252.4l-22.93-4.01-5.18,29.57-31.78-5.56,5.18-29.57-75.83-13.27,3.84-21.92,82-77.69,34.19,5.98-76.37,73.9,37.81,6.62,4.61-26.35,30.77,5.39-4.61,26.35,22.93,4.01-4.65,26.55Z"/>
        <g class="cls-17">
          <path class="cls-2" d="m237.49,252.4l-22.93-4.01-5.18,29.57-31.78-5.56,5.18-29.57-75.83-13.27,3.84-21.92,82-77.69,34.19,5.98-76.37,73.9,37.81,6.62,4.61-26.35,30.77,5.39-4.61,26.35,22.93,4.01-4.65,26.55Z"/>
        </g>
        <path class="cls-7" d="m229.74,251.33l-22.93-4.01-5.18,29.57-31.78-5.56,5.18-29.57-75.83-13.27,3.84-21.92,82-77.69,34.19,5.98-76.37,73.9,37.81,6.62,4.61-26.35,30.77,5.39-4.61,26.35,22.93,4.01-4.65,26.55Z"/>
      </g>
      <g class="cls-17">
        <path class="cls-2" d="m161.22,237.32s-3.32-8.93-6.25-12.37c-2.93-3.44-6.16-8.43-6.16-8.43l14.76-6.5-7.7-5.95-12.99,5.95-.78,11.67,15.68,16.34,3.44-.71Z"/>
      </g>
      <g>
        <path class="cls-9" d="m150.46,178.19c2.98,2.44,4.63,6.42,4.26,10.25-.18,1.86-.74,3.98.45,5.43,1.17,1.43,3.53,1.44,4.66,2.91,1.32,1.73.14,4.25.58,6.39.42,2,2.49,3.52,4.53,3.3-2.42,1.9-5.37,3.11-8.42,3.46-.76-1.02-1.52-2.03-2.28-3.05.87,1.07.6,2.74-.28,3.79-.88,1.06-2.21,1.62-3.53,2.01-6.3,1.86-13.45.56-18.68-3.41"/>
        <path class="cls-9" d="m115.06,193.99c.5-1.42,1.31-2.73,1.65-4.2.74-3.15-.73-6.74.86-9.56,1.13-2.01,3.48-2.95,5.69-3.59,2.21-.63,4.59-1.16,6.26-2.75,1.23-1.16,1.94-2.78,3.17-3.94,1.74-1.66,4.28-2.18,6.68-2.28,2.47-.1,5.01.18,7.21,1.32,2.2,1.13,4,3.21,4.35,5.66.17,1.19,0,2.44.35,3.59.39,1.27,1.36,2.27,1.94,3.45,1.24,2.51.48,5.84-1.73,7.56l-17.36,21.54c-3.58,1.27-12.17-.52-14.87-3.2-2.7-2.68-5.45-10.01-4.19-13.61Z"/>
        <path class="cls-15" d="m151.09,186.47c-.6-4.98-4.26-10.92-9.21-10.11l-15.32,4.82c-1.5.25-2.57,1.6-2.45,3.12l3.78,36.03s-1.14.9-1.87.61c-.19-.08-.36.13-.25.3,1.78,2.69,10.18,14.46,19.14,11.1,2-.75-.07-7.06.21-9.37l-.15-5.93c-.14-3.03-.21-4.27-.21-4.24,0,0,6.32-1.42,7.17-9.83.42-4.18-.17-10.96-.84-16.49Z"/>
        <path class="cls-9" d="m149.88,194.09c.05.56-.38,1.07-.97,1.14-.59.07-1.1-.34-1.16-.9-.05-.56.38-1.07.97-1.14.59-.07,1.11.34,1.16.9Z"/>
        <path class="cls-9" d="m139.5,194.54c.05.56-.38,1.07-.97,1.14-.59.07-1.1-.34-1.16-.9-.05-.56.38-1.07.97-1.14.59-.07,1.11.34,1.16.9Z"/>
        <path class="cls-9" d="m150.33,190.58c-.12.19-1.1-.45-2.35-.3-1.25.14-2.06.99-2.22.83-.08-.07.03-.41.38-.79.35-.38.97-.79,1.75-.88.78-.09,1.48.16,1.9.46.43.29.6.6.54.68Z"/>
        <path class="cls-9" d="m139.15,191.29c-.15.18-1.11-.55-2.45-.52-1.34.01-2.3.77-2.45.59-.07-.08.07-.39.49-.74.41-.34,1.12-.68,1.95-.69.83-.01,1.54.3,1.96.63.42.33.57.64.49.72Z"/>
        <path class="cls-9" d="m143.19,199.24c0-.07.7-.23,1.85-.44.29-.05.57-.12.6-.32.06-.22-.08-.53-.25-.86-.32-.69-.65-1.42-1-2.19-1.39-3.11-2.41-5.68-2.28-5.73.13-.06,1.35,2.42,2.74,5.54.33.77.66,1.5.96,2.2.13.33.34.69.22,1.14-.07.22-.27.4-.46.46-.18.07-.35.08-.49.1-1.16.13-1.88.18-1.89.11Z"/>
        <path class="cls-13" d="m144.76,212.79s-5.58.68-11.33-2.34c0,0,3.14,5.69,11.43,4.43l-.1-2.09Z"/>
        <path class="cls-13" d="m139.62,202.52c.16-.26.33-.54.6-.69.3-.17.66-.15,1-.08.48.1.96.32,1.29.69s.48.92.3,1.38h0c-.14.48-.86.73-1.35.8s-1-.08-1.42-.33c-.36-.21-.7-.54-.71-.96,0-.29.15-.56.3-.81Z"/>
        <path class="cls-9" d="m139.89,200.91c.19-.02.26,1.23,1.38,2.05,1.12.83,2.44.61,2.46.79.02.08-.28.26-.84.31-.55.05-1.36-.08-2.05-.59-.68-.51-1-1.21-1.08-1.72-.08-.52.04-.84.13-.83Z"/>
        <path class="cls-9" d="m139.14,187.64c-.1.32-1.25.24-2.59.48-1.34.21-2.41.67-2.6.4-.09-.13.09-.43.51-.76.42-.33,1.1-.65,1.9-.79.8-.13,1.55-.05,2.06.12.51.17.77.4.73.55Z"/>
        <path class="cls-9" d="m149.44,185.7c-.22.27-1.14.06-2.23.1-1.09.02-2,.29-2.23.03-.1-.13.03-.4.42-.67.38-.27,1.03-.51,1.78-.53.75-.02,1.41.18,1.8.42.4.25.54.51.45.64Z"/>
        <path class="cls-9" d="m123.16,182.31c.79-1.17,2.18-1.75,3.51-2.23,5.71-2.08,11.68-3.47,17.72-4.14.73,1.25,0,2.92-1.15,3.8-1.15.88-2.61,1.21-3.98,1.69-1.37.48-2.77,1.23-3.36,2.56-.62,1.41-.15,3.1-.7,4.54-.95,2.47-4.44,3.21-5.37,5.69-.71,1.87.35,3.91.58,5.9.27,2.25-.61,4.61-2.29,6.15-1.32,1.21-3.11,1.86-4.9,1.86-.27-7.16-.54-14.31-.82-21.47-.06-1.49-.08-3.1.75-4.33Z"/>
        <path class="cls-9" d="m108.4,200.09c1.15-.99,2.58-1.84,3.06-3.28.7-2.1-.95-4.61.18-6.51,1.03-1.73,3.96-1.59,4.92-3.36.75-1.38-.06-2.64.24-3.86.3-1.22,2.06-2.26,3.31-2.09l9.49,14.34c.81,4.76,1.68,7.31.6,10.07-.59,1.51-1.35,2.98-1.6,4.59-.25,1.6.12,3.43,1.42,4.41-5.85.34-11.26-2.82-16.25-5.87-1.76-1.08-3.53-2.15-5.29-3.23-.55-.34-1.12-.7-1.45-1.25-.76-1.31.22-2.96,1.37-3.95Z"/>
        <path class="cls-14" d="m113.65,207.09s.21.08.62.13c.41.05,1.04.08,1.82-.09.77-.17,1.71-.55,2.56-1.32.85-.76,1.54-1.95,1.74-3.38.09-.71.06-1.48-.15-2.24-.21-.77-.62-1.48-1.04-2.19-.42-.71-.87-1.44-1.07-2.27-.2-.82-.18-1.78.36-2.47.54-.7,1.53-.86,2.46-1.21.46-.17.95-.45,1.26-.9.32-.44.43-1,.43-1.52,0-1.07-.43-2.06-.6-3.05-.09-.5-.12-1.02.02-1.49.13-.47.44-.89.87-1.17.85-.59,1.93-.66,2.97-.73,1.04-.05,2.14-.27,3.03-.83.9-.53,1.63-1.3,2.1-2.19.47-.9.65-1.87.81-2.78.16-.92.3-1.81.62-2.61.32-.8.83-1.49,1.41-2.04,1.2-1.1,2.7-1.66,4.07-1.75,1.39-.09,2.63.3,3.6.82.98.52,1.7,1.17,2.21,1.76,1.03,1.19,1.31,2.05,1.35,2.02,0,0-.01-.05-.05-.15-.04-.1-.1-.25-.19-.43-.18-.37-.5-.91-1-1.52-.51-.61-1.23-1.28-2.22-1.84-.98-.55-2.26-.97-3.71-.9-1.43.07-2.99.64-4.25,1.78-.62.58-1.16,1.3-1.5,2.14-.34.84-.49,1.76-.65,2.67-.16.91-.35,1.85-.79,2.68-.45.83-1.14,1.56-1.99,2.06-.85.52-1.84.72-2.88.78-1.03.07-2.18.14-3.14.79-.47.31-.85.8-1,1.35-.16.55-.12,1.12-.03,1.64.19,1.06.61,2.01.6,2.99,0,.48-.1.96-.37,1.33-.26.37-.67.62-1.11.79-.44.18-.91.29-1.37.48-.45.18-.91.44-1.22.84-.63.81-.62,1.87-.41,2.73.22.89.7,1.64,1.12,2.35.43.71.83,1.39,1.03,2.12.2.72.24,1.46.16,2.14-.17,1.37-.82,2.53-1.63,3.27-.81.75-1.71,1.14-2.46,1.33-1.53.36-2.41.03-2.41.09Z"/>
        <path class="cls-9" d="m106.06,196.88s-.12.14-.2.47c-.08.33-.08.87.22,1.45.16.28.39.58.73.8.34.22.77.36,1.24.36.93.03,2.03-.51,2.59-1.57.28-.52.44-1.13.45-1.77.01-.64-.14-1.3-.37-1.94-.44-1.27-1.26-2.52-1.24-4,0-.72.18-1.49.72-1.99.53-.52,1.34-.63,2.13-.62.8-.01,1.67.11,2.53-.21.42-.16.81-.47,1.06-.85.25-.39.39-.83.45-1.28.13-.91-.07-1.77-.16-2.6-.11-.83-.05-1.64.18-2.4.46-1.53,1.51-2.8,2.79-3.51,1.28-.74,2.75-.79,4.07-.84,1.33-.04,2.61-.1,3.71-.51,1.09-.38,1.98-.98,2.65-1.59.68-.61,1.14-1.26,1.47-1.81.64-1.12.73-1.84.73-1.84-.04-.02-.18.69-.84,1.77-.34.53-.81,1.15-1.48,1.74-.67.59-1.54,1.15-2.6,1.51-1.06.38-2.3.42-3.64.46-1.32.04-2.84.08-4.21.85-1.35.75-2.46,2.08-2.95,3.69-.24.8-.31,1.69-.2,2.54.09.85.28,1.69.16,2.51-.1.82-.54,1.6-1.3,1.87-.74.28-1.59.19-2.41.19-.81,0-1.73.11-2.36.72-.63.6-.81,1.47-.81,2.23,0,.78.22,1.52.49,2.19.27.67.57,1.29.8,1.91.23.62.38,1.24.38,1.84,0,.6-.15,1.18-.4,1.66-.5.99-1.51,1.5-2.38,1.5-.44,0-.84-.11-1.15-.3-.32-.19-.54-.46-.7-.73-.31-.54-.33-1.06-.27-1.37.06-.32.15-.48.13-.49Z"/>
        <path class="cls-9" d="m167.52,201.58c-.05,0,.3.57-.05,1.53-.18.45-.57,1-1.24,1.21-.65.21-1.55.02-2.13-.63-.29-.32-.46-.76-.48-1.23-.02-.48.08-.98.25-1.47.33-.98.98-2.05.91-3.34-.05-1.25-.65-2.54-1.71-3.41-.52-.44-1.14-.77-1.8-.99-.67-.23-1.38-.29-2.07-.34-.7-.05-1.38-.08-2.01-.25-.63-.16-1.2-.5-1.55-1.01-.36-.51-.5-1.13-.53-1.74-.03-.61.05-1.21.19-1.8.26-1.16.63-2.29.59-3.41-.04-1.11-.44-2.1-.99-2.86-.55-.77-1.27-1.25-1.87-1.64-.61-.4-1.13-.74-1.5-1.08-.77-.67-.89-1.27-.93-1.25,0,0,0,.04.02.1.02.06.05.17.11.29.11.25.33.6.71.95.37.36.89.73,1.48,1.14.59.41,1.27.89,1.78,1.63.51.73.88,1.68.9,2.72.03,1.05-.34,2.14-.61,3.33-.14.59-.24,1.23-.21,1.88.03.65.18,1.34.59,1.91.4.58,1.06.97,1.74,1.14.68.18,1.39.21,2.08.26.69.05,1.37.11,1.99.32.63.21,1.2.52,1.69.93.99.81,1.56,2,1.61,3.17.08,1.18-.53,2.2-.87,3.23-.17.52-.28,1.05-.25,1.58.03.52.23,1.03.56,1.38.67.71,1.65.89,2.37.65.74-.25,1.13-.86,1.3-1.34.18-.5.14-.92.08-1.19-.07-.27-.15-.39-.15-.39Z"/>
      </g>
      <g>
        <g>
          <path class="cls-15" d="m227.22,203.94c.82,1.23-1.73,2.69-1.73,2.69.68.44.29,2.72-.79,2.94.5.3.83.3,1.1.82.27.52.32,1.17.04,1.69-.27.52-.91.85-1.47.69.64.63.83,1.68.44,2.49-.23.49-.66.87-1.16,1.08-.25.1-.52.16-.79.17-.1,0-.21.02-.31-.01-.05-.02-.08-.04-.12-.08-.17-.14-.3-.31-.48-.45-.07-.05-.14-.1-.21-.14-.32-.21-.67-.36-1.04-.46-.17-.05-.36-.07-.52-.14-.11-.05-.18-.15-.28-.21-.61-.43-1.41-.54-2.12-.68-.8-.15-1.64-.35-2.23-.92-.59-.57-.77-1.62-.17-2.18-.52-.01-.94-.52-.96-1.03-.02-.52.31-1.01.74-1.29.44-.28.97-.38,1.49-.4-.6-.1-.98-.8-.86-1.39.12-.6.64-1.05,1.22-1.26.58-.2,1.2-.18,1.81-.12.61.06,3.13.31,3.74.28l.45-1.67.06-.21c1.09-.26,1.4-.39,2.37-.55.73-.12,1.43-.15,1.77.36Z"/>
          <path class="cls-15" d="m222.86,218.67c-.09.49-.31,1.01-.75,1.25-.52.29-1.62.12-2.19-.05-.02,0,.23-1.72.23-1.72l.06-.43c-.15-.36-.87-.45-1.2-.66-.58-.36-.71-1.24-.34-1.81.37-.57,1.13-.83,1.8-.71.67.12,1.26.56,1.67,1.1.65.85.92,1.98.72,3.03Z"/>
          <path class="cls-13" d="m224.57,212.81c.02-.13-2.01-.58-4.55-1.02-2.53-.43-4.6-.68-4.63-.55-.02.13,2.01.58,4.55,1.02,2.53.43,4.6.68,4.63.55Z"/>
          <path class="cls-13" d="m224.84,209.58c.03-.12-1.78-.7-4.11-1.01-2.32-.32-4.23-.24-4.23-.11,0,.14,1.87.27,4.16.58,2.29.31,4.14.68,4.17.54Z"/>
        </g>
        <path class="cls-13" d="m225.11,206.43c.03-.13-1.5-.53-3.42-.71-1.92-.18-3.47-.23-3.48-.1-.02.14,1.53.39,3.44.57,1.91.18,3.44.36,3.47.24Z"/>
        <path class="cls-13" d="m222.77,217.62c.05.02.2-.3.09-.82-.1-.51-.52-1.16-1.18-1.58-.67-.41-1.27-.63-1.8-.73-.58-.07-.83.3-.76.33.04.05.29-.13.7,0,.39.15,1.03.44,1.61.8.59.37.96.87,1.12,1.28.17.41.16.71.23.72Z"/>
      </g>
      <g>
        <path class="cls-10" d="m126.65,216.15c-5.27,4.82-8.84,6.63-9.52,11.59-.44,3.22-.17,8.42,1.37,13,2.86,8.47,6.51,18.42,8.73,23.21.8,1.73.95,3.69.4,5.52-1.24,4.16-4.55,12.08-4.05,28.16l49.41-3.46s-8.59-19.79-10.48-29.66c-.23-1.2,1.08-15.45.45-18.23-2.4-10.5-13.76-20.89-17.5-26.5l-.43-1.82-18.04-3.01-.34,1.2Z"/>
        <g class="cls-17">
          <path class="cls-2" d="m126.46,258.79s6.13,12.82,9.18,13.99c3.05,1.17,28.41-2.27,28.41-2.27l-1.54-5.99-36.05-5.73Z"/>
        </g>
        <path class="cls-9" d="m148.64,223.87s.33.23.84.74c.51.5,1.22,1.26,2.05,2.24,1.67,1.96,3.66,4.89,5.93,8.04,2.31,3.17,3.96,6.36,4.76,8.81.41,1.22.65,2.23.77,2.94.12.71.15,1.1.12,1.11-.09.02-.32-1.56-1.21-3.94-.87-2.39-2.54-5.5-4.83-8.64-2.29-3.17-4.22-6.12-5.81-8.11-.78-1-1.45-1.79-1.92-2.33-.47-.54-.73-.84-.7-.86Z"/>
      </g>
      <g>
        <path class="cls-1" d="m120.26,221.81s-10.68,7.16-4.25,19.67c5.71,11.12,14.99,24.76,18.74,26.9,3.75,2.15,44.15-6.58,44.15-6.58l-1.26-15.62-34.72,7.31-9.97-18.64s-3.92-15.74-12.67-13.04Z"/>
        <g>
          <g>
            <path class="cls-15" d="m177.81,248.38s.4-1.68,3.37-3.67c2.98-1.99,3.71-3.65,4.3-4.54s1.42-2.52,2.25-2.07c.83.45.69,1.73.13,3.73-.56,2-2.26,3.62-1.6,4.42s9.81-.21,12.47-.76c2.66-.54,3.9-.3,3.52,1.01-.38,1.31-8.67,1.63-9.26,2.87s.3.96,1.25,1.31c.95.35,9.86-.62,10.07,1,.2,1.62-.97,1.69-.97,1.69,0,0,.27,1.93-1.18,2.48s-10.53-.55-10.22.59,7.32,1.71,7.52,3.51c.2,1.8-1.52,1.1-3.35.71s-5.56-1.29-8.59-1.34c-3.04-.04-8.84-.54-8.84-.54l-.84-10.42Z"/>
            <path class="cls-11" d="m203.47,253.61c0,.13-2.72.12-6.06-.04-3.34-.15-6.04-.38-6.03-.51,0-.13,2.72-.11,6.06.04,3.34.15,6.04.38,6.03.51Z"/>
          </g>
          <path class="cls-9" d="m140.37,258.79c-.12,0-.05-1.38.75-2.83.79-1.46,1.91-2.26,1.98-2.16.1.1-.82,1.01-1.56,2.39-.76,1.36-1.03,2.63-1.17,2.6Z"/>
          <path class="cls-9" d="m130.84,231.23s.1.12.26.37c.17.25.39.63.69,1.12.59,1,1.43,2.48,2.5,4.4,2.12,3.84,5.16,9.39,8.77,16.3l-.19-.09c9.59-2.03,21.51-4.57,34.71-7.37l.26-.05.02.26c.41,5.01.83,10.21,1.26,15.54v.08s.02.21.02.21l-.2.04c-10.31,2.21-20.17,4.15-29.2,5.57-2.26.35-4.46.67-6.62.92-2.15.24-4.25.45-6.3.41-.51-.02-1.03-.05-1.54-.16-.24-.06-.54-.16-.74-.3l-.61-.45c-.42-.28-.76-.63-1.11-.97-.35-.34-.7-.67-1-1.03-.63-.71-1.23-1.41-1.78-2.14-.57-.71-1.09-1.43-1.59-2.13-3.99-5.65-6.75-10.53-8.67-13.87-.95-1.68-1.67-3-2.14-3.9-.23-.44-.4-.78-.54-1.03-.12-.23-.17-.35-.17-.36,0,0,.08.11.21.33.14.24.33.58.58,1,.52.9,1.27,2.2,2.22,3.85,1.97,3.32,4.77,8.16,8.79,13.77.51.7,1.03,1.41,1.59,2.11.54.72,1.15,1.41,1.77,2.11.3.36.65.68.99,1.01.34.33.68.67,1.08.94l.58.43c.09.09.2.11.3.15.1.04.2.09.32.1.46.1.96.13,1.46.15,2.01.02,4.1-.18,6.24-.43,2.14-.26,4.34-.58,6.6-.93,9.01-1.45,18.86-3.4,29.17-5.6l-.19.25v-.08c-.44-5.33-.86-10.53-1.26-15.54l.28.21c-13.21,2.76-25.14,5.25-34.74,7.26l-.13.03-.06-.12c-3.56-6.92-6.56-12.5-8.63-16.36-1.04-1.91-1.85-3.4-2.41-4.44-.28-.49-.49-.87-.65-1.15-.15-.26-.22-.39-.22-.39Z"/>
        </g>
      </g>
    </g>
  </g>
</svg>