<svg xmlns="http://www.w3.org/2000/svg" xmlns:xlink="http://www.w3.org/1999/xlink" width="1734.575" height="360.927" viewBox="0 0 1734.575 360.927">
  <defs>
    <clipPath id="clip-path">
      <rect id="Rectángulo_112" data-name="Rectángulo 112" width="177.936" height="32.206" fill="none"/>
    </clipPath>
    <clipPath id="clip-path-2">
      <rect id="Rectángulo_113" data-name="Rectángulo 113" width="173.834" height="31.462" fill="none"/>
    </clipPath>
    <clipPath id="clip-path-3">
      <rect id="Rectángulo_114" data-name="Rectángulo 114" width="278.686" height="43.626" fill="none"/>
    </clipPath>
  </defs>
  <g id="Grupo_232" data-name="Grupo 232" transform="translate(35.423 -193.961)" opacity="0.8">
    <g id="Grupo_234" data-name="Grupo 234" transform="translate(-25.417 43)">
      <g id="Grupo_222" data-name="Grupo 222" transform="translate(394.068 174.76)" opacity="0.6">
        <g id="Grupo_221" data-name="Grupo 221" transform="translate(0 0)">
          <g id="Grupo_220" data-name="Grupo 220" clip-path="url(#clip-path)">
            <path id="Trazado_2684" data-name="Trazado 2684" d="M220.682,60.368c7.052,6.81,38.456,2.719,49.968,3.224,19.652.861,39.446-1.047,59.087,0,16.879.9,44,7.335,60.148,1.649,22.628-7.971-4.331-23.709-17.682-27.477-13.927-3.929-28.47-2.826-41.869,1.7-11.425,3.856-20.188,13.572-33.894,11.275C283.127,48.5,276.764,39.943,260.979,43,248.61,45.388,240.756,53.638,230,58.4a21.376,21.376,0,0,1-7.7,1.971" transform="translate(-220.682 -35.356)" fill="#e5eeec"/>
          </g>
        </g>
      </g>
      <g id="Grupo_225" data-name="Grupo 225" transform="translate(999.807 150.961)" opacity="0.6">
        <g id="Grupo_224" data-name="Grupo 224">
          <g id="Grupo_223" data-name="Grupo 223" clip-path="url(#clip-path-2)">
            <path id="Trazado_2685" data-name="Trazado 2685" d="M721.88,24.434c6.888,6.653,37.569,2.656,48.814,3.149,19.2.841,38.536-1.022,57.726,0,16.489.879,42.987,7.166,58.761,1.611,22.106-7.787-4.231-23.162-17.276-26.843C856.3-1.487,842.093-.41,829,4.008c-11.161,3.768-19.721,13.259-33.111,11.015-13.007-2.18-19.223-10.542-34.644-7.56-12.085,2.338-19.757,10.4-30.27,15.046a20.878,20.878,0,0,1-7.523,1.925" transform="translate(-721.879 0)" fill="#e5eeec"/>
          </g>
        </g>
      </g>
      <g id="Grupo_228" data-name="Grupo 228" transform="translate(491.407 185.655)" opacity="0.6">
        <g id="Grupo_227" data-name="Grupo 227">
          <g id="Grupo_226" data-name="Grupo 226" clip-path="url(#clip-path-3)">
            <path id="Trazado_2686" data-name="Trazado 2686" d="M304.2,82c11.488,0,31.36-19.238,39.9-23.814,20.934-11.215,28.52,1.244,45.892,8.049,29.268,11.462,48.4-20.634,75.348-26.189,12.776-2.634,25.626-2.43,37.207,3.269,9.292,4.573,14.868,13.458,25.706,14.5,11.6,1.117,22.35-6.887,33.838-1.6,8.05,3.7,15,14.235,20.794,20.627C490.734,82.856,397.364,82,304.2,82" transform="translate(-304.202 -38.413)" fill="#e5eeec"/>
          </g>
        </g>
      </g>
      <path id="Trazado_2687" data-name="Trazado 2687" d="M340.737,157.995c-31.425-25.8-66.211-48.376-104.985-60.6-4.21-1.327-8.572-2.543-12.97-2.181-3.816.314-7.559,1.808-11.365,1.388-5.539-.614-9.847-5.084-15.121-6.882-8.017-2.734-16.663,1.046-24.212,4.888C114.6,123.856,60,162.1,1.685,188.442V348.294L497.951,371.7l28.23-90.424c-44.414-22.338-89.138-44.871-128.462-75.286-19.647-15.2-37.784-32.238-56.981-48" transform="translate(15.226 124.283)" fill="#dae9e6"/>
      <path id="Trazado_2688" data-name="Trazado 2688" d="M1228.145,152.314q-61.757-35.716-123.512-71.431a32.028,32.028,0,0,0-8.617-3.888c-4.059-.952-8.361-.41-12.562-.19A78.759,78.759,0,0,1,1048.82,70.8c-9.99-4.25-19.237-10.721-30.365-11.492-7.3-.508-14.472,1.544-21.4,3.567-67.4,19.684-135.774,39.782-194.3,74.416,0,0,12.954,136.908,11.149,139.78-1.3,2.075,265.818,15.1,414.24,22.165Z" transform="translate(496.424 91.732)" fill="#dae9e6"/>
      <path id="Trazado_2689" data-name="Trazado 2689" d="M1092.917,198.136c-15.54-10.069-30.842-20.663-44.372-33.3-11.6-10.842-21.807-23.109-33.553-33.791C998.815,116.328,980,104.874,961.315,93.516c-2.946-1.791-5.971-3.612-9.358-4.242-10.571-1.964-19.29,7.809-29.235,11.884-10.912,4.474-23.277,1.922-35.037,2.791-14.927,1.105-28.819,7.757-42.134,14.59-29.1,14.927-57.452,31.268-85.787,47.6l-60.8,35.04c-38.375,22.113-90.872,50.99-138.321,73.146l692.883,6.789a922.81,922.81,0,0,1-160.613-82.978" transform="translate(319.91 117.005)" fill="#dae9e6"/>
      <path id="Trazado_2690" data-name="Trazado 2690" d="M444.027,196.563a10.806,10.806,0,0,1-6.665-3.795,30.315,30.315,0,0,1-4.134-6.641,27.93,27.93,0,0,0,4.719,2.767,10.148,10.148,0,0,0-1.589-3.167q2.362.8,4.726,1.605a27.093,27.093,0,0,1-5.753-4.54,12.605,12.605,0,0,0,8.364,1.865,17.462,17.462,0,0,1-5.66-3.435c-.642-.552-1.276-1.076-1.912-1.6a47.305,47.305,0,0,1-3.4-3.764,20.38,20.38,0,0,0,4.884-.289,24.855,24.855,0,0,1-3.95-1.233,12.629,12.629,0,0,1-4.677-3.566c-.782-1.179-1.228-1.931-1.228-1.931,3.39,2.093,6.542,1.957,10.81,1.036a14.032,14.032,0,0,1-8.345-4.679,7.739,7.739,0,0,0,4.973.526,28.178,28.178,0,0,1-5.255-3.429,9.367,9.367,0,0,0,7.42.626c-3.395-1.326-5.865-4.025-7.882-7.133a7.926,7.926,0,0,0,4.088.227,12.065,12.065,0,0,1-6.71-4.843c-.2-.394-.4-.787-.6-1.178a4.482,4.482,0,0,0,5.161,2.049l-2.12-1.6a3.421,3.421,0,0,0,2.644.563,12.935,12.935,0,0,1-3.93-4.182,14.279,14.279,0,0,0,8.148.137,17.148,17.148,0,0,1-12.293-12.047,17.15,17.15,0,0,1-12.294,12.047,14.279,14.279,0,0,0,8.148-.137,12.936,12.936,0,0,1-3.93,4.182,3.427,3.427,0,0,0,2.646-.563l-2.122,1.6a4.485,4.485,0,0,0,5.163-2.049c-.2.39-.4.784-.6,1.178a12.065,12.065,0,0,1-6.71,4.843,7.925,7.925,0,0,0,4.088-.227c-2.015,3.107-4.487,5.807-7.882,7.133a9.367,9.367,0,0,0,7.42-.626,28.167,28.167,0,0,1-5.253,3.429,7.735,7.735,0,0,0,4.971-.526,14.031,14.031,0,0,1-8.345,4.679c4.267.921,7.42,1.057,10.81-1.036,0,0-.444.752-1.228,1.931a12.628,12.628,0,0,1-4.677,3.566,24.885,24.885,0,0,1-3.948,1.233,20.367,20.367,0,0,0,4.882.289,46.96,46.96,0,0,1-3.4,3.764c-.634.523-1.27,1.047-1.91,1.6a17.485,17.485,0,0,1-5.661,3.435,12.6,12.6,0,0,0,8.364-1.865,27.123,27.123,0,0,1-5.752,4.54l4.726-1.605a10.079,10.079,0,0,0-1.589,3.167,27.92,27.92,0,0,0,4.718-2.767,30.313,30.313,0,0,1-4.134,6.641,10.806,10.806,0,0,1-6.665,3.795,15.543,15.543,0,0,0,10.087-1.494,7.058,7.058,0,0,1-3.227,3.374c.634-.218,2.277-.574,2.911-.792-.174,1.086.1,1.941-1.533,3.4a15.312,15.312,0,0,1,3.575-1.063,19.376,19.376,0,0,1-1.281,2.43,2.841,2.841,0,0,0,3.211-1.883l-.184,2.746,1.407-1.846a2.428,2.428,0,0,0,.221,1.284q.448-.767.9-1.533a16.721,16.721,0,0,0,1.278,3.28c-.055-1.51-.073-3.149.82-4.371a4.754,4.754,0,0,0,2.339,3.267l-.465-2.651a7.588,7.588,0,0,0,1.231,1.889c.081-.6.134-1.2.158-1.805a5.86,5.86,0,0,0,2.572,2.307,17.444,17.444,0,0,0,3.312,1.134,12.476,12.476,0,0,1-2.544-2.77,4.7,4.7,0,0,0,2.309,1.662,1.529,1.529,0,0,0-.6-1.329,10.374,10.374,0,0,0,2.593,1.3q-.748-.728-1.439-1.512a12.209,12.209,0,0,0,2.535,1.089c.737.276,2.48.986,3.075.471a11.7,11.7,0,0,1-2.581-2.628,6.486,6.486,0,0,1,1.423.536l-.523-3.258,1.9.652a7.066,7.066,0,0,1-3.227-3.374,15.543,15.543,0,0,0,10.087,1.494" transform="translate(228.39 170.439)" fill="#9cd2c9"/>
      <g id="Grupo_236" data-name="Grupo 236" transform="translate(0 74)">
        <path id="Trazado_2691" data-name="Trazado 2691" d="M508.919,178.753a56.578,56.578,0,0,1,1.949-15.016c1.212-4.79,2.781-9.369,4.274-13.9a113.906,113.906,0,0,0,3.79-13.638,43.387,43.387,0,0,0,.687-13.956l1.517-.268a45.551,45.551,0,0,1,.6,14.639,117.216,117.216,0,0,1-2.62,14.335c-1.089,4.682-2.214,9.3-2.943,13.888a50.5,50.5,0,0,0-.558,13.508Z" transform="translate(312.175 74.219)" fill="#b4d8cd"/>
        <path id="Trazado_2692" data-name="Trazado 2692" d="M521.536,131.015a1.161,1.161,0,0,0-.542-.416,1.128,1.128,0,0,0-.345-.079,1.605,1.605,0,0,0-.418.034,3.11,3.11,0,0,1-1.405-.01,3.581,3.581,0,0,1-1.223-.6,10.7,10.7,0,0,1-1.685-1.7,3.86,3.86,0,0,0-1.609-1.212,8.046,8.046,0,0,0-2.151-.2,6.1,6.1,0,0,1-1.192-.147,5.325,5.325,0,0,1-1.115-.437,12.786,12.786,0,0,1-1.954-1.241,3.752,3.752,0,0,1-.849-.815,1.076,1.076,0,0,1-.081-1.175l.124.077a.9.9,0,0,0,.145.963,3.629,3.629,0,0,0,.847.689,12.324,12.324,0,0,0,1.973,1.052,4.316,4.316,0,0,0,2.1.363,8.555,8.555,0,0,1,2.378.06,4.724,4.724,0,0,1,2.11,1.315,9.955,9.955,0,0,0,1.622,1.42,2.414,2.414,0,0,0,.836.339,1.791,1.791,0,0,0,.849-.081,3.077,3.077,0,0,1,.708-.1,2.506,2.506,0,0,1,.775.1,2.666,2.666,0,0,1,1.31.849Z" transform="translate(310.897 74.863)" fill="#b4d8cd"/>
        <path id="Trazado_2693" data-name="Trazado 2693" d="M515.04,125.652a4.438,4.438,0,0,1-1.078.6.573.573,0,0,0-.248.255,2.825,2.825,0,0,1-.307.574,1.207,1.207,0,0,1-.687.4,2.134,2.134,0,0,1-.683.021,9.3,9.3,0,0,1-1.168-.253,11.285,11.285,0,0,0-4.372-.749l-.082-.518a6.629,6.629,0,0,1,2.377.089c.768.15,1.507.368,2.24.54a8.883,8.883,0,0,0,1.075.207.828.828,0,0,0,.739-.192,2.858,2.858,0,0,0,.207-.445,1.329,1.329,0,0,1,.516-.573,5.264,5.264,0,0,0,.915-.513Z" transform="translate(310.644 76.137)" fill="#b4d8cd"/>
        <path id="Trazado_2694" data-name="Trazado 2694" d="M515.737,135.614a1.147,1.147,0,0,1,.274-.724,1.294,1.294,0,0,1,.492-.352,1.574,1.574,0,0,1,.947-.081,5.617,5.617,0,0,0,.723.2c.05.01.213-.086.352-.3a3.518,3.518,0,0,0,.361-.786c.218-.6.376-1.275.612-1.964a5.882,5.882,0,0,1,1.073-1.954,3.12,3.12,0,0,0,.836-1.618,9.916,9.916,0,0,1,.4-2.1,2.216,2.216,0,0,1,.734-.929,8.579,8.579,0,0,1,.918-.542,2.86,2.86,0,0,0,.757-.581,2.786,2.786,0,0,0,.292-.379c.042-.068.084-.137.119-.21l.053-.108.024-.055c.006-.019.01-.039.092-.031l.206.074c.065.048.053.069.044.09l-.023.065-.052.127c-.035.084-.076.166-.119.248a3.2,3.2,0,0,1-.3.461,3.32,3.32,0,0,1-.82.736c-.611.382-1.136.705-1.3,1.275a9.937,9.937,0,0,0-.211,1.97,3.559,3.559,0,0,1-.291,1.131,6.543,6.543,0,0,1-.574.949c-.8,1.026-.863,2.293-1.249,3.729a4.771,4.771,0,0,1-.439,1.108,1.937,1.937,0,0,1-1.207.968,1.812,1.812,0,0,1-.834-.023c-.215-.052-.366-.1-.458-.111-.053-.006-.057.011-.065.016a.17.17,0,0,0,.078-.055.409.409,0,0,0,.1-.252Z" transform="translate(316.362 74.915)" fill="#b4d8cd"/>
        <path id="Trazado_2695" data-name="Trazado 2695" d="M518.43,129.282l.916-.282a6.872,6.872,0,0,0,.739-.2c.3-.1.44-.679.768-1.288a1.428,1.428,0,0,1,.879-.668,7.409,7.409,0,0,0,.837-.2,3,3,0,0,0,1.331-.942l.253.181a3.413,3.413,0,0,1-1.386,1.234,7.44,7.44,0,0,1-.849.308.733.733,0,0,0-.439.428c-.1.216-.158.49-.265.8a1.724,1.724,0,0,1-.661.929,5.8,5.8,0,0,1-.916.389l-.739.323Z" transform="translate(318.014 76.508)" fill="#b4d8cd"/>
        <path id="Trazado_2696" data-name="Trazado 2696" d="M503.092,126.51a1.271,1.271,0,0,1,.729-.844,3.309,3.309,0,0,1,.991-3.543,1.624,1.624,0,0,1,.718-.479.68.68,0,0,1,.766.269,6.391,6.391,0,0,1,1.152-2.236,1.668,1.668,0,0,1,.7-.571c.7-.25,1.389.352,1.891.9l1.226,1.341A11.959,11.959,0,0,1,512.351,119a.661.661,0,0,1,.357-.34.6.6,0,0,1,.4.076,2.564,2.564,0,0,1,1.412,2.123.737.737,0,0,1,.792-.681,2.018,2.018,0,0,1,1.063.465,3.057,3.057,0,0,1,1.228,1.362,1.247,1.247,0,0,1-.4,1.4.394.394,0,0,1,.207.027,1.108,1.108,0,0,1-.715,1.129,10.767,10.767,0,0,1-.311,1.373,1.585,1.585,0,0,1-.752,1.091,1.315,1.315,0,0,1-1.407-.505c-.348-.4-.574-.907-.952-1.284a4.9,4.9,0,0,1,.066,2.665,3.953,3.953,0,0,1-1.242-1.013,3.289,3.289,0,0,1-.345,1.27,1.178,1.178,0,0,1-.729.681.59.59,0,0,1-.616-.3,9.93,9.93,0,0,1,.011,2.144,1.346,1.346,0,0,1-.266.779.956.956,0,0,1-1.01.2,2.318,2.318,0,0,1-.878-.631,9,9,0,0,1-1.216-1.565c-.32.386-.386,1-.834,1.223a1.287,1.287,0,0,1-1.241-.287,5.109,5.109,0,0,1-1.6-1.655,2.837,2.837,0,0,1-.284-2.238" transform="translate(308.533 72.183)" fill="#b4d8cd"/>
        <path id="Trazado_2697" data-name="Trazado 2697" d="M510.8,120.715a7.155,7.155,0,0,1,.837-1.3,1.291,1.291,0,0,1,.761-.542c.316-.044.681.24.592.547a19.537,19.537,0,0,1,1.828-1.828,1.645,1.645,0,0,1,.529-.35,1.173,1.173,0,0,1,1.279.545,3.416,3.416,0,0,1,.432,1.42,2.8,2.8,0,0,1,5.179,2.115,4.592,4.592,0,0,1,3.246-1.665,1.67,1.67,0,0,1,.952.065,1.426,1.426,0,0,1,.545,1.639,15.62,15.62,0,0,0-.534,1.788,2.784,2.784,0,0,1,1.317-1.388,2.449,2.449,0,0,1,1.846.308,10.023,10.023,0,0,1,2.548,1.813,1.634,1.634,0,0,1,.631,1.505.346.346,0,0,1,.3.047,6.249,6.249,0,0,1,2.147,2.922,3.081,3.081,0,0,1-.939,3.322.911.911,0,0,1-.59.213.418.418,0,0,1-.4-.413,8.3,8.3,0,0,1-1.241,1.905,1.385,1.385,0,0,1-1.023.6,1.016,1.016,0,0,1-.845-.745,2.973,2.973,0,0,1-.049-1.189,2.543,2.543,0,0,1-1.576,1.189,2.064,2.064,0,0,1-1.363.094.883.883,0,0,1-.566-1.1,1.7,1.7,0,0,1-1.3.757,1.676,1.676,0,0,1-.9-.019,1.264,1.264,0,0,1-.7-1.226,3.71,3.71,0,0,1,.434-1.431,3.445,3.445,0,0,1-1.413-.147,1.189,1.189,0,0,1-.8-1.075,9.994,9.994,0,0,1-1.931,1.6.683.683,0,0,1-.46.15c-.242-.04-.371-.308-.419-.549a2.259,2.259,0,0,1,.108-1.257c-.36.228-.4.741-.686,1.06a1.137,1.137,0,0,1-1.22.248,2.328,2.328,0,0,1-1.015-.818,9,9,0,0,1-1.484-4.2l-.092.561a1.045,1.045,0,0,1-.826.6,2.748,2.748,0,0,1-1.06-.094,1.722,1.722,0,0,1-.831-.368,1.246,1.246,0,0,1-.161-1.4,3.659,3.659,0,0,1,.978-1.131c-.891-.063-1.955-.245-2.3-1.07a2.1,2.1,0,0,1,.236-1.7" transform="translate(313.129 71.29)" fill="#b4d8cd"/>
        <path id="Trazado_2698" data-name="Trazado 2698" d="M506.265,121.894a.9.9,0,0,1,.236-.726,3.777,3.777,0,0,1,2.615-1.457.792.792,0,0,1-.591-1.068,2.064,2.064,0,0,1,1.008-.973,10.9,10.9,0,0,1,1.528-.718,1.706,1.706,0,0,1,1.634,0,1.87,1.87,0,0,1,1.289-1.681,2,2,0,0,1,2.086.594c-.145-.152.055-.379.239-.486a8.591,8.591,0,0,1,3.395-1.1,2.536,2.536,0,0,1,1.373.148.984.984,0,0,1,.589,1.1,3.351,3.351,0,0,1,.684-.936,1.224,1.224,0,0,1,1.1-.3,1.585,1.585,0,0,1,.7.51,8.958,8.958,0,0,1,1.676,2.614c.292-.4.742-.841,1.212-.671a.92.92,0,0,1,.366.274,2.277,2.277,0,0,1,.55,1.17.815.815,0,0,1,.862.436,2.143,2.143,0,0,1,.2.986q.039.912.076,1.822a1.314,1.314,0,0,1,1.8-.029,2.117,2.117,0,0,1,.59,1.789,11.116,11.116,0,0,1-.469,1.889l-20.184.458c-1.4-.147-2.943.416-4.142-.282a.694.694,0,0,1-.313-.307.752.752,0,0,1,.092-.6,6.64,6.64,0,0,1,1.065-1.584c-.418-.323-1.141-.371-1.265-.871" transform="translate(310.542 69.484)" fill="#b4d8cd"/>
      </g>
      <path id="Trazado_2699" data-name="Trazado 2699" d="M1190.2,174.357c-16.454,4.913-31.954,12.129-48.778,15.9a7.863,7.863,0,0,0-3.388-2.931,6.839,6.839,0,0,1-2.678-1.55,5.31,5.31,0,0,0-.778-1.11c-.8-.645-2.138-.308-3.164.067a1.974,1.974,0,0,0-.618.312c-.491.428-.215,1.1-.155,1.687a2.2,2.2,0,0,1-.552,1.634c-1.076-2.355-.953-5.023-.792-7.567a6.444,6.444,0,0,0-2.986,4.16,40.97,40.97,0,0,1-.59-7.153,1,1,0,0,0-.623.951,15.423,15.423,0,0,0,.7,6.816c-1.092-2.632-3.824-4.561-6.439-6.357.031,3.02,3.716,5.266,4.343,8.244a4.086,4.086,0,0,0-2.328-2.24,16.134,16.134,0,0,0-3.506-.977,15.264,15.264,0,0,1,5.991,4.72,8.532,8.532,0,0,0-4.117.419,3.7,3.7,0,0,1-1.128.323c-.894.041-1.591-.652-2.472-.785a4.03,4.03,0,0,0-2.015.392,14.585,14.585,0,0,0-3.676,1.828,9.88,9.88,0,0,0-2.351,2.876,138.743,138.743,0,0,0-17.089,2.215c-16.205,3.34-31.765,11.232-48.328,9.367-9.819-1.106-18.612-5.583-28.328-7.182-17.49-2.88-35.19,3.827-53.036,3.921-30.263.158-55.406-18.234-75.366-36.65-5.273-4.865-10.781-10.008-18.162-12.385a1.4,1.4,0,0,1,.113-.812.968.968,0,0,0,.181-.53.8.8,0,0,0-.35-.44,14.854,14.854,0,0,0-5.213-2.556c.315-.82-.347-1.68-1.125-2.263a9.2,9.2,0,0,0-6.844-1.542,1.647,1.647,0,0,0-.947-.6c-3.051-.987-6.946.486-7.969,3.013-1.186-.558-2.875-1.061-3.762-.213a2.214,2.214,0,0,0-.507.905l-.716,1.983a2.38,2.38,0,0,0-2.2-1.138,2.257,2.257,0,0,0-2.038,1.317c-.313-.636-.624-1.708-1.476-1.644-.781.2-.568,1.269-.558,1.941-1.409-.492-2.109-2.211-3.637-2.09-1.113.089-1.654,1.125-1.965,1.994a2.892,2.892,0,0,0-1.126-1.6,1.682,1.682,0,0,0-1.686.038,1.584,1.584,0,0,0-.521-2.026,3.911,3.911,0,0,0-3.006-.532c.584-1.471-1-3.216-2.912-3.2s-3.454,1.781-2.836,3.244l-.013-.018a1.658,1.658,0,0,0-2.673.148,5.715,5.715,0,0,0-.563,2.062c-.158-.532-1.133-.653-1.662-.311a1.768,1.768,0,0,0-.715,1.482,4.537,4.537,0,0,1-.192,1.629,4.964,4.964,0,0,1-.984-1,1.4,1.4,0,0,0-1.367-.451,1.1,1.1,0,0,0-.616,1.16,7.837,7.837,0,0,0,.237,1.779l-10.794.323q-3.076.092-6.178.195a8,8,0,0,1,1.129-1.984,6.637,6.637,0,0,0-2.764,1.492,2.889,2.889,0,0,1,.8-2.023,3.891,3.891,0,0,0-2.172,1.447,16.337,16.337,0,0,0,.153-3.977,28.714,28.714,0,0,1-1.339,3.618,4.7,4.7,0,0,0-1.133-2.927,6.062,6.062,0,0,1,.24,3.511,5.012,5.012,0,0,0-1.25-2.748,12.405,12.405,0,0,1-.8,3.856l-.071,0a3.173,3.173,0,0,0-.139-.329,1.726,1.726,0,0,0-1.471-.964,4.95,4.95,0,0,0-1.213.345,4.593,4.593,0,0,1-2.614-.259c-.142-.046-.286-.09-.431-.131-.274-.632-.584-1.258-.9-1.874a.831.831,0,0,0-.253-.334.965.965,0,0,0-.931.044,8.731,8.731,0,0,1-.8.483c-.867.353-1.959-.192-2.865.086-1.033.317-1.21,1.456-2.015,2.068a2.779,2.779,0,0,1-.72.366,3.324,3.324,0,0,0-.781-1.412,1.781,1.781,0,0,0-1.757-.407c.068-1.536-1.97-2.88-3.814-2.515a3.1,3.1,0,0,0-.734-2.064,2.579,2.579,0,0,0-2.351-.769,1.477,1.477,0,0,0-1.167,1.115,1.724,1.724,0,0,0-1.467-.674,3.089,3.089,0,0,0-2.083,1.1,1.35,1.35,0,0,1-1.007.609,2.6,2.6,0,0,1-.657-.205,1.907,1.907,0,0,0-2,.705,3.462,3.462,0,0,0-.5,1.861c.027-.68-.689-1.272-1.5-1.456a5.192,5.192,0,0,0-2.478.172c-3.954,1.072-6.97,4.125-7.4,7.482l8.388-.263c-22.005,2.867-42.9,8.431-59.759,19.961-6.094,4.169-11.6,9.092-18.767,11.924-.523.206-1.057.388-1.589.571a9.325,9.325,0,0,0-1.11-3.342,3.115,3.115,0,0,1-1.228,3.185,15.635,15.635,0,0,1,.831-2.086c-.634,1.1-2.4,1.707-2.569,2.913a4.66,4.66,0,0,1,.7-2.1,3.58,3.58,0,0,0-2.344,2.1,14.148,14.148,0,0,1,1.813-3.136,5.034,5.034,0,0,0-3.272,2.675,6.776,6.776,0,0,1,2.169-4.232,3.511,3.511,0,0,0-1.567,1.45,14.132,14.132,0,0,0-2.219,4.644q-.956.147-1.923.272a12.3,12.3,0,0,0-.8-1.7,1.583,1.583,0,0,0-.678-.717,1.654,1.654,0,0,0-1.852.6,3.742,3.742,0,0,1-.812,1.034,3.555,3.555,0,0,1-1.468.38,1.8,1.8,0,0,0-1.3.606,1.051,1.051,0,0,0-.119.507c-6.052.5-12.17.88-17.962,2.258-10.652,2.534-19.806,8.359-30.558,10.6-13.162,2.747-27.762-4.92-40.508-1.1C298.593,282.709,39.76,214.91,2,210.49V346.9l1710.977-1.536V186.456c-39.093-2.154-378.158-55.283-522.775-12.1" transform="translate(-12.006 164.99)" fill="#b4d8cd"/>
      <path id="Trazado_2700" data-name="Trazado 2700" d="M660.775,284.415c-4.213-.468-7.986-2.98-10.8-6.149a49.179,49.179,0,0,1-6.7-10.76,45.147,45.147,0,0,0,7.644,4.484,16.328,16.328,0,0,0-2.573-5.129l7.656,2.6a43.9,43.9,0,0,1-9.319-7.356,20.412,20.412,0,0,0,13.553,3.022,28.31,28.31,0,0,1-9.172-5.565c-1.041-.9-2.07-1.746-3.1-2.593a75.542,75.542,0,0,1-5.518-6.1,32.88,32.88,0,0,0,7.912-.466,40.722,40.722,0,0,1-6.4-2,20.457,20.457,0,0,1-7.577-5.779c-1.27-1.912-1.991-3.13-1.991-3.13,5.492,3.393,10.6,3.172,17.515,1.68a22.725,22.725,0,0,1-13.52-7.58,12.521,12.521,0,0,0,8.054.85,45.465,45.465,0,0,1-8.512-5.555,15.167,15.167,0,0,0,12.02,1.015c-5.5-2.147-9.5-6.521-12.769-11.557a12.855,12.855,0,0,0,6.626.371,19.555,19.555,0,0,1-10.873-7.849q-.494-.956-.971-1.909a7.264,7.264,0,0,0,8.362,3.32q-1.716-1.3-3.433-2.593a5.543,5.543,0,0,0,4.285.912,20.958,20.958,0,0,1-6.37-6.775,23.155,23.155,0,0,0,13.2.223A27.784,27.784,0,0,1,628.1,184.532a27.784,27.784,0,0,1-19.918,19.521,23.155,23.155,0,0,0,13.2-.223,20.954,20.954,0,0,1-6.368,6.775,5.546,5.546,0,0,0,4.285-.912q-1.716,1.3-3.435,2.593a7.262,7.262,0,0,0,8.362-3.32q-.477.951-.97,1.909a19.56,19.56,0,0,1-10.873,7.849,12.85,12.85,0,0,0,6.625-.371c-3.267,5.035-7.268,9.409-12.769,11.557a15.171,15.171,0,0,0,12.022-1.015,45.479,45.479,0,0,1-8.514,5.555,12.525,12.525,0,0,0,8.056-.85,22.73,22.73,0,0,1-13.52,7.58c6.915,1.492,12.022,1.713,17.514-1.68,0,0-.72,1.218-1.989,3.13a20.45,20.45,0,0,1-7.578,5.779,40.667,40.667,0,0,1-6.4,2,32.885,32.885,0,0,0,7.912.466,75.8,75.8,0,0,1-5.515,6.1c-1.029.847-2.059,1.7-3.1,2.593a28.328,28.328,0,0,1-9.172,5.565,20.407,20.407,0,0,0,13.551-3.022,43.9,43.9,0,0,1-9.319,7.356l7.656-2.6a16.4,16.4,0,0,0-2.573,5.129,45.142,45.142,0,0,0,7.644-4.484,49.114,49.114,0,0,1-6.7,10.76c-2.812,3.169-6.587,5.681-10.8,6.149a25.188,25.188,0,0,0,16.344-2.422,11.439,11.439,0,0,1-5.227,5.466c1.025-.352,3.685-.931,4.714-1.281-.284,1.759.168,3.143-2.483,5.5a24.7,24.7,0,0,1,5.794-1.723,31.475,31.475,0,0,1-2.078,3.935,4.6,4.6,0,0,0,5.2-3.049q-.148,2.224-.3,4.45,1.137-1.5,2.278-2.991a3.917,3.917,0,0,0,.358,2.08l1.454-2.483a27.258,27.258,0,0,0,2.072,5.315c-.089-2.448-.119-5.1,1.328-7.081a7.69,7.69,0,0,0,3.788,5.292l-.75-4.293a12.23,12.23,0,0,0,1.994,3.062c.131-.971.216-1.949.257-2.927a9.484,9.484,0,0,0,4.164,3.738,28.346,28.346,0,0,0,5.37,1.838,20.108,20.108,0,0,1-4.122-4.487,7.627,7.627,0,0,0,3.74,2.691,2.48,2.48,0,0,0-.971-2.154,16.761,16.761,0,0,0,4.2,2.1q-1.21-1.179-2.328-2.449a19.679,19.679,0,0,0,4.1,1.765c1.2.447,4.019,1.6,4.985.765a18.991,18.991,0,0,1-4.185-4.259,10.517,10.517,0,0,1,2.307.87q-.426-2.64-.849-5.277l3.08,1.054a11.44,11.44,0,0,1-5.227-5.466,25.185,25.185,0,0,0,16.344,2.422" transform="translate(365.241 112.596)" fill="#83aaa1"/>
      <path id="Trazado_2701" data-name="Trazado 2701" d="M614.329,280.035l6.689,1.9A101.127,101.127,0,0,1,605.4,264.8a22.187,22.187,0,0,0,2.319.908,35.132,35.132,0,0,0,4.9,1.258,12.374,12.374,0,0,1-5.7-3.99c-.1-.111-.2-.223-.3-.334q.586.317,1.171.637a12.879,12.879,0,0,1-1.352-2.836l7.68,2.772a51.8,51.8,0,0,1-8.233-9.172c.391.071.781.135,1.171.2l5.378.887a24.213,24.213,0,0,1-8.677-4.443,41.323,41.323,0,0,1-3.175-6.893l3.74,2.154a3.973,3.973,0,0,0,.029-2.1,18.578,18.578,0,0,0,5.844,1.784,10.7,10.7,0,0,1-3.559-1.831c-.3-.208-.6-.416-.907-.628a42.155,42.155,0,0,0,9.28.487,42.011,42.011,0,0,1-12.491-12.36,14.934,14.934,0,0,0,7.186.958,14.674,14.674,0,0,1-8.333-5.778l.989.308q.061-.883.118-1.77c.113.081.226.16.339.239a11.037,11.037,0,0,0,1.37.871,9.45,9.45,0,0,0,1.789.65,28.979,28.979,0,0,0,5.021.92,17.053,17.053,0,0,1-4.521-2.449,9.043,9.043,0,0,1-.9-.824,15.171,15.171,0,0,0,8.012.079c-6.457-2.907-11.542-7.409-14.235-12.594l3.4,1q-.305-1.363-.607-2.723a15.065,15.065,0,0,0,4.69,1.7,7.812,7.812,0,0,1-3.664-3.643c-.168-.286-.328-.574-.484-.866l5.479,1.071c-6.983-4.745-13.895-10.628-13.822-17.6h0c.074,6.973-6.838,12.856-13.82,17.6l5.858-1.147-.983,2.36c.461-.179.923-.357,1.381-.536q-.421,1.895-.844,3.787l1.642-.484a12.277,12.277,0,0,1-.862,1.094,8.825,8.825,0,0,1-5.45,3,4.9,4.9,0,0,0,3.025.9c.337.021.681.039,1.021.031a32.873,32.873,0,0,1-10.208,7.052,14.936,14.936,0,0,0,9.577-.642q-.736,1.358-1.468,2.714,1.491-.954,2.977-1.905.07,1.06.14,2.118l1.542-.478a22.886,22.886,0,0,1-3.7,3.616,19.731,19.731,0,0,1-8.525,3.859,12.949,12.949,0,0,0,9.89-1.517,42.523,42.523,0,0,1-11.849,11.391,42.175,42.175,0,0,0,7.727-.263,24,24,0,0,1-5.613,3.132,19.751,19.751,0,0,0,3.883-.16,6.636,6.636,0,0,0,3.478-1.617,9.9,9.9,0,0,0,1.034-1.229c.168-.223.336-.445.5-.67l.032-.006a4.069,4.069,0,0,0-.357,3.1l3.74-2.154c-.016.048-.034.1-.052.142q-.5.958-1.049,1.9a23.6,23.6,0,0,1-4.25,5.578,11.665,11.665,0,0,1-6.2,3.106,29.742,29.742,0,0,0,5.731-.552c.229-.053.458-.111.689-.176a51.8,51.8,0,0,1-8.411,9.427q3.843-1.387,7.681-2.772a12.814,12.814,0,0,1-1.354,2.836q.84-.46,1.685-.916a1.076,1.076,0,0,1-.265,1.241q1.367-.687,2.735-1.371-1.106,1.665-2.3,3.3c-.46.31-.937.6-1.42.879A58.73,58.73,0,0,1,575.5,269.4a11.65,11.65,0,0,1-4.7,1.262,36.17,36.17,0,0,0,6.194.734q.554.017,1.108.011a104.976,104.976,0,0,1-10.44,10.532l6.692-1.9a5.542,5.542,0,0,1-.063,3.1q2.289-1.4,4.584-2.8a5.215,5.215,0,0,0,.426,2.33,20.276,20.276,0,0,1,4.9-2.114c4.219-.9,6.907.8,10.139-2.877,3.232,3.675,5.92,1.973,10.137,2.877a20.153,20.153,0,0,1,4.9,2.114,5.2,5.2,0,0,0,.431-2.33l4.582,2.8a5.5,5.5,0,0,1-.061-3.1" transform="translate(348.217 116.474)" fill="#83aaa1"/>
      <g id="Grupo_237" data-name="Grupo 237" transform="translate(48 31.186)">
        <path id="Trazado_2702" data-name="Trazado 2702" d="M681.117,239.54a45.04,45.04,0,0,1-1.828-12.776,53.314,53.314,0,0,1,1.5-12.382,74.566,74.566,0,0,1,9.559-21.848c2.032-3.3,4.324-6.474,6.418-9.449A46.666,46.666,0,0,0,702,174.01c2.6-6.37,3.145-13.768,3.605-21.2l3.963.062c.117,3.744.226,7.541.035,11.412a49.165,49.165,0,0,1-1.862,11.723,52.846,52.846,0,0,1-4.93,10.869c-1.908,3.339-3.722,6.426-5.315,9.665a65.344,65.344,0,0,0-6.587,19.808,37.164,37.164,0,0,0,1.955,19.141Z" transform="translate(413.766 86.415)" fill="#a3c6bc"/>
        <path id="Trazado_2703" data-name="Trazado 2703" d="M698.985,170.51a21.954,21.954,0,0,1,3.965-2.154,9.729,9.729,0,0,1,2.556-.635,7.356,7.356,0,0,1,2.856.267,15.41,15.41,0,0,1,2.01.86,4.875,4.875,0,0,0,.566.228,1.2,1.2,0,0,0,.4.07,16.334,16.334,0,0,0,3.287-.945,13.793,13.793,0,0,0,6.121-3.613,31.249,31.249,0,0,0,2.182-3.137,11.319,11.319,0,0,1,2.812-3.136l.8,1.012c-1.775,1.641-2.35,4.214-3.916,6.66a12.549,12.549,0,0,1-3.044,3.16,25.289,25.289,0,0,1-3.613,2.173l-1.814.893a8.818,8.818,0,0,1-2.311.824,5.276,5.276,0,0,1-1.562.043,7.8,7.8,0,0,1-1.335-.293,12.626,12.626,0,0,0-1.7-.488,3.708,3.708,0,0,0-2.269.6,17.677,17.677,0,0,0-2.714,2.026Z" transform="translate(418.796 87.821)" fill="#a3c6bc"/>
        <path id="Trazado_2704" data-name="Trazado 2704" d="M705.764,163.721l-5.784,1.581-1.446.4-.722.2a3.526,3.526,0,0,1-1.181.173,2.368,2.368,0,0,1-1.35-.561c-.277-.232-.411-.379-.606-.561l-1.087-1.056q-2.156-2.126-4.18-4.369l-1-1.126a1.849,1.849,0,0,0-.953-.693,14.374,14.374,0,0,1-2.788-1.327l.389-.713a13.346,13.346,0,0,0,2.737.947,3.225,3.225,0,0,1,.847.321,4.079,4.079,0,0,1,.7.546l1.107,1q2.226,1.975,4.557,3.814l1.171.909c.186.139.422.33.54.4.138.082.112.02.011,0a9.086,9.086,0,0,1,.974-.4l1.393-.552,5.573-2.21Z" transform="translate(415.139 87.143)" fill="#a3c6bc"/>
        <path id="Trazado_2705" data-name="Trazado 2705" d="M711.854,167.294a2.17,2.17,0,0,1,1.273-.577,2.7,2.7,0,0,1,1.095.124,3.237,3.237,0,0,1,.858.424c.227.157.411.311.567.443a2.758,2.758,0,0,0,.683.487,1.409,1.409,0,0,0,.706.063,15,15,0,0,0,2.21-.65,8.136,8.136,0,0,1,2.754-.4,6.576,6.576,0,0,1,1.382.23,4.842,4.842,0,0,0,1.039.191,3.558,3.558,0,0,0,1.931-.546,8.473,8.473,0,0,0,2.861-3.515l1,.483a9.67,9.67,0,0,1-3.068,4.246,5.087,5.087,0,0,1-2.712.952,6.377,6.377,0,0,1-1.406-.143,4.746,4.746,0,0,0-1.062-.108,6.32,6.32,0,0,0-2.091.466,15.6,15.6,0,0,1-2.481.894,3.615,3.615,0,0,1-1.74-.054,4.609,4.609,0,0,1-1.422-.785,5.077,5.077,0,0,0-.427-.291.811.811,0,0,0-.256-.1c-.077-.018-.136-.008-.127,0a.243.243,0,0,0,.169-.07Z" transform="translate(422.083 89.163)" fill="#a3c6bc"/>
        <path id="Trazado_2706" data-name="Trazado 2706" d="M716.592,166.839c.011.11.1.17.06.089a.816.816,0,0,0-.3-.262c-.287-.182-.96-.291-1.686-.712a2.664,2.664,0,0,1-.945-.949,3.293,3.293,0,0,1-.384-1.116,10.508,10.508,0,0,1-.072-1.912,4.632,4.632,0,0,1,.148-1.022c.1-.359.231-.621.293-.825a.832.832,0,0,0,.017-.534,3.182,3.182,0,0,0-.311-.684,7.171,7.171,0,0,0-2.241-2.415l.241-.426a7.909,7.909,0,0,1,2.82,2.294,4.309,4.309,0,0,1,.53.84,2.037,2.037,0,0,1,.151,1.178c-.059.367-.153.645-.172.856a3.232,3.232,0,0,0,.006.712,9.256,9.256,0,0,0,.275,1.554,1.476,1.476,0,0,0,.256.5.75.75,0,0,0,.328.213c.305.134.821.146,1.611.4a3.189,3.189,0,0,1,1.141.7,2.248,2.248,0,0,1,.7,1.656Z" transform="translate(421.909 87.248)" fill="#a3c6bc"/>
        <path id="Trazado_2707" data-name="Trazado 2707" d="M694.493,162.044a18.415,18.415,0,0,1-3.019,1.318,6.388,6.388,0,0,1-3.52.139,11.526,11.526,0,0,1-2.848-1.578,2.489,2.489,0,0,0-2.592-.24l-.266-.316a2.33,2.33,0,0,1,1.6-.6,4.314,4.314,0,0,1,1.662.319,11.05,11.05,0,0,0,2.735,1,4.754,4.754,0,0,0,2.535-.555,16.438,16.438,0,0,0,2.417-1.592Z" transform="translate(414.521 88.236)" fill="#a3c6bc"/>
        <path id="Trazado_2708" data-name="Trazado 2708" d="M709.732,152.2a2.024,2.024,0,0,1,.4-.7,5.005,5.005,0,0,0-.064-5.769,13.447,13.447,0,0,1-.92-1.188,13.077,13.077,0,0,1-.821-2.784,6.084,6.084,0,0,0-3.968-3.739,10.132,10.132,0,0,0-5.587,0,3.4,3.4,0,0,0-2.513-1.476,18.587,18.587,0,0,0-5.78-.722,6.281,6.281,0,0,0-4.925,2.729,15.187,15.187,0,0,0-1.183,3.632,4.361,4.361,0,0,1-2.2,2.98,14.206,14.206,0,0,1-2.949.383,4.283,4.283,0,0,0-3.4,4.247,3.907,3.907,0,0,0-3.722,2c-1.589,2.53-1.016,5.875.23,8.591a8.27,8.27,0,0,0,3.646,4.245c2.916,1.382,6.278-.181,9.315-1.272a.948.948,0,0,1,.6-.073c.35.117.434.561.608.888.529.991,1.994.92,3.024.472a7.577,7.577,0,0,0,3.687-3.469c.495,1.465,2.6,1.5,4.016.884,1.589-.689,3.122-2.232,2.742-3.923a3.071,3.071,0,0,0,4.871.881,2.083,2.083,0,0,0,2.58.758,4.221,4.221,0,0,0,2.016-2.061,9.154,9.154,0,0,0,.92-2.752q-.269-.987-.54-1.972a1.652,1.652,0,0,1-.084-.782" transform="translate(411.682 82.065)" fill="#a3c6bc"/>
        <path id="Trazado_2709" data-name="Trazado 2709" d="M750.193,162.718a5.373,5.373,0,0,0-4.211-3.519,3.8,3.8,0,0,0-1.958.351,9.239,9.239,0,0,0,.909-4.442,10.279,10.279,0,0,0-3.533-7.1,5.821,5.821,0,0,0-3.745-1.637,3.062,3.062,0,0,0-3.044,2.34c.314-3,.387-6.124-1.282-8.814a6.267,6.267,0,0,0-1.642-1.786c-3.393-2.451-7.082-.444-9.659,1.989a9.862,9.862,0,0,0-.536-3.873,3.364,3.364,0,0,0-2.984-2.193,3.926,3.926,0,0,0-1.832.64,9.642,9.642,0,0,0-3.578,3.771,6.555,6.555,0,0,0-1.189-3.476,1.786,1.786,0,0,0-.777-.694,1.935,1.935,0,0,0-1.845.687,12.245,12.245,0,0,0-2.682,3.638l0-.035a2.228,2.228,0,0,0-3.478-1.6A37.252,37.252,0,0,1,699,139.307c-.287-.368-1.675,1.181-1.963.814-1.091,1.164-1.107.446-1.7,1.925a4.4,4.4,0,0,0,.5,4.512,5.284,5.284,0,0,0,3.225,1.455c.52.079,1.243-.178,1.336-.566.171,1.2-.452,2.58.274,3.552a1.946,1.946,0,0,0,1.365.711c-.137.221-.269.446-.392.674a6.621,6.621,0,0,0-.847,4.768,3.431,3.431,0,0,0,3.673,2.615,11.973,11.973,0,0,1-.232,3.14,3.192,3.192,0,0,0,.885,2.891,3.786,3.786,0,0,0,1.468.586,4.692,4.692,0,0,0,2.058.177,1.834,1.834,0,0,0,1.209-.85,2.02,2.02,0,0,0,1.478,2.073A3.067,3.067,0,0,0,714.3,166.6a8.254,8.254,0,0,0,1.384-3.044c-.163.541.4,1.08.969,1.107a2.754,2.754,0,0,0,1.559-.59q2.137-1.382,4.148-2.945a4.361,4.361,0,0,0,.275,2.866c.514.834,1.928,1.125,2.432.285a14.313,14.313,0,0,0-.545,4.9,1.72,1.72,0,0,0,.2.829,1.231,1.231,0,0,0,1.616.264,3.009,3.009,0,0,0,1.1-1.395,4.592,4.592,0,0,0,1.13,3.024c.823.732,2.487.471,2.607-.624A12.359,12.359,0,0,0,734.3,178.3a3.188,3.188,0,0,0,1.657,1.116,2.456,2.456,0,0,0,2.294-1.033,6.857,6.857,0,0,0,1.029-2.423c.594,1.721,2.794,2.467,4.542,1.957,2.16-.63,3.672-2.677,4.714-4.557a17.986,17.986,0,0,0,1.579-3.819,10.951,10.951,0,0,0,.08-6.826" transform="translate(417.764 81.619)" fill="#a3c6bc"/>
      </g>
      <g id="Grupo_238" data-name="Grupo 238" transform="translate(41 77.042)">
        <path id="Trazado_2710" data-name="Trazado 2710" d="M824.373,232.657a121.292,121.292,0,0,1,4.181-32.2c2.6-10.274,5.965-20.093,9.164-29.818a244.391,244.391,0,0,0,8.129-29.251,93.077,93.077,0,0,0,1.474-29.929l3.252-.574c2.3,10.274,2.371,20.973,1.28,31.4a251.436,251.436,0,0,1-5.621,30.742c-2.334,10.041-4.748,19.944-6.31,29.784s-2.249,19.6-1.2,28.971Z" transform="translate(502.513 64.249)" fill="#a3c6bc"/>
        <path id="Trazado_2711" data-name="Trazado 2711" d="M850.737,130.625a2.513,2.513,0,0,0-1.161-.894,2.559,2.559,0,0,0-.742-.168,3.543,3.543,0,0,0-.9.071,6.635,6.635,0,0,1-3.013-.021,7.736,7.736,0,0,1-2.623-1.285,22.941,22.941,0,0,1-3.609-3.64,8.26,8.26,0,0,0-3.452-2.6,17.212,17.212,0,0,0-4.613-.437,12.7,12.7,0,0,1-2.558-.313,11.4,11.4,0,0,1-2.391-.937,27.258,27.258,0,0,1-4.186-2.661A8.094,8.094,0,0,1,819.667,116a2.31,2.31,0,0,1-.172-2.519l.265.165a1.92,1.92,0,0,0,.313,2.066,7.7,7.7,0,0,0,1.815,1.477,26.27,26.27,0,0,0,4.234,2.256,9.238,9.238,0,0,0,4.5.779,18.409,18.409,0,0,1,5.1.127,10.192,10.192,0,0,1,4.529,2.82,21.017,21.017,0,0,0,3.477,3.044,5.1,5.1,0,0,0,1.792.728,3.8,3.8,0,0,0,1.819-.172,6.606,6.606,0,0,1,1.52-.228,5.563,5.563,0,0,1,1.658.222,5.733,5.733,0,0,1,2.812,1.822Z" transform="translate(500.465 65.28)" fill="#a3c6bc"/>
        <path id="Trazado_2712" data-name="Trazado 2712" d="M836.67,119.816a9.653,9.653,0,0,1-2.309,1.285,1.218,1.218,0,0,0-.536.546,5.861,5.861,0,0,1-.657,1.232,2.574,2.574,0,0,1-1.475.863,4.64,4.64,0,0,1-1.461.047,20.261,20.261,0,0,1-2.506-.546c-3.184-.858-6.275-2.035-9.377-1.6l-.176-1.112a14.268,14.268,0,0,1,5.1.19c1.648.323,3.232.789,4.8,1.161a19.154,19.154,0,0,0,2.3.44,1.786,1.786,0,0,0,1.586-.408,6.05,6.05,0,0,0,.441-.957,2.864,2.864,0,0,1,1.108-1.229,11.36,11.36,0,0,0,1.961-1.1Z" transform="translate(500.059 67.324)" fill="#a3c6bc"/>
        <path id="Trazado_2713" data-name="Trazado 2713" d="M841.264,140.518a2.441,2.441,0,0,1,.588-1.555,2.781,2.781,0,0,1,1.056-.754,3.393,3.393,0,0,1,2.031-.17,11.737,11.737,0,0,0,1.549.43c.108.022.458-.183.754-.638a7.534,7.534,0,0,0,.777-1.686c.467-1.291.8-2.732,1.31-4.21a12.636,12.636,0,0,1,2.3-4.191,6.652,6.652,0,0,0,1.792-3.47,21.356,21.356,0,0,1,.863-4.5,4.77,4.77,0,0,1,1.573-1.993,17.979,17.979,0,0,1,1.971-1.161,6.124,6.124,0,0,0,1.622-1.246,5.835,5.835,0,0,0,.626-.814c.091-.147.179-.293.257-.448l.115-.232.053-.117c.013-.042.02-.084.194-.067l.443.161c.141.1.115.147.095.191l-.049.138-.11.274c-.075.182-.163.358-.256.532a6.793,6.793,0,0,1-.65.99,7.181,7.181,0,0,1-1.76,1.579c-1.312.821-2.436,1.513-2.787,2.732a21.491,21.491,0,0,0-.457,4.227,7.567,7.567,0,0,1-.62,2.425,14.392,14.392,0,0,1-1.231,2.035c-1.706,2.2-1.852,4.914-2.679,7.995a10.233,10.233,0,0,1-.943,2.379,4.152,4.152,0,0,1-2.587,2.076,3.894,3.894,0,0,1-1.789-.049c-.458-.11-.784-.214-.983-.237-.112-.017-.122.022-.137.032,0,0,.063-.008.165-.116a.864.864,0,0,0,.207-.541Z" transform="translate(509.224 65.364)" fill="#a3c6bc"/>
        <path id="Trazado_2714" data-name="Trazado 2714" d="M847.933,127.8l1.964-.6a15.254,15.254,0,0,0,1.585-.43c.647-.214.943-1.46,1.648-2.763a3.052,3.052,0,0,1,1.884-1.433,16.017,16.017,0,0,0,1.8-.425,6.437,6.437,0,0,0,2.855-2.02l.545.386a7.319,7.319,0,0,1-2.973,2.646,16.015,16.015,0,0,1-1.82.665,1.57,1.57,0,0,0-.943.912c-.208.467-.339,1.055-.564,1.717a3.719,3.719,0,0,1-1.419,2,12.724,12.724,0,0,1-1.967.834l-1.586.691Z" transform="translate(511.871 67.918)" fill="#a3c6bc"/>
        <path id="Trazado_2715" data-name="Trazado 2715" d="M833.882,110.965a21.319,21.319,0,0,1,.721,3.61,3.137,3.137,0,0,1-.534,2.581,2.614,2.614,0,0,1-2.974.165c-.953-.469-1.756-1.217-2.741-1.616a9.794,9.794,0,0,1,2.189,4.838,7.838,7.838,0,0,1-3.065-.894,6.538,6.538,0,0,1,.349,2.6,2.334,2.334,0,0,1-.809,1.813c-.564.39-1.545.142-1.625-.538a19.609,19.609,0,0,1,1.943,4.388,2.7,2.7,0,0,1,.119,1.637,1.907,1.907,0,0,1-1.7,1.151,4.661,4.661,0,0,1-2.1-.478,18.089,18.089,0,0,1-3.442-1.926c-.291.956.067,2.13-.583,2.889a2.567,2.567,0,0,1-2.5.437,10.214,10.214,0,0,1-4.22-1.8,5.647,5.647,0,0,1-2.256-3.886,2.531,2.531,0,0,1,.683-2.115c-1.931-1.745-1.9-4.853-.933-7.268a3.281,3.281,0,0,1,.947-1.437,1.358,1.358,0,0,1,1.613-.1,12.719,12.719,0,0,1,.381-4.994,3.314,3.314,0,0,1,.833-1.587c1.088-1,2.822-.434,4.167.182l3.29,1.51a23.767,23.767,0,0,1,.183-5.148,1.315,1.315,0,0,1,.388-.9,1.191,1.191,0,0,1,.795-.17,5.094,5.094,0,0,1,4.234,2.8,1.473,1.473,0,0,1,.929-1.863,4.011,4.011,0,0,1,2.308.029,6.086,6.086,0,0,1,3.311,1.545,2.313,2.313,0,0,1-.021,3.293.841.841,0,0,1,.782-.527,2.2,2.2,0,0,1-.884,2.954" transform="translate(496.719 61.482)" fill="#a3c6bc"/>
        <path id="Trazado_2716" data-name="Trazado 2716" d="M826.947,115.515c1.471,2.866,3.2,5.745,5.873,7.543a5.011,5.011,0,0,0,2.619.979,2.442,2.442,0,0,0,2.313-1.335c.355-.841.1-1.914.675-2.619a4.842,4.842,0,0,0,.633,2.628c.261.457.706.915,1.224.833a1.475,1.475,0,0,0,.837-.619,21.46,21.46,0,0,0,2.844-4.565A2.543,2.543,0,0,0,846.325,120a7.479,7.479,0,0,0,2.976-.659,7.921,7.921,0,0,0,.087,3.2,2.71,2.71,0,0,0,2.259,2.02,3.575,3.575,0,0,0,1.848-.574,3.629,3.629,0,0,0,2.135-2.419,1.888,1.888,0,0,0,1.9,1.857,4.417,4.417,0,0,0,2.709-1.112,5.458,5.458,0,0,0,2.4-3.488,6.393,6.393,0,0,0,.908,2.387,2.176,2.176,0,0,0,2.224.942,2.972,2.972,0,0,0,1.674-1.919,17.885,17.885,0,0,0,1.231-4.716.9.9,0,0,0,1.092.567,1.949,1.949,0,0,0,1.055-.831c1.532-2.139,1.157-5.234-.342-7.4a13.4,13.4,0,0,0-6.349-4.487c-.345-.135-.956.155-.652.37.184-1.31-1.115-2.316-2.3-2.9a21.544,21.544,0,0,0-6.412-1.963,5.259,5.259,0,0,0-3.964.626c-1.108.855-1.458,2.345-1.736,3.717a32.552,32.552,0,0,1-.126-4c-.123-1.331-.894-2.8-2.221-2.966a3.581,3.581,0,0,0-1.981.514c-2.4,1.2-4.743,3-5.474,5.59a6.016,6.016,0,0,0-11.974-.792,7.365,7.365,0,0,0-1.841-2.6,2.52,2.52,0,0,0-2.973-.24,3.536,3.536,0,0,0-.842,1.071,41.772,41.772,0,0,0-2.477,4.959c-.029-.683-.964-1.014-1.577-.711a2.772,2.772,0,0,0-1.18,1.618,15.417,15.417,0,0,0-.821,3.218,4.518,4.518,0,0,0,.676,3.626c1.256,1.446,3.547,1.1,5.4.62a7.832,7.832,0,0,0-1.221,2.961,2.669,2.669,0,0,0,1.275,2.741,3.715,3.715,0,0,0,1.943.184,5.87,5.87,0,0,0,2.218-.527,2.245,2.245,0,0,0,1.274-1.782" transform="translate(498.992 58.442)" fill="#a3c6bc"/>
      </g>
      <path id="Trazado_2717" data-name="Trazado 2717" d="M1408.958,148.887c-25.834-1.633-51.457-5.955-77.373-5.328-21.123.513-41.757,4.3-62.117,8.654a6.519,6.519,0,0,0-1.089-3.009,5.218,5.218,0,0,0-4.261-2.118c-1.489.04-3.169.728-4.335,0a1.922,1.922,0,0,0-.607-.334,1.221,1.221,0,0,0-.736.118c-2.438,1.063-1.639,4.3-3.84,5.641-.773.471-1.81.626-2.546,1.133a2.8,2.8,0,0,0-1.089,2.627q-5.257,1.169-10.516,2.373a22.292,22.292,0,0,1,2.414-3.287,5.241,5.241,0,0,0-2.427,1.5,34.264,34.264,0,0,1,1.881-2.932,7.708,7.708,0,0,0-5.249,3.024,26.661,26.661,0,0,1,3.393-5.855,7.823,7.823,0,0,0-3.88,2.207,21.881,21.881,0,0,0-4.5,5.813c-.294.558-.563,1.128-.844,1.694q-7.311,1.767-14.521,3.724l2-1.1a1.854,1.854,0,0,0,.263-1.31,1.448,1.448,0,0,0-1.125-1.168c-.641-.127-1.412.373-1.186.858q-.2-.833-.4-1.663a.487.487,0,0,0-.173-.315.787.787,0,0,0-.765.085,3.2,3.2,0,0,0-1.718,2.36,2.3,2.3,0,0,0-2.567-.839,1.388,1.388,0,0,0-.679.424,1.365,1.365,0,0,0-.2.839q-.019,1.205-.042,2.412-.6-.511-1.205-1.025a.852.852,0,0,0-.439-.236.775.775,0,0,0-.713.5,9.1,9.1,0,0,0-.96,3.036c-14.166,4.309-27.723,9.49-39.96,16.305-8.232,4.584-15.766,9.852-24.338,14.082-23.112,11.408-51.655,14.384-79.4,16.625-.179-.2-.355-.4-.537-.59l-1.78-1.893a18.8,18.8,0,0,0-4.688-3.982,11.807,11.807,0,0,0-2.638-1.028,2.777,2.777,0,0,0-1.278-.1c-1.1.237-1.231,1.394-1.809,2.165-.628.834-1.859,1.239-2.848,1.82a6.947,6.947,0,0,0-.707.479l-.031-.011a25.287,25.287,0,0,1-2.748-.713c-.6-.258-1.084-.65-1.665-.933-2.38-1.155-5.511-.171-7.762,1.133s-4.377,2.982-7.146,3.309a5.732,5.732,0,0,0-1.71.316,1.986,1.986,0,0,0-.523.366c.06-.121.1-.247.171-.366,1.16-2.12,3.148-3.911,4.327-6.024a8.548,8.548,0,0,0-5.321,3.743,17.514,17.514,0,0,0-2.049,5.523l0,.014-.592.047a25.312,25.312,0,0,1,4.663-13.672c-4.048,3.864-5.644,8.833-6.676,13.832-.1.006-.2.015-.3.023a24.279,24.279,0,0,0-5.589-17.609,26.427,26.427,0,0,0,.824,5.384,47.038,47.038,0,0,1,.823,12.538l-.064,0c-.174-5.8-3.677-11.518-9.453-15.16a28.344,28.344,0,0,1,4.056,4.429c2.254,3.325,2.614,7.154,2.417,10.966l-.079,0a10.614,10.614,0,0,0-1.5-5.442,15.342,15.342,0,0,0-8.241-6.337c2.79,2.268,5.305,4.953,5.9,8.069a14.958,14.958,0,0,1,.1,3.533l-.024.476q-10.694.845-21.387,1.691a14.132,14.132,0,0,0-2.165-1.773c-3.04-2-7.754-2.807-10.989-1-.224-1.725-2.549-2.9-4.76-2.967A17.022,17.022,0,0,0,963,216.081c1.888-1.968.1-5.074-2.809-6.01s-6.275-.226-9.035.952c-.737-1.2-2.08-2.611-3.688-2.194a3.35,3.35,0,0,0-1.515,1.02,33.531,33.531,0,0,0-6.27,8.822c-1.184-1.3-2.982-2.772-4.906-2.243a3.99,3.99,0,0,0-1.841,1.252,10.011,10.011,0,0,0-2.69,5.934,5.614,5.614,0,0,0-2.181-3.754,6.743,6.743,0,0,0-6.888-.6,12.809,12.809,0,0,0-1.759-3.359,12.3,12.3,0,0,0-5.829,2.394c.2-1.489-1.689-2.8-3.6-2.814a6.156,6.156,0,0,0-4.668,2.262,3.071,3.071,0,0,0-2.156-2.514c-1.265-.381-2.975.236-3.1,1.294a14.873,14.873,0,0,0-1.7-2.974,3.224,3.224,0,0,0-4.692-.076,13.947,13.947,0,0,0-1.042,1.352l-.016-.047c-.681-1.949-4.185-2.1-5.2-.242a21.068,21.068,0,0,0-1.744,4.164c-.018-.357-.66-.507-1.052-.326a1.558,1.558,0,0,0-.72.878,41.747,41.747,0,0,0-1.576,4.134c-1.183-.115-1.955-1.133-3.132-1.286-1.663-.215-2.743,1.318-3.188,2.594a27.43,27.43,0,0,0-1.21,4.916c-8.159.826-16.287,1.763-24.358,2.862-.137-.842-.261-1.688-.423-2.517-.558-2.865-1.957-5.973-5.268-7.265a5.51,5.51,0,0,0-3.006-.357c-2.235.444-3.154,2.47-4.622,3.863a8.975,8.975,0,0,1-5.926,2.241c-2.168.032-4.861-.469-6.1.924a3.237,3.237,0,0,0-.649,1.642q-.559,2.962-1.12,5.926a297.558,297.558,0,0,0-42.409,11.381c-18.753,6.686-35.965,15.477-53.088,24.229l-234.778,120h925.664V149.358c-3.254-.119-6.507-.266-9.753-.471" transform="translate(305.443 104.425)" fill="#a3c6bc"/>
      <path id="Trazado_2718" data-name="Trazado 2718" d="M346.148,241.171c-4.212-.468-7.987-2.98-10.8-6.151a49.125,49.125,0,0,1-6.7-10.762,45.114,45.114,0,0,0,7.647,4.484,16.4,16.4,0,0,0-2.575-5.131l7.657,2.6a43.911,43.911,0,0,1-9.321-7.358,20.416,20.416,0,0,0,13.554,3.022,28.319,28.319,0,0,1-9.174-5.566c-1.038-.895-2.068-1.746-3.1-2.593a75.651,75.651,0,0,1-5.516-6.1,32.869,32.869,0,0,0,7.913-.467,40.664,40.664,0,0,1-6.4-2,20.466,20.466,0,0,1-7.58-5.781c-1.27-1.912-1.99-3.131-1.99-3.131,5.494,3.394,10.6,3.174,17.518,1.681a22.745,22.745,0,0,1-13.524-7.581,12.536,12.536,0,0,0,8.057.85,45.532,45.532,0,0,1-8.515-5.557,15.171,15.171,0,0,0,12.025,1.015c-5.5-2.147-9.505-6.522-12.772-11.558a12.839,12.839,0,0,0,6.625.37,19.545,19.545,0,0,1-10.873-7.849q-.494-.959-.972-1.909a7.265,7.265,0,0,0,8.365,3.321l-3.437-2.592a5.553,5.553,0,0,0,4.287.91,20.993,20.993,0,0,1-6.37-6.776,23.159,23.159,0,0,0,13.2.222,27.791,27.791,0,0,1-19.922-19.524,27.793,27.793,0,0,1-19.922,19.524,23.154,23.154,0,0,0,13.2-.222,20.98,20.98,0,0,1-6.37,6.776,5.552,5.552,0,0,0,4.287-.91l-3.436,2.592a7.265,7.265,0,0,0,8.365-3.321q-.479.949-.972,1.909a19.549,19.549,0,0,1-10.873,7.849,12.84,12.84,0,0,0,6.625-.37c-3.267,5.036-7.271,9.411-12.772,11.558a15.168,15.168,0,0,0,12.024-1.015,45.446,45.446,0,0,1-8.515,5.557,12.534,12.534,0,0,0,8.057-.85,22.746,22.746,0,0,1-13.523,7.581c6.916,1.494,12.024,1.713,17.517-1.681,0,0-.719,1.219-1.989,3.131a20.488,20.488,0,0,1-7.58,5.781,40.638,40.638,0,0,1-6.4,2,32.884,32.884,0,0,0,7.915.467,75.92,75.92,0,0,1-5.518,6.1c-1.029.847-2.059,1.7-3.1,2.593a28.3,28.3,0,0,1-9.173,5.566,20.417,20.417,0,0,0,13.554-3.022,43.951,43.951,0,0,1-9.322,7.358l7.658-2.6a16.345,16.345,0,0,0-2.575,5.131,45.113,45.113,0,0,0,7.647-4.484,49.128,49.128,0,0,1-6.7,10.762c-2.813,3.17-6.589,5.682-10.8,6.151a25.19,25.19,0,0,0,16.346-2.422,11.435,11.435,0,0,1-5.23,5.467c1.027-.35,3.688-.93,4.716-1.282-.282,1.76.167,3.144-2.482,5.506a24.789,24.789,0,0,1,5.792-1.722,30.857,30.857,0,0,1-2.076,3.935,4.6,4.6,0,0,0,5.2-3.05q-.149,2.227-.3,4.45l2.278-2.991a3.926,3.926,0,0,0,.358,2.079q.728-1.24,1.454-2.482a27.043,27.043,0,0,0,2.073,5.316c-.09-2.45-.119-5.106,1.327-7.084a7.694,7.694,0,0,0,3.79,5.294q-.377-2.146-.752-4.295a12.275,12.275,0,0,0,2,3.063q.2-1.458.255-2.928a9.5,9.5,0,0,0,4.167,3.74,28.377,28.377,0,0,0,5.37,1.839,20.207,20.207,0,0,1-4.123-4.49,7.632,7.632,0,0,0,3.739,2.693,2.471,2.471,0,0,0-.972-2.155,16.8,16.8,0,0,0,4.2,2.1q-1.21-1.181-2.33-2.45a19.736,19.736,0,0,0,4.106,1.766c1.194.447,4.019,1.6,4.984.764a18.964,18.964,0,0,1-4.184-4.261,10.512,10.512,0,0,1,2.306.87q-.424-2.639-.847-5.278,1.54.528,3.081,1.054a11.432,11.432,0,0,1-5.231-5.467,25.192,25.192,0,0,0,16.348,2.422" transform="translate(190.236 162.905)" fill="#7d9a94"/>
      <path id="Trazado_2719" data-name="Trazado 2719" d="M523.213,283.342a15.477,15.477,0,0,1-9.55-5.439,43.383,43.383,0,0,1-5.923-9.515,39.836,39.836,0,0,0,6.761,3.964,14.493,14.493,0,0,0-2.277-4.536l6.771,2.3a38.831,38.831,0,0,1-8.242-6.505,18.048,18.048,0,0,0,11.985,2.672,25.011,25.011,0,0,1-8.112-4.921c-.919-.791-1.829-1.544-2.74-2.293a67.507,67.507,0,0,1-4.878-5.393,29.116,29.116,0,0,0,7-.413,35.873,35.873,0,0,1-5.658-1.765,18.094,18.094,0,0,1-6.7-5.111c-1.122-1.691-1.759-2.768-1.759-2.768,4.857,3,9.375,2.806,15.491,1.485a20.113,20.113,0,0,1-11.958-6.7,11.082,11.082,0,0,0,7.124.751,40.291,40.291,0,0,1-7.53-4.913,13.413,13.413,0,0,0,10.633.9c-4.863-1.9-8.4-5.766-11.293-10.22a11.347,11.347,0,0,0,5.859.326A17.282,17.282,0,0,1,498.6,218.3q-.436-.847-.859-1.688a6.421,6.421,0,0,0,7.4,2.937l-3.038-2.292a4.909,4.909,0,0,0,3.79.805,18.562,18.562,0,0,1-5.633-5.991,20.49,20.49,0,0,0,11.676.2A24.575,24.575,0,0,1,494.312,195,24.571,24.571,0,0,1,476.7,212.268a20.49,20.49,0,0,0,11.676-.2,18.577,18.577,0,0,1-5.633,5.991,4.909,4.909,0,0,0,3.79-.805l-3.038,2.292a6.421,6.421,0,0,0,7.4-2.937q-.423.841-.859,1.688a17.282,17.282,0,0,1-9.614,6.941,11.342,11.342,0,0,0,5.857-.326c-2.889,4.454-6.429,8.321-11.292,10.22a13.413,13.413,0,0,0,10.633-.9,40.285,40.285,0,0,1-7.53,4.913,11.082,11.082,0,0,0,7.125-.751,20.113,20.113,0,0,1-11.958,6.7c6.116,1.321,10.633,1.515,15.491-1.485,0,0-.637,1.077-1.759,2.768a18.093,18.093,0,0,1-6.7,5.111,35.873,35.873,0,0,1-5.658,1.765,29.115,29.115,0,0,0,7,.413,67.5,67.5,0,0,1-4.878,5.393c-.911.749-1.821,1.5-2.74,2.293a25.012,25.012,0,0,1-8.112,4.921,18.048,18.048,0,0,0,11.985-2.672,38.832,38.832,0,0,1-8.242,6.505l6.771-2.3a14.491,14.491,0,0,0-2.277,4.536,39.838,39.838,0,0,0,6.76-3.964,43.38,43.38,0,0,1-5.923,9.515,15.48,15.48,0,0,1-9.55,5.439,22.273,22.273,0,0,0,14.455-2.142,10.115,10.115,0,0,1-4.625,4.834c.908-.31,3.262-.823,4.17-1.133-.25,1.556.147,2.78-2.2,4.869a21.951,21.951,0,0,1,5.123-1.523,27.584,27.584,0,0,1-1.836,3.48,4.068,4.068,0,0,0,4.6-2.7q-.133,1.967-.264,3.935,1.007-1.323,2.016-2.644a3.456,3.456,0,0,0,.317,1.838l1.284-2.2a24.045,24.045,0,0,0,1.833,4.7c-.079-2.165-.1-4.514,1.173-6.263a6.813,6.813,0,0,0,3.352,4.68q-.331-1.9-.664-3.8a10.842,10.842,0,0,0,1.763,2.708q.175-1.288.226-2.589a8.4,8.4,0,0,0,3.685,3.307,25.021,25.021,0,0,0,4.748,1.626,17.863,17.863,0,0,1-3.647-3.97,6.75,6.75,0,0,0,3.307,2.382,2.193,2.193,0,0,0-.859-1.907,14.837,14.837,0,0,0,3.715,1.857q-1.072-1.044-2.062-2.166a17.577,17.577,0,0,0,3.631,1.561c1.056.395,3.554,1.411,4.407.674a16.752,16.752,0,0,1-3.7-3.768,9.4,9.4,0,0,1,2.039.769q-.375-2.334-.749-4.667l2.724.931a10.115,10.115,0,0,1-4.625-4.834,22.273,22.273,0,0,0,14.455,2.142" transform="translate(302.635 137.336)" fill="#7d9a94"/>
      <path id="Trazado_2720" data-name="Trazado 2720" d="M351.876,238.454l5.379,1.53A81.382,81.382,0,0,1,344.7,226.209a17.633,17.633,0,0,0,1.864.73,27.982,27.982,0,0,0,3.939,1.014,9.966,9.966,0,0,1-4.585-3.208c-.081-.089-.162-.179-.242-.269l.943.513a10.344,10.344,0,0,1-1.089-2.281l6.176,2.228a41.681,41.681,0,0,1-6.619-7.372c.314.056.628.109.942.16l4.324.714a19.453,19.453,0,0,1-6.976-3.572,33.259,33.259,0,0,1-2.554-5.541l3.008,1.73a3.215,3.215,0,0,0,.023-1.684,14.935,14.935,0,0,0,4.7,1.433,8.586,8.586,0,0,1-2.861-1.473c-.242-.166-.485-.335-.728-.5a33.918,33.918,0,0,0,7.46.391,33.778,33.778,0,0,1-10.043-9.937,12.008,12.008,0,0,0,5.779.77,11.8,11.8,0,0,1-6.7-4.644l.8.247c.031-.473.064-.948.1-1.423l.272.192a8.942,8.942,0,0,0,1.1.7,7.623,7.623,0,0,0,1.439.522,23.1,23.1,0,0,0,4.036.739,13.732,13.732,0,0,1-3.634-1.968,7.524,7.524,0,0,1-.722-.663,12.2,12.2,0,0,0,6.441.064c-5.189-2.337-9.28-5.957-11.445-10.125l2.739.806q-.245-1.095-.489-2.189a12.142,12.142,0,0,0,3.772,1.364,6.278,6.278,0,0,1-2.946-2.928c-.135-.23-.263-.463-.388-.7l4.4.863c-5.614-3.815-11.171-8.544-11.112-14.15.059,5.607-5.5,10.336-11.111,14.15l4.711-.923-.789,1.9,1.109-.43-.679,3.045,1.321-.388a9.76,9.76,0,0,1-.694.879A7.085,7.085,0,0,1,325.3,187.4a3.933,3.933,0,0,0,2.433.721c.272.017.548.033.821.025a26.388,26.388,0,0,1-8.205,5.671,12.015,12.015,0,0,0,7.7-.517q-.589,1.091-1.18,2.181l2.393-1.531.114,1.7,1.24-.385a18.519,18.519,0,0,1-2.977,2.907,15.887,15.887,0,0,1-6.854,3.1,10.542,10.542,0,0,0,6.107-.33,10.358,10.358,0,0,0,1.843-.891,34.2,34.2,0,0,1-9.526,9.157,33.978,33.978,0,0,0,6.212-.211,19.373,19.373,0,0,1-4.512,2.518,15.953,15.953,0,0,0,3.122-.129,5.343,5.343,0,0,0,2.8-1.3,8,8,0,0,0,.83-.989q.2-.269.4-.539l.025-.005a3.281,3.281,0,0,0-.286,2.49l3.008-1.73c-.014.038-.029.076-.042.114-.272.514-.552,1.023-.844,1.524a18.909,18.909,0,0,1-3.417,4.483,9.354,9.354,0,0,1-4.981,2.5,23.929,23.929,0,0,0,4.607-.443c.184-.043.369-.09.552-.143a41.521,41.521,0,0,1-6.759,7.579l6.175-2.228A10.4,10.4,0,0,1,325,224.987l1.354-.736a.862.862,0,0,1-.212,1l2.2-1.1q-.889,1.34-1.849,2.651c-.371.25-.755.483-1.142.709a47.577,47.577,0,0,1-4.692,2.4,9.383,9.383,0,0,1-3.774,1.014,29.248,29.248,0,0,0,4.98.59c.3.009.594.012.891.009a84.516,84.516,0,0,1-8.392,8.468l5.378-1.53a4.418,4.418,0,0,1-.05,2.493l3.685-2.251a4.162,4.162,0,0,0,.344,1.874,16.183,16.183,0,0,1,3.937-1.7c3.392-.727,5.552.641,8.15-2.314,2.6,2.954,4.759,1.586,8.15,2.314a16.216,16.216,0,0,1,3.938,1.7,4.181,4.181,0,0,0,.344-1.874q1.842,1.126,3.685,2.251a4.418,4.418,0,0,1-.051-2.493" transform="translate(200.573 170.752)" fill="#7d9a94"/>
      <path id="Trazado_2721" data-name="Trazado 2721" d="M544.073,268.472l5.629,1.6a85.156,85.156,0,0,1-13.141-14.416,19.069,19.069,0,0,0,1.949.764,29.733,29.733,0,0,0,4.123,1.06,10.434,10.434,0,0,1-4.8-3.358c-.084-.092-.169-.187-.251-.281l.986.536a10.827,10.827,0,0,1-1.14-2.387l6.464,2.332a43.548,43.548,0,0,1-6.928-7.717c.329.059.658.114.986.169l4.525.747a20.338,20.338,0,0,1-7.3-3.738,34.792,34.792,0,0,1-2.673-5.8q1.573.907,3.148,1.812a3.357,3.357,0,0,0,.024-1.763,15.611,15.611,0,0,0,4.917,1.5,8.98,8.98,0,0,1-2.994-1.54c-.253-.175-.508-.351-.763-.528a35.474,35.474,0,0,0,7.807.411,35.344,35.344,0,0,1-10.509-10.4,12.563,12.563,0,0,0,6.047.807,12.352,12.352,0,0,1-7.013-4.861l.835.26q.048-.745.1-1.489l.284.2a9.534,9.534,0,0,0,1.152.733,7.966,7.966,0,0,0,1.505.546,24.236,24.236,0,0,0,4.225.775,14.419,14.419,0,0,1-3.8-2.06,7.9,7.9,0,0,1-.756-.694,12.762,12.762,0,0,0,6.74.067c-5.431-2.446-9.712-6.233-11.979-10.6l2.866.844q-.255-1.146-.511-2.292a12.769,12.769,0,0,0,3.948,1.429,6.582,6.582,0,0,1-3.085-3.066q-.209-.359-.4-.729l4.608.9c-5.875-3.991-11.691-8.941-11.629-14.81.062,5.868-5.754,10.818-11.629,14.81l4.93-.965q-.413.993-.825,1.986l1.161-.45-.71,3.186q.69-.2,1.382-.407a10.646,10.646,0,0,1-.727.92,7.424,7.424,0,0,1-4.586,2.526,4.127,4.127,0,0,0,2.546.753c.285.019.574.033.86.027a27.639,27.639,0,0,1-8.588,5.934,12.574,12.574,0,0,0,8.057-.541q-.616,1.142-1.235,2.284l2.506-1.6q.058.891.118,1.783.648-.2,1.3-.4a19.314,19.314,0,0,1-3.116,3.042,16.612,16.612,0,0,1-7.173,3.249,11.05,11.05,0,0,0,6.393-.345,10.845,10.845,0,0,0,1.928-.931,35.828,35.828,0,0,1-9.97,9.584,35.631,35.631,0,0,0,6.5-.221,20.226,20.226,0,0,1-4.721,2.634,16.651,16.651,0,0,0,3.267-.135,5.586,5.586,0,0,0,2.927-1.359,8.158,8.158,0,0,0,.87-1.036c.141-.186.282-.375.422-.563l.027-.005a3.439,3.439,0,0,0-.3,2.606q1.574-.905,3.148-1.812c-.013.04-.029.08-.043.12q-.427.8-.883,1.595a19.783,19.783,0,0,1-3.578,4.692A9.783,9.783,0,0,1,512.3,247a24.947,24.947,0,0,0,4.822-.463c.194-.046.387-.1.578-.15a43.487,43.487,0,0,1-7.075,7.933l6.464-2.332a10.824,10.824,0,0,1-1.14,2.387l1.417-.771a.9.9,0,0,1-.222,1.042q1.15-.576,2.3-1.153c-.619.934-1.267,1.858-1.935,2.775-.389.261-.791.5-1.195.741a50.031,50.031,0,0,1-4.911,2.51,9.789,9.789,0,0,1-3.95,1.061,30.457,30.457,0,0,0,5.211.617q.466.014.933.011a88.458,88.458,0,0,1-8.784,8.862l5.629-1.6a4.63,4.63,0,0,1-.054,2.609l3.857-2.356a4.379,4.379,0,0,0,.36,1.961,17,17,0,0,1,4.121-1.778c3.551-.76,5.811.672,8.531-2.42,2.72,3.092,4.98,1.66,8.531,2.42a17,17,0,0,1,4.121,1.778,4.379,4.379,0,0,0,.36-1.961l3.857,2.356a4.618,4.618,0,0,1-.054-2.609" transform="translate(298.807 139.01)" fill="#7d9a94"/>
      <g id="Grupo_235" data-name="Grupo 235" transform="translate(35.748 79.94)">
        <path id="Trazado_2722" data-name="Trazado 2722" d="M166.746,263.3a112.955,112.955,0,0,0-3.892-29.986c-2.42-9.566-5.555-18.709-8.534-27.764a227.713,227.713,0,0,1-7.568-27.236,86.648,86.648,0,0,1-1.372-27.868l-3.029-.535a91,91,0,0,0-1.191,29.232,234.193,234.193,0,0,0,5.236,28.626c2.172,9.348,4.421,18.569,5.874,27.731a100.969,100.969,0,0,1,1.116,26.974Z" transform="translate(70.845 77.968)" fill="#a3c6bc"/>
        <path id="Trazado_2723" data-name="Trazado 2723" d="M144.05,169.1a2.343,2.343,0,0,1,1.081-.833,2.31,2.31,0,0,1,.69-.156,3.259,3.259,0,0,1,.836.067,6.19,6.19,0,0,0,2.807-.02,7.176,7.176,0,0,0,2.442-1.2,21.389,21.389,0,0,0,3.361-3.39,7.707,7.707,0,0,1,3.214-2.42,16.113,16.113,0,0,1,4.3-.4,12.017,12.017,0,0,0,2.381-.293,10.5,10.5,0,0,0,2.227-.874,25.173,25.173,0,0,0,3.9-2.476,7.553,7.553,0,0,0,1.7-1.626,2.152,2.152,0,0,0,.159-2.346l-.246.154a1.788,1.788,0,0,1-.292,1.922,7.123,7.123,0,0,1-1.69,1.375,24.456,24.456,0,0,1-3.944,2.1,8.6,8.6,0,0,1-4.192.726,17.08,17.08,0,0,0-4.749.12,9.453,9.453,0,0,0-4.217,2.625,19.728,19.728,0,0,1-3.237,2.834,4.731,4.731,0,0,1-1.67.676,3.538,3.538,0,0,1-1.694-.159,6.086,6.086,0,0,0-1.415-.211,5.164,5.164,0,0,0-1.544.206,5.337,5.337,0,0,0-2.618,1.7Z" transform="translate(70.9 78.126)" fill="#a3c6bc"/>
        <path id="Trazado_2724" data-name="Trazado 2724" d="M156.788,160.622a9.009,9.009,0,0,0,2.15,1.2,1.139,1.139,0,0,1,.5.509,5.5,5.5,0,0,0,.611,1.146,2.391,2.391,0,0,0,1.374.8,4.284,4.284,0,0,0,1.36.044,18.829,18.829,0,0,0,2.333-.509c2.965-.8,5.844-1.9,8.732-1.492l.164-1.036a13.306,13.306,0,0,0-4.746.177c-1.534.3-3.01.735-4.47,1.081a18.262,18.262,0,0,1-2.147.41,1.662,1.662,0,0,1-1.476-.381,5.63,5.63,0,0,1-.412-.891,2.666,2.666,0,0,0-1.031-1.144,10.562,10.562,0,0,1-1.826-1.022Z" transform="translate(71.639 78.437)" fill="#a3c6bc"/>
        <path id="Trazado_2725" data-name="Trazado 2725" d="M145.438,178.373a2.274,2.274,0,0,0-.547-1.447,2.582,2.582,0,0,0-.983-.7,3.152,3.152,0,0,0-1.892-.158,10.741,10.741,0,0,1-1.442.4c-.1.022-.427-.17-.7-.594a7.012,7.012,0,0,1-.723-1.57c-.434-1.2-.75-2.544-1.221-3.92a11.723,11.723,0,0,0-2.142-3.9,6.214,6.214,0,0,1-1.668-3.23,19.823,19.823,0,0,0-.8-4.19,4.446,4.446,0,0,0-1.464-1.857,17.084,17.084,0,0,0-1.835-1.08,5.722,5.722,0,0,1-1.51-1.16,5.55,5.55,0,0,1-.582-.758c-.085-.136-.168-.274-.24-.417l-.106-.216-.049-.11c-.013-.038-.019-.078-.18-.062l-.413.15c-.131.1-.107.136-.089.177l.047.13.1.254c.071.17.153.334.238.5a6.442,6.442,0,0,0,.605.923A6.684,6.684,0,0,0,129.474,157c1.222.765,2.27,1.408,2.6,2.544a20.077,20.077,0,0,1,.425,3.936,7.037,7.037,0,0,0,.578,2.257,13.48,13.48,0,0,0,1.145,1.9c1.589,2.048,1.725,4.575,2.5,7.442a9.525,9.525,0,0,0,.878,2.216A3.868,3.868,0,0,0,140,179.221a3.634,3.634,0,0,0,1.667-.045c.426-.1.73-.2.916-.22.1-.017.112.02.128.029,0,0-.06-.007-.154-.108a.806.806,0,0,1-.193-.5Z" transform="translate(70.177 78.138)" fill="#a3c6bc"/>
        <path id="Trazado_2726" data-name="Trazado 2726" d="M184.909,155.405a2.536,2.536,0,0,0-1.457-1.684c1.1-2.366-.138-5.224-1.976-7.077a3.293,3.293,0,0,0-1.436-.956,1.362,1.362,0,0,0-1.529.538,12.732,12.732,0,0,0-2.3-4.463,3.321,3.321,0,0,0-1.388-1.141c-1.4-.5-2.776.7-3.777,1.8l-2.449,2.678a23.83,23.83,0,0,0-2.178-4.681,1.322,1.322,0,0,0-.711-.68,1.2,1.2,0,0,0-.8.153,5.109,5.109,0,0,0-2.818,4.237,1.477,1.477,0,0,0-1.585-1.359,4.028,4.028,0,0,0-2.121.928,6.115,6.115,0,0,0-2.453,2.72,2.493,2.493,0,0,0,.791,2.8.81.81,0,0,0-.414.055,2.218,2.218,0,0,0,1.427,2.258,21.7,21.7,0,0,0,.622,2.741,3.152,3.152,0,0,0,1.5,2.176,2.623,2.623,0,0,0,2.811-1.009c.7-.805,1.147-1.809,1.9-2.562a9.81,9.81,0,0,0-.133,5.321,7.848,7.848,0,0,0,2.481-2.022,6.541,6.541,0,0,0,.691,2.535,2.336,2.336,0,0,0,1.456,1.359,1.181,1.181,0,0,0,1.231-.6,19.655,19.655,0,0,0-.023,4.279,2.706,2.706,0,0,0,.53,1.559,1.911,1.911,0,0,0,2.019.4,4.654,4.654,0,0,0,1.753-1.261A17.991,17.991,0,0,0,177,161.312c.641.769.77,1.995,1.667,2.441a2.57,2.57,0,0,0,2.478-.573,10.223,10.223,0,0,0,3.2-3.3,5.662,5.662,0,0,0,.566-4.47" transform="translate(71.591 77.471)" fill="#a3c6bc"/>
        <path id="Trazado_2727" data-name="Trazado 2727" d="M162.41,142.267a14.277,14.277,0,0,0-1.674-2.6,2.567,2.567,0,0,0-1.519-1.081c-.631-.088-1.359.479-1.183,1.092a38.908,38.908,0,0,0-3.649-3.65,3.271,3.271,0,0,0-1.058-.7,2.346,2.346,0,0,0-2.556,1.088,6.864,6.864,0,0,0-.862,2.836,5.6,5.6,0,0,0-10.343,4.226c-1.409-2.068-4.005-2.973-6.483-3.326a3.329,3.329,0,0,0-1.9.13c-1.123.536-1.372,2.061-1.09,3.273a30.278,30.278,0,0,1,1.068,3.569,5.554,5.554,0,0,0-2.628-2.772,4.893,4.893,0,0,0-3.686.615,20.044,20.044,0,0,0-5.087,3.623c-.819.8-1.6,1.961-1.26,3.007a.691.691,0,0,0-.607.093,12.49,12.49,0,0,0-4.288,5.835c-.687,2.351-.108,5.2,1.876,6.634a1.827,1.827,0,0,0,1.176.425.837.837,0,0,0,.8-.823,16.633,16.633,0,0,0,2.475,3.8,2.773,2.773,0,0,0,2.043,1.2,2.026,2.026,0,0,0,1.688-1.487,5.948,5.948,0,0,0,.1-2.376,5.091,5.091,0,0,0,3.149,2.375,4.117,4.117,0,0,0,2.72.185,1.758,1.758,0,0,0,1.133-2.2,3.38,3.38,0,0,0,2.6,1.509,3.343,3.343,0,0,0,1.8-.037,2.527,2.527,0,0,0,1.4-2.45,7.416,7.416,0,0,0-.867-2.856,6.935,6.935,0,0,0,2.821-.294,2.368,2.368,0,0,0,1.6-2.146,19.936,19.936,0,0,0,3.856,3.194,1.38,1.38,0,0,0,.921.3c.484-.08.74-.616.837-1.095a4.511,4.511,0,0,0-.216-2.509c.718.454.808,1.478,1.369,2.115a2.272,2.272,0,0,0,2.435.5,4.656,4.656,0,0,0,2.026-1.637c1.832-2.374,2.511-5.427,2.966-8.391l.184,1.121a2.086,2.086,0,0,0,1.651,1.2,5.476,5.476,0,0,0,2.113-.188,3.463,3.463,0,0,0,1.662-.735,2.489,2.489,0,0,0,.32-2.8,7.28,7.28,0,0,0-1.952-2.256c1.778-.127,3.9-.492,4.589-2.137a4.2,4.2,0,0,0-.471-3.4" transform="translate(69.518 77.252)" fill="#a3c6bc"/>
        <path id="Trazado_2728" data-name="Trazado 2728" d="M176.034,141.458a1.8,1.8,0,0,0-.471-1.452,7.553,7.553,0,0,0-5.227-2.908,1.582,1.582,0,0,0,1.18-2.133,4.114,4.114,0,0,0-2.012-1.942,22.572,22.572,0,0,0-3.048-1.435c-1.062-.407-2.38-.7-3.263,0a3.749,3.749,0,0,0-2.579-3.355,3.983,3.983,0,0,0-4.166,1.183c.291-.3-.109-.757-.477-.969a17.147,17.147,0,0,0-6.781-2.193,5.07,5.07,0,0,0-2.736.295,1.97,1.97,0,0,0-1.179,2.2,6.738,6.738,0,0,0-1.367-1.869,2.446,2.446,0,0,0-2.2-.6,3.214,3.214,0,0,0-1.4,1.016,18.046,18.046,0,0,0-3.346,5.221c-.583-.788-1.479-1.678-2.421-1.339a1.848,1.848,0,0,0-.73.546,4.5,4.5,0,0,0-1.095,2.337,1.63,1.63,0,0,0-1.726.87,4.373,4.373,0,0,0-.393,1.969l-.151,3.636a2.623,2.623,0,0,0-3.6-.057,4.219,4.219,0,0,0-1.175,3.573,22.231,22.231,0,0,0,.934,3.77l40.307.916c2.788-.294,5.874.83,8.273-.564a1.4,1.4,0,0,0,.624-.61,1.5,1.5,0,0,0-.184-1.2A13.376,13.376,0,0,0,173.5,143.2c.835-.645,2.28-.738,2.531-1.739" transform="translate(70.12 76.811)" fill="#a3c6bc"/>
      </g>
      <path id="Trazado_2729" data-name="Trazado 2729" d="M731.106,290.088c-10.76-4.706-21.636-9.453-33.808-12.535-11.96-3.028-24.747-4.345-37.636-5.166a16.931,16.931,0,0,0-9.542-4.627,8.215,8.215,0,0,0-2.1-.132c-1.17.111-2.16.626-3.327.747a22.786,22.786,0,0,1-4.374-.471c.113-.274.2-.553.329-.826.145-.315.292-.673.021-.954a2.178,2.178,0,0,0-1.025-.423q-1.926-.46-3.854-.916a29.806,29.806,0,0,0-6.763-1.055c-2.336-.011-4.822.6-5.963,1.875a2.253,2.253,0,0,1-.831.724,2.969,2.969,0,0,1-.926.161c-1.767.089-3.708-.258-5.215.324a3.884,3.884,0,0,0-1.9,1.684,10.86,10.86,0,0,0-.812,1.581q-56.123-2.7-112.25-5.394c-21.344-1.026-43.1-2.11-62.885-7.212-2-.518-3.98-1.084-5.942-1.675a11.308,11.308,0,0,1,3.914-2.057c.082-.1.166-.206.248-.311a6.429,6.429,0,0,0-4.539-.287,3.847,3.847,0,0,1-2.089.382q1.934-.8,3.869-1.589c.132-.056.282-.126.29-.226.015-.155-.3-.231-.542-.258l-4.011-.45a17.328,17.328,0,0,1,6.084-2.11c-3.372-.142-6.984-.248-9.882.836a11.228,11.228,0,0,0-1.118.508c.114-.21.226-.421.337-.631a5.4,5.4,0,0,0,.058-6.678,2.258,2.258,0,0,0-.655-.849,4.509,4.509,0,0,0-1.3-.542l-5.92-1.8a6.568,6.568,0,0,0-2.265-.4c-2.264.123-3.185,2.227-5.445,2.369-.676.042-1.344-.11-2.022-.124a4.1,4.1,0,0,0-3.84,2.059,2.592,2.592,0,0,0-.173,1.076c-25.631-11.254-50.063-23.858-80.368-23-13.019.369-25.448,3.328-38.227,4.937-17.651,2.223-35.839,1.854-53.835,1.476-8.127-.171-16.4-.379-24.611-.807q-.194-.424-.384-.849a6.175,6.175,0,0,0-1.083-1.8c-1.441-1.536-4.355-2.228-7.047-2.811a2.3,2.3,0,0,0-.923-.068,2.594,2.594,0,0,0-.67.307,5.221,5.221,0,0,1-2.554.324,18.54,18.54,0,0,0-2.675-4.308,4.65,4.65,0,0,0-1.475-1.278,10.469,10.469,0,0,0-4.874-.568c-1.462.058-3.143.192-3.942.96-.508.489-.608,1.2-1.447,1.459a5.833,5.833,0,0,1-2.51-.2c-2.685-.426-5.176.994-6.8,2.4a24.963,24.963,0,0,0-1.86,1.8,112.389,112.389,0,0,1-20.344-6.391c-14.33-6.2-25.731-15.647-42.507-18.614-8.906-1.575-17.983-1.1-27.131-.024l-.006-.013c-1.417-2.712-2.912-5.49-5.812-7.7a28.2,28.2,0,0,0-5.789-3.187A74.9,74.9,0,0,0,51.3,182.1c2.656,1.607,6.352,2.4,9.037,3.992a16.591,16.591,0,0,1,2.807,2.164,29.881,29.881,0,0,1,6.317,7.957,9.557,9.557,0,0,0-1.923-1.678c-3.195-2.22-7.272-3.858-11.3-5.469a16.543,16.543,0,0,0-6.852-1.6c6.751,1.634,12.409,4.91,15.634,8.954a12.116,12.116,0,0,0-2.47-1.531,38.089,38.089,0,0,0-15.673-4.524c1.433,1.565,4.553,2.157,6.641,3.4,2.031,1.215,2.954,2.959,4.269,4.513a15.826,15.826,0,0,0,1.925,1.87c-3.572.474-7.146.892-10.71,1.17-16.042,1.244-32.7-.347-49-1.113V369.816H830.048v-21.5c-22.9-24.695-61.51-41.854-98.941-58.228" transform="translate(0.001 130.104)" fill="#a3c6bc"/>
      <path id="Trazado_2730" data-name="Trazado 2730" d="M1054.444,281.869c-8.327-.925-15.789-5.893-21.351-12.158s-9.473-13.793-13.242-21.274a89.061,89.061,0,0,0,15.115,8.865,32.379,32.379,0,0,0-5.09-10.141l15.137,5.14a86.8,86.8,0,0,1-18.426-14.544,40.345,40.345,0,0,0,26.793,5.974c-6.7-2.258-12.779-6.391-18.134-11-2.054-1.769-4.089-3.451-6.124-5.126a149.848,149.848,0,0,1-10.905-12.058,65,65,0,0,0,15.645-.923,80.261,80.261,0,0,1-12.649-3.947,40.45,40.45,0,0,1-14.984-11.427c-2.511-3.778-3.934-6.187-3.934-6.187,10.858,6.707,20.957,6.273,34.629,3.322a44.979,44.979,0,0,1-26.734-14.988,24.773,24.773,0,0,0,15.928,1.681,90.182,90.182,0,0,1-16.833-10.984,30,30,0,0,0,23.772,2.005c-10.874-4.246-18.79-12.892-25.248-22.85a25.371,25.371,0,0,0,13.1.732,38.64,38.64,0,0,1-21.5-15.518q-.974-1.892-1.92-3.774a14.359,14.359,0,0,0,16.534,6.565l-6.791-5.125a10.97,10.97,0,0,0,8.473,1.8,41.463,41.463,0,0,1-12.593-13.394,45.772,45.772,0,0,0,26.1.44,54.937,54.937,0,0,1-39.38-38.594,54.938,54.938,0,0,1-39.382,38.594,45.771,45.771,0,0,0,26.1-.44,41.449,41.449,0,0,1-12.593,13.394,10.973,10.973,0,0,0,8.475-1.8l-6.793,5.125a14.361,14.361,0,0,0,16.535-6.565q-.947,1.879-1.921,3.774a38.632,38.632,0,0,1-21.494,15.518,25.372,25.372,0,0,0,13.1-.732c-6.459,9.959-14.374,18.6-25.248,22.85a29.993,29.993,0,0,0,23.77-2.005,90.1,90.1,0,0,1-16.833,10.984,24.773,24.773,0,0,0,15.928-1.681,44.972,44.972,0,0,1-26.734,14.988c13.671,2.951,23.77,3.386,34.63-3.322,0,0-1.424,2.409-3.934,6.187a40.459,40.459,0,0,1-14.984,11.427,80.264,80.264,0,0,1-12.649,3.947,65,65,0,0,0,15.645.923A149.849,149.849,0,0,1,950.546,227.6c-2.035,1.676-4.069,3.357-6.123,5.126-5.356,4.61-11.44,8.743-18.135,11a40.346,40.346,0,0,0,26.794-5.974A86.778,86.778,0,0,1,934.655,252.3l15.138-5.14A32.357,32.357,0,0,0,944.7,257.3a89.156,89.156,0,0,0,15.116-8.865c-3.769,7.482-7.68,15.009-13.243,21.274s-13.023,11.233-21.35,12.158a49.8,49.8,0,0,0,32.315-4.788A22.61,22.61,0,0,1,947.2,287.888c2.031-.694,7.293-1.839,9.322-2.533-.559,3.479.332,6.216-4.906,10.885,1.817-1.1,6.221-2.263,11.451-3.406a61.205,61.205,0,0,1-4.1,7.78,9.092,9.092,0,0,0,10.283-6.029q-.293,4.4-.588,8.8l4.505-5.913a7.765,7.765,0,0,0,.709,4.111l2.873-4.909a53.616,53.616,0,0,0,4.1,10.509c-.176-4.841-.235-10.091,2.624-14a15.225,15.225,0,0,0,7.493,10.465q-.744-4.246-1.485-8.49a24.217,24.217,0,0,0,3.944,6.053q.385-2.879.5-5.787a18.785,18.785,0,0,0,8.237,7.393,55.989,55.989,0,0,0,10.615,3.635,39.92,39.92,0,0,1-8.151-8.874,15.107,15.107,0,0,0,7.392,5.323,4.9,4.9,0,0,0-1.921-4.262,33.2,33.2,0,0,0,8.306,4.151q-2.394-2.335-4.609-4.844c3.443,2,4.39,2.1,8.118,3.49,2.362.883,7.944,3.158,9.852,1.509a37.551,37.551,0,0,1-8.27-8.422,20.823,20.823,0,0,1,4.558,1.72l-1.676-10.434,6.091,2.082a22.607,22.607,0,0,1-10.339-10.806,49.8,49.8,0,0,0,32.315,4.788" transform="translate(607.605 101.348)" fill="#9cd2c9"/>
      <path id="Trazado_2731" data-name="Trazado 2731" d="M132.622,352.407l13.4,3.811a202.756,202.756,0,0,1-31.29-34.323,45,45,0,0,0,4.643,1.817,70.113,70.113,0,0,0,9.816,2.524c-4.559-1.2-8.25-4.51-11.426-7.994-.2-.221-.4-.446-.6-.67l2.348,1.277a25.828,25.828,0,0,1-2.713-5.682q7.694,2.778,15.388,5.553a103.836,103.836,0,0,1-16.492-18.372c.782.141,1.566.272,2.347.4l10.774,1.779a48.469,48.469,0,0,1-17.385-8.9,82.973,82.973,0,0,1-6.363-13.807l7.495,4.314a8.025,8.025,0,0,0,.06-4.2,37.215,37.215,0,0,0,11.7,3.573,21.38,21.38,0,0,1-7.127-3.669q-.908-.623-1.817-1.256a84.347,84.347,0,0,0,18.589.977,84.194,84.194,0,0,1-25.023-24.763c4.652,1.542,9.577,2.764,14.4,1.92a29.409,29.409,0,0,1-16.7-11.572l1.986.616q.119-1.773.235-3.546l.678.479a22.731,22.731,0,0,0,2.743,1.746,18.944,18.944,0,0,0,3.582,1.3,57.553,57.553,0,0,0,10.061,1.844,34.27,34.27,0,0,1-9.059-4.906,18.873,18.873,0,0,1-1.8-1.651,30.406,30.406,0,0,0,16.048.16c-12.93-5.826-23.124-14.844-28.519-25.234q3.411,1.005,6.823,2.008-.609-2.726-1.218-5.455a30.3,30.3,0,0,0,9.4,3.4c-3.295-1.242-5.568-4.259-7.343-7.3-.335-.572-.654-1.152-.965-1.738l10.974,2.149c-13.989-9.506-27.836-21.29-27.689-35.261h0c.147,13.972-13.7,25.755-27.689,35.261l11.741-2.3-1.967,4.729,2.767-1.073q-.846,3.792-1.694,7.585,1.647-.484,3.291-.969a23.98,23.98,0,0,1-1.729,2.192,17.662,17.662,0,0,1-10.919,6.014c1.607,1.428,3.917,1.662,6.063,1.8.678.043,1.365.079,2.045.062a65.8,65.8,0,0,1-20.446,14.13,29.937,29.937,0,0,0,19.183-1.288q-1.47,2.719-2.941,5.437l5.965-3.819.283,4.246,3.088-.959a45.96,45.96,0,0,1-7.417,7.245,39.557,39.557,0,0,1-17.078,7.732,26.268,26.268,0,0,0,15.22-.82,25.944,25.944,0,0,0,4.592-2.219A85.238,85.238,0,0,1,51.2,279.554a84.688,84.688,0,0,0,15.481-.526A48.284,48.284,0,0,1,55.44,285.3a39.594,39.594,0,0,0,7.779-.321,13.3,13.3,0,0,0,6.97-3.238,19.8,19.8,0,0,0,2.07-2.463c.335-.446.672-.893,1-1.343.021,0,.041-.006.062-.011a8.174,8.174,0,0,0-.716,6.205l7.495-4.314c-.033.1-.068.19-.1.284-.676,1.28-1.373,2.547-2.1,3.8a47.092,47.092,0,0,1-8.517,11.17,23.3,23.3,0,0,1-12.411,6.223,59.5,59.5,0,0,0,11.48-1.1c.46-.106.92-.224,1.376-.354A103.586,103.586,0,0,1,52.984,318.72q7.694-2.776,15.389-5.553a25.907,25.907,0,0,1-2.715,5.682l3.372-1.835A2.143,2.143,0,0,1,68.5,319.5l5.478-2.746q-2.214,3.335-4.608,6.605c-.924.623-1.88,1.2-2.843,1.765A118.662,118.662,0,0,1,54.838,331.1c-2.991,1.324-6.134,2.544-9.405,2.525A72.471,72.471,0,0,0,57.84,335.1q1.107.033,2.22.024a210.091,210.091,0,0,1-20.913,21.1l13.4-3.811a11.014,11.014,0,0,1-.126,6.213q4.591-2.806,9.184-5.61a10.409,10.409,0,0,0,.858,4.668,40.443,40.443,0,0,1,9.811-4.233c8.452-1.811,13.834,1.6,20.31-5.763,6.476,7.362,11.858,3.952,20.31,5.763a40.458,40.458,0,0,1,9.81,4.233,10.388,10.388,0,0,0,.858-4.668q4.591,2.8,9.184,5.61a11.028,11.028,0,0,1-.126-6.213" transform="translate(55.587 90.177)" fill="#9cd2c9"/>
      <path id="Trazado_2732" data-name="Trazado 2732" d="M1418,235.592c-7.174-1.19-14.6-.173-21.9-.228a36.938,36.938,0,0,1,2.008-8.208,56.083,56.083,0,0,0-9.534,2.342q1.344-2.27,2.686-4.542a63.291,63.291,0,0,0-9.727,5.157,29.664,29.664,0,0,0,3.225-7.238l-9.691,2.961q3.866-6.119,8.333-11.909a67.1,67.1,0,0,1-8.034,6.354,57.5,57.5,0,0,0-5.892,4.184,20.177,20.177,0,0,0-4.7,6.121,36.342,36.342,0,0,0-1.2-6.107,3.014,3.014,0,0,0-.829-1.5,3.961,3.961,0,0,0-2.017-.678c-6.079-.878-13.221-1.464-17.5,2.512-2.465,2.289-3.525,5.785-6.564,7.422a25.675,25.675,0,0,0-3.231,1.575,7.238,7.238,0,0,0-1.865,2.388,28.572,28.572,0,0,0-22.016-5.948,9.106,9.106,0,0,1,4.961,1.517,95.872,95.872,0,0,1-15.689.412q4.048,1.193,8.1,2.388l-11.137.818c-3.637.268-7.426.577-10.542,2.287a32.156,32.156,0,0,1,8,2.189c-1.04.133-2.082.252-3.122.391-16.384,2.2-108.48,5.325-124.764,8.436.294-.626.594-1.249.9-1.862q4.484-9.077,8.966-18.152a44.1,44.1,0,0,0-9.057,9.188,66.326,66.326,0,0,1,4.667-13.28,17.258,17.258,0,0,0-6.908,6,39.906,39.906,0,0,0-4.007,7.952q-.463,1.144-.9,2.308a100.647,100.647,0,0,1,3.041-16.271,11.4,11.4,0,0,0-6.238,6.046,29.444,29.444,0,0,0-2.056,8.237q-.343,2.3-.685,4.593a55.1,55.1,0,0,1-.338-11.115,20.414,20.414,0,0,0-2.949,10.074c0,.082,0,.165,0,.247q-1.653-16.632-2.34-33.326c-2.864,7.768-2,15.9-.777,24.122a55.358,55.358,0,0,0-8.2-16.5,28.642,28.642,0,0,1,2.855,7.99q2,8.176,3.677,16.412c.313,1.541.618,3.092.841,4.65-3.484-9.977-10.235-19.138-17.63-27.356a66.824,66.824,0,0,1,12.88,24.611,75.855,75.855,0,0,0-8.012-12.285c-1.318-1.645-2.864-3.343-5.042-3.866,1.386,3.728,3.479,7.208,5.141,10.842a51.285,51.285,0,0,1,2.906,8.121c-6.017-7.5-14.579-13.679-23.251-18.862a205.586,205.586,0,0,1,19.84,23.666c.789,1.1,1.568,2.224,2.308,3.366-19.861,3.325-85.61,5.75-105.72,5.587.578-1.4,1.16-2.789,1.723-4.192a34.038,34.038,0,0,1-7.5,1.613l2.274-3.625a32.171,32.171,0,0,1-10.62,2.472q1.11-1.462,2.217-2.923a60.216,60.216,0,0,0-10.561,3.167,31.756,31.756,0,0,1,7.6-8.619,54.252,54.252,0,0,0-13.716,4.707,28.146,28.146,0,0,0-3.492,2.235c-.04-.288-.079-.578-.143-.862a10.152,10.152,0,0,0-5.37-6.646,12.257,12.257,0,0,0-9.106-.694c-1.553.5-3.113,1.333-4.737,1.064-.833-.138-1.589-.561-2.429-.648a5.3,5.3,0,0,0-3.21,1,22.785,22.785,0,0,0-5.263,4.566c-13.487-2.46-26.971-5.012-40.573-6.761-31.818-4.091-35.274,6.965-62.368,22.511-11.129,6.386-52.521,3.542-62.715,11.084-25.156,18.616-60.426,6.959-68.18,9.118.82-2.58,1.678-5.151,2.616-7.7q-4.014,2.128-8.262,3.872.645-1.995,1.293-3.991a100.607,100.607,0,0,1-13.244,6.755q2.507-2.836,5.016-5.674a66.736,66.736,0,0,0-13.125,4.523,51.06,51.06,0,0,0,3.883-7.432,40.889,40.889,0,0,0-19.29,11.792l-2.744-2.653a9.956,9.956,0,0,0-3.233-2.365c-.712-.274-1.491-.4-2.192-.7-2.272-.965-3.487-3.626-5.97-3.973-3.236-.452-5.615,3.387-8.886,3.247-.712-.03-1.405-.257-2.121-.255-1.99,0-3.414,1.659-4.511,3.152l-5.243,7.129c-7.369-.03-14.741-.01-22.06.235,1.715-.994,3.465-1.94,5.264-2.8a18.726,18.726,0,0,0-9.61.588,31.794,31.794,0,0,1,5.75-2.084,22.625,22.625,0,0,0-9.518,1.457,21.954,21.954,0,0,1,3.763-3.9,38.576,38.576,0,0,0-7.356,1.751,17.635,17.635,0,0,1,9-5.439,19.9,19.9,0,0,0-11.869,6.394,32.125,32.125,0,0,0-3.114,3.905,32.624,32.624,0,0,0-16.958-8.116l8.6,5.348a21.481,21.481,0,0,0-10.48-.279,23.506,23.506,0,0,1,4.948.965l-8.679,1.189,5.587.512-9.535,2.422a16.381,16.381,0,0,1,6.736,1.166c.7.236,1.386.487,2.074.742-3.45.724-6.866,1.572-10.238,2.568-20.175,5.956-117.69,17.09-138.479,20.978-12.853,2.4-26.129,1.919-39.246,1.425C383.349,322.083,186.438,363.446,0,319.945v32.212H1732V236.735c-160.93-56.029-212.878,15.632-314-1.143" transform="translate(-10.006 127.808)" fill="#83aaa1"/>
    </g>
  </g>
</svg>
