<svg id="Componente_35_2" data-name="Componente 35 – 2" xmlns="http://www.w3.org/2000/svg" width="45.753" height="45.753" viewBox="0 0 45.753 45.753">
  <circle id="Elipse_3" data-name="Elipse 3" cx="22.877" cy="22.877" r="22.877" fill="#212121"/>
  <path id="Icon_akar-google-fill" data-name="Icon akar-google-fill" d="M21.143,10.609a10.366,10.366,0,0,1,.175,1.906c0,5.186-3.471,8.873-8.712,8.873a9.077,9.077,0,0,1,0-18.153A8.709,8.709,0,0,1,18.676,5.6L16.117,8.159V8.152a4.972,4.972,0,0,0-3.511-1.373,5.529,5.529,0,0,0,0,11.056c2.717,0,4.567-1.554,4.947-3.687H12.606v-3.54h8.538Z" transform="translate(11.234 10.924)" fill="#fff"/>
</svg>
