<svg xmlns="http://www.w3.org/2000/svg" width="25.509" height="19" viewBox="0 0 25.509 19">
  <g id="Icon_akar-eye" data-name="Icon akar-eye" transform="translate(1.087 1)">
    <path id="Trazado_1943" data-name="Trazado 1943" d="M26.494,14.74a2.056,2.056,0,0,1,0,2.521c-1.813,2.367-6.162,7.24-11.241,7.24S5.826,19.627,4.013,17.26a2.055,2.055,0,0,1,0-2.521C5.826,12.373,10.175,7.5,15.253,7.5S24.681,12.373,26.494,14.74Z" transform="translate(-3.581 -7.5)" fill="none" stroke="#fff" stroke-linecap="round" stroke-linejoin="round" stroke-width="2"/>
    <path id="Trazado_1944" data-name="Trazado 1944" d="M23,18.252A4.752,4.752,0,1,1,18.252,13.5,4.752,4.752,0,0,1,23,18.252Z" transform="translate(-6.58 -9.752)" fill="none" stroke="#fff" stroke-linecap="round" stroke-linejoin="round" stroke-width="2"/>
  </g>
</svg>
