<svg xmlns="http://www.w3.org/2000/svg" xmlns:xlink="http://www.w3.org/1999/xlink" width="810.171" height="925.097" viewBox="0 0 810.171 925.097">
  <defs>
    <clipPath id="clip-path">
      <rect id="Rectángulo_108" data-name="Rectángulo 108" width="230.02" height="12.139" fill="none"/>
    </clipPath>
    <clipPath id="clip-path-2">
      <rect id="Rectángulo_75" data-name="Rectángulo 75" width="36.097" height="36.097" fill="none"/>
    </clipPath>
    <clipPath id="clip-path-3">
      <rect id="Rectángulo_76" data-name="Rectángulo 76" width="22.333" height="22.333" fill="none"/>
    </clipPath>
    <clipPath id="clip-path-4">
      <rect id="Rectángulo_75-2" data-name="Rectángulo 75" width="18.049" height="18.049" fill="none"/>
    </clipPath>
    <clipPath id="clip-path-6">
      <rect id="Rectángulo_75-4" data-name="Rectángulo 75" width="18.048" height="18.048" fill="none"/>
    </clipPath>
  </defs>
  <g id="ilustracion" transform="translate(-1039 -80)">
    <g id="Grupo_217" data-name="Grupo 217" transform="translate(1302.582 244.909)">
      <g id="Grupo_307" data-name="Grupo 307">
        <g id="Grupo_310" data-name="Grupo 310" transform="translate(-151.347 204.703)">
          <path id="Trazado_2602" data-name="Trazado 2602" d="M72.574,146.924a2.106,2.106,0,0,1-.02-.317c-.005-.233-.012-.527-.022-.894q-.018-1.232-.049-3.432c-.027-3.011-.065-7.339-.114-12.8l.2.2-65.921.131c.149-.15-.339.335.332-.336v4.461q0,2.217,0,4.4,0,4.366-.005,8.579l-.329-.328,46.981.149,13.867.093,3.749.043.981.02a2.606,2.606,0,0,1,.347.022,1.621,1.621,0,0,1-.3.022l-.94.02-3.679.043-13.791.093-47.21.149H6.321v-.329q0-4.207-.005-8.579,0-2.183,0-4.4v-4.461c.672-.672.19-.186.34-.336l65.921.131h.206v.2c-.049,5.509-.087,9.879-.112,12.919q-.033,2.171-.05,3.386c-.009.352-.016.634-.022.859a1.284,1.284,0,0,1-.02.276" transform="translate(2.241 45.837)" fill="#e0e0e0"/>
          <path id="Trazado_2603" data-name="Trazado 2603" d="M72.278,134.065a2.038,2.038,0,0,1-.026-.332c-.007-.251-.015-.554-.026-.924q-.022-1.287-.06-3.5c-.031-3.057-.076-7.377-.13-12.687l.241.241-39.607.095c-.3.3.405-.409.333-.335v4.543q0,2.248,0,4.439c0,2.917-.007,5.747-.011,8.457l-.32-.32L61,133.9l8.253.088,2.226.041a6.772,6.772,0,0,1,.8.039,4.644,4.644,0,0,1-.72.039l-2.159.041-8.182.088-28.55.152h-.32v-.321c0-2.71-.008-5.539-.012-8.457q0-2.189,0-4.439v-4.543c-.075.072.637-.638.339-.337l39.607.095h.244l0,.241c-.054,5.373-.1,9.741-.13,12.835q-.039,2.173-.06,3.442a10.274,10.274,0,0,1-.051,1.164" transform="translate(11.476 41.256)" fill="#e0e0e0"/>
        </g>
        <path id="Trazado_2604" data-name="Trazado 2604" d="M219.9,30.71a2.1,2.1,0,0,1-.02-.317c-.005-.233-.012-.527-.022-.894q-.018-1.232-.049-3.432c-.027-3.011-.065-7.339-.114-12.8l.2.2-65.921.131c.149-.149-.339.335.332-.336v4.461q0,2.217,0,4.4,0,4.366-.005,8.579l-.329-.328,46.981.149,13.867.094,3.749.043.981.02a2.617,2.617,0,0,1,.347.022,1.618,1.618,0,0,1-.3.022l-.94.02-3.679.043-13.791.093-47.21.149h-.328V30.71q0-4.207-.005-8.579,0-2.183,0-4.4V13.27c.672-.672.19-.186.34-.336l65.921.131h.206v.2c-.049,5.509-.087,9.879-.112,12.919q-.033,2.171-.05,3.386c-.009.352-.016.634-.022.859a1.283,1.283,0,0,1-.02.276" transform="translate(54.543 4.581)" fill="#e0e0e0"/>
        <path id="Trazado_2605" data-name="Trazado 2605" d="M219.606,17.851a2.036,2.036,0,0,1-.026-.332c-.007-.251-.015-.554-.026-.924q-.022-1.287-.06-3.5c-.031-3.057-.076-7.377-.13-12.687l.241.241L180,.747c-.3.3.405-.409.333-.335V4.955q0,2.248,0,4.439c-.005,2.917-.008,5.747-.012,8.457l-.32-.32,28.334.152,8.253.088,2.226.041a6.737,6.737,0,0,1,.8.039,4.644,4.644,0,0,1-.719.039l-2.159.041-8.181.088L180,18.171h-.32v-.321c0-2.71-.008-5.539-.012-8.457q0-2.189,0-4.439,0-1.124,0-2.261V.412c-.074.072.637-.638.339-.337l39.607.095h.244l0,.241c-.054,5.373-.1,9.741-.13,12.835q-.037,2.173-.06,3.442a10.283,10.283,0,0,1-.051,1.164" transform="translate(63.778 0)" fill="#e0e0e0"/>
        <path id="Trazado_2606" data-name="Trazado 2606" d="M396.047,55.506V169.078H232.926L227.049,56.3Z" transform="translate(80.603 19.705)" fill="#e0e0e0"/>
        <g id="Grupo_309" data-name="Grupo 309">
          <rect id="Rectángulo_101" data-name="Rectángulo 101" width="163.12" height="112.54" transform="translate(307.652 76.005)" fill="#fff"/>
          <path id="Trazado_2607" data-name="Trazado 2607" d="M391.147,169.608H226.479V55.521H391.147Zm-163.122-1.547H389.6V57.07H228.025Z" transform="translate(80.4 19.71)" fill="#e0e0e0"/>
        </g>
        <rect id="Rectángulo_102" data-name="Rectángulo 102" width="127.786" height="84.575" transform="translate(325.32 89.987)" fill="#fff"/>
        <path id="Trazado_2608" data-name="Trazado 2608" d="M367.98,66.508s-.22.015-.63.022l-1.817.022-7.018.045-26.334.1-91.987.182.369-.37c.011,25.84.022,54.472.034,84.564v.011l-.4-.4,127.786.081-.321.321c.07-25.738.129-46.841.169-61.536.035-7.344.062-13.083.081-17.016q.024-2.915.035-4.472c.012-1.014.035-1.551.035-1.551s.023.492.035,1.484q.012,1.535.035,4.412c.019,3.916.046,9.63.081,16.944.041,14.742.1,35.914.169,61.735v.321h-.322l-127.786.081h-.4v-.413c.012-30.092.023-58.724.034-84.564v-.37h.37l92.229.182,26.25.1,6.944.045,1.775.022c.4.007.587.022.587.022" transform="translate(85.126 23.479)" fill="#e0e0e0"/>
        <path id="Trazado_2609" data-name="Trazado 2609" d="M227.05,55.861a13.781,13.781,0,0,1,2.8,1.817c1.668,1.2,3.94,2.913,6.394,4.877s4.612,3.822,6.131,5.214a13.188,13.188,0,0,1,2.336,2.39c-.152.171-4.073-3.064-8.971-6.976s-8.839-7.138-8.7-7.322" transform="translate(80.602 19.828)" fill="#e0e0e0"/>
        <path id="Trazado_2610" data-name="Trazado 2610" d="M352.063,56.094c.138.175-3.7,3.446-8.583,7.306s-8.946,6.851-9.084,6.676,3.7-3.446,8.584-7.308,8.944-6.85,9.083-6.675" transform="translate(118.71 19.911)" fill="#e0e0e0"/>
        <path id="Trazado_2611" data-name="Trazado 2611" d="M352.1,143.021,333.916,128.28" transform="translate(118.541 45.54)" fill="#fff"/>
        <path id="Trazado_2612" data-name="Trazado 2612" d="M333.916,128.282c.14-.173,4.325,2.986,9.347,7.057s8.981,7.511,8.84,7.684-4.324-2.986-9.347-7.058-8.98-7.509-8.84-7.683" transform="translate(118.539 45.538)" fill="#e0e0e0"/>
        <path id="Trazado_2613" data-name="Trazado 2613" d="M227.05,142.772c-.138-.175,3.665-3.412,8.493-7.23s8.855-6.774,8.993-6.6-3.664,3.412-8.493,7.232-8.855,6.774-8.993,6.6" transform="translate(80.602 45.772)" fill="#e0e0e0"/>
        <rect id="Rectángulo_103" data-name="Rectángulo 103" width="80.406" height="28.32" transform="translate(351.265 116.336)" fill="#e0e0e0"/>
        <g id="Grupo_308" data-name="Grupo 308" transform="translate(-569 1.68)">
          <path id="Trazado_2614" data-name="Trazado 2614" d="M275.737,395.645V447.5H435.194v-51.85Z" transform="translate(97.887 140.454)" fill="#f5f5f5"/>
          <path id="Trazado_2615" data-name="Trazado 2615" d="M270.8,384.947v14.5H442.522v-14.5H270.8Z" transform="translate(96.134 136.656)" fill="#e0e0e0"/>
          <path id="Trazado_2616" data-name="Trazado 2616" d="M335.042,451.294h80.286v-51.85H420.9v-14.5H331.7V398.1Z" transform="translate(117.753 136.656)" fill="#e0e0e0"/>
          <rect id="Rectángulo_104" data-name="Rectángulo 104" width="32.337" height="7.805" transform="translate(395.926 544.461)" fill="#e0e0e0"/>
          <rect id="Rectángulo_105" data-name="Rectángulo 105" width="41.523" height="16.481" transform="translate(391.765 562.025)" fill="#fff"/>
        </g>
        <g id="Grupo_312" data-name="Grupo 312" transform="translate(-390.244 -148.759)">
          <rect id="Rectángulo_106" data-name="Rectángulo 106" width="65.925" height="17.44" transform="translate(228.595 238.376)" fill="#ebebeb"/>
          <path id="Trazado_2617" data-name="Trazado 2617" d="M214.145,207.016a2.106,2.106,0,0,1-.02-.317c-.005-.233-.012-.527-.022-.894q-.018-1.232-.049-3.432c-.027-3.011-.065-7.339-.114-12.8l.2.2-65.921.131c.149-.15-.339.335.332-.336v4.461q0,2.217,0,4.4,0,4.366-.005,8.578l-.329-.328c18.772.058,35.2.111,46.981.149l13.867.093,3.749.043.981.02a2.615,2.615,0,0,1,.347.022,1.615,1.615,0,0,1-.3.022l-.94.02-3.679.043-13.791.093-47.21.149h-.328v-.329q0-4.207-.005-8.578,0-2.183,0-4.4,0-1.108,0-2.225v-2.236c.672-.672.19-.186.34-.336l65.921.131h.206v.2c-.049,5.509-.087,9.879-.114,12.919q-.03,2.171-.049,3.386c-.009.352-.016.634-.022.859a1.282,1.282,0,0,1-.02.276" transform="translate(52.499 67.169)" fill="#e0e0e0"/>
        </g>
        <g id="Grupo_311" data-name="Grupo 311" transform="translate(-33.56 198.159)">
          <rect id="Rectángulo_107" data-name="Rectángulo 107" width="65.925" height="17.44" transform="translate(514.224 234.636)" fill="#ebebeb"/>
          <path id="Trazado_2618" data-name="Trazado 2618" d="M424.941,204.256a2.1,2.1,0,0,1-.02-.317c-.005-.233-.012-.527-.022-.894q-.018-1.232-.049-3.432c-.027-3.011-.065-7.339-.114-12.8l.2.2-65.921.131c.149-.15-.339.335.332-.336v4.461q0,2.217,0,4.4,0,4.366-.005,8.579l-.329-.329,46.981.15,13.867.093,3.749.043.981.02a2.359,2.359,0,0,1,.347.022,1.618,1.618,0,0,1-.3.022l-.94.02-3.679.043-13.791.093-47.21.149h-.328v-.329q0-4.207-.005-8.579,0-2.183,0-4.4,0-1.108,0-2.225v-2.236c.672-.672.19-.186.34-.336l65.921.131h.206v.2c-.049,5.509-.087,9.878-.114,12.919q-.03,2.171-.049,3.386c-.009.352-.016.634-.022.858a1.293,1.293,0,0,1-.02.278" transform="translate(127.332 66.19)" fill="#e0e0e0"/>
        </g>
        <path id="Trazado_2619" data-name="Trazado 2619" d="M757.8,435.243c0,.2-169.652.352-378.882.352C169.617,435.6,0,435.439,0,435.243s169.617-.352,378.918-.352c209.23,0,378.882.157,378.882.352" transform="translate(-262.582 154.387)" fill="#263238"/>
        <path id="Trazado_2620" data-name="Trazado 2620" d="M50.209,390.3l-9.435,61.323H51.557L69.751,390.3Z" transform="translate(14.475 138.557)" fill="#263238"/>
        <path id="Trazado_2621" data-name="Trazado 2621" d="M225.637,390.3l9.435,61.323H224.288L206.095,390.3Z" transform="translate(73.164 138.557)" fill="#263238"/>
        <path id="Trazado_2622" data-name="Trazado 2622" d="M11.971,274.917c-.764,27.676-7.938,149.736,17.088,172.971H60.141c8.1,0,7.663-3.831,7.36-11.929L61.592,277.585a14.09,14.09,0,0,0-3.084-8.349c-4.087-5.046-12.286-12.832-23.553-12.08a33.362,33.362,0,0,0-17,5.642c-3.944,2.722-5.848,7.329-5.981,12.119" transform="translate(3.707 91.272)" fill="#455a64"/>
        <path id="Trazado_2623" data-name="Trazado 2623" d="M280.667,418.58,47.12,416.806V344.658H280.667Z" transform="translate(16.728 122.354)" fill="#455a64"/>
        <path id="Trazado_2624" data-name="Trazado 2624" d="M280.089,356.648,46.126,358.571V315.28l234.893-4.4Z" transform="translate(16.375 110.363)" fill="#455a64"/>
        <path id="Trazado_2625" data-name="Trazado 2625" d="M14.825,281.174s1.732-60.071,67.86-63.182,164.242,0,164.242,0,83.063-3.11,84.986,49.207L315.408,367.506H58.945Z" transform="translate(5.263 76.897)" fill="#455a64"/>
        <path id="Trazado_2626" data-name="Trazado 2626" d="M270.7,281.6c-1.752,41.413-5.572,162.87-34.378,168.358H214.909l6.621-177.424s9.929-17.312,26.479-16.208c.165.011.331.023.493.037A24.231,24.231,0,0,1,270.7,281.6" transform="translate(76.293 90.977)" fill="#455a64"/>
        <path id="Trazado_2627" data-name="Trazado 2627" d="M259.2,258.756s-.267-.051-.774-.186l-2.234-.612-1.64-.454-2.026-.3c-.732-.1-1.516-.247-2.358-.337l-2.707-.05a29.3,29.3,0,0,0-13.286,3.318l-.906.454c-.3.169-.583.362-.878.543l-1.787,1.127a41.793,41.793,0,0,0-3.447,2.762,35.824,35.824,0,0,0-6.226,7.213l.035-.118c-.859,18.329-1.946,41.494-3.122,66.612-1.375,30.588-2.352,58.287-2.908,78.341-.249,10.005-.451,18.112-.592,23.749-.066,2.78-.119,4.951-.156,6.458-.023.715-.042,1.274-.056,1.679-.018.379-.042.572-.042.572s-.019-.194-.024-.572c0-.406,0-.965-.007-1.68.008-1.508.02-3.679.035-6.461.052-5.61.173-13.726.388-23.757.44-20.059,1.347-47.766,2.721-78.357,1.122-25.129,2.306-48.3,3.252-66.609v-.008a.215.215,0,0,1,.035-.11,36.107,36.107,0,0,1,6.356-7.3,42.138,42.138,0,0,1,3.508-2.776l1.817-1.131c.3-.182.591-.375.892-.543l.924-.454a29.387,29.387,0,0,1,13.473-3.244l2.729.085c.848.1,1.635.259,2.371.371s1.409.236,2.031.339l1.638.491,2.22.686c.5.159.749.259.749.259" transform="translate(75.991 91.067)" fill="#263238"/>
        <path id="Trazado_2628" data-name="Trazado 2628" d="M47.386,358.149s.394-.022,1.165-.03l3.421-.026,13.156-.028,48.383.118c40.852.154,97.289.593,159.61-.3l2.577-.034-.329.312q.335-11.1.661-21.919.165-5.4.325-10.723.081-2.661.161-5.3c.015-.867.08-1.782.053-2.606a5.493,5.493,0,0,0-.679-2.379,6.029,6.029,0,0,0-3.954-2.924,11.521,11.521,0,0,0-2.611-.148l-2.683.007-10.6.037-20.519.134-70.925.733c-20.176.2-36.492.291-47.762.3l-12.977-.024-3.374-.026c-.759-.011-1.149-.031-1.149-.031s.39-.023,1.149-.035l3.374-.035c2.982-.023,7.352-.056,12.975-.1l47.758-.5,70.925-.871,20.52-.156,10.6-.046,2.684-.008a12.127,12.127,0,0,1,2.757.161,6.678,6.678,0,0,1,4.387,3.24,6.1,6.1,0,0,1,.755,2.637c.027.927-.038,1.767-.051,2.657q-.079,2.638-.159,5.3-.159,5.319-.32,10.725-.323,10.807-.657,21.917a.328.328,0,0,1-.329.312l-2.576.033c-62.331.9-118.774.385-159.625.114l-48.38-.321-13.154-.091-3.421-.039c-.771-.012-1.165-.035-1.165-.035" transform="translate(16.822 110.596)" fill="#263238"/>
        <g id="Grupo_213" data-name="Grupo 213" transform="translate(62.501 468.444)" opacity="0.2">
          <g id="Grupo_212" data-name="Grupo 212">
            <g id="Grupo_211" data-name="Grupo 211" clip-path="url(#clip-path)">
              <path id="Trazado_2629" data-name="Trazado 2629" d="M46.126,346.206c53.609,11.615,79.132,10.745,128.964,11.6,44.734.767,93.95-7.29,101.056-12.088Z" transform="translate(-46.126 -345.715)"/>
            </g>
          </g>
        </g>
        <path id="Trazado_2630" data-name="Trazado 2630" d="M59.455,447.832a3.752,3.752,0,0,1-.028-.6c0-.427-.007-1.009-.012-1.756.005-1.58.014-3.848.023-6.753.051-5.9.126-14.377.217-24.837.251-21,.6-49.956.98-81.937.222-16,.432-31.245.625-45.113a30.255,30.255,0,0,0-1.29-9.9,29.9,29.9,0,0,0-4.309-8.363,30.622,30.622,0,0,0-6.34-6.1,28.616,28.616,0,0,0-7.294-3.569,27.093,27.093,0,0,0-13.858-.56,26.544,26.544,0,0,0-9.675,4.2,21.745,21.745,0,0,0-4.782,4.682c-.925,1.229-1.293,1.959-1.337,1.932a3.579,3.579,0,0,1,.28-.53,15,15,0,0,1,.942-1.486,21,21,0,0,1,4.736-4.82,26.568,26.568,0,0,1,9.749-4.358,27.391,27.391,0,0,1,14.093.467,29.109,29.109,0,0,1,7.455,3.6,31.1,31.1,0,0,1,6.5,6.2,30.4,30.4,0,0,1,4.434,8.527,30.79,30.79,0,0,1,1.35,10.093c-.175,13.87-.367,29.112-.569,45.113-.463,31.981-.882,60.936-1.187,81.936-.186,10.459-.336,18.935-.44,24.833-.066,2.905-.119,5.173-.156,6.752-.024.747-.043,1.328-.057,1.756a3.755,3.755,0,0,1-.045.6" transform="translate(4.393 91.329)" fill="#263238"/>
        <path id="Trazado_2631" data-name="Trazado 2631" d="M144.288,330.345a533.71,533.71,0,0,1,8.253-84.755c.762-4.263,1.771-8.863,5.079-11.657,2.841-2.4,6.776-2.935,10.484-3.236,26.618-2.159,53.769,9.719,77.937,22.587a14.25,14.25,0,0,1,7.362,15c-4.011,23.176-12.206,40.646-24.164,62.781a147.1,147.1,0,0,1-85.7,7.584" transform="translate(50.957 81.807)" fill="#f1b20a"/>
        <path id="Trazado_2632" data-name="Trazado 2632" d="M132.23,167.615c-1.683-11.936-1.572-11.543-3.057-22.966-2.882-22.171-9.866-47.314-41.512-45.493,0,0-23.839,1.283-31.109,18.381-3.9,9.182-4.925,40.963-6.249,69.567a4.942,4.942,0,0,1-.262,1.373L48.559,192.8a64.327,64.327,0,0,0-3.4,17.559L43.1,250.082a4.922,4.922,0,0,0,4.673,5.179c10.669.52,35.024-.828,39.718-2.522A71.457,71.457,0,0,0,129.7,211c.5-1.3,7.4-1.947,8.691-2.446,2.135-.825-5.844-38.669-6.164-40.941" transform="translate(15.298 35.168)" fill="#263238"/>
        <path id="Trazado_2633" data-name="Trazado 2633" d="M78.064,107.169l2-1.858,21.255,8.912a5.967,5.967,0,0,1,5.553,5.855l-1.16,69.64c-.038,4.724,1.31,10.192-1.593,13.917l-3.416,4.826c-6.97,8.94-23.034,5.7-28.314-4.329a7.62,7.62,0,0,1-.73-1.812,14.114,14.114,0,0,1-.3-1.562c-.558-5.612-.527-10.47-.527-10.47-.3-6.157-.385-8.683-.388-8.626,0,0-13.07-1.688-16.375-18.542-1.642-8.382-1.15-19.874-.5-31.184.9-15.65,11.9-24.959,24.485-24.768" transform="translate(18.803 37.386)" fill="#ffc09d"/>
        <path id="Trazado_2634" data-name="Trazado 2634" d="M73.958,133.877a2.176,2.176,0,0,0,2.176,2.118,2.08,2.08,0,0,0,2.169-2.041,2.176,2.176,0,0,0-2.172-2.119,2.082,2.082,0,0,0-2.173,2.042" transform="translate(26.255 46.801)" fill="#263238"/>
        <path id="Trazado_2635" data-name="Trazado 2635" d="M57.838,134.02a2.177,2.177,0,0,0,2.176,2.118,2.08,2.08,0,0,0,2.169-2.041,2.176,2.176,0,0,0-2.172-2.119,2.082,2.082,0,0,0-2.173,2.042" transform="translate(20.533 46.852)" fill="#263238"/>
        <path id="Trazado_2636" data-name="Trazado 2636" d="M55.033,128.928c.279.274,1.882-1,4.222-1.083,2.336-.112,4.1,1.03,4.34.733.121-.131-.173-.633-.94-1.15a5.975,5.975,0,0,0-3.486-.938,5.735,5.735,0,0,0-3.348,1.215c-.7.579-.924,1.1-.787,1.222" transform="translate(19.523 44.902)" fill="#263238"/>
        <path id="Trazado_2637" data-name="Trazado 2637" d="M72.541,129.474c.308.244,1.772-1.192,4.089-1.511,2.312-.351,4.18.6,4.393.285.1-.144-.236-.612-1.054-1.047a5.955,5.955,0,0,0-3.565-.576,5.726,5.726,0,0,0-3.2,1.554c-.634.646-.806,1.188-.659,1.3" transform="translate(25.735 44.93)" fill="#263238"/>
        <path id="Trazado_2638" data-name="Trazado 2638" d="M67.9,146.3a15.573,15.573,0,0,0-3.825-.549c-.6-.039-1.169-.138-1.283-.542a3.012,3.012,0,0,1,.333-1.785q.764-2.2,1.6-4.612c2.219-6.565,3.8-11.955,3.538-12.042s-2.28,5.164-4.5,11.729q-.8,2.427-1.527,4.637a3.467,3.467,0,0,0-.225,2.356,1.5,1.5,0,0,0,1.014.837,4.05,4.05,0,0,0,1.02.1A15.262,15.262,0,0,0,67.9,146.3" transform="translate(21.967 45.004)" fill="#263238"/>
        <path id="Trazado_2639" data-name="Trazado 2639" d="M65.872,163.461a43.159,43.159,0,0,0,22.484-6.877s-5.285,11.942-22.307,10.969Z" transform="translate(23.385 55.588)" fill="#ff9b6c"/>
        <path id="Trazado_2640" data-name="Trazado 2640" d="M67.263,145.769a4.216,4.216,0,0,1,3.722-1.7A3.848,3.848,0,0,1,73.7,145.4a2.442,2.442,0,0,1,.286,2.782,2.833,2.833,0,0,1-3.039.886,8.869,8.869,0,0,1-3.054-1.676,2.588,2.588,0,0,1-.694-.668.787.787,0,0,1-.028-.871" transform="translate(23.801 51.14)" fill="#ff9b6c"/>
        <path id="Trazado_2641" data-name="Trazado 2641" d="M73.345,142.2c-.382-.008-.3,2.531-2.4,4.412s-4.821,1.7-4.828,2.054c-.03.161.621.473,1.764.462a6.33,6.33,0,0,0,4.035-1.572,5.512,5.512,0,0,0,1.852-3.694c.058-1.065-.248-1.684-.42-1.663" transform="translate(23.47 50.48)" fill="#263238"/>
        <path id="Trazado_2642" data-name="Trazado 2642" d="M70.963,120.966c.316.6,2.589-.022,5.355-.072,2.766-.107,5.07.385,5.352-.23.123-.294-.341-.833-1.313-1.32a9.306,9.306,0,0,0-8.157.23c-.943.541-1.377,1.106-1.237,1.392" transform="translate(25.183 42.073)" fill="#263238"/>
        <path id="Trazado_2643" data-name="Trazado 2643" d="M55.392,121.552c.431.516,2.023-.093,3.959-.19,1.934-.164,3.592.228,3.95-.341.156-.275-.122-.8-.858-1.275a5.74,5.74,0,0,0-6.373.427c-.665.572-.87,1.127-.679,1.379" transform="translate(19.64 42.237)" fill="#263238"/>
        <path id="Trazado_2644" data-name="Trazado 2644" d="M99.943,150.093s-12.026,3.56-18.389-26.085c-2.175-10.138-11.428-18.451-11.428-18.451l3.814-1.089s23.519,6.981,23.912,7.284,5.786,12.294,5.786,12.294Z" transform="translate(24.895 37.086)" fill="#263238"/>
        <path id="Trazado_2645" data-name="Trazado 2645" d="M89.965,138.547c-.042-1.263,1.309-4.291,2.549-4.531,3.31-.64,9.321-.588,9.683,7.864.493,11.554-11.21,9.667-11.244,9.336-.027-.257-.84-8.31-.988-12.669" transform="translate(31.937 47.491)" fill="#ffc09d"/>
        <path id="Trazado_2646" data-name="Trazado 2646" d="M93.164,145.725c.049-.039.207.133.554.274a2.014,2.014,0,0,0,1.505-.034c1.2-.5,2.146-2.481,2.114-4.566a6.656,6.656,0,0,0-.686-2.859,2.327,2.327,0,0,0-1.581-1.48,1.026,1.026,0,0,0-1.164.6c-.141.331-.058.558-.118.58-.031.031-.256-.183-.184-.663a1.291,1.291,0,0,1,.424-.745,1.527,1.527,0,0,1,1.1-.341,2.833,2.833,0,0,1,2.18,1.7,6.849,6.849,0,0,1,.835,3.191c.026,2.332-1.073,4.561-2.724,5.115a2.16,2.16,0,0,1-1.854-.226c-.37-.27-.442-.526-.4-.549" transform="translate(33.07 48.454)" fill="#ff9b6c"/>
        <path id="Trazado_2647" data-name="Trazado 2647" d="M91.735,143.749a17.013,17.013,0,0,1-1.725-.373,10.462,10.462,0,0,1-4.079-2.443,14.407,14.407,0,0,1-2.11-2.542,19.36,19.36,0,0,1-1.7-3.4,72.3,72.3,0,0,1-2.37-8.431c-.77-3.023-1.61-5.879-2.539-8.421a48.274,48.274,0,0,0-2.917-6.565,34.729,34.729,0,0,0-2.588-4.093c-.335-.463-.627-.8-.813-1.035a2.574,2.574,0,0,0-.3-.346,2.64,2.64,0,0,0,.255.383c.171.248.446.593.764,1.066a39.48,39.48,0,0,1,2.495,4.127,50.592,50.592,0,0,1,2.843,6.558c.911,2.537,1.74,5.385,2.507,8.4a69.388,69.388,0,0,0,2.4,8.459,19.258,19.258,0,0,0,1.748,3.434,14.243,14.243,0,0,0,2.175,2.562,10.218,10.218,0,0,0,4.192,2.4,6.384,6.384,0,0,0,1.759.259" transform="translate(25.061 37.666)" fill="#263238"/>
        <path id="Trazado_2648" data-name="Trazado 2648" d="M145.933,184.421l-25.68-9.715-36.611-7.973-29.5,3.909c-6.221.13-16.992,13.2-25.2,27.207C21.6,210.386,15.815,223.01,15.815,223.01l34.3,12.81c1.951,14.6,4.824,33.853,7.3,41.481,4.221,12.989,5.505,30.821,5.505,30.821L144.44,297.5l1.146-55.951,26.787-3.486c-.041-1.974-10.325-48.677-26.44-53.643" transform="translate(5.614 59.19)" fill="#7fc6ba"/>
        <path id="Trazado_2649" data-name="Trazado 2649" d="M110.338,196.332a6.588,6.588,0,0,0,.148,1.406c.14.9.322,2.2.523,3.8a102.38,102.38,0,0,1,.8,12.618,102.526,102.526,0,0,1-.82,12.619c-.2,1.607-.39,2.906-.53,3.8a6.4,6.4,0,0,0-.15,1.406,6.625,6.625,0,0,0,.375-1.364c.21-.886.459-2.18.718-3.786a82.291,82.291,0,0,0,.024-25.355c-.256-1.607-.5-2.9-.71-3.787a6.581,6.581,0,0,0-.374-1.366" transform="translate(39.154 69.698)" fill="#263238"/>
        <path id="Trazado_2650" data-name="Trazado 2650" d="M141.252,219.959l-26.463,2.864.417,7.259-5.885-8.427-8.879,18.414s3.587,10.755,5.518,16.7c5.171,15.916,13.42,33.68,23.076,32.577,11.584-1.322,19.783-15.267,19.4-24.171-.346-8.1-7.187-45.216-7.187-45.216" transform="translate(35.657 78.086)" fill="#ffc09d"/>
        <path id="Trazado_2651" data-name="Trazado 2651" d="M142.485,297.849l45.888,18-17.444,21.1-39.044-6.786Z" transform="translate(46.819 105.737)" fill="#ffc09d"/>
        <path id="Trazado_2652" data-name="Trazado 2652" d="M50.688,275.117s-1.206,52.338,3.592,61.449,51.195,9.455,51.195,9.455l73.2,3.718,8.541-34.234s-53.243-24.717-58.289-27.572-16.935-7.851-16.935-7.851l-17.9-23.034Z" transform="translate(17.947 91.253)" fill="#263238"/>
        <path id="Trazado_2653" data-name="Trazado 2653" d="M128.523,330.472a2.547,2.547,0,0,0-.576-.207l-1.683-.493-6.257-1.724-21.053-5.585-.028-.008h-.049a32.83,32.83,0,0,1-6.942-.8c-1.093-.32-2.192-.564-3.219-.976a31.972,31.972,0,0,1-5.751-2.7,33.361,33.361,0,0,1-8.2-6.946,32.646,32.646,0,0,1-4.032-6.054c-.4-.764-.641-1.39-.846-1.8a3.143,3.143,0,0,0-.324-.618,3.031,3.031,0,0,0,.214.663c.169.423.379,1.068.749,1.854a30.024,30.024,0,0,0,3.919,6.219,32.854,32.854,0,0,0,8.236,7.145,31.939,31.939,0,0,0,5.836,2.783c1.043.423,2.164.676,3.276,1a33.778,33.778,0,0,0,3.48.6,32.933,32.933,0,0,0,3.6.221l-.076-.009,21.1,5.4,6.3,1.55,1.71.392a2.511,2.511,0,0,0,.6.1" transform="translate(24.696 107.407)" fill="#455a64"/>
        <path id="Trazado_2654" data-name="Trazado 2654" d="M111.472,315.49l12.459-76.2s-1.648-54.853,29.153-50.928S180.2,240.556,180.2,240.556s-3.988,66.167-6.164,75.722-3.278,20.181-9.569,24.005l-27.95-4.355Z" transform="translate(39.573 66.798)" fill="#263238"/>
        <path id="Trazado_2655" data-name="Trazado 2655" d="M131.132,199.085l-7.4,18.009,4.619,68.78s39.7,3.408,39.325,2.327,7.118-34.256,7.118-34.256,2.465-44.028-9.3-52.424-34.37-2.436-34.37-2.436" transform="translate(43.926 69.947)" fill="#263238"/>
        <path id="Trazado_2656" data-name="Trazado 2656" d="M128.285,262.7c.042,0,.515,32.837.515,32.837l27.742,15.222,7.512-45.651Z" transform="translate(45.541 93.257)" fill="#ffc09d"/>
        <path id="Trazado_2657" data-name="Trazado 2657" d="M82.68,260.317l30.284-12.474,18.116,16.226L121.029,296.44l-26.584-9.919Z" transform="translate(29.351 87.984)" fill="#263238"/>
        <path id="Trazado_2658" data-name="Trazado 2658" d="M184.35,309.847a2.183,2.183,0,0,0-.369-.207l-1.107-.556c-1.009-.493-2.446-1.192-4.28-2.087L162.8,299.425,139.35,288.261c-4.419-2.095-9.054-4.294-13.859-6.574l-7.332-3.473-3.751-1.775q-.943-.447-1.894-.9a13.369,13.369,0,0,0-1.95-.824,28.035,28.035,0,0,0-8.245-1.675,32.957,32.957,0,0,0-8.146.508,41.1,41.1,0,0,0-14.282,5.63,45.7,45.7,0,0,0-10.5,9.114,62.986,62.986,0,0,0-6.9,9.962,91.218,91.218,0,0,0-6.932,16.084c-.648,1.965-1.1,3.507-1.393,4.556-.137.5-.244.9-.325,1.2a2.357,2.357,0,0,0-.091.413,2.2,2.2,0,0,0,.149-.4l.381-1.179c.327-1.038.817-2.565,1.5-4.515a95.287,95.287,0,0,1,7.077-15.954,63.378,63.378,0,0,1,6.906-9.848,45.486,45.486,0,0,1,10.415-8.973,40.737,40.737,0,0,1,14.1-5.522,32.457,32.457,0,0,1,8.007-.492,27.549,27.549,0,0,1,8.068,1.641,13.013,13.013,0,0,1,1.93.814l1.893.9,3.751,1.772,7.335,3.465,13.868,6.542,23.5,11.046,15.867,7.4,4.328,1.986,1.131.5a2.268,2.268,0,0,0,.394.153" transform="translate(19.082 96.911)" fill="#455a64"/>
        <path id="Trazado_2659" data-name="Trazado 2659" d="M107.629,288.846a30.528,30.528,0,0,1,.34-4.978,38.8,38.8,0,0,1,4.341-11.2,69.007,69.007,0,0,0,5.2-11,21.771,21.771,0,0,0,.866-3.6,5.2,5.2,0,0,0,.1-1.354c-.11-.018-.3,1.911-1.359,4.816A83.923,83.923,0,0,1,111.79,272.4c-2.26,4.177-3.833,8.278-4.232,11.405a16.468,16.468,0,0,0-.146,3.7,4.933,4.933,0,0,0,.217,1.34" transform="translate(38.115 91.137)" fill="#455a64"/>
        <path id="Trazado_2660" data-name="Trazado 2660" d="M174.8,248.691a1.753,1.753,0,0,0-.111.355l-.267,1.053c-.229.967-.553,2.331-.965,4.066-.821,3.535-1.99,8.654-3.374,14.994-.687,3.171-1.44,6.644-2.161,10.4-.175.942-.359,1.888-.478,2.892a2.357,2.357,0,0,0-.018.425l.015.136c.018.064-.041-.052,0-.123s.047-.062.05-.075c.056-.026-.043.008-.069.014a5.3,5.3,0,0,1-.7.062c-.49.019-.993.016-1.5.009-2.024-.035-4.112-.146-6.251-.267-8.558-.508-17.959-1.256-27.822-2.069l-2.764-.233.268.274c-1.318-19.115-2.5-36.292-3.363-48.735-.454-6.175-.821-11.171-1.077-14.667-.138-1.7-.245-3.03-.322-3.976-.039-.428-.072-.768-.1-1.033a1.576,1.576,0,0,0-.053-.35,1.709,1.709,0,0,0-.005.354c.011.264.024.606.041,1.035.051.949.122,2.283.213,3.984.214,3.5.518,8.5.894,14.679.813,12.446,1.935,29.627,3.184,48.748l.016.252.252.022,2.764.233c9.867.813,19.272,1.545,27.843,2.023,2.144.114,4.233.217,6.274.245.511,0,1.018,0,1.527-.018a5.6,5.6,0,0,0,.783-.077.708.708,0,0,0,.279-.111.239.239,0,0,0,.108-.138.339.339,0,0,0,.019-.159c-.019-.06-.175.007-.007-.056l0-.049a2.455,2.455,0,0,1,.018-.313c.108-.954.289-1.916.457-2.85.7-3.745,1.428-7.224,2.089-10.4,1.34-6.318,2.428-11.444,3.19-15.031.366-1.747.653-3.118.858-4.089.087-.444.156-.8.21-1.068a1.8,1.8,0,0,0,.052-.367" transform="translate(43.924 75.203)" fill="#455a64"/>
        <path id="Trazado_2661" data-name="Trazado 2661" d="M137.97,194.724a4.506,4.506,0,0,0-.889.759,31.782,31.782,0,0,0-2.186,2.312,45.414,45.414,0,0,0-9.629,18.488c-.324,1.3-.539,2.371-.642,3.117a4.415,4.415,0,0,0-.111,1.163c.1.018.411-1.61,1.154-4.169a52.4,52.4,0,0,1,9.547-18.33c1.671-2.077,2.825-3.267,2.755-3.337" transform="translate(44.197 69.126)" fill="#455a64"/>
        <path id="Trazado_2662" data-name="Trazado 2662" d="M104.307,280.543a4.067,4.067,0,0,0-.192-1.1c-.156-.7-.431-1.7-.812-2.917a60.607,60.607,0,0,0-9.054-17.741c-.766-1.024-1.412-1.833-1.886-2.368s-.744-.825-.775-.8c-.073.058.886,1.312,2.322,3.409a76.046,76.046,0,0,1,9,17.633c.858,2.394,1.309,3.906,1.4,3.882" transform="translate(32.512 90.745)" fill="#455a64"/>
        <path id="Trazado_2663" data-name="Trazado 2663" d="M67.7,271.08c-.093-.03-.489,1.153-1.322,2.973A33.989,33.989,0,0,1,56.937,286.3c-1.547,1.267-2.591,1.951-2.539,2.034a2.58,2.58,0,0,0,.8-.382,19.486,19.486,0,0,0,2-1.324,29.046,29.046,0,0,0,9.573-12.41,19.586,19.586,0,0,0,.771-2.271,2.562,2.562,0,0,0,.168-.866" transform="translate(19.311 96.234)" fill="#455a64"/>
        <path id="Trazado_2664" data-name="Trazado 2664" d="M178.46,335.17c17.092-.875,21.409-.327,38.5-1.2,4.175-.214,19.362.316,22.853-1.984,3.182-2.095,7.259-4.047,8.093-7.764,1.405-6.263-.331-13.351-6.091-17.267a13.926,13.926,0,0,0-6.718-2.3c-10.095-.808-19.332,6.562-29.424,4.378-2.726-.591-5.177-2.11-7.89-2.761-3.963-.954-8.2.038-11.82,1.906s-4.462,2.183-4.462,2.183l-17.966-6.084L157.922,335.7Z" transform="translate(56.062 108.019)" fill="#fafafa"/>
        <path id="Trazado_2665" data-name="Trazado 2665" d="M164.809,298.844l9.444,3.084a2.966,2.966,0,0,1,1.977,3.447l-7.308,33.7a2.965,2.965,0,0,1-3.225,2.318l-9.6-1.072a2.964,2.964,0,0,1-2.573-3.553l7.466-35.712a2.965,2.965,0,0,1,3.822-2.211" transform="translate(54.477 106.037)" fill="#fafafa"/>
        <path id="Trazado_2666" data-name="Trazado 2666" d="M164.719,338.788a32.074,32.074,0,0,0,1.749-5.051c.958-3.159,2.173-7.557,3.257-12.481s1.8-9.439,2.187-12.719c.2-1.64.324-2.97.379-3.893a4.929,4.929,0,0,0,.009-1.44,42.474,42.474,0,0,0-.957,5.253c-.534,3.248-1.336,7.721-2.412,12.626s-2.2,9.309-3.016,12.5a38.156,38.156,0,0,0-1.2,5.2" transform="translate(58.47 107.637)" fill="#263238"/>
        <path id="Trazado_2667" data-name="Trazado 2667" d="M173,307.686c.154-.129-2.724-2.527-7.146-3.2-4.415-.724-7.893.668-7.786.837.051.249,3.465-.732,7.66-.035,4.2.634,7.145,2.622,7.272,2.4" transform="translate(56.113 108.018)" fill="#263238"/>
        <path id="Trazado_2668" data-name="Trazado 2668" d="M172.5,317.177c.065-.209-3.461-1.463-7.947-2.5s-8.2-1.476-8.237-1.26,3.595,1.009,8.053,2.05,8.065,1.934,8.131,1.713" transform="translate(55.492 111.243)" fill="#263238"/>
        <path id="Trazado_2669" data-name="Trazado 2669" d="M168.819,327.463c0-.256-3.679.179-7.722-1.545-4.073-1.654-6.356-4.57-6.539-4.389-.076.056.378.862,1.417,1.927a14.976,14.976,0,0,0,10.477,4.36,5.074,5.074,0,0,0,2.367-.354" transform="translate(54.865 114.14)" fill="#263238"/>
        <path id="Trazado_2670" data-name="Trazado 2670" d="M127.758,279.185l.714,14.2,28.344,13.6,4.715-23.715Z" transform="translate(45.354 99.111)" fill="#fafafa"/>
        <path id="Trazado_2671" data-name="Trazado 2671" d="M167.416,278l-2.125,9.894a3.019,3.019,0,0,1-3.282,2.367L127.1,286.427a3.021,3.021,0,0,1-2.69-3.023l.068-9.841a3.02,3.02,0,0,1,3.327-2.984l36.969,3.78A3.02,3.02,0,0,1,167.416,278" transform="translate(44.165 96.05)" fill="#fafafa"/>
        <path id="Trazado_2672" data-name="Trazado 2672" d="M125.394,282.223a32.631,32.631,0,0,0,5.3,1.237c3.3.635,7.886,1.4,12.989,1.977s9.752.821,13.115.869c1.683.024,3.043.014,3.984-.028a5.06,5.06,0,0,0,1.461-.141,42.966,42.966,0,0,0-5.421-.415c-3.348-.2-7.965-.535-13.046-1.106s-9.664-1.244-12.984-1.732a38.81,38.81,0,0,0-5.4-.661" transform="translate(44.515 100.18)" fill="#263238"/>
        <path id="Trazado_2673" data-name="Trazado 2673" d="M148.83,288.271c.146.142,2.271-3.027,2.488-7.579.266-4.549-1.512-7.925-1.673-7.8-.247.079,1.108,3.432.848,7.755-.2,4.325-1.9,7.518-1.663,7.622" transform="translate(52.827 96.877)" fill="#263238"/>
        <path id="Trazado_2674" data-name="Trazado 2674" d="M139.245,288.8c.218.043,1.115-3.66,1.694-8.316s.626-8.466.4-8.477-.642,3.748-1.224,8.374-1.1,8.375-.874,8.419" transform="translate(49.413 96.562)" fill="#263238"/>
        <path id="Trazado_2675" data-name="Trazado 2675" d="M129.219,286.159c.26-.027-.57-3.709.747-7.986,1.245-4.3,3.957-6.924,3.755-7.089-.065-.07-.835.474-1.8,1.64A15.263,15.263,0,0,0,128.61,283.8a5.165,5.165,0,0,0,.608,2.36" transform="translate(45.628 96.233)" fill="#263238"/>
        <path id="Trazado_2676" data-name="Trazado 2676" d="M85.834,202.286s14.475,2.037,15.4,2.928S120.8,227.982,120.8,227.982L111.919,246.4s-14.742-7.589-16.431-8.466a26.079,26.079,0,0,0-5.2-1.561s-16.452-2.238-17.557-4.19-.507-2.42.7-2.749,11.041.584,13.236.94a33.186,33.186,0,0,0,6.528-.137s-6.844-1.444-8.4-1.953-16.877-3.6-16.69-6.333,2.065-3.772,11.667-1.39a68.362,68.362,0,0,0,16.149,2.251l-21.26-6.923s-8.56-2.554-5.878-5.041S89.8,212.986,89.8,212.986l8.111,2.869-2.379-4.812s-11.516-3.154-13.008-4.268c-1.846-1.377-2.129-2.684-.787-3.886s4.1-.6,4.1-.6" transform="translate(24.18 71.759)" fill="#ffc09d"/>
        <path id="Trazado_2677" data-name="Trazado 2677" d="M46.116,185.234a7.343,7.343,0,0,1-.187,1.625l-.725,4.383c-.618,3.7-1.427,8.813-2.167,14.484s-1.26,10.826-1.608,14.559c-.167,1.752-.306,3.232-.419,4.423a7.273,7.273,0,0,1-.236,1.618,7.3,7.3,0,0,1-.039-1.634c.019-1.051.084-2.57.2-4.444.222-3.751.669-8.924,1.406-14.612s1.631-10.8,2.375-14.484c.371-1.841.7-3.325.947-4.347a7.321,7.321,0,0,1,.455-1.57" transform="translate(14.458 65.758)" fill="#263238"/>
        <path id="Trazado_2678" data-name="Trazado 2678" d="M123.808,194.271c-.042-.371-3.61-22.631-5.278-30.5l-26.505,4.016c-.373,3.287-.495,14.764-.409,18.63a17.1,17.1,0,0,0,3.642,10.775c2.512,2.94,6.661,4.638,10.379,3.577,2.16,2.847,5.152,5.279,8.683,5.824s7.555-1.285,8.677-4.677a18.87,18.87,0,0,0,.81-7.642" transform="translate(32.514 58.138)" fill="#263238"/>
        <path id="Trazado_2679" data-name="Trazado 2679" d="M95.88,190.333l-4.222,40.491a2.542,2.542,0,0,1-2.73,2.271L63.84,231.09a2.541,2.541,0,0,1-2.333-2.711l3-42.565a2.54,2.54,0,0,1,2.924-2.332l26.309,4.076a2.542,2.542,0,0,1,2.138,2.775" transform="translate(21.833 65.125)" fill="#263238"/>
        <path id="Trazado_2680" data-name="Trazado 2680" d="M81.381,198.507s-14.614-.363-15.677.365-23.027,19.253-23.027,19.253l5.741,19.62s15.787-5.07,17.6-5.657a26.015,26.015,0,0,1,5.383-.69s16.6.491,18.005-1.255.9-2.3-.241-2.827-10.988-1.234-13.211-1.243a33.079,33.079,0,0,1-6.417-1.2s6.988-.3,8.6-.55,17.237-.781,17.5-3.512-1.42-4.06-11.282-3.283a68.332,68.332,0,0,1-16.3-.427l22.107-3.344s8.863-1.118,6.625-4.009-21.074-1.331-21.074-1.331l-8.471,1.5,3.135-4.355s11.878-1.225,13.532-2.079c2.046-1.057,2.541-2.3,1.413-3.7s-3.943-1.267-3.943-1.267" transform="translate(15.15 70.438)" fill="#ffc09d"/>
        <path id="Trazado_2681" data-name="Trazado 2681" d="M24.7,209.812l24.5,9.15-.449,3.4,7.379-8.778,6.8,17.669s-11.4,22.4-13.858,28.145c-7.1,16.58-19.652,25.263-28.646,21.58C9.633,276.557,3.366,265.123,8.31,252.446,11.255,244.9,24.7,209.812,24.7,209.812" transform="translate(2.341 74.483)" fill="#ffc09d"/>
        <path id="Trazado_2682" data-name="Trazado 2682" d="M42.677,218.179s.2-.194.6-.549l1.8-1.557c1.607-1.371,3.946-3.364,6.943-5.923l11.012-9.283,1.648-1.363c.279-.23.564-.462.867-.694a3.153,3.153,0,0,1,1.156-.3c1.505-.156,3.047-.19,4.637-.222,3.177-.049,6.531-.018,10.05.053H81.37a7.605,7.605,0,0,1,2.653.373,3.539,3.539,0,0,1,1.228.7,3.054,3.054,0,0,1,.791,1.22,1.863,1.863,0,0,1-.129,1.507,3.4,3.4,0,0,1-1.016,1.073,5.068,5.068,0,0,1-1.291.7,14.351,14.351,0,0,1-1.4.35c-3.759.714-7.707,1.157-11.8,1.611l.184-.106-3.131,4.359-.262-.417,8.469-1.508.026,0c3.561-.271,7.21-.442,10.947-.427a54.452,54.452,0,0,1,5.664.287,17.362,17.362,0,0,1,2.859.535,4.792,4.792,0,0,1,1.393.619,1.976,1.976,0,0,1,.877,1.393,1.76,1.76,0,0,1-.779,1.469,5.965,5.965,0,0,1-1.335.752,16.942,16.942,0,0,1-2.855.869c-1.95.424-3.917.63-5.883.957L74.6,216.46l-6.5.984.011-.58a70.835,70.835,0,0,0,15.078.5,65.307,65.307,0,0,1,7.4-.259,10.54,10.54,0,0,1,3.646.675,2.743,2.743,0,0,1,1.448,1.3,3.364,3.364,0,0,1,.209,1.927,1.458,1.458,0,0,1-.631.854,4.2,4.2,0,0,1-.825.461,11.111,11.111,0,0,1-1.71.572,33.046,33.046,0,0,1-3.446.676c-2.293.341-4.561.551-6.794.729l-3.317.244c-1.076.08-2.18.249-3.259.3-2.161.144-4.282.245-6.363.337l.06-.5a27.22,27.22,0,0,0,7.019,1.221c2.358.1,4.646.274,6.879.47,1.117.1,2.218.209,3.3.344.543.068,1.083.144,1.619.238a5.236,5.236,0,0,1,.831.217,3.736,3.736,0,0,1,.736.427,1.178,1.178,0,0,1,.478.81,1.677,1.677,0,0,1-.2.873,4.807,4.807,0,0,1-.428.7l-.243.316a1.245,1.245,0,0,1-.352.3,9.362,9.362,0,0,1-3.03.725,101.442,101.442,0,0,1-11.2.379q-1.3-.02-2.542-.041a18.787,18.787,0,0,0-2.415.038,17.491,17.491,0,0,0-4.42.728l-12.71,4.012-3.358,1.038-.863.257a1.628,1.628,0,0,1-.3.073,1.688,1.688,0,0,1,.285-.112l.851-.3,3.333-1.111,12.665-4.148c2.778-.927,6.039-.859,9.473-.8a102.18,102.18,0,0,0,11.148-.432,9.25,9.25,0,0,0,2.855-.678.832.832,0,0,0,.237-.2l.228-.3a4.157,4.157,0,0,0,.385-.633c.225-.446.23-.87-.164-1.145a3.27,3.27,0,0,0-.644-.367,5.122,5.122,0,0,0-.726-.18c-.522-.091-1.054-.164-1.593-.229-1.077-.131-2.176-.234-3.289-.331-2.226-.188-4.518-.355-6.855-.446a27.787,27.787,0,0,1-7.144-1.221.256.256,0,0,1,.053-.5h.007c2.076-.1,4.2-.2,6.348-.352,1.081-.05,2.135-.218,3.253-.3l3.317-.251c2.225-.18,4.484-.394,6.753-.737a33.014,33.014,0,0,0,3.386-.668,10.675,10.675,0,0,0,1.623-.546c.485-.22,1.061-.538,1.134-.92a2.849,2.849,0,0,0-.169-1.562A2.181,2.181,0,0,0,94,218.3a10.111,10.111,0,0,0-3.442-.621,64.984,64.984,0,0,0-7.329.266A71.08,71.08,0,0,1,68,217.441a.292.292,0,0,1,0-.577l.009,0,6.5-.984L86.5,214.066c1.967-.324,3.944-.534,5.837-.944a16.168,16.168,0,0,0,2.755-.835,5.434,5.434,0,0,0,1.2-.671,1.2,1.2,0,0,0,.562-.972c-.091-.794-.974-1.266-1.859-1.5a16.914,16.914,0,0,0-2.759-.518,54.079,54.079,0,0,0-5.6-.29c-3.711-.02-7.358.145-10.9.409l.024,0-8.473,1.492a.265.265,0,0,1-.262-.417c1.091-1.514,2.168-3.005,3.141-4.352a.259.259,0,0,1,.183-.107c4.077-.443,8.038-.877,11.753-1.572.462-.093.919-.2,1.348-.329a4.635,4.635,0,0,0,1.165-.627,1.818,1.818,0,0,0,.978-2.046,2.625,2.625,0,0,0-1.728-1.637,7.2,7.2,0,0,0-2.477-.356h-.018c-3.512-.084-6.863-.129-10.032-.095-1.581.024-3.127.05-4.6.2a3.024,3.024,0,0,0-.984.233l-.848.672-1.654,1.352-11.077,9.2-7.022,5.831-1.84,1.508c-.416.337-.641.5-.641.5" transform="translate(15.15 70.383)" fill="#ff9b6c"/>
        <path id="Trazado_2683" data-name="Trazado 2683" d="M50.89,212.961c.152.123-6.744,8.845-15.4,19.479S19.7,251.6,19.545,251.477s6.742-8.844,15.4-19.482,15.8-19.157,15.946-19.034" transform="translate(6.938 75.601)" fill="#ff9b6c"/>
      </g>
    </g>
    <g id="_" data-name="+" transform="translate(1063.903 80)">
      <g id="Grupo_218" data-name="Grupo 218" transform="translate(0 0)">
        <g id="Grupo_209" data-name="Grupo 209" transform="translate(16.764 790)">
          <g id="Grupo_172" data-name="Grupo 172" transform="translate(656.236 46)" clip-path="url(#clip-path-2)">
            <path id="Trazado_2297" data-name="Trazado 2297" d="M26.515,0A2.888,2.888,0,0,1,29.4,2.888v8.178a2.888,2.888,0,1,1-5.775,0V2.888A2.888,2.888,0,0,1,26.515,0" transform="translate(-8.466 22.144)" fill="#e5e5e5"/>
            <path id="Trazado_2298" data-name="Trazado 2298" d="M26.515,34.51A2.888,2.888,0,0,1,29.4,37.4v8.178a2.888,2.888,0,1,1-5.775,0V37.4a2.888,2.888,0,0,1,2.888-2.888" transform="translate(-8.466 -34.51)" fill="#e5e5e5"/>
            <path id="Trazado_2299" data-name="Trazado 2299" d="M37.4,23.628h8.177a2.888,2.888,0,1,1,0,5.775H37.4a2.888,2.888,0,1,1,0-5.775" transform="translate(-34.511 -8.467)" fill="#e5e5e5"/>
            <path id="Trazado_2300" data-name="Trazado 2300" d="M2.888,23.628h8.177a2.888,2.888,0,0,1,0,5.775H2.888a2.888,2.888,0,0,1,0-5.775" transform="translate(22.145 -8.467)" fill="#e5e5e5"/>
          </g>
          <g id="Grupo_177" data-name="Grupo 177" transform="translate(0 112.764)" clip-path="url(#clip-path-3)">
            <path id="Trazado_2301" data-name="Trazado 2301" d="M25.414,0A1.787,1.787,0,0,1,27.2,1.787v5.06a1.787,1.787,0,1,1-3.573,0V1.787A1.787,1.787,0,0,1,25.414,0" transform="translate(-14.247 13.701)" fill="#e5e5e5"/>
            <path id="Trazado_2302" data-name="Trazado 2302" d="M25.414,34.51A1.787,1.787,0,0,1,27.2,36.3v5.06a1.787,1.787,0,1,1-3.573,0V36.3a1.787,1.787,0,0,1,1.787-1.787" transform="translate(-14.247 -34.51)" fill="#e5e5e5"/>
            <path id="Trazado_2303" data-name="Trazado 2303" d="M36.3,23.628h5.059a1.787,1.787,0,1,1,0,3.573H36.3a1.787,1.787,0,1,1,0-3.573" transform="translate(-34.511 -14.248)" fill="#e5e5e5"/>
            <path id="Trazado_2304" data-name="Trazado 2304" d="M1.787,23.628H6.846a1.787,1.787,0,0,1,0,3.573H1.787a1.787,1.787,0,0,1,0-3.573" transform="translate(13.701 -14.248)" fill="#e5e5e5"/>
          </g>
        </g>
        <g id="Grupo_206" data-name="Grupo 206" transform="translate(734.049 79.001)">
          <g id="Grupo_172-2" data-name="Grupo 172" clip-path="url(#clip-path-4)">
            <path id="Trazado_2297-2" data-name="Trazado 2297" d="M25.071,0a1.444,1.444,0,0,1,1.444,1.444V5.533a1.444,1.444,0,1,1-2.888,0V1.444A1.444,1.444,0,0,1,25.071,0" transform="translate(-16.046 11.072)" fill="#e5e5e5"/>
            <path id="Trazado_2298-2" data-name="Trazado 2298" d="M25.071,34.51a1.444,1.444,0,0,1,1.444,1.444v4.089a1.444,1.444,0,1,1-2.888,0V35.954a1.444,1.444,0,0,1,1.444-1.444" transform="translate(-16.046 -34.51)" fill="#e5e5e5"/>
            <path id="Trazado_2299-2" data-name="Trazado 2299" d="M35.955,23.628h4.089a1.444,1.444,0,0,1,0,2.888H35.955a1.444,1.444,0,0,1,0-2.888" transform="translate(-34.511 -16.048)" fill="#e5e5e5"/>
            <path id="Trazado_2300-2" data-name="Trazado 2300" d="M1.444,23.628H5.532a1.444,1.444,0,0,1,0,2.888H1.444a1.444,1.444,0,0,1,0-2.888" transform="translate(11.072 -16.048)" fill="#e5e5e5"/>
          </g>
        </g>
        <g id="Grupo_205" data-name="Grupo 205">
          <g id="Grupo_172-3" data-name="Grupo 172" clip-path="url(#clip-path-2)">
            <path id="Trazado_2297-3" data-name="Trazado 2297" d="M26.515,0A2.888,2.888,0,0,1,29.4,2.888v8.178a2.888,2.888,0,1,1-5.775,0V2.888A2.888,2.888,0,0,1,26.515,0" transform="translate(-8.466 22.144)" fill="#e5e5e5"/>
            <path id="Trazado_2298-3" data-name="Trazado 2298" d="M26.515,34.51A2.888,2.888,0,0,1,29.4,37.4v8.178a2.888,2.888,0,1,1-5.775,0V37.4a2.888,2.888,0,0,1,2.888-2.888" transform="translate(-8.466 -34.51)" fill="#e5e5e5"/>
            <path id="Trazado_2299-3" data-name="Trazado 2299" d="M37.4,23.628h8.177a2.888,2.888,0,1,1,0,5.775H37.4a2.888,2.888,0,1,1,0-5.775" transform="translate(-34.511 -8.467)" fill="#e5e5e5"/>
            <path id="Trazado_2300-3" data-name="Trazado 2300" d="M2.888,23.628h8.177a2.888,2.888,0,0,1,0,5.775H2.888a2.888,2.888,0,0,1,0-5.775" transform="translate(22.145 -8.467)" fill="#e5e5e5"/>
          </g>
        </g>
        <g id="Grupo_208" data-name="Grupo 208" transform="translate(-24.903 508.048)">
          <g id="Grupo_172-4" data-name="Grupo 172" clip-path="url(#clip-path-6)">
            <path id="Trazado_2297-4" data-name="Trazado 2297" d="M25.071,0a1.444,1.444,0,0,1,1.444,1.444V5.533a1.444,1.444,0,1,1-2.887,0V1.444A1.444,1.444,0,0,1,25.071,0" transform="translate(-16.046 11.072)" fill="#e5e5e5"/>
            <path id="Trazado_2298-4" data-name="Trazado 2298" d="M25.071,34.51a1.444,1.444,0,0,1,1.444,1.444v4.089a1.444,1.444,0,1,1-2.887,0V35.954a1.444,1.444,0,0,1,1.444-1.444" transform="translate(-16.046 -34.51)" fill="#e5e5e5"/>
            <path id="Trazado_2299-4" data-name="Trazado 2299" d="M35.955,23.628h4.089a1.444,1.444,0,0,1,0,2.887H35.955a1.444,1.444,0,1,1,0-2.887" transform="translate(-34.511 -16.048)" fill="#e5e5e5"/>
            <path id="Trazado_2300-4" data-name="Trazado 2300" d="M1.444,23.628H5.532a1.444,1.444,0,0,1,0,2.887H1.444a1.444,1.444,0,0,1,0-2.887" transform="translate(11.072 -16.048)" fill="#e5e5e5"/>
          </g>
        </g>
      </g>
    </g>
  </g>
</svg>
