<svg xmlns="http://www.w3.org/2000/svg" xmlns:xlink="http://www.w3.org/1999/xlink" width="752.097" height="925.097" viewBox="0 0 752.097 925.097">
  <defs>
    <clipPath id="clip-path">
      <rect id="Rectángulo_75" data-name="Rectángulo 75" width="36.097" height="36.097" fill="none"/>
    </clipPath>
    <clipPath id="clip-path-2">
      <rect id="Rectángulo_76" data-name="Rectángulo 76" width="22.333" height="22.333" fill="none"/>
    </clipPath>
    <clipPath id="clip-path-3">
      <rect id="Rectángulo_75-2" data-name="Rectángulo 75" width="18.049" height="18.049" fill="none"/>
    </clipPath>
    <clipPath id="clip-path-5">
      <rect id="Rectángulo_75-4" data-name="Rectángulo 75" width="18.048" height="18.048" fill="none"/>
    </clipPath>
    <clipPath id="clip-path-6">
      <rect id="Rectángulo_95" data-name="Rectángulo 95" width="639.798" height="536.363" fill="none"/>
    </clipPath>
    <clipPath id="clip-path-8">
      <rect id="Rectángulo_78" data-name="Rectángulo 78" width="3.563" height="0.376" fill="none"/>
    </clipPath>
    <clipPath id="clip-path-11">
      <rect id="Rectángulo_90" data-name="Rectángulo 90" width="52.726" height="149.813" fill="none"/>
    </clipPath>
    <clipPath id="clip-path-13">
      <rect id="Rectángulo_93" data-name="Rectángulo 93" width="77.58" height="61.018" fill="none"/>
    </clipPath>
  </defs>
  <g id="ilustracion" transform="translate(-1063.903 -55)">
    <g id="Grupo_219" data-name="Grupo 219">
      <g id="Grupo_218" data-name="Grupo 218">
        <g id="Grupo_209" data-name="Grupo 209" transform="translate(1111.903 154)">
          <g id="Grupo_172" data-name="Grupo 172" transform="translate(0 0)" clip-path="url(#clip-path)">
            <path id="Trazado_2297" data-name="Trazado 2297" d="M26.515,13.953a2.888,2.888,0,0,1-2.888-2.888V2.888a2.888,2.888,0,1,1,5.775,0v8.178a2.888,2.888,0,0,1-2.888,2.888" transform="translate(-8.466 0)" fill="#e5e5e5"/>
            <path id="Trazado_2298" data-name="Trazado 2298" d="M26.515,48.463a2.888,2.888,0,0,1-2.888-2.888V37.4a2.888,2.888,0,1,1,5.775,0v8.178a2.888,2.888,0,0,1-2.888,2.888" transform="translate(-8.466 -12.366)" fill="#e5e5e5"/>
            <path id="Trazado_2299" data-name="Trazado 2299" d="M45.576,29.4H37.4a2.888,2.888,0,1,1,0-5.775h8.177a2.888,2.888,0,1,1,0,5.775" transform="translate(-12.366 -8.467)" fill="#e5e5e5"/>
            <path id="Trazado_2300" data-name="Trazado 2300" d="M11.065,29.4H2.888a2.888,2.888,0,0,1,0-5.775h8.177a2.888,2.888,0,0,1,0,5.775" transform="translate(0 -8.467)" fill="#e5e5e5"/>
          </g>
          <g id="Grupo_177" data-name="Grupo 177" transform="translate(665 -99)" clip-path="url(#clip-path-2)">
            <path id="Trazado_2301" data-name="Trazado 2301" d="M25.414,8.633a1.787,1.787,0,0,1-1.787-1.787V1.787a1.787,1.787,0,1,1,3.573,0v5.06a1.787,1.787,0,0,1-1.787,1.787" transform="translate(-14.247 0)" fill="#e5e5e5"/>
            <path id="Trazado_2302" data-name="Trazado 2302" d="M25.414,43.143a1.787,1.787,0,0,1-1.787-1.787V36.3a1.787,1.787,0,1,1,3.573,0v5.06a1.787,1.787,0,0,1-1.787,1.787" transform="translate(-14.247 -20.81)" fill="#e5e5e5"/>
            <path id="Trazado_2303" data-name="Trazado 2303" d="M41.357,27.2H36.3a1.787,1.787,0,1,1,0-3.573h5.059a1.787,1.787,0,1,1,0,3.573" transform="translate(-20.81 -14.248)" fill="#e5e5e5"/>
            <path id="Trazado_2304" data-name="Trazado 2304" d="M6.846,27.2H1.787a1.787,1.787,0,0,1,0-3.573H6.846a1.787,1.787,0,0,1,0,3.573" transform="translate(0 -14.248)" fill="#e5e5e5"/>
          </g>
        </g>
        <g id="Grupo_206" data-name="Grupo 206" transform="translate(1063.903 883.047)">
          <g id="Grupo_172-2" data-name="Grupo 172" transform="translate(0 0)" clip-path="url(#clip-path-3)">
            <path id="Trazado_2297-2" data-name="Trazado 2297" d="M25.071,6.977a1.444,1.444,0,0,1-1.444-1.444V1.444a1.444,1.444,0,1,1,2.888,0V5.533a1.444,1.444,0,0,1-1.444,1.444" transform="translate(-16.047 0)" fill="#e5e5e5"/>
            <path id="Trazado_2298-2" data-name="Trazado 2298" d="M25.071,41.487a1.444,1.444,0,0,1-1.444-1.444V35.954a1.444,1.444,0,1,1,2.888,0v4.089a1.444,1.444,0,0,1-1.444,1.444" transform="translate(-16.047 -23.438)" fill="#e5e5e5"/>
            <path id="Trazado_2299-2" data-name="Trazado 2299" d="M40.043,26.516H35.955a1.444,1.444,0,0,1,0-2.888h4.089a1.444,1.444,0,0,1,0,2.888" transform="translate(-23.439 -16.047)" fill="#e5e5e5"/>
            <path id="Trazado_2300-2" data-name="Trazado 2300" d="M5.532,26.516H1.444a1.444,1.444,0,0,1,0-2.888H5.532a1.444,1.444,0,0,1,0,2.888" transform="translate(0 -16.047)" fill="#e5e5e5"/>
          </g>
        </g>
        <g id="Grupo_205" data-name="Grupo 205" transform="translate(1779.903 944)">
          <g id="Grupo_172-3" data-name="Grupo 172" transform="translate(0 0)" clip-path="url(#clip-path)">
            <path id="Trazado_2297-3" data-name="Trazado 2297" d="M26.515,13.953a2.888,2.888,0,0,1-2.888-2.888V2.888a2.888,2.888,0,1,1,5.775,0v8.178a2.888,2.888,0,0,1-2.888,2.888" transform="translate(-8.466 0)" fill="#e5e5e5"/>
            <path id="Trazado_2298-3" data-name="Trazado 2298" d="M26.515,48.463a2.888,2.888,0,0,1-2.888-2.888V37.4a2.888,2.888,0,1,1,5.775,0v8.178a2.888,2.888,0,0,1-2.888,2.888" transform="translate(-8.466 -12.366)" fill="#e5e5e5"/>
            <path id="Trazado_2299-3" data-name="Trazado 2299" d="M45.576,29.4H37.4a2.888,2.888,0,1,1,0-5.775h8.177a2.888,2.888,0,1,1,0,5.775" transform="translate(-12.366 -8.467)" fill="#e5e5e5"/>
            <path id="Trazado_2300-3" data-name="Trazado 2300" d="M11.065,29.4H2.888a2.888,2.888,0,0,1,0-5.775h8.177a2.888,2.888,0,0,1,0,5.775" transform="translate(0 -8.467)" fill="#e5e5e5"/>
          </g>
        </g>
        <g id="Grupo_208" data-name="Grupo 208" transform="translate(1761.854 454)">
          <g id="Grupo_172-4" data-name="Grupo 172" transform="translate(0 0)" clip-path="url(#clip-path-5)">
            <path id="Trazado_2297-4" data-name="Trazado 2297" d="M25.071,6.977a1.444,1.444,0,0,1-1.444-1.444V1.444a1.444,1.444,0,1,1,2.887,0V5.533a1.444,1.444,0,0,1-1.444,1.444" transform="translate(-16.047 0)" fill="#e5e5e5"/>
            <path id="Trazado_2298-4" data-name="Trazado 2298" d="M25.071,41.487a1.444,1.444,0,0,1-1.444-1.444V35.954a1.444,1.444,0,1,1,2.887,0v4.089a1.444,1.444,0,0,1-1.444,1.444" transform="translate(-16.047 -23.438)" fill="#e5e5e5"/>
            <path id="Trazado_2299-4" data-name="Trazado 2299" d="M40.043,26.515H35.955a1.444,1.444,0,0,1,0-2.887h4.089a1.444,1.444,0,1,1,0,2.887" transform="translate(-23.439 -16.047)" fill="#e5e5e5"/>
            <path id="Trazado_2300-4" data-name="Trazado 2300" d="M5.532,26.515H1.444a1.444,1.444,0,1,1,0-2.887H5.532a1.444,1.444,0,0,1,0,2.887" transform="translate(0 -16.047)" fill="#e5e5e5"/>
          </g>
        </g>
      </g>
    </g>
    <g id="Grupo_207" data-name="Grupo 207" transform="translate(1131.081 271.818)">
      <g id="Grupo_195" data-name="Grupo 195" clip-path="url(#clip-path-6)">
        <rect id="Rectángulo_77" data-name="Rectángulo 77" width="114.56" height="148.556" transform="translate(47.604 26.056)" fill="#ebebeb"/>
        <g id="Grupo_182" data-name="Grupo 182">
          <g id="Grupo_181" data-name="Grupo 181" clip-path="url(#clip-path-6)">
            <path id="Trazado_2305" data-name="Trazado 2305" d="M134.929,121.352a.963.963,0,0,0-.572.086,1.824,1.824,0,0,0-1,1.3,1.707,1.707,0,0,0,.162,1.206,2.065,2.065,0,0,0,1.1.944,2.12,2.12,0,0,0,1.667-.054A2.827,2.827,0,0,0,137.6,123.5a4.247,4.247,0,0,0-.44-4.112,4.336,4.336,0,0,0-1.752-1.621,2.685,2.685,0,0,0-1.255-.272,2.534,2.534,0,0,0-1.259.413,4.45,4.45,0,0,0-1.579,2.139,9.181,9.181,0,0,0-.547,2.7,10,10,0,0,0,1.32,5.557,35.64,35.64,0,0,0,3.428,4.564,13.47,13.47,0,0,1,2.6,4.5,6.275,6.275,0,0,1-.293,4.549,3.59,3.59,0,0,1-3.245,1.99,2.9,2.9,0,0,1-1.637-.517,2.256,2.256,0,0,1-.867-1.242,3.038,3.038,0,0,1,.438-2.409,2.037,2.037,0,0,1,1.258-.921,1.418,1.418,0,0,1,.416-.039.458.458,0,0,0,.147-.01c0-.007-.047-.016-.144-.028a1.226,1.226,0,0,0-.433,0,2.069,2.069,0,0,0-1.363.912,3.169,3.169,0,0,0-.521,2.545,2.475,2.475,0,0,0,.929,1.382,3.137,3.137,0,0,0,1.772.59,3.9,3.9,0,0,0,1.992-.5,3.828,3.828,0,0,0,1.534-1.609,6.571,6.571,0,0,0,.35-4.791,13.675,13.675,0,0,0-2.641-4.631,35.937,35.937,0,0,1-3.389-4.521,9.676,9.676,0,0,1-1.279-5.352,8.853,8.853,0,0,1,.515-2.585,4.112,4.112,0,0,1,1.433-1.979,2.169,2.169,0,0,1,2.185-.131,4.039,4.039,0,0,1,1.629,1.487,3.978,3.978,0,0,1,.464,3.829,2.589,2.589,0,0,1-1.174,1.235,1.9,1.9,0,0,1-1.492.072,1.88,1.88,0,0,1-1.018-.833,1.558,1.558,0,0,1-.176-1.091,1.779,1.779,0,0,1,.886-1.259,2.194,2.194,0,0,1,.54-.154" transform="translate(19.423 17.453)" fill="#e0e0e0"/>
            <path id="Trazado_2306" data-name="Trazado 2306" d="M134.007,112.034a.967.967,0,0,0,.572-.085,1.829,1.829,0,0,0,1-1.3,1.707,1.707,0,0,0-.162-1.206,2.069,2.069,0,0,0-1.1-.944,2.12,2.12,0,0,0-1.667.054,2.83,2.83,0,0,0-1.31,1.333,4.251,4.251,0,0,0,.44,4.114,4.341,4.341,0,0,0,1.752,1.619,2.685,2.685,0,0,0,1.255.272,2.534,2.534,0,0,0,1.259-.413,4.45,4.45,0,0,0,1.579-2.139,9.181,9.181,0,0,0,.547-2.7,10.008,10.008,0,0,0-1.32-5.557,35.639,35.639,0,0,0-3.428-4.564,13.47,13.47,0,0,1-2.6-4.5,6.275,6.275,0,0,1,.293-4.549,3.59,3.59,0,0,1,3.245-1.99A2.9,2.9,0,0,1,136,90a2.259,2.259,0,0,1,.867,1.242,3.038,3.038,0,0,1-.438,2.409,2.032,2.032,0,0,1-1.258.921,1.418,1.418,0,0,1-.416.039.457.457,0,0,0-.147.01c0,.007.047.016.144.028a1.226,1.226,0,0,0,.433,0,2.064,2.064,0,0,0,1.363-.912,3.169,3.169,0,0,0,.521-2.545,2.475,2.475,0,0,0-.929-1.382,3.145,3.145,0,0,0-1.772-.59,3.907,3.907,0,0,0-1.992.5,3.828,3.828,0,0,0-1.534,1.609,6.571,6.571,0,0,0-.35,4.791,13.675,13.675,0,0,0,2.641,4.631,35.938,35.938,0,0,1,3.389,4.521,9.676,9.676,0,0,1,1.279,5.352,8.853,8.853,0,0,1-.515,2.585,4.112,4.112,0,0,1-1.433,1.979,2.169,2.169,0,0,1-2.185.131,4.038,4.038,0,0,1-1.629-1.487,3.978,3.978,0,0,1-.464-3.829,2.594,2.594,0,0,1,1.174-1.235,1.9,1.9,0,0,1,1.492-.072,1.88,1.88,0,0,1,1.018.833,1.558,1.558,0,0,1,.176,1.091,1.779,1.779,0,0,1-.886,1.259,2.117,2.117,0,0,1-.54.154" transform="translate(19.341 13.254)" fill="#e0e0e0"/>
            <path id="Trazado_2307" data-name="Trazado 2307" d="M132.941,114.887a1.165,1.165,0,1,0,1.165-1.165,1.165,1.165,0,0,0-1.165,1.165" transform="translate(19.748 16.893)" fill="#e0e0e0"/>
            <path id="Trazado_2308" data-name="Trazado 2308" d="M132.5,87.864a1.165,1.165,0,1,0,1.165-1.165,1.165,1.165,0,0,0-1.165,1.165" transform="translate(19.683 12.879)" fill="#e0e0e0"/>
            <path id="Trazado_2309" data-name="Trazado 2309" d="M134.488,57.429a2.1,2.1,0,0,1-.54-.155,1.778,1.778,0,0,1-.886-1.262,1.564,1.564,0,0,1,.176-1.093,1.884,1.884,0,0,1,1.019-.836,1.905,1.905,0,0,1,1.494.075,2.6,2.6,0,0,1,1.171,1.24,4,4,0,0,1-.466,3.837,4.038,4.038,0,0,1-1.63,1.492,2.165,2.165,0,0,1-2.187-.136,4.138,4.138,0,0,1-1.431-1.987,8.921,8.921,0,0,1-.512-2.591,9.717,9.717,0,0,1,1.278-5.361,36.218,36.218,0,0,1,3.389-4.533A13.723,13.723,0,0,0,138,41.475a6.61,6.61,0,0,0-.346-4.8,3.829,3.829,0,0,0-1.533-1.616,3.89,3.89,0,0,0-1.993-.507,3.143,3.143,0,0,0-1.776.592,2.483,2.483,0,0,0-.929,1.385,3.184,3.184,0,0,0,.52,2.551,2.069,2.069,0,0,0,1.363.915,1.205,1.205,0,0,0,.434,0c.1-.011.145-.021.144-.028a.5.5,0,0,0-.147-.01,1.428,1.428,0,0,1-.417-.039A2.036,2.036,0,0,1,132.068,39a3.053,3.053,0,0,1-.436-2.414,2.259,2.259,0,0,1,.868-1.245,2.883,2.883,0,0,1,1.638-.518,3.589,3.589,0,0,1,3.246,2,6.311,6.311,0,0,1,.288,4.559,13.484,13.484,0,0,1-2.6,4.508,35.788,35.788,0,0,0-3.428,4.577,10.051,10.051,0,0,0-1.319,5.567,9.2,9.2,0,0,0,.546,2.7,4.464,4.464,0,0,0,1.575,2.148,2.528,2.528,0,0,0,1.261.417,2.662,2.662,0,0,0,1.257-.272,4.335,4.335,0,0,0,1.754-1.624,4.272,4.272,0,0,0,.442-4.12,2.83,2.83,0,0,0-1.309-1.339,2.112,2.112,0,0,0-1.669-.056,2.062,2.062,0,0,0-1.1.946,1.714,1.714,0,0,0-.162,1.208,1.834,1.834,0,0,0,1,1.3.963.963,0,0,0,.572.086" transform="translate(19.358 5.133)" fill="#e0e0e0"/>
            <path id="Trazado_2310" data-name="Trazado 2310" d="M134.135,66.771a2.1,2.1,0,0,1,.54.155,1.778,1.778,0,0,1,.886,1.262,1.564,1.564,0,0,1-.176,1.093,1.884,1.884,0,0,1-1.019.836,1.9,1.9,0,0,1-1.494-.075A2.6,2.6,0,0,1,131.7,68.8a4,4,0,0,1,.466-3.837,4.037,4.037,0,0,1,1.63-1.492,2.165,2.165,0,0,1,2.187.136,4.138,4.138,0,0,1,1.431,1.987,8.921,8.921,0,0,1,.512,2.591,9.717,9.717,0,0,1-1.278,5.361,36.216,36.216,0,0,1-3.389,4.533,13.723,13.723,0,0,0-2.641,4.642,6.61,6.61,0,0,0,.346,4.8,3.829,3.829,0,0,0,1.533,1.616,3.891,3.891,0,0,0,1.993.507,3.143,3.143,0,0,0,1.776-.591,2.483,2.483,0,0,0,.929-1.385,3.184,3.184,0,0,0-.52-2.551,2.069,2.069,0,0,0-1.363-.915,1.239,1.239,0,0,0-.434,0c-.1.013-.145.022-.144.029a.5.5,0,0,0,.147.01,1.425,1.425,0,0,1,.417.039,2.035,2.035,0,0,1,1.258.925,3.053,3.053,0,0,1,.436,2.414,2.263,2.263,0,0,1-.868,1.245,2.884,2.884,0,0,1-1.639.518,3.588,3.588,0,0,1-3.245-2,6.311,6.311,0,0,1-.288-4.559,13.484,13.484,0,0,1,2.6-4.508,35.788,35.788,0,0,0,3.428-4.577,10.051,10.051,0,0,0,1.319-5.567,9.218,9.218,0,0,0-.546-2.7,4.466,4.466,0,0,0-1.575-2.147,2.527,2.527,0,0,0-1.261-.417,2.675,2.675,0,0,0-1.257.271A4.345,4.345,0,0,0,131.9,64.8a4.272,4.272,0,0,0-.442,4.12,2.83,2.83,0,0,0,1.309,1.339,2.117,2.117,0,0,0,1.669.057,2.068,2.068,0,0,0,1.1-.948,1.714,1.714,0,0,0,.162-1.208,1.831,1.831,0,0,0-1-1.3.963.963,0,0,0-.572-.086" transform="translate(19.36 9.344)" fill="#e0e0e0"/>
            <path id="Trazado_2311" data-name="Trazado 2311" d="M132.5,60.754a1.165,1.165,0,1,1,1.165,1.167,1.167,1.167,0,0,1-1.165-1.167" transform="translate(19.683 8.851)" fill="#e0e0e0"/>
            <path id="Trazado_2312" data-name="Trazado 2312" d="M50.743,121.352a.963.963,0,0,0-.572.086,1.824,1.824,0,0,0-1,1.3,1.7,1.7,0,0,0,.163,1.206,2.062,2.062,0,0,0,1.1.944,2.12,2.12,0,0,0,1.667-.054,2.827,2.827,0,0,0,1.31-1.335,4.247,4.247,0,0,0-.44-4.112,4.336,4.336,0,0,0-1.752-1.621,2.685,2.685,0,0,0-1.255-.272,2.534,2.534,0,0,0-1.259.413,4.441,4.441,0,0,0-1.578,2.139,9.182,9.182,0,0,0-.548,2.7A10.008,10.008,0,0,0,47.9,128.3a35.64,35.64,0,0,0,3.428,4.564,13.47,13.47,0,0,1,2.6,4.5,6.275,6.275,0,0,1-.293,4.549,3.59,3.59,0,0,1-3.245,1.99,2.9,2.9,0,0,1-1.637-.517,2.256,2.256,0,0,1-.867-1.242,3.038,3.038,0,0,1,.438-2.409,2.037,2.037,0,0,1,1.258-.921,1.418,1.418,0,0,1,.416-.039.458.458,0,0,0,.147-.01c0-.007-.047-.016-.144-.028a1.226,1.226,0,0,0-.433,0,2.069,2.069,0,0,0-1.363.912,3.169,3.169,0,0,0-.521,2.545,2.475,2.475,0,0,0,.929,1.382,3.136,3.136,0,0,0,1.772.59,3.9,3.9,0,0,0,1.992-.5,3.828,3.828,0,0,0,1.534-1.609,6.571,6.571,0,0,0,.35-4.791,13.675,13.675,0,0,0-2.641-4.631,36.16,36.16,0,0,1-3.389-4.521,9.676,9.676,0,0,1-1.279-5.352,8.854,8.854,0,0,1,.515-2.585A4.112,4.112,0,0,1,48.9,118.2a2.169,2.169,0,0,1,2.185-.131,4.038,4.038,0,0,1,1.629,1.487,3.978,3.978,0,0,1,.464,3.829A2.589,2.589,0,0,1,52,124.617a1.9,1.9,0,0,1-1.492.072,1.88,1.88,0,0,1-1.018-.833,1.558,1.558,0,0,1-.176-1.091,1.779,1.779,0,0,1,.886-1.259,2.194,2.194,0,0,1,.54-.154" transform="translate(6.918 17.453)" fill="#e0e0e0"/>
            <path id="Trazado_2313" data-name="Trazado 2313" d="M49.821,112.034a.967.967,0,0,0,.572-.085,1.829,1.829,0,0,0,1-1.3,1.707,1.707,0,0,0-.162-1.206,2.065,2.065,0,0,0-1.1-.944,2.12,2.12,0,0,0-1.667.054,2.83,2.83,0,0,0-1.31,1.333,4.251,4.251,0,0,0,.44,4.114,4.348,4.348,0,0,0,1.752,1.619,2.685,2.685,0,0,0,1.255.272,2.53,2.53,0,0,0,1.259-.413,4.443,4.443,0,0,0,1.579-2.139,9.181,9.181,0,0,0,.547-2.7,10,10,0,0,0-1.32-5.557,35.64,35.64,0,0,0-3.428-4.564,13.47,13.47,0,0,1-2.6-4.5,6.275,6.275,0,0,1,.293-4.549,3.59,3.59,0,0,1,3.245-1.99A2.9,2.9,0,0,1,51.81,90a2.259,2.259,0,0,1,.867,1.242,3.038,3.038,0,0,1-.438,2.409,2.033,2.033,0,0,1-1.257.921,1.428,1.428,0,0,1-.417.039.457.457,0,0,0-.147.01c0,.007.047.016.144.028a1.226,1.226,0,0,0,.433,0,2.064,2.064,0,0,0,1.363-.912,3.169,3.169,0,0,0,.521-2.545,2.475,2.475,0,0,0-.929-1.382,3.142,3.142,0,0,0-1.772-.59,3.907,3.907,0,0,0-1.992.5,3.828,3.828,0,0,0-1.534,1.609,6.571,6.571,0,0,0-.35,4.791,13.694,13.694,0,0,0,2.641,4.631,35.937,35.937,0,0,1,3.389,4.521,9.676,9.676,0,0,1,1.279,5.352,8.854,8.854,0,0,1-.515,2.585,4.112,4.112,0,0,1-1.433,1.979,2.169,2.169,0,0,1-2.185.131,4.038,4.038,0,0,1-1.629-1.487A3.978,3.978,0,0,1,47.387,110a2.594,2.594,0,0,1,1.174-1.235,1.9,1.9,0,0,1,1.492-.072,1.88,1.88,0,0,1,1.018.833,1.558,1.558,0,0,1,.176,1.091,1.779,1.779,0,0,1-.886,1.259,2.116,2.116,0,0,1-.54.154" transform="translate(6.836 13.254)" fill="#e0e0e0"/>
            <path id="Trazado_2314" data-name="Trazado 2314" d="M48.755,114.887a1.165,1.165,0,1,0,1.165-1.165,1.165,1.165,0,0,0-1.165,1.165" transform="translate(7.243 16.893)" fill="#e0e0e0"/>
            <path id="Trazado_2315" data-name="Trazado 2315" d="M48.313,87.864A1.165,1.165,0,1,0,49.478,86.7a1.165,1.165,0,0,0-1.165,1.165" transform="translate(7.177 12.879)" fill="#e0e0e0"/>
            <path id="Trazado_2316" data-name="Trazado 2316" d="M50.3,57.429a2.1,2.1,0,0,1-.54-.155,1.778,1.778,0,0,1-.886-1.262,1.564,1.564,0,0,1,.176-1.093,1.884,1.884,0,0,1,1.019-.836,1.905,1.905,0,0,1,1.494.075,2.6,2.6,0,0,1,1.172,1.24,4.4,4.4,0,0,1-2.1,5.329,2.165,2.165,0,0,1-2.187-.136A4.138,4.138,0,0,1,47.023,58.6a8.921,8.921,0,0,1-.512-2.591,9.717,9.717,0,0,1,1.278-5.361,36.216,36.216,0,0,1,3.389-4.533,13.723,13.723,0,0,0,2.641-4.642,6.61,6.61,0,0,0-.346-4.8,3.829,3.829,0,0,0-1.533-1.616,3.891,3.891,0,0,0-1.993-.507,3.143,3.143,0,0,0-1.776.592,2.483,2.483,0,0,0-.929,1.385,3.184,3.184,0,0,0,.52,2.551A2.069,2.069,0,0,0,49.126,40a1.205,1.205,0,0,0,.434,0c.1-.011.145-.021.144-.028a.5.5,0,0,0-.147-.01,1.426,1.426,0,0,1-.417-.039A2.035,2.035,0,0,1,47.882,39a3.053,3.053,0,0,1-.436-2.414,2.263,2.263,0,0,1,.867-1.245,2.89,2.89,0,0,1,1.639-.518,3.589,3.589,0,0,1,3.246,2,6.317,6.317,0,0,1,.288,4.559,13.484,13.484,0,0,1-2.6,4.508,35.789,35.789,0,0,0-3.428,4.577,10.051,10.051,0,0,0-1.319,5.567,9.2,9.2,0,0,0,.546,2.7,4.464,4.464,0,0,0,1.575,2.148,2.528,2.528,0,0,0,1.261.417,2.662,2.662,0,0,0,1.257-.272A4.335,4.335,0,0,0,52.535,59.4a4.272,4.272,0,0,0,.442-4.12,2.83,2.83,0,0,0-1.309-1.339A2.112,2.112,0,0,0,50,53.885a2.062,2.062,0,0,0-1.1.946,1.714,1.714,0,0,0-.162,1.208,1.833,1.833,0,0,0,1,1.3.963.963,0,0,0,.572.086" transform="translate(6.852 5.133)" fill="#e0e0e0"/>
            <path id="Trazado_2317" data-name="Trazado 2317" d="M49.949,66.771a2.1,2.1,0,0,1,.54.155,1.778,1.778,0,0,1,.886,1.262,1.564,1.564,0,0,1-.176,1.093,1.884,1.884,0,0,1-1.019.836,1.905,1.905,0,0,1-1.494-.075,2.6,2.6,0,0,1-1.172-1.24,4,4,0,0,1,.466-3.837,4.037,4.037,0,0,1,1.63-1.492,2.165,2.165,0,0,1,2.187.136A4.138,4.138,0,0,1,53.228,65.6a8.92,8.92,0,0,1,.512,2.591,9.717,9.717,0,0,1-1.278,5.361,36.216,36.216,0,0,1-3.389,4.533,13.723,13.723,0,0,0-2.641,4.642,6.61,6.61,0,0,0,.346,4.8,3.829,3.829,0,0,0,1.533,1.616,3.891,3.891,0,0,0,1.993.507,3.143,3.143,0,0,0,1.776-.591,2.483,2.483,0,0,0,.929-1.385,3.184,3.184,0,0,0-.52-2.551,2.069,2.069,0,0,0-1.363-.915,1.232,1.232,0,0,0-.433,0c-.1.013-.146.022-.145.029a.5.5,0,0,0,.147.01,1.425,1.425,0,0,1,.417.039,2.035,2.035,0,0,1,1.258.925,3.053,3.053,0,0,1,.436,2.414,2.263,2.263,0,0,1-.868,1.245,2.884,2.884,0,0,1-1.639.518,3.588,3.588,0,0,1-3.245-2,6.311,6.311,0,0,1-.288-4.559,13.484,13.484,0,0,1,2.6-4.508,35.789,35.789,0,0,0,3.428-4.577,10.051,10.051,0,0,0,1.319-5.567,9.217,9.217,0,0,0-.546-2.7,4.466,4.466,0,0,0-1.575-2.147,2.527,2.527,0,0,0-1.261-.417,2.675,2.675,0,0,0-1.257.271A4.345,4.345,0,0,0,47.716,64.8a4.272,4.272,0,0,0-.442,4.12,2.83,2.83,0,0,0,1.309,1.339,2.117,2.117,0,0,0,1.669.057,2.068,2.068,0,0,0,1.1-.948,1.714,1.714,0,0,0,.162-1.208,1.831,1.831,0,0,0-1-1.3.963.963,0,0,0-.572-.086" transform="translate(6.855 9.344)" fill="#e0e0e0"/>
            <path id="Trazado_2318" data-name="Trazado 2318" d="M48.313,60.754a1.165,1.165,0,1,1,1.165,1.167,1.167,1.167,0,0,1-1.165-1.167" transform="translate(7.177 8.851)" fill="#e0e0e0"/>
            <path id="Trazado_2319" data-name="Trazado 2319" d="M98.747,145.351a2.1,2.1,0,0,1,.155-.54,1.778,1.778,0,0,1,1.262-.886,1.564,1.564,0,0,1,1.093.176,1.884,1.884,0,0,1,.836,1.019,1.9,1.9,0,0,1-.075,1.494,2.6,2.6,0,0,1-1.24,1.172,4.4,4.4,0,0,1-5.329-2.1,2.165,2.165,0,0,1,.136-2.187,4.138,4.138,0,0,1,1.987-1.431,8.921,8.921,0,0,1,2.591-.512,9.717,9.717,0,0,1,5.361,1.278,36.218,36.218,0,0,1,4.533,3.389,13.723,13.723,0,0,0,4.642,2.641,6.611,6.611,0,0,0,4.8-.346,3.829,3.829,0,0,0,1.616-1.533,3.891,3.891,0,0,0,.507-1.993,3.143,3.143,0,0,0-.592-1.776,2.483,2.483,0,0,0-1.385-.929,3.184,3.184,0,0,0-2.551.52,2.069,2.069,0,0,0-.915,1.363,1.2,1.2,0,0,0,0,.433q.017.146.028.145a.5.5,0,0,0,.01-.147,1.425,1.425,0,0,1,.039-.417,2.037,2.037,0,0,1,.925-1.258,3.053,3.053,0,0,1,2.414-.436,2.259,2.259,0,0,1,1.245.868,2.884,2.884,0,0,1,.518,1.639,3.59,3.59,0,0,1-2,3.245,6.317,6.317,0,0,1-4.559.288,13.484,13.484,0,0,1-4.508-2.6,35.868,35.868,0,0,0-4.577-3.428,10.051,10.051,0,0,0-5.567-1.319,9.238,9.238,0,0,0-2.7.544,4.473,4.473,0,0,0-2.148,1.576,2.527,2.527,0,0,0-.417,1.261,2.662,2.662,0,0,0,.272,1.257,4.335,4.335,0,0,0,1.624,1.754,4.272,4.272,0,0,0,4.12.442,2.83,2.83,0,0,0,1.339-1.309,2.112,2.112,0,0,0,.056-1.669,2.062,2.062,0,0,0-.946-1.1,1.714,1.714,0,0,0-1.208-.162,1.833,1.833,0,0,0-1.3,1,.963.963,0,0,0-.086.572" transform="translate(14.094 20.972)" fill="#e0e0e0"/>
            <path id="Trazado_2320" data-name="Trazado 2320" d="M70.369,145a.963.963,0,0,0,.086.572,1.831,1.831,0,0,0,1.3,1,1.714,1.714,0,0,0,1.208-.162,2.066,2.066,0,0,0,.946-1.1,2.112,2.112,0,0,0-.056-1.669,2.83,2.83,0,0,0-1.339-1.309,4.269,4.269,0,0,0-4.12.442,4.345,4.345,0,0,0-1.625,1.754,2.661,2.661,0,0,0-.271,1.257,2.527,2.527,0,0,0,.417,1.261,4.466,4.466,0,0,0,2.147,1.575,9.217,9.217,0,0,0,2.7.546,10.053,10.053,0,0,0,5.567-1.319,35.87,35.87,0,0,0,4.577-3.428,13.484,13.484,0,0,1,4.508-2.6,6.311,6.311,0,0,1,4.559.288,3.591,3.591,0,0,1,2,3.246,2.883,2.883,0,0,1-.518,1.638,2.264,2.264,0,0,1-1.245.868,3.053,3.053,0,0,1-2.414-.436,2.031,2.031,0,0,1-.925-1.258,1.428,1.428,0,0,1-.039-.417.5.5,0,0,0-.01-.147c-.007,0-.016.047-.029.144a1.239,1.239,0,0,0,0,.434,2.069,2.069,0,0,0,.915,1.363,3.182,3.182,0,0,0,2.55.52,2.485,2.485,0,0,0,1.386-.929,3.143,3.143,0,0,0,.592-1.776,3.891,3.891,0,0,0-.507-1.993,3.836,3.836,0,0,0-1.616-1.533,6.611,6.611,0,0,0-4.8-.346,13.723,13.723,0,0,0-4.642,2.641,36.22,36.22,0,0,1-4.533,3.389,9.719,9.719,0,0,1-5.363,1.278,8.936,8.936,0,0,1-2.591-.512,4.143,4.143,0,0,1-1.987-1.432,2.166,2.166,0,0,1-.134-2.186,4.048,4.048,0,0,1,1.492-1.631,4,4,0,0,1,3.837-.465,2.59,2.59,0,0,1,1.239,1.172,1.951,1.951,0,0,1-.76,2.513,1.564,1.564,0,0,1-1.093.176,1.778,1.778,0,0,1-1.262-.886,2.1,2.1,0,0,1-.155-.54" transform="translate(9.878 20.974)" fill="#e0e0e0"/>
            <path id="Trazado_2321" data-name="Trazado 2321" d="M92.264,143.363a1.165,1.165,0,1,1-1.168,1.165,1.167,1.167,0,0,1,1.168-1.165" transform="translate(13.532 21.296)" fill="#e0e0e0"/>
            <path id="Trazado_2322" data-name="Trazado 2322" d="M60.12,143.363a1.165,1.165,0,1,1-1.167,1.165,1.167,1.167,0,0,1,1.167-1.165" transform="translate(8.757 21.296)" fill="#e0e0e0"/>
            <path id="Trazado_2323" data-name="Trazado 2323" d="M122.819,143.363a1.165,1.165,0,1,1-1.168,1.165,1.166,1.166,0,0,1,1.168-1.165" transform="translate(18.071 21.296)" fill="#e0e0e0"/>
            <path id="Trazado_2324" data-name="Trazado 2324" d="M98.747,30.784a2.1,2.1,0,0,1,.155-.54,1.778,1.778,0,0,1,1.262-.886,1.564,1.564,0,0,1,1.093.176,1.952,1.952,0,0,1,.761,2.512,2.594,2.594,0,0,1-1.24,1.173,4,4,0,0,1-3.837-.466,4.045,4.045,0,0,1-1.492-1.63,2.165,2.165,0,0,1,.136-2.187A4.138,4.138,0,0,1,97.572,27.5a8.92,8.92,0,0,1,2.591-.512,9.717,9.717,0,0,1,5.361,1.278,36.217,36.217,0,0,1,4.533,3.389A13.723,13.723,0,0,0,114.7,34.3a6.61,6.61,0,0,0,4.8-.346,3.829,3.829,0,0,0,1.616-1.533,3.891,3.891,0,0,0,.507-1.993,3.143,3.143,0,0,0-.592-1.776,2.483,2.483,0,0,0-1.385-.929,3.184,3.184,0,0,0-2.551.52,2.069,2.069,0,0,0-.915,1.363,1.2,1.2,0,0,0,0,.433q.017.146.028.145a.5.5,0,0,0,.01-.147,1.425,1.425,0,0,1,.039-.417,2.037,2.037,0,0,1,.925-1.258,3.053,3.053,0,0,1,2.414-.436,2.263,2.263,0,0,1,1.245.867,2.89,2.89,0,0,1,.518,1.639,3.591,3.591,0,0,1-2,3.246,6.317,6.317,0,0,1-4.559.288,13.484,13.484,0,0,1-4.508-2.6,35.87,35.87,0,0,0-4.577-3.428,10.051,10.051,0,0,0-5.567-1.319,9.238,9.238,0,0,0-2.7.544A4.473,4.473,0,0,0,95.3,28.745a2.527,2.527,0,0,0-.417,1.261,2.662,2.662,0,0,0,.272,1.257,4.324,4.324,0,0,0,1.624,1.753,4.266,4.266,0,0,0,4.12.442,2.828,2.828,0,0,0,1.339-1.308,2.112,2.112,0,0,0,.056-1.669,2.062,2.062,0,0,0-.946-1.1,1.714,1.714,0,0,0-1.208-.162,1.835,1.835,0,0,0-1.3,1,.967.967,0,0,0-.086.573" transform="translate(14.094 3.953)" fill="#e0e0e0"/>
            <path id="Trazado_2325" data-name="Trazado 2325" d="M70.369,30.431a.963.963,0,0,0,.086.572,1.831,1.831,0,0,0,1.3,1,1.714,1.714,0,0,0,1.208-.162,2.062,2.062,0,0,0,.946-1.1,2.112,2.112,0,0,0-.056-1.669,2.83,2.83,0,0,0-1.339-1.309,4.272,4.272,0,0,0-4.12.442,4.345,4.345,0,0,0-1.625,1.754,2.661,2.661,0,0,0-.271,1.257,2.527,2.527,0,0,0,.417,1.261,4.466,4.466,0,0,0,2.147,1.575,9.217,9.217,0,0,0,2.7.546,10.053,10.053,0,0,0,5.567-1.319,35.87,35.87,0,0,0,4.577-3.428,13.484,13.484,0,0,1,4.508-2.6,6.317,6.317,0,0,1,4.559.288,3.591,3.591,0,0,1,2,3.246,2.883,2.883,0,0,1-.518,1.638,2.263,2.263,0,0,1-1.245.868,3.053,3.053,0,0,1-2.414-.436,2.028,2.028,0,0,1-.925-1.258,1.425,1.425,0,0,1-.039-.417.5.5,0,0,0-.01-.147c-.007,0-.016.047-.029.145a1.232,1.232,0,0,0,0,.433,2.069,2.069,0,0,0,.915,1.363,3.182,3.182,0,0,0,2.55.52,2.485,2.485,0,0,0,1.386-.929,3.143,3.143,0,0,0,.592-1.776,3.891,3.891,0,0,0-.507-1.993,3.836,3.836,0,0,0-1.616-1.533,6.611,6.611,0,0,0-4.8-.346,13.723,13.723,0,0,0-4.642,2.641,36.217,36.217,0,0,1-4.533,3.389,9.719,9.719,0,0,1-5.363,1.278,8.935,8.935,0,0,1-2.591-.512,4.149,4.149,0,0,1-1.987-1.431,2.168,2.168,0,0,1-.134-2.187,4.037,4.037,0,0,1,1.492-1.63A4,4,0,0,1,72.4,28a2.587,2.587,0,0,1,1.239,1.173,1.95,1.95,0,0,1-.76,2.512,1.564,1.564,0,0,1-1.093.176,1.778,1.778,0,0,1-1.262-.886,2.1,2.1,0,0,1-.155-.54" transform="translate(9.878 3.955)" fill="#e0e0e0"/>
            <path id="Trazado_2326" data-name="Trazado 2326" d="M92.264,28.8A1.165,1.165,0,1,1,91.1,29.96,1.167,1.167,0,0,1,92.264,28.8" transform="translate(13.532 4.277)" fill="#e0e0e0"/>
            <path id="Trazado_2327" data-name="Trazado 2327" d="M60.12,28.8a1.165,1.165,0,1,1-1.167,1.165A1.167,1.167,0,0,1,60.12,28.8" transform="translate(8.757 4.277)" fill="#e0e0e0"/>
            <path id="Trazado_2328" data-name="Trazado 2328" d="M122.819,28.8a1.165,1.165,0,1,1-1.168,1.165,1.166,1.166,0,0,1,1.168-1.165" transform="translate(18.071 4.277)" fill="#e0e0e0"/>
            <path id="Trazado_2329" data-name="Trazado 2329" d="M55.909,152.978s.007-.192.01-.56.006-.918.01-1.633c0-1.443.011-3.57.02-6.334.011-5.535.026-13.617.046-23.84.021-20.432.051-49.415.085-83.652l-.171.171,81.444.017h.009l-.188-.188c.014,43.519.026,83.743.037,116.021l.152-.152-59.25.079-16.409.039-4.308.017c-.975.006-1.485.016-1.485.016s.488.011,1.453.016l4.279.017,16.376.039,59.344.079h.152v-.152c.01-32.278.023-72.5.036-116.021V36.77h-.2l-81.444.016h-.171v.171c.034,34.283.064,63.3.085,83.764.02,10.207.034,18.277.046,23.8.008,2.75.016,4.864.021,6.3q.005,1.061.009,1.615c0,.361.01.54.01.54" transform="translate(8.28 5.462)" fill="#e0e0e0"/>
            <path id="Trazado_2330" data-name="Trazado 2330" d="M41.475,22.769a25.684,25.684,0,0,1,2.987,1.656,33.158,33.158,0,0,1,6,5.638C52.591,32.5,54.353,34.852,55.7,36.5c.668.828,1.237,1.477,1.645,1.913a4.245,4.245,0,0,0,.686.625,4.387,4.387,0,0,0-.577-.722c-.371-.463-.905-1.132-1.545-1.98-1.291-1.685-3.02-4.065-5.159-6.518a29.812,29.812,0,0,0-6.14-5.612,9.577,9.577,0,0,0-1.252-.719l-.528-.269c-.168-.07-.327-.122-.467-.173a4.393,4.393,0,0,0-.886-.275" transform="translate(6.161 3.382)" fill="#e0e0e0"/>
            <path id="Trazado_2331" data-name="Trazado 2331" d="M41.134,154.789a4.448,4.448,0,0,0,.631-.693l1.639-1.945c1.391-1.633,3.366-3.844,5.683-6.156s4.539-4.278,6.177-5.665l1.949-1.632a4.417,4.417,0,0,0,.695-.628,4.465,4.465,0,0,0-.783.512c-.493.347-1.186.873-2.029,1.543a76.949,76.949,0,0,0-11.9,11.858c-.672.841-1.2,1.533-1.549,2.024a4.524,4.524,0,0,0-.515.782" transform="translate(6.11 20.51)" fill="#e0e0e0"/>
            <path id="Trazado_2332" data-name="Trazado 2332" d="M143.634,154.55a4.307,4.307,0,0,0-.463-.806c-.316-.508-.8-1.222-1.436-2.085a51.237,51.237,0,0,0-11.929-11.612c-.88-.608-1.607-1.077-2.123-1.378a4.4,4.4,0,0,0-.818-.441,4.406,4.406,0,0,0,.737.564c.49.338,1.192.838,2.048,1.471a60.683,60.683,0,0,1,11.873,11.557c.656.838,1.175,1.526,1.526,2.008a4.407,4.407,0,0,0,.583.722" transform="translate(18.846 20.533)" fill="#e0e0e0"/>
            <path id="Trazado_2333" data-name="Trazado 2333" d="M143.38,22.77a4.377,4.377,0,0,0-.686.609L140.9,25.111c-1.513,1.46-3.643,3.433-6.007,5.606s-4.472,4.183-5.941,5.7c-.734.755-1.319,1.376-1.708,1.818a4.381,4.381,0,0,0-.58.71,4.3,4.3,0,0,0,.686-.609l1.789-1.731c1.514-1.46,3.644-3.434,6.009-5.607s4.471-4.183,5.939-5.695c.735-.756,1.32-1.376,1.709-1.819a4.263,4.263,0,0,0,.58-.71" transform="translate(18.816 3.382)" fill="#e0e0e0"/>
            <path id="Trazado_2334" data-name="Trazado 2334" d="M45.422,25.751c-.1,0-.188,31.494-.188,70.335s.085,70.341.188,70.341.188-31.486.188-70.341-.085-70.335-.188-70.335" transform="translate(6.719 3.825)" fill="#e0e0e0"/>
            <path id="Trazado_2335" data-name="Trazado 2335" d="M46.809,25.493c0,.1,23.512.188,52.508.188s52.513-.085,52.513-.188-23.507-.188-52.513-.188-52.508.085-52.508.188" transform="translate(6.953 3.759)" fill="#e0e0e0"/>
            <path id="Trazado_2336" data-name="Trazado 2336" d="M137.989,164.158c.1,0,.188-30.986.188-69.2s-.085-69.207-.188-69.207-.188,30.98-.188,69.207.085,69.2.188,69.2" transform="translate(20.47 3.825)" fill="#e0e0e0"/>
            <path id="Trazado_2337" data-name="Trazado 2337" d="M45.4,148.538c0,.1,23.221.188,51.859.188s51.865-.085,51.865-.188-23.217-.188-51.865-.188-51.859.085-51.859.188" transform="translate(6.744 22.037)" fill="#e0e0e0"/>
            <path id="Trazado_2338" data-name="Trazado 2338" d="M53.1,155.971s.007-.2.01-.586.007-.959.011-1.709c.006-1.508.015-3.734.026-6.627.015-5.792.037-14.255.065-24.966.039-21.406.093-51.794.157-87.749l-.169.17,88.105-.315L141.12,34v.132c-.134,45.679-.258,87.946-.358,122.084l.153-.153-63.85-.1-17.708-.01-4.652,0c-1.053,0-1.6.013-1.6.013s.528.013,1.57.021l4.624.031,17.674.088,63.944.258h.153v-.153c.121-34.138.269-76.4.43-122.084v-.322h-.189L53.2,34.163h-.17v.17c.006,36,.009,66.427.013,87.859.01,10.7.018,19.145.024,24.928.007,2.879.011,5.093.015,6.594q.007,1.111.009,1.691c0,.378.009.565.009.565" transform="translate(7.878 5.023)" fill="#e0e0e0"/>
            <g id="Grupo_180" data-name="Grupo 180" transform="translate(145.673 45.948)" opacity="0.2">
              <g id="Grupo_179" data-name="Grupo 179">
                <g id="Grupo_178" data-name="Grupo 178" clip-path="url(#clip-path-8)">
                  <path id="Trazado_2339" data-name="Trazado 2339" d="M126.832,40.192a8.518,8.518,0,0,0,3.563,0,8.518,8.518,0,0,0-3.563,0" transform="translate(-126.832 -40.005)" fill="#e0e0e0"/>
                </g>
              </g>
            </g>
            <path id="Trazado_2340" data-name="Trazado 2340" d="M123.582,140.719c.11.012.217-.613.188-1.362s-.091-1.342-.188-1.352-.217.613-.187,1.362.09,1.342.187,1.352" transform="translate(18.329 20.501)" fill="#e0e0e0"/>
            <path id="Trazado_2341" data-name="Trazado 2341" d="M126.073,140.751c.11.011.217-.613.188-1.362s-.091-1.341-.188-1.352-.217.613-.187,1.362.09,1.341.187,1.352" transform="translate(18.699 20.505)" fill="#e0e0e0"/>
            <path id="Trazado_2342" data-name="Trazado 2342" d="M120.753,140.6c.1,0,.208-.58.233-1.3s-.038-1.312-.142-1.315-.208.579-.233,1.3.039,1.312.142,1.315" transform="translate(17.916 20.497)" fill="#e0e0e0"/>
            <path id="Trazado_2343" data-name="Trazado 2343" d="M118.167,140.6c.1,0,.208-.58.233-1.3s-.038-1.312-.142-1.315-.208.579-.233,1.3.039,1.312.142,1.315" transform="translate(17.532 20.497)" fill="#e0e0e0"/>
            <path id="Trazado_2344" data-name="Trazado 2344" d="M115.581,140.6c.1,0,.208-.58.233-1.3s-.038-1.312-.141-1.315-.209.579-.234,1.3.039,1.312.142,1.315" transform="translate(17.148 20.497)" fill="#e0e0e0"/>
            <path id="Trazado_2345" data-name="Trazado 2345" d="M113,140.6c.1,0,.208-.58.233-1.3s-.038-1.312-.141-1.315-.209.579-.234,1.3.039,1.312.142,1.315" transform="translate(16.763 20.497)" fill="#e0e0e0"/>
            <path id="Trazado_2346" data-name="Trazado 2346" d="M110.41,140.6c.1,0,.208-.58.232-1.3s-.037-1.312-.141-1.315-.209.579-.233,1.3.038,1.312.142,1.315" transform="translate(16.379 20.497)" fill="#e0e0e0"/>
            <path id="Trazado_2347" data-name="Trazado 2347" d="M107.824,140.6c.1,0,.208-.58.233-1.3s-.038-1.312-.141-1.315-.209.579-.234,1.3.039,1.312.142,1.315" transform="translate(15.995 20.497)" fill="#e0e0e0"/>
            <path id="Trazado_2348" data-name="Trazado 2348" d="M105.238,140.6c.1,0,.208-.58.233-1.3s-.038-1.312-.141-1.315-.209.579-.234,1.3.039,1.312.142,1.315" transform="translate(15.611 20.497)" fill="#e0e0e0"/>
            <path id="Trazado_2349" data-name="Trazado 2349" d="M102.652,140.6c.1,0,.208-.58.233-1.3s-.038-1.312-.141-1.315-.209.579-.234,1.3.039,1.312.142,1.315" transform="translate(15.227 20.497)" fill="#e0e0e0"/>
            <path id="Trazado_2350" data-name="Trazado 2350" d="M100.066,140.6c.1,0,.208-.58.233-1.3s-.038-1.312-.141-1.315-.209.579-.234,1.3.039,1.312.142,1.315" transform="translate(14.843 20.497)" fill="#e0e0e0"/>
            <path id="Trazado_2351" data-name="Trazado 2351" d="M97.481,140.6c.1,0,.208-.58.233-1.3s-.038-1.312-.141-1.315-.209.579-.234,1.3.039,1.312.142,1.315" transform="translate(14.459 20.497)" fill="#e0e0e0"/>
            <path id="Trazado_2352" data-name="Trazado 2352" d="M94.9,140.6c.1,0,.208-.58.233-1.3s-.038-1.312-.141-1.315-.209.579-.234,1.3.039,1.312.142,1.315" transform="translate(14.075 20.497)" fill="#e0e0e0"/>
            <path id="Trazado_2353" data-name="Trazado 2353" d="M92.309,140.6c.1,0,.208-.58.233-1.3s-.038-1.312-.141-1.315-.209.579-.234,1.3.039,1.312.142,1.315" transform="translate(13.69 20.497)" fill="#e0e0e0"/>
            <path id="Trazado_2354" data-name="Trazado 2354" d="M89.723,140.6c.1,0,.208-.58.233-1.3s-.038-1.312-.141-1.315-.209.579-.234,1.3.039,1.312.142,1.315" transform="translate(13.306 20.497)" fill="#e0e0e0"/>
            <path id="Trazado_2355" data-name="Trazado 2355" d="M87.137,140.6c.1,0,.208-.58.233-1.3s-.038-1.312-.141-1.315-.209.579-.234,1.3.039,1.312.142,1.315" transform="translate(12.922 20.497)" fill="#e0e0e0"/>
            <path id="Trazado_2356" data-name="Trazado 2356" d="M84.552,140.6c.1,0,.208-.58.233-1.3s-.038-1.312-.141-1.315-.209.579-.234,1.3.039,1.312.142,1.315" transform="translate(12.538 20.497)" fill="#e0e0e0"/>
            <path id="Trazado_2357" data-name="Trazado 2357" d="M81.966,140.6c.1,0,.208-.58.233-1.3s-.038-1.312-.142-1.315-.208.579-.233,1.3.039,1.312.142,1.315" transform="translate(12.154 20.497)" fill="#e0e0e0"/>
            <path id="Trazado_2358" data-name="Trazado 2358" d="M79.38,140.6c.1,0,.208-.58.233-1.3s-.038-1.312-.142-1.315-.208.579-.233,1.3.039,1.312.142,1.315" transform="translate(11.77 20.497)" fill="#e0e0e0"/>
            <path id="Trazado_2359" data-name="Trazado 2359" d="M76.794,140.6c.1,0,.208-.58.233-1.3s-.038-1.312-.142-1.315-.208.579-.233,1.3.039,1.312.142,1.315" transform="translate(11.386 20.497)" fill="#e0e0e0"/>
            <path id="Trazado_2360" data-name="Trazado 2360" d="M74.208,140.6c.1,0,.208-.58.233-1.3s-.038-1.312-.142-1.315-.208.579-.233,1.3.039,1.312.142,1.315" transform="translate(11.002 20.497)" fill="#e0e0e0"/>
            <path id="Trazado_2361" data-name="Trazado 2361" d="M71.623,140.6c.1,0,.208-.58.233-1.3s-.038-1.312-.141-1.315-.209.579-.234,1.3.039,1.312.142,1.315" transform="translate(10.618 20.497)" fill="#e0e0e0"/>
            <path id="Trazado_2362" data-name="Trazado 2362" d="M69.037,140.6c.1,0,.208-.58.233-1.3s-.038-1.312-.141-1.315-.209.579-.234,1.3.039,1.312.142,1.315" transform="translate(10.233 20.497)" fill="#e0e0e0"/>
            <path id="Trazado_2363" data-name="Trazado 2363" d="M66.451,140.6c.1,0,.208-.58.233-1.3s-.038-1.312-.141-1.315-.209.579-.234,1.3.039,1.312.142,1.315" transform="translate(9.849 20.497)" fill="#e0e0e0"/>
            <path id="Trazado_2364" data-name="Trazado 2364" d="M63.865,140.6c.1,0,.208-.58.233-1.3s-.038-1.312-.141-1.315-.209.579-.234,1.3.039,1.312.142,1.315" transform="translate(9.465 20.497)" fill="#e0e0e0"/>
            <path id="Trazado_2365" data-name="Trazado 2365" d="M61.28,140.6c.1,0,.208-.58.233-1.3s-.038-1.312-.142-1.315-.208.579-.233,1.3.039,1.312.142,1.315" transform="translate(9.081 20.497)" fill="#e0e0e0"/>
            <path id="Trazado_2366" data-name="Trazado 2366" d="M58.694,140.6c.1,0,.208-.58.233-1.3s-.038-1.312-.142-1.315-.208.579-.233,1.3.039,1.312.142,1.315" transform="translate(8.697 20.497)" fill="#e0e0e0"/>
            <path id="Trazado_2367" data-name="Trazado 2367" d="M56.108,140.6c.1,0,.208-.58.233-1.3s-.038-1.312-.141-1.315-.209.579-.234,1.3.039,1.312.142,1.315" transform="translate(8.313 20.497)" fill="#e0e0e0"/>
            <path id="Trazado_2368" data-name="Trazado 2368" d="M53.181,137.286a3.432,3.432,0,0,0,1.567.188,3.435,3.435,0,0,0,1.568-.188,3.436,3.436,0,0,0-1.568-.188,3.432,3.432,0,0,0-1.567.188" transform="translate(7.9 20.366)" fill="#e0e0e0"/>
            <path id="Trazado_2369" data-name="Trazado 2369" d="M53.181,134.407a3.432,3.432,0,0,0,1.567.188,3.435,3.435,0,0,0,1.568-.188,3.435,3.435,0,0,0-1.568-.188,3.432,3.432,0,0,0-1.567.188" transform="translate(7.9 19.938)" fill="#e0e0e0"/>
            <path id="Trazado_2370" data-name="Trazado 2370" d="M53.181,131.529a3.432,3.432,0,0,0,1.567.188,3.435,3.435,0,0,0,1.568-.188,3.435,3.435,0,0,0-1.568-.188,3.432,3.432,0,0,0-1.567.188" transform="translate(7.9 19.511)" fill="#e0e0e0"/>
            <path id="Trazado_2371" data-name="Trazado 2371" d="M53.181,128.65a3.414,3.414,0,0,0,1.567.188,3.417,3.417,0,0,0,1.568-.188,3.444,3.444,0,0,0-1.568-.187,3.441,3.441,0,0,0-1.567.187" transform="translate(7.9 19.083)" fill="#e0e0e0"/>
            <path id="Trazado_2372" data-name="Trazado 2372" d="M53.181,125.772a3.414,3.414,0,0,0,1.567.188,3.417,3.417,0,0,0,1.568-.188,3.435,3.435,0,0,0-1.568-.188,3.432,3.432,0,0,0-1.567.188" transform="translate(7.9 18.655)" fill="#e0e0e0"/>
            <path id="Trazado_2373" data-name="Trazado 2373" d="M53.181,122.894a3.432,3.432,0,0,0,1.567.188,3.435,3.435,0,0,0,1.568-.188,3.435,3.435,0,0,0-1.568-.188,3.432,3.432,0,0,0-1.567.188" transform="translate(7.9 18.228)" fill="#e0e0e0"/>
            <path id="Trazado_2374" data-name="Trazado 2374" d="M53.181,120.015a3.432,3.432,0,0,0,1.567.188,3.435,3.435,0,0,0,1.568-.188,3.435,3.435,0,0,0-1.568-.188,3.432,3.432,0,0,0-1.567.188" transform="translate(7.9 17.8)" fill="#e0e0e0"/>
            <path id="Trazado_2375" data-name="Trazado 2375" d="M53.181,117.137a3.432,3.432,0,0,0,1.567.188,3.435,3.435,0,0,0,1.568-.188,3.435,3.435,0,0,0-1.568-.188,3.432,3.432,0,0,0-1.567.188" transform="translate(7.9 17.373)" fill="#e0e0e0"/>
            <path id="Trazado_2376" data-name="Trazado 2376" d="M53.181,114.259a3.432,3.432,0,0,0,1.567.188,3.435,3.435,0,0,0,1.568-.188,3.435,3.435,0,0,0-1.568-.188,3.432,3.432,0,0,0-1.567.188" transform="translate(7.9 16.945)" fill="#e0e0e0"/>
            <path id="Trazado_2377" data-name="Trazado 2377" d="M53.181,111.38a3.432,3.432,0,0,0,1.567.188,3.435,3.435,0,0,0,1.568-.188,3.435,3.435,0,0,0-1.568-.188,3.432,3.432,0,0,0-1.567.188" transform="translate(7.9 16.517)" fill="#e0e0e0"/>
            <path id="Trazado_2378" data-name="Trazado 2378" d="M53.181,108.5a3.432,3.432,0,0,0,1.567.188,3.435,3.435,0,0,0,1.568-.188,3.435,3.435,0,0,0-1.568-.188,3.432,3.432,0,0,0-1.567.188" transform="translate(7.9 16.09)" fill="#e0e0e0"/>
            <path id="Trazado_2379" data-name="Trazado 2379" d="M53.181,105.624a3.432,3.432,0,0,0,1.567.188,3.435,3.435,0,0,0,1.568-.188,3.435,3.435,0,0,0-1.568-.188,3.432,3.432,0,0,0-1.567.188" transform="translate(7.9 15.662)" fill="#e0e0e0"/>
            <path id="Trazado_2380" data-name="Trazado 2380" d="M53.181,102.745a3.414,3.414,0,0,0,1.567.188,3.417,3.417,0,0,0,1.568-.188,3.444,3.444,0,0,0-1.568-.187,3.441,3.441,0,0,0-1.567.187" transform="translate(7.9 15.235)" fill="#e0e0e0"/>
            <path id="Trazado_2381" data-name="Trazado 2381" d="M53.181,99.867a3.432,3.432,0,0,0,1.567.188,3.435,3.435,0,0,0,1.568-.188,3.435,3.435,0,0,0-1.568-.188,3.432,3.432,0,0,0-1.567.188" transform="translate(7.9 14.807)" fill="#e0e0e0"/>
            <path id="Trazado_2382" data-name="Trazado 2382" d="M53.181,96.988a3.432,3.432,0,0,0,1.567.188,3.435,3.435,0,0,0,1.568-.188,3.435,3.435,0,0,0-1.568-.188,3.432,3.432,0,0,0-1.567.188" transform="translate(7.9 14.38)" fill="#e0e0e0"/>
            <path id="Trazado_2383" data-name="Trazado 2383" d="M53.181,94.11a3.432,3.432,0,0,0,1.567.188,3.435,3.435,0,0,0,1.568-.188,3.435,3.435,0,0,0-1.568-.188,3.432,3.432,0,0,0-1.567.188" transform="translate(7.9 13.952)" fill="#e0e0e0"/>
            <path id="Trazado_2384" data-name="Trazado 2384" d="M53.181,91.232a3.432,3.432,0,0,0,1.567.188,3.435,3.435,0,0,0,1.568-.188,3.435,3.435,0,0,0-1.568-.188,3.432,3.432,0,0,0-1.567.188" transform="translate(7.9 13.525)" fill="#e0e0e0"/>
            <path id="Trazado_2385" data-name="Trazado 2385" d="M53.181,88.353a3.432,3.432,0,0,0,1.567.188,3.435,3.435,0,0,0,1.568-.188,3.435,3.435,0,0,0-1.568-.188,3.432,3.432,0,0,0-1.567.188" transform="translate(7.9 13.097)" fill="#e0e0e0"/>
            <path id="Trazado_2386" data-name="Trazado 2386" d="M53.181,85.475a3.432,3.432,0,0,0,1.567.188,3.435,3.435,0,0,0,1.568-.188,3.435,3.435,0,0,0-1.568-.188,3.432,3.432,0,0,0-1.567.188" transform="translate(7.9 12.669)" fill="#e0e0e0"/>
            <path id="Trazado_2387" data-name="Trazado 2387" d="M53.181,82.6a3.432,3.432,0,0,0,1.567.188,3.435,3.435,0,0,0,1.568-.188,3.435,3.435,0,0,0-1.568-.188,3.432,3.432,0,0,0-1.567.188" transform="translate(7.9 12.242)" fill="#e0e0e0"/>
            <path id="Trazado_2388" data-name="Trazado 2388" d="M53.181,79.718a3.432,3.432,0,0,0,1.567.188,3.435,3.435,0,0,0,1.568-.188,3.435,3.435,0,0,0-1.568-.188,3.432,3.432,0,0,0-1.567.188" transform="translate(7.9 11.814)" fill="#e0e0e0"/>
            <path id="Trazado_2389" data-name="Trazado 2389" d="M53.181,76.84a3.432,3.432,0,0,0,1.567.188,3.435,3.435,0,0,0,1.568-.188,3.435,3.435,0,0,0-1.568-.188,3.432,3.432,0,0,0-1.567.188" transform="translate(7.9 11.387)" fill="#e0e0e0"/>
            <path id="Trazado_2390" data-name="Trazado 2390" d="M53.181,73.961a3.432,3.432,0,0,0,1.567.188,3.435,3.435,0,0,0,1.568-.188,3.435,3.435,0,0,0-1.568-.188,3.432,3.432,0,0,0-1.567.188" transform="translate(7.9 10.959)" fill="#e0e0e0"/>
            <path id="Trazado_2391" data-name="Trazado 2391" d="M53.181,71.083a3.432,3.432,0,0,0,1.567.188,3.435,3.435,0,0,0,1.568-.188,3.435,3.435,0,0,0-1.568-.188,3.432,3.432,0,0,0-1.567.188" transform="translate(7.9 10.531)" fill="#e0e0e0"/>
            <path id="Trazado_2392" data-name="Trazado 2392" d="M53.181,68.205a3.432,3.432,0,0,0,1.567.188,3.435,3.435,0,0,0,1.568-.188,3.435,3.435,0,0,0-1.568-.188,3.432,3.432,0,0,0-1.567.188" transform="translate(7.9 10.104)" fill="#e0e0e0"/>
            <path id="Trazado_2393" data-name="Trazado 2393" d="M53.181,65.326a3.414,3.414,0,0,0,1.567.188,3.417,3.417,0,0,0,1.568-.188,3.444,3.444,0,0,0-1.568-.187,3.441,3.441,0,0,0-1.567.187" transform="translate(7.9 9.676)" fill="#e0e0e0"/>
            <path id="Trazado_2394" data-name="Trazado 2394" d="M53.181,62.448a3.432,3.432,0,0,0,1.567.188,3.435,3.435,0,0,0,1.568-.188,3.435,3.435,0,0,0-1.568-.188,3.432,3.432,0,0,0-1.567.188" transform="translate(7.9 9.249)" fill="#e0e0e0"/>
            <path id="Trazado_2395" data-name="Trazado 2395" d="M53.181,59.569a3.432,3.432,0,0,0,1.567.188,3.435,3.435,0,0,0,1.568-.188,3.435,3.435,0,0,0-1.568-.188,3.432,3.432,0,0,0-1.567.188" transform="translate(7.9 8.821)" fill="#e0e0e0"/>
            <path id="Trazado_2396" data-name="Trazado 2396" d="M53.181,56.691a3.432,3.432,0,0,0,1.567.188,3.435,3.435,0,0,0,1.568-.188,3.435,3.435,0,0,0-1.568-.188,3.432,3.432,0,0,0-1.567.188" transform="translate(7.9 8.393)" fill="#e0e0e0"/>
            <path id="Trazado_2397" data-name="Trazado 2397" d="M53.181,53.813A3.432,3.432,0,0,0,54.748,54a3.435,3.435,0,0,0,1.568-.188,3.435,3.435,0,0,0-1.568-.188,3.432,3.432,0,0,0-1.567.188" transform="translate(7.9 7.966)" fill="#e0e0e0"/>
            <path id="Trazado_2398" data-name="Trazado 2398" d="M53.181,50.934a3.432,3.432,0,0,0,1.567.188,3.435,3.435,0,0,0,1.568-.188,3.435,3.435,0,0,0-1.568-.188,3.432,3.432,0,0,0-1.567.188" transform="translate(7.9 7.538)" fill="#e0e0e0"/>
            <path id="Trazado_2399" data-name="Trazado 2399" d="M53.181,48.056a3.432,3.432,0,0,0,1.567.188,3.435,3.435,0,0,0,1.568-.188,3.444,3.444,0,0,0-1.568-.187,3.441,3.441,0,0,0-1.567.187" transform="translate(7.9 7.111)" fill="#e0e0e0"/>
            <path id="Trazado_2400" data-name="Trazado 2400" d="M53.181,45.177a3.432,3.432,0,0,0,1.567.188,3.435,3.435,0,0,0,1.568-.188,3.435,3.435,0,0,0-1.568-.188,3.432,3.432,0,0,0-1.567.188" transform="translate(7.9 6.683)" fill="#e0e0e0"/>
            <path id="Trazado_2401" data-name="Trazado 2401" d="M53.181,42.3a3.414,3.414,0,0,0,1.567.188,3.417,3.417,0,0,0,1.568-.188,3.444,3.444,0,0,0-1.568-.187,3.441,3.441,0,0,0-1.567.187" transform="translate(7.9 6.256)" fill="#e0e0e0"/>
            <path id="Trazado_2402" data-name="Trazado 2402" d="M53.181,39.421a3.432,3.432,0,0,0,1.567.188,3.435,3.435,0,0,0,1.568-.188,3.435,3.435,0,0,0-1.568-.188,3.432,3.432,0,0,0-1.567.188" transform="translate(7.9 5.828)" fill="#e0e0e0"/>
            <path id="Trazado_2403" data-name="Trazado 2403" d="M53.181,36.542a3.432,3.432,0,0,0,1.567.188,3.435,3.435,0,0,0,1.568-.188,3.435,3.435,0,0,0-1.568-.188,3.432,3.432,0,0,0-1.567.188" transform="translate(7.9 5.4)" fill="#e0e0e0"/>
            <path id="Trazado_2404" data-name="Trazado 2404" d="M56.321,37.333a3.36,3.36,0,0,0,.188-1.549,3.353,3.353,0,0,0-.188-1.548,3.353,3.353,0,0,0-.188,1.548,3.36,3.36,0,0,0,.188,1.549" transform="translate(8.339 5.086)" fill="#e0e0e0"/>
            <path id="Trazado_2405" data-name="Trazado 2405" d="M59.063,37.333a3.36,3.36,0,0,0,.188-1.549,3.353,3.353,0,0,0-.188-1.548,3.353,3.353,0,0,0-.188,1.548,3.36,3.36,0,0,0,.188,1.549" transform="translate(8.746 5.086)" fill="#e0e0e0"/>
            <path id="Trazado_2406" data-name="Trazado 2406" d="M61.806,37.333a3.36,3.36,0,0,0,.188-1.549,3.353,3.353,0,0,0-.188-1.548,3.353,3.353,0,0,0-.188,1.548,3.359,3.359,0,0,0,.188,1.549" transform="translate(9.153 5.086)" fill="#e0e0e0"/>
            <path id="Trazado_2407" data-name="Trazado 2407" d="M64.548,37.333a3.36,3.36,0,0,0,.188-1.549,3.353,3.353,0,0,0-.188-1.548,3.353,3.353,0,0,0-.188,1.548,3.359,3.359,0,0,0,.188,1.549" transform="translate(9.561 5.086)" fill="#e0e0e0"/>
            <path id="Trazado_2408" data-name="Trazado 2408" d="M67.29,37.333a3.36,3.36,0,0,0,.188-1.549,3.353,3.353,0,0,0-.188-1.548,3.353,3.353,0,0,0-.188,1.548,3.36,3.36,0,0,0,.188,1.549" transform="translate(9.968 5.086)" fill="#e0e0e0"/>
            <path id="Trazado_2409" data-name="Trazado 2409" d="M70.032,37.333a3.36,3.36,0,0,0,.188-1.549,3.353,3.353,0,0,0-.188-1.548,3.353,3.353,0,0,0-.188,1.548,3.359,3.359,0,0,0,.188,1.549" transform="translate(10.375 5.086)" fill="#e0e0e0"/>
            <path id="Trazado_2410" data-name="Trazado 2410" d="M72.775,37.333a3.359,3.359,0,0,0,.188-1.549,3.353,3.353,0,0,0-.188-1.548,3.353,3.353,0,0,0-.188,1.548,3.36,3.36,0,0,0,.188,1.549" transform="translate(10.783 5.086)" fill="#e0e0e0"/>
            <path id="Trazado_2411" data-name="Trazado 2411" d="M75.517,37.333a3.36,3.36,0,0,0,.188-1.549,3.353,3.353,0,0,0-.188-1.548,3.353,3.353,0,0,0-.188,1.548,3.36,3.36,0,0,0,.188,1.549" transform="translate(11.19 5.086)" fill="#e0e0e0"/>
            <path id="Trazado_2412" data-name="Trazado 2412" d="M78.259,37.333a3.359,3.359,0,0,0,.188-1.549,3.353,3.353,0,0,0-.188-1.548,3.353,3.353,0,0,0-.188,1.548,3.36,3.36,0,0,0,.188,1.549" transform="translate(11.597 5.086)" fill="#e0e0e0"/>
            <path id="Trazado_2413" data-name="Trazado 2413" d="M81,37.333a3.386,3.386,0,0,0,.187-1.549A3.379,3.379,0,0,0,81,34.235a3.335,3.335,0,0,0-.188,1.548A3.342,3.342,0,0,0,81,37.333" transform="translate(12.005 5.086)" fill="#e0e0e0"/>
            <path id="Trazado_2414" data-name="Trazado 2414" d="M83.744,37.333a3.36,3.36,0,0,0,.188-1.549,3.353,3.353,0,0,0-.188-1.548,3.353,3.353,0,0,0-.188,1.548,3.359,3.359,0,0,0,.188,1.549" transform="translate(12.412 5.086)" fill="#e0e0e0"/>
            <path id="Trazado_2415" data-name="Trazado 2415" d="M86.486,37.333a3.359,3.359,0,0,0,.188-1.549,3.353,3.353,0,0,0-.188-1.548,3.353,3.353,0,0,0-.188,1.548,3.36,3.36,0,0,0,.188,1.549" transform="translate(12.819 5.086)" fill="#e0e0e0"/>
            <path id="Trazado_2416" data-name="Trazado 2416" d="M89.228,37.333a3.36,3.36,0,0,0,.188-1.549,3.353,3.353,0,0,0-.188-1.548,3.353,3.353,0,0,0-.188,1.548,3.359,3.359,0,0,0,.188,1.549" transform="translate(13.227 5.086)" fill="#e0e0e0"/>
            <path id="Trazado_2417" data-name="Trazado 2417" d="M91.971,37.333a3.36,3.36,0,0,0,.188-1.549,3.353,3.353,0,0,0-.188-1.548,3.353,3.353,0,0,0-.188,1.548,3.359,3.359,0,0,0,.188,1.549" transform="translate(13.634 5.086)" fill="#e0e0e0"/>
            <path id="Trazado_2418" data-name="Trazado 2418" d="M94.713,37.333a3.36,3.36,0,0,0,.188-1.549,3.353,3.353,0,0,0-.188-1.548,3.353,3.353,0,0,0-.188,1.548,3.359,3.359,0,0,0,.188,1.549" transform="translate(14.042 5.086)" fill="#e0e0e0"/>
            <path id="Trazado_2419" data-name="Trazado 2419" d="M97.455,37.333a3.359,3.359,0,0,0,.188-1.549,3.353,3.353,0,0,0-.188-1.548,3.353,3.353,0,0,0-.188,1.548,3.36,3.36,0,0,0,.188,1.549" transform="translate(14.449 5.086)" fill="#e0e0e0"/>
            <path id="Trazado_2420" data-name="Trazado 2420" d="M100.2,37.333a3.386,3.386,0,0,0,.187-1.549,3.379,3.379,0,0,0-.187-1.548,3.327,3.327,0,0,0-.19,1.548,3.333,3.333,0,0,0,.19,1.549" transform="translate(14.856 5.086)" fill="#e0e0e0"/>
            <path id="Trazado_2421" data-name="Trazado 2421" d="M102.94,37.333a3.36,3.36,0,0,0,.188-1.549,3.353,3.353,0,0,0-.188-1.548,3.353,3.353,0,0,0-.188,1.548,3.359,3.359,0,0,0,.188,1.549" transform="translate(15.264 5.086)" fill="#e0e0e0"/>
            <path id="Trazado_2422" data-name="Trazado 2422" d="M105.682,37.333a3.359,3.359,0,0,0,.188-1.549,3.353,3.353,0,0,0-.188-1.548,3.353,3.353,0,0,0-.188,1.548,3.36,3.36,0,0,0,.188,1.549" transform="translate(15.671 5.086)" fill="#e0e0e0"/>
            <path id="Trazado_2423" data-name="Trazado 2423" d="M108.424,37.333a3.36,3.36,0,0,0,.188-1.549,3.353,3.353,0,0,0-.188-1.548,3.353,3.353,0,0,0-.188,1.548,3.359,3.359,0,0,0,.188,1.549" transform="translate(16.078 5.086)" fill="#e0e0e0"/>
            <path id="Trazado_2424" data-name="Trazado 2424" d="M111.167,37.333a3.36,3.36,0,0,0,.188-1.549,3.353,3.353,0,0,0-.188-1.548,3.361,3.361,0,0,0-.187,1.548,3.368,3.368,0,0,0,.187,1.549" transform="translate(16.486 5.086)" fill="#e0e0e0"/>
            <path id="Trazado_2425" data-name="Trazado 2425" d="M113.909,37.333a3.36,3.36,0,0,0,.188-1.549,3.353,3.353,0,0,0-.188-1.548,3.353,3.353,0,0,0-.188,1.548,3.359,3.359,0,0,0,.188,1.549" transform="translate(16.893 5.086)" fill="#e0e0e0"/>
            <path id="Trazado_2426" data-name="Trazado 2426" d="M116.651,37.333a3.359,3.359,0,0,0,.188-1.549,3.353,3.353,0,0,0-.188-1.548,3.353,3.353,0,0,0-.188,1.548,3.36,3.36,0,0,0,.188,1.549" transform="translate(17.3 5.086)" fill="#e0e0e0"/>
            <path id="Trazado_2427" data-name="Trazado 2427" d="M119.393,37.333a3.36,3.36,0,0,0,.188-1.549,3.353,3.353,0,0,0-.188-1.548,3.353,3.353,0,0,0-.188,1.548,3.359,3.359,0,0,0,.188,1.549" transform="translate(17.708 5.086)" fill="#e0e0e0"/>
            <path id="Trazado_2428" data-name="Trazado 2428" d="M122.136,37.333a3.359,3.359,0,0,0,.188-1.549,3.353,3.353,0,0,0-.188-1.548,3.353,3.353,0,0,0-.188,1.548,3.36,3.36,0,0,0,.188,1.549" transform="translate(18.115 5.086)" fill="#e0e0e0"/>
            <path id="Trazado_2429" data-name="Trazado 2429" d="M124.878,37.333a3.359,3.359,0,0,0,.188-1.549,3.353,3.353,0,0,0-.188-1.548,3.353,3.353,0,0,0-.188,1.548,3.36,3.36,0,0,0,.188,1.549" transform="translate(18.523 5.086)" fill="#e0e0e0"/>
            <path id="Trazado_2430" data-name="Trazado 2430" d="M126.832,37.9a8.518,8.518,0,0,0,3.563,0,8.518,8.518,0,0,0-3.563,0" transform="translate(18.841 5.602)" fill="#e0e0e0"/>
            <path id="Trazado_2431" data-name="Trazado 2431" d="M126.832,42.485a8.518,8.518,0,0,0,3.563,0,8.518,8.518,0,0,0-3.563,0" transform="translate(18.841 6.283)" fill="#e0e0e0"/>
            <path id="Trazado_2432" data-name="Trazado 2432" d="M126.832,44.778a8.518,8.518,0,0,0,3.563,0,8.518,8.518,0,0,0-3.563,0" transform="translate(18.841 6.624)" fill="#e0e0e0"/>
            <path id="Trazado_2433" data-name="Trazado 2433" d="M126.832,47.071a8.518,8.518,0,0,0,3.563,0,8.518,8.518,0,0,0-3.563,0" transform="translate(18.841 6.964)" fill="#e0e0e0"/>
            <path id="Trazado_2434" data-name="Trazado 2434" d="M126.832,49.363a8.518,8.518,0,0,0,3.563,0,8.518,8.518,0,0,0-3.563,0" transform="translate(18.841 7.305)" fill="#e0e0e0"/>
            <path id="Trazado_2435" data-name="Trazado 2435" d="M126.832,51.656a8.518,8.518,0,0,0,3.563,0,8.518,8.518,0,0,0-3.563,0" transform="translate(18.841 7.646)" fill="#e0e0e0"/>
            <path id="Trazado_2436" data-name="Trazado 2436" d="M126.832,53.949a8.518,8.518,0,0,0,3.563,0,8.518,8.518,0,0,0-3.563,0" transform="translate(18.841 7.986)" fill="#e0e0e0"/>
            <path id="Trazado_2437" data-name="Trazado 2437" d="M126.832,56.241a8.518,8.518,0,0,0,3.563,0,8.518,8.518,0,0,0-3.563,0" transform="translate(18.841 8.327)" fill="#e0e0e0"/>
            <path id="Trazado_2438" data-name="Trazado 2438" d="M126.832,58.534a8.518,8.518,0,0,0,3.563,0,8.518,8.518,0,0,0-3.563,0" transform="translate(18.841 8.667)" fill="#e0e0e0"/>
            <path id="Trazado_2439" data-name="Trazado 2439" d="M126.832,60.827a8.518,8.518,0,0,0,3.563,0,8.518,8.518,0,0,0-3.563,0" transform="translate(18.841 9.008)" fill="#e0e0e0"/>
            <path id="Trazado_2440" data-name="Trazado 2440" d="M126.832,63.12a8.518,8.518,0,0,0,3.563,0,8.517,8.517,0,0,0-3.563,0" transform="translate(18.841 9.349)" fill="#e0e0e0"/>
            <path id="Trazado_2441" data-name="Trazado 2441" d="M126.832,65.412a8.517,8.517,0,0,0,3.563,0,8.518,8.518,0,0,0-3.563,0" transform="translate(18.841 9.689)" fill="#e0e0e0"/>
            <path id="Trazado_2442" data-name="Trazado 2442" d="M126.832,67.705a8.517,8.517,0,0,0,3.563,0,8.518,8.518,0,0,0-3.563,0" transform="translate(18.841 10.03)" fill="#e0e0e0"/>
            <path id="Trazado_2443" data-name="Trazado 2443" d="M126.832,70a8.517,8.517,0,0,0,3.563,0,8.518,8.518,0,0,0-3.563,0" transform="translate(18.841 10.37)" fill="#e0e0e0"/>
            <path id="Trazado_2444" data-name="Trazado 2444" d="M126.832,72.291a8.518,8.518,0,0,0,3.563,0,8.517,8.517,0,0,0-3.563,0" transform="translate(18.841 10.711)" fill="#e0e0e0"/>
            <path id="Trazado_2445" data-name="Trazado 2445" d="M126.832,74.583a8.517,8.517,0,0,0,3.563,0,8.517,8.517,0,0,0-3.563,0" transform="translate(18.841 11.051)" fill="#e0e0e0"/>
            <path id="Trazado_2446" data-name="Trazado 2446" d="M126.832,76.876a8.517,8.517,0,0,0,3.563,0,8.518,8.518,0,0,0-3.563,0" transform="translate(18.841 11.392)" fill="#e0e0e0"/>
            <path id="Trazado_2447" data-name="Trazado 2447" d="M126.832,79.169a8.518,8.518,0,0,0,3.563,0,8.518,8.518,0,0,0-3.563,0" transform="translate(18.841 11.733)" fill="#e0e0e0"/>
            <path id="Trazado_2448" data-name="Trazado 2448" d="M126.832,81.461a8.518,8.518,0,0,0,3.563,0,8.518,8.518,0,0,0-3.563,0" transform="translate(18.841 12.073)" fill="#e0e0e0"/>
            <path id="Trazado_2449" data-name="Trazado 2449" d="M126.832,83.754a8.518,8.518,0,0,0,3.563,0,8.518,8.518,0,0,0-3.563,0" transform="translate(18.841 12.414)" fill="#e0e0e0"/>
            <path id="Trazado_2450" data-name="Trazado 2450" d="M126.832,86.047a8.518,8.518,0,0,0,3.563,0,8.517,8.517,0,0,0-3.563,0" transform="translate(18.841 12.754)" fill="#e0e0e0"/>
            <path id="Trazado_2451" data-name="Trazado 2451" d="M126.832,88.34a8.518,8.518,0,0,0,3.563,0,8.518,8.518,0,0,0-3.563,0" transform="translate(18.841 13.095)" fill="#e0e0e0"/>
            <path id="Trazado_2452" data-name="Trazado 2452" d="M126.832,90.632a8.517,8.517,0,0,0,3.563,0,8.518,8.518,0,0,0-3.563,0" transform="translate(18.841 13.435)" fill="#e0e0e0"/>
            <path id="Trazado_2453" data-name="Trazado 2453" d="M126.832,92.925a8.518,8.518,0,0,0,3.563,0,8.517,8.517,0,0,0-3.563,0" transform="translate(18.841 13.776)" fill="#e0e0e0"/>
            <path id="Trazado_2454" data-name="Trazado 2454" d="M126.832,95.218a8.518,8.518,0,0,0,3.563,0,8.517,8.517,0,0,0-3.563,0" transform="translate(18.841 14.117)" fill="#e0e0e0"/>
            <path id="Trazado_2455" data-name="Trazado 2455" d="M126.832,97.511a8.518,8.518,0,0,0,3.563,0,8.518,8.518,0,0,0-3.563,0" transform="translate(18.841 14.457)" fill="#e0e0e0"/>
            <path id="Trazado_2456" data-name="Trazado 2456" d="M126.832,99.8a8.517,8.517,0,0,0,3.563,0,8.518,8.518,0,0,0-3.563,0" transform="translate(18.841 14.798)" fill="#e0e0e0"/>
            <path id="Trazado_2457" data-name="Trazado 2457" d="M126.832,102.1a8.518,8.518,0,0,0,3.563,0,8.517,8.517,0,0,0-3.563,0" transform="translate(18.841 15.138)" fill="#e0e0e0"/>
            <path id="Trazado_2458" data-name="Trazado 2458" d="M126.832,104.389a8.518,8.518,0,0,0,3.563,0,8.518,8.518,0,0,0-3.563,0" transform="translate(18.841 15.479)" fill="#e0e0e0"/>
            <path id="Trazado_2459" data-name="Trazado 2459" d="M126.832,106.681a8.517,8.517,0,0,0,3.563,0,8.518,8.518,0,0,0-3.563,0" transform="translate(18.841 15.819)" fill="#e0e0e0"/>
            <path id="Trazado_2460" data-name="Trazado 2460" d="M126.832,108.974a8.518,8.518,0,0,0,3.563,0,8.518,8.518,0,0,0-3.563,0" transform="translate(18.841 16.16)" fill="#e0e0e0"/>
            <path id="Trazado_2461" data-name="Trazado 2461" d="M126.832,111.267a8.518,8.518,0,0,0,3.563,0,8.518,8.518,0,0,0-3.563,0" transform="translate(18.841 16.501)" fill="#e0e0e0"/>
            <path id="Trazado_2462" data-name="Trazado 2462" d="M126.832,113.559a8.518,8.518,0,0,0,3.563,0,8.568,8.568,0,0,0-3.563,0" transform="translate(18.841 16.841)" fill="#e0e0e0"/>
            <path id="Trazado_2463" data-name="Trazado 2463" d="M126.832,115.852a8.518,8.518,0,0,0,3.563,0,8.517,8.517,0,0,0-3.563,0" transform="translate(18.841 17.182)" fill="#e0e0e0"/>
            <path id="Trazado_2464" data-name="Trazado 2464" d="M126.832,118.145a8.518,8.518,0,0,0,3.563,0,8.568,8.568,0,0,0-3.563,0" transform="translate(18.841 17.523)" fill="#e0e0e0"/>
            <path id="Trazado_2465" data-name="Trazado 2465" d="M126.832,120.438a8.517,8.517,0,0,0,3.563,0,8.517,8.517,0,0,0-3.563,0" transform="translate(18.841 17.863)" fill="#e0e0e0"/>
            <path id="Trazado_2466" data-name="Trazado 2466" d="M126.832,122.731a8.517,8.517,0,0,0,3.563,0,8.517,8.517,0,0,0-3.563,0" transform="translate(18.841 18.204)" fill="#e0e0e0"/>
            <path id="Trazado_2467" data-name="Trazado 2467" d="M126.832,125.023a8.518,8.518,0,0,0,3.563,0,8.517,8.517,0,0,0-3.563,0" transform="translate(18.841 18.544)" fill="#e0e0e0"/>
            <path id="Trazado_2468" data-name="Trazado 2468" d="M126.832,127.316a8.517,8.517,0,0,0,3.563,0,8.569,8.569,0,0,0-3.563,0" transform="translate(18.841 18.885)" fill="#e0e0e0"/>
            <path id="Trazado_2469" data-name="Trazado 2469" d="M126.832,129.609a8.519,8.519,0,0,0,3.563,0,8.517,8.517,0,0,0-3.563,0" transform="translate(18.841 19.225)" fill="#e0e0e0"/>
            <path id="Trazado_2470" data-name="Trazado 2470" d="M126.832,131.9a8.518,8.518,0,0,0,3.563,0,8.517,8.517,0,0,0-3.563,0" transform="translate(18.841 19.566)" fill="#e0e0e0"/>
            <path id="Trazado_2471" data-name="Trazado 2471" d="M126.832,134.194a8.518,8.518,0,0,0,3.563,0,8.568,8.568,0,0,0-3.563,0" transform="translate(18.841 19.907)" fill="#e0e0e0"/>
            <path id="Trazado_2472" data-name="Trazado 2472" d="M126.832,136.487a8.517,8.517,0,0,0,3.563,0,8.569,8.569,0,0,0-3.563,0" transform="translate(18.841 20.247)" fill="#e0e0e0"/>
            <rect id="Rectángulo_79" data-name="Rectángulo 79" width="80.9" height="116.083" transform="translate(64.66 42.423)" fill="#fff"/>
            <path id="Trazado_2473" data-name="Trazado 2473" d="M132.459,48.275c-13.731,16.338-29.917,33.493-43.076,50.294L132.4,110.063Z" transform="translate(13.278 7.171)" fill="#f5f5f5"/>
            <path id="Trazado_2474" data-name="Trazado 2474" d="M137.305,102.651l-.048,43.212L55.9,145.236,56.2,85.117q40.66,8.251,81.1,17.534" transform="translate(8.303 12.644)" fill="#fafafa"/>
            <rect id="Rectángulo_80" data-name="Rectángulo 80" width="81.346" height="84.796" transform="translate(463.158 0.025)" fill="#e0e0e0"/>
            <rect id="Rectángulo_81" data-name="Rectángulo 81" width="81.346" height="84.796" transform="translate(468.667 0.025)" fill="#455a64"/>
            <rect id="Rectángulo_82" data-name="Rectángulo 82" width="81.397" height="84.847" transform="translate(468.641)" fill="#f5f5f5"/>
            <rect id="Rectángulo_83" data-name="Rectángulo 83" width="59.475" height="61.998" transform="translate(479.602 11.425)" fill="#fff"/>
            <path id="Trazado_2475" data-name="Trazado 2475" d="M469.355,64.285a9.734,9.734,0,0,0,1.468,1.707c.95,1,2.284,2.358,3.78,3.833s2.872,2.786,3.885,3.719a9.5,9.5,0,0,0,1.719,1.431,9.519,9.519,0,0,0-1.46-1.7c-.95-1-2.288-2.363-3.789-3.841s-2.878-2.793-3.892-3.726a9.332,9.332,0,0,0-1.711-1.424" transform="translate(69.722 9.549)" fill="#e0e0e0"/>
            <path id="Trazado_2476" data-name="Trazado 2476" d="M418.955,64.152a9.734,9.734,0,0,0-1.707,1.468c-1,.95-2.359,2.284-3.833,3.781s-2.786,2.871-3.719,3.886A9.455,9.455,0,0,0,408.265,75a9.473,9.473,0,0,0,1.7-1.46c1-.95,2.363-2.288,3.841-3.789s2.793-2.878,3.725-3.892a9.312,9.312,0,0,0,1.425-1.711" transform="translate(60.647 9.529)" fill="#e0e0e0"/>
            <path id="Trazado_2477" data-name="Trazado 2477" d="M419.118,11.474a9.734,9.734,0,0,0-1.468-1.707c-.95-1-2.284-2.359-3.78-3.833S411,3.148,409.985,2.216A9.547,9.547,0,0,0,408.265.784a9.472,9.472,0,0,0,1.46,1.7c.95,1,2.288,2.363,3.789,3.841s2.878,2.793,3.892,3.726a9.331,9.331,0,0,0,1.711,1.424" transform="translate(60.647 0.116)" fill="#e0e0e0"/>
            <path id="Trazado_2478" data-name="Trazado 2478" d="M469.5,11.627a9.736,9.736,0,0,0,1.707-1.468c1-.95,2.359-2.284,3.833-3.78s2.786-2.871,3.719-3.887A9.427,9.427,0,0,0,480.187.774a9.537,9.537,0,0,0-1.7,1.46c-1,.95-2.363,2.288-3.841,3.789s-2.793,2.878-3.726,3.892a9.332,9.332,0,0,0-1.424,1.711" transform="translate(69.743 0.115)" fill="#e0e0e0"/>
            <path id="Trazado_2479" data-name="Trazado 2479" d="M417.744,71.979a2.565,2.565,0,0,0,.013-.3c0-.212.008-.5.014-.866.006-.778.015-1.9.026-3.347.014-2.937.034-7.209.06-12.635.029-10.858.069-26.327.117-44.849l-.23.229,59.308.034h0l-.263-.263c.014,22.755.026,44.043.038,62l.225-.226-42.945.116-12.063.059-3.192.026-.825.013a2.345,2.345,0,0,0-.287.013,1.9,1.9,0,0,0,.262.013l.8.013,3.148.026,12.013.059,43.089.116h.226v-.226c.011-17.954.024-39.242.038-62V9.717h-.269l-59.308.033h-.23v.23c.048,18.581.088,34.1.117,45,.025,5.4.046,9.658.06,12.583.012,1.432.021,2.536.026,3.3.006.358.01.635.014.841a1.868,1.868,0,0,0,.013.276" transform="translate(62.021 1.443)" fill="#e0e0e0"/>
            <path id="Trazado_2480" data-name="Trazado 2480" d="M456.3,56.438a13.161,13.161,0,0,0,.585-17.306c-1.653-1.9-3.851-3.283-5.382-5.279-3.315-4.323-3.269-11.133-7.882-14.03-3.366-2.113-8.2-.907-10.659,2.217a11.288,11.288,0,0,0-1.066,11.3c1.177,2.688,3.225,4.972,4.066,7.784.859,2.875.369,6.025,1.261,8.89,1.077,3.461,4.739,5.647,8.137,6.906a15.252,15.252,0,0,0,10.94-.485" transform="translate(64.006 2.787)" fill="#f5f5f5"/>
            <path id="Trazado_2481" data-name="Trazado 2481" d="M438.446,26.7a10.719,10.719,0,0,0,.575,1.638c.4,1.045,1.025,2.536,1.845,4.358a121.815,121.815,0,0,0,7.351,13.772A121.758,121.758,0,0,0,457.28,59.18c1.266,1.546,2.322,2.771,3.08,3.592a10.861,10.861,0,0,0,1.211,1.245,10.464,10.464,0,0,0-1.052-1.381c-.71-.86-1.718-2.12-2.944-3.691a147.612,147.612,0,0,1-8.9-12.76,147.371,147.371,0,0,1-7.462-13.651c-.863-1.8-1.541-3.261-2-4.278a10.832,10.832,0,0,0-.767-1.557" transform="translate(65.13 3.966)" fill="#e0e0e0"/>
            <path id="Trazado_2482" data-name="Trazado 2482" d="M450.851,36.052a20.071,20.071,0,0,0-.478,3.136c-.233,1.956-.525,4.685-.826,7.765l.4-.2L448.663,46c-2.972-1.735-5.68-3.279-7.652-4.374a24.949,24.949,0,0,0-3.247-1.677,24.542,24.542,0,0,0,3.056,2c1.924,1.178,4.6,2.775,7.572,4.509l1.284.747.359.209.038-.413c.286-3.082.513-5.816.654-7.783a19.977,19.977,0,0,0,.123-3.169" transform="translate(65.029 5.355)" fill="#e0e0e0"/>
            <path id="Trazado_2483" data-name="Trazado 2483" d="M435.556,32.513a9.673,9.673,0,0,0,2,1.124c1.267.632,3.032,1.47,5,2.368l.612.279.319.145.055-.347c.31-1.98.56-3.748.716-5.025a8.466,8.466,0,0,0,.148-2.072A8.46,8.46,0,0,0,443.9,31c-.25,1.261-.563,3.02-.884,5l.373-.2-.611-.281c-1.964-.9-3.753-1.681-5.061-2.225a9.968,9.968,0,0,0-2.162-.781" transform="translate(64.701 4.306)" fill="#e0e0e0"/>
            <rect id="Rectángulo_84" data-name="Rectángulo 84" width="11.869" height="56.01" transform="translate(588.223 475.963)" fill="#ebebeb"/>
            <rect id="Rectángulo_85" data-name="Rectángulo 85" width="11.868" height="56.01" transform="translate(487.371 475.963)" fill="#ebebeb"/>
            <rect id="Rectángulo_86" data-name="Rectángulo 86" width="149.724" height="13.85" transform="translate(469.999 405.549)" fill="#ebebeb"/>
            <path id="Trazado_2484" data-name="Trazado 2484" d="M414.4,422.423l134.644.292V365.156H414.4Z" transform="translate(61.56 54.244)" fill="#ebebeb"/>
            <path id="Trazado_2485" data-name="Trazado 2485" d="M409.211,365.191c0,.148,33.519.27,74.858.27s74.866-.122,74.866-.27-33.512-.269-74.866-.269-74.858.119-74.858.269" transform="translate(60.788 54.209)" fill="#e0e0e0"/>
            <path id="Trazado_2486" data-name="Trazado 2486" d="M414.836,415.3c0,.149,29.921.269,66.824.269s66.831-.119,66.831-.269-29.915-.269-66.831-.269-66.824.119-66.824.269" transform="translate(61.624 61.653)" fill="#e0e0e0"/>
            <path id="Trazado_2487" data-name="Trazado 2487" d="M424.094,409.981s.011-.23.018-.662.01-1.081.018-1.911c.01-1.692.024-4.165.044-7.366.022-6.412.055-15.726.1-27.412l-.177.177,112.433.092h.007l-.269-.269c0,12.975.006,25.564.008,37.351l.261-.261-80.419.121-23.5.073-6.314.033-1.639.017c-.37.006-.567.016-.567.016s.175.011.535.016l1.607.017,6.258.033,23.441.073,80.6.121h.261v-.261c0-11.786.006-24.376.009-37.351v-.27h-.277l-112.433.093h-.178v.177c.041,11.732.074,21.082.1,27.518.02,3.184.033,5.643.044,7.327.008.817.014,1.441.018,1.88.007.42.018.626.018.626" transform="translate(62.972 55.314)" fill="#e0e0e0"/>
            <path id="Trazado_2488" data-name="Trazado 2488" d="M518.089,400.85a18.585,18.585,0,0,0,4.3,4.613,18.585,18.585,0,0,0-4.3-4.613" transform="translate(76.96 59.545)" fill="#e0e0e0"/>
            <path id="Trazado_2489" data-name="Trazado 2489" d="M518.089,377.494a20.43,20.43,0,0,0,4.455-4.891,20.433,20.433,0,0,0-4.455,4.891" transform="translate(76.96 55.349)" fill="#e0e0e0"/>
            <path id="Trazado_2490" data-name="Trazado 2490" d="M423.9,372.7a9.808,9.808,0,0,0,2.449,2.593,15.345,15.345,0,0,0,2.8,2.188,9.786,9.786,0,0,0-2.449-2.593,15.345,15.345,0,0,0-2.8-2.188" transform="translate(62.968 55.363)" fill="#e0e0e0"/>
            <path id="Trazado_2491" data-name="Trazado 2491" d="M424.07,405.753a23.12,23.12,0,0,0,5.051-4.9,23.191,23.191,0,0,0-5.051,4.9" transform="translate(62.994 59.545)" fill="#e0e0e0"/>
            <path id="Trazado_2492" data-name="Trazado 2492" d="M428.49,404.45s.01-.169.016-.485c0-.333.01-.8.017-1.4.009-1.246.023-3.056.04-5.406.021-4.717.052-11.584.091-20.264l-.164.164,102.927.106h.007l-.27-.27c0,9.471,0,18.705.007,27.555l.263-.263-73.45.119-21.618.075-5.825.036-1.515.016c-.342.006-.526.017-.526.017s.161.011.493.017l1.483.017,5.768.034,21.557.075,73.633.119h.263v-.263c0-8.85,0-18.084.006-27.555v-.269h-.276l-102.927.1h-.165v.164c.039,8.721.07,15.621.091,20.362.017,2.334.031,4.133.04,5.369.007.592.013,1.045.017,1.37.006.307.016.454.016.454" transform="translate(63.627 55.947)" fill="#e0e0e0"/>
            <path id="Trazado_2493" data-name="Trazado 2493" d="M464.7,386.837a10.977,10.977,0,0,1,2.763-1.258,8.928,8.928,0,0,1,2.732-.424h7.577a8.727,8.727,0,0,1,6.036,2.334,4.958,4.958,0,0,1,.9,1.092,3.114,3.114,0,0,1-.3,3.7c-.974.913-2.963.469-3.128-.857a3.288,3.288,0,0,1-3.489,3.1,4.427,4.427,0,0,1-3.726-3.232,2.958,2.958,0,0,1-5.886.447c-.935,1.219-2.319,2.356-3.915,1.839a2.823,2.823,0,0,1-1.814-2.026,4.546,4.546,0,0,1,2.241-4.717" transform="translate(68.683 57.215)" fill="#e0e0e0"/>
            <path id="Trazado_2494" data-name="Trazado 2494" d="M474.607,385.127a10.606,10.606,0,0,1,4.864,6.687c.064,0,.113-.5-.041-1.3a7.535,7.535,0,0,0-3.6-4.953c-.7-.391-1.2-.5-1.219-.439" transform="translate(70.502 57.208)" fill="#ebebeb"/>
            <path id="Trazado_2495" data-name="Trazado 2495" d="M472.092,385.4a16.854,16.854,0,0,0,.627,5.967,16.857,16.857,0,0,0-.627-5.967" transform="translate(70.114 57.251)" fill="#ebebeb"/>
            <path id="Trazado_2496" data-name="Trazado 2496" d="M469.163,385.325c-.034-.055-.43.1-.879.6a4.733,4.733,0,0,0-1.066,2.332,8.449,8.449,0,0,0-.014,2.528c.088.634.192,1.018.265,1.012s.1-.4.115-1.035a15.646,15.646,0,0,1,.164-2.412,5.866,5.866,0,0,1,.836-2.193c.332-.508.627-.767.578-.834" transform="translate(69.39 57.238)" fill="#ebebeb"/>
            <rect id="Rectángulo_87" data-name="Rectángulo 87" width="92.258" height="10.807" transform="translate(497.269 494.823)" fill="#ebebeb"/>
            <path id="Trazado_2497" data-name="Trazado 2497" d="M453.151,340.887V354.8h59.837a6.958,6.958,0,0,0,0-13.916" transform="translate(67.315 50.638)" fill="#e0e0e0"/>
            <path id="Trazado_2498" data-name="Trazado 2498" d="M453.151,351.509H473.39A3.505,3.505,0,0,0,476.895,348v-1.072a3.505,3.505,0,0,0-3.505-3.505H453.151Z" transform="translate(67.315 51.016)" fill="#ebebeb"/>
            <path id="Trazado_2499" data-name="Trazado 2499" d="M453.151,328.772v13.916h59.837a6.958,6.958,0,0,0,0-13.916Z" transform="translate(67.315 48.839)" fill="#ebebeb"/>
            <path id="Trazado_2500" data-name="Trazado 2500" d="M453.151,339.393H473.39a3.505,3.505,0,0,0,3.505-3.505v-1.07a3.5,3.5,0,0,0-3.505-3.505H453.151Z" transform="translate(67.315 49.216)" fill="#f5f5f5"/>
            <path id="Trazado_2501" data-name="Trazado 2501" d="M490.884,309.338l9.5,22.321h-6.116l-4.222-11.922Z" transform="translate(72.796 45.952)" fill="#e0e0e0"/>
            <path id="Trazado_2502" data-name="Trazado 2502" d="M465.844,291.751l-3.671,42.52h31.059l3.412-42.52Z" transform="translate(68.655 43.339)" fill="#f5f5f5"/>
            <path id="Trazado_2503" data-name="Trazado 2503" d="M468.427,294.715l-3.216,35.614,23.314.307,3.149-36.128Z" transform="translate(69.107 43.749)" fill="#fafafa"/>
            <path id="Trazado_2504" data-name="Trazado 2504" d="M472.555,298.98l-1.829,24.508h12.435l2.195-24.508Z" transform="translate(69.926 44.413)" fill="#e0e0e0"/>
          </g>
        </g>
        <g id="Grupo_184" data-name="Grupo 184">
          <g id="Grupo_183" data-name="Grupo 183" clip-path="url(#clip-path-6)">
            <path id="Trazado_2505" data-name="Trazado 2505" d="M17.932,463.344c0,.165,138.624.3,309.587.3,171.021,0,309.616-.133,309.616-.3s-138.594-.3-309.616-.3c-170.963,0-309.587.133-309.587.3" transform="translate(2.664 68.785)" fill="#263238"/>
          </g>
        </g>
        <g id="Grupo_189" data-name="Grupo 189">
          <g id="Grupo_188" data-name="Grupo 188" clip-path="url(#clip-path-6)">
            <path id="Trazado_2506" data-name="Trazado 2506" d="M20.058,236.524c13.572,7.03,23.979,19.135,31.462,32.463S63.827,296.938,68.6,311.458l4.181,74.879c-15.791-26.866-28.467-58.447-31.892-89.423l10.509-.936c-7.046-1.075-12.961-6.18-16.724-12.234s-5.7-13.034-7.591-19.907l12.821,1.907a47.522,47.522,0,0,1-19.85-29.219" transform="translate(2.98 35.135)" fill="#455a64"/>
            <g id="Grupo_187" data-name="Grupo 187" transform="translate(23.037 271.659)" opacity="0.3">
              <g id="Grupo_186" data-name="Grupo 186">
                <g id="Grupo_185" data-name="Grupo 185" clip-path="url(#clip-path-11)">
                  <path id="Trazado_2507" data-name="Trazado 2507" d="M20.058,236.524c13.572,7.03,23.979,19.135,31.462,32.463S63.827,296.938,68.6,311.458l4.181,74.879c-15.791-26.866-28.467-58.447-31.892-89.423l10.509-.936c-7.046-1.075-12.961-6.18-16.724-12.234s-5.7-13.034-7.591-19.907l12.821,1.907a47.522,47.522,0,0,1-19.85-29.219" transform="translate(-20.058 -236.524)"/>
                </g>
              </g>
            </g>
            <path id="Trazado_2508" data-name="Trazado 2508" d="M68.884,404.683s34.277-41.026,33.881-80.192H88.92s15.039-9.89,13.849-15.43-1.586-26.505-1.586-26.505l-12.659,3.164s9.5-4.747,10.682-12.263-2.769-42.331-2.769-42.331-15.428,16.22-20.177,32.836-17.208,36-13.549,86.638,6.175,54.082,6.175,54.082" transform="translate(9.217 34.334)" fill="#455a64"/>
            <path id="Trazado_2509" data-name="Trazado 2509" d="M60.724,402.779S23.588,378.04,15.338,346.465l11.132-3.029s-14.256-4.661-14.511-9.374-4.524-21.657-4.524-21.657l10.871-.225s-8.673-1.74-11.271-7.523S0,270.019,0,270.019,15.952,279.684,23.405,292s21.711,25.178,29.848,66.691,7.47,44.085,7.47,44.085" transform="translate(0 40.111)" fill="#455a64"/>
            <path id="Trazado_2510" data-name="Trazado 2510" d="M86.377,262.272a2.429,2.429,0,0,0-.121.426c-.075.312-.172.73-.3,1.263-.255,1.146-.618,2.781-1.083,4.869-.473,2.115-1.026,4.706-1.623,7.725S81.935,283,81.24,286.813c-1.466,7.607-3.013,16.7-4.607,26.82-1.544,10.126-3.087,21.281-4.459,33.022-1.344,11.747-2.387,22.964-3.194,33.176-.757,10.216-1.325,19.425-1.633,27.165-.194,3.868-.285,7.371-.381,10.447s-.161,5.724-.181,7.891c-.024,2.139-.043,3.812-.056,4.987,0,.546,0,.975,0,1.3a2.4,2.4,0,0,0,.021.442,2.53,2.53,0,0,0,.04-.441c.015-.322.034-.75.059-1.3.04-1.174.1-2.846.169-4.984.056-2.165.145-4.812.283-7.885s.249-6.573.47-10.439c.362-7.734.974-16.934,1.761-27.141.836-10.2,1.9-21.411,3.239-33.151,1.37-11.734,2.9-22.884,4.409-33.008,1.562-10.115,3.065-19.213,4.477-26.826.667-3.813,1.348-7.249,1.925-10.27S84.666,271,85.1,268.877c.418-2.1.744-3.74.974-4.891.1-.538.179-.959.239-1.276a2.5,2.5,0,0,0,.061-.439" transform="translate(9.912 38.96)" fill="#263238"/>
            <path id="Trazado_2511" data-name="Trazado 2511" d="M72.14,416.491s31.368-35.591,41.107-57.106l-7.352-3.141c5.329.88,10.789-1.412,14.922-4.889s7.167-8.054,10.143-12.562l-9.686-1.637a36.014,36.014,0,0,0,21.163-16.393c-11.43,1.879-21.771,8.158-30.292,16-6.9,6.355-12.744,13.732-18.355,21.269a72.434,72.434,0,0,0-7.129,11.72c-5.271,10.9-14.539,33.665-14.521,46.736" transform="translate(10.716 47.649)" fill="#455a64"/>
            <path id="Trazado_2512" data-name="Trazado 2512" d="M12.925,288.055a1.841,1.841,0,0,0,.147.362l.484,1.033c.454.937,1.1,2.26,1.913,3.948,1.684,3.416,4.068,8.384,6.952,14.552s6.223,13.556,9.8,21.817c3.546,8.273,7.323,17.421,11.081,27.1,3.735,9.7,7.1,19.008,10.038,27.517,2.91,8.519,5.422,16.229,7.427,22.736s3.594,11.784,4.645,15.443c.531,1.8.945,3.209,1.239,4.207.141.455.253.814.338,1.09a1.9,1.9,0,0,0,.134.366,1.859,1.859,0,0,0-.076-.382c-.07-.28-.163-.646-.279-1.106-.269-1.006-.649-2.426-1.132-4.238-.983-3.68-2.5-8.981-4.464-15.5s-4.425-14.255-7.309-22.789c-2.916-8.525-6.263-17.85-10-27.554-3.76-9.693-7.556-18.842-11.133-27.109-3.608-8.255-6.979-15.634-9.922-21.778s-5.379-11.091-7.128-14.476l-2.013-3.9c-.224-.419-.4-.752-.538-1.007a1.883,1.883,0,0,0-.2-.333" transform="translate(1.92 42.79)" fill="#263238"/>
            <path id="Trazado_2513" data-name="Trazado 2513" d="M69.824,425.258a2.827,2.827,0,0,0,.146-.655c.079-.5.179-1.122.3-1.889.119-.822.271-1.826.488-2.986s.412-2.488.727-3.938c.562-2.914,1.367-6.355,2.392-10.139,1.06-3.775,2.36-7.887,3.946-12.125,1.611-4.231,3.354-8.178,5.054-11.712,1.731-3.519,3.4-6.634,4.907-9.192.721-1.3,1.447-2.426,2.056-3.435s1.154-1.868,1.608-2.562c.415-.658.753-1.193,1.022-1.618a2.813,2.813,0,0,0,.323-.588,2.836,2.836,0,0,0-.423.519c-.293.41-.663.925-1.116,1.557-.485.676-1.064,1.514-1.7,2.513s-1.39,2.112-2.137,3.4c-1.556,2.538-3.271,5.644-5.038,9.164-1.734,3.535-3.5,7.493-5.118,11.743-1.593,4.257-2.884,8.394-3.919,12.192-1,3.809-1.766,7.273-2.276,10.206-.289,1.46-.463,2.8-.642,3.965s-.3,2.179-.388,3.007c-.077.774-.14,1.4-.191,1.907a2.756,2.756,0,0,0-.026.668" transform="translate(10.371 54.134)" fill="#263238"/>
            <rect id="Rectángulo_91" data-name="Rectángulo 91" width="68.652" height="14.004" transform="translate(38.805 471.02)" fill="#74baad"/>
            <path id="Trazado_2514" data-name="Trazado 2514" d="M95.085,422.293l-7.425,47.1H46.175l-6.922-47.1Z" transform="translate(5.831 62.731)" fill="#7fc6ba"/>
            <path id="Trazado_2515" data-name="Trazado 2515" d="M37.453,422.332c0,.165,12.987.3,29,.3s29.007-.133,29.007-.3-12.984-.3-29.007-.3-29,.133-29,.3" transform="translate(5.564 62.693)" fill="#263238"/>
          </g>
        </g>
        <g id="Grupo_194" data-name="Grupo 194">
          <g id="Grupo_193" data-name="Grupo 193" clip-path="url(#clip-path-6)">
            <path id="Trazado_2516" data-name="Trazado 2516" d="M331.7,113.055c-1.118-5.6-5.081-8.589-10.356-10.787a17.821,17.821,0,0,0-16.393,1.56c-3.187,2.109-5.786,5.309-9.471,6.322-6.068,1.669-12.726-3.232-18.589-.946a8.118,8.118,0,0,0,2.813,15.681c-3.965,1.157-5.534,6.6-3.5,10.195s6.593,5.2,10.694,4.716,7.8-2.711,11.043-5.263,6.2-5.487,9.641-7.772,7.538-3.917,11.638-3.422c5.551.67,10.054,5.186,12.207,10.347s2.348,10.905,2.289,16.5-.335,11.262.962,16.7c.153.639.4,1.359,1.014,1.593.886.338,1.718-.572,2.223-1.375a82.065,82.065,0,0,0,11.371-29.824c1.039-6.131,1.263-11.989-1.786-17.407s-11.373-9.814-15.8-6.813" transform="translate(40.365 14.997)" fill="#263238"/>
            <path id="Trazado_2517" data-name="Trazado 2517" d="M338.987,138.628l-1.174,57.086c-.219,10.66-5.572,21.685-22.409,20.57-14.537-2.07-14.916-12.263-14.844-24.906h0s-15.927-1.828-16.755-17.647c-.4-7.644.059-23.456.639-37.755a29.5,29.5,0,0,1,28.312-28.267l1.526-.061c16.5.3,25.466,14.49,24.705,30.98" transform="translate(42.137 15.991)" fill="#ffbe9d"/>
            <path id="Trazado_2518" data-name="Trazado 2518" d="M298.374,181.443a38.259,38.259,0,0,0,20.363-6.914S314.247,187,298.4,186.205Z" transform="translate(44.323 25.926)" fill="#eb996e"/>
            <path id="Trazado_2519" data-name="Trazado 2519" d="M289.222,146.437a2.261,2.261,0,0,0,2.271,2.193,2.163,2.163,0,0,0,2.248-2.131,2.263,2.263,0,0,0-2.268-2.195,2.166,2.166,0,0,0-2.25,2.133" transform="translate(42.964 21.436)" fill="#263238"/>
            <path id="Trazado_2520" data-name="Trazado 2520" d="M287.578,139.287c.292.284,1.954-1.052,4.386-1.143,2.428-.125,4.262,1.054,4.515.747.124-.138-.183-.658-.982-1.193a6.21,6.21,0,0,0-3.629-.961,5.957,5.957,0,0,0-3.477,1.278c-.725.6-.957,1.146-.813,1.273" transform="translate(42.713 20.311)" fill="#263238"/>
            <path id="Trazado_2521" data-name="Trazado 2521" d="M308.846,145.578a2.262,2.262,0,0,0,2.271,2.193,2.163,2.163,0,0,0,2.248-2.131,2.264,2.264,0,0,0-2.268-2.195,2.165,2.165,0,0,0-2.25,2.133" transform="translate(45.879 21.309)" fill="#263238"/>
            <path id="Trazado_2522" data-name="Trazado 2522" d="M308.407,138.851c.293.284,1.956-1.052,4.386-1.143,2.428-.125,4.263,1.054,4.516.747.124-.138-.18-.658-.983-1.192a6.208,6.208,0,0,0-3.628-.962,5.965,5.965,0,0,0-3.477,1.277c-.724.6-.957,1.147-.814,1.274" transform="translate(45.808 20.246)" fill="#263238"/>
            <path id="Trazado_2523" data-name="Trazado 2523" d="M302.156,157.157c.006-.139-1.516-.34-3.979-.555-.624-.039-1.216-.139-1.338-.559a3.164,3.164,0,0,1,.341-1.857q.787-2.29,1.648-4.8c2.281-6.835,3.906-12.445,3.631-12.534s-2.35,5.378-4.631,12.213q-.822,2.527-1.57,4.827a3.6,3.6,0,0,0-.224,2.451,1.558,1.558,0,0,0,1.057.866,4.261,4.261,0,0,0,1.061.106c2.471.033,4-.016,4-.155" transform="translate(43.954 20.329)" fill="#263238"/>
            <path id="Trazado_2524" data-name="Trazado 2524" d="M307.526,130.5c.266.651,2.682.241,5.549.471,2.872.172,5.206.917,5.561.308.157-.291-.269-.9-1.224-1.5a9.684,9.684,0,0,0-8.464-.593c-1.031.464-1.538,1-1.422,1.314" transform="translate(45.68 19.087)" fill="#263238"/>
            <path id="Trazado_2525" data-name="Trazado 2525" d="M288.116,133.145c.45.535,2.1-.1,4.116-.212,2.009-.178,3.735.223,4.1-.371.161-.287-.129-.829-.895-1.323a5.971,5.971,0,0,0-6.625.471c-.689.595-.9,1.174-.7,1.436" transform="translate(42.789 19.379)" fill="#263238"/>
            <path id="Trazado_2526" data-name="Trazado 2526" d="M331.114,144.953c.265-.128,10.746-3.65,10.832,7.183s-10.808,8.685-10.829,8.375,0-15.558,0-15.558" transform="translate(49.186 21.437)" fill="#ffbe9d"/>
            <path id="Trazado_2527" data-name="Trazado 2527" d="M333.97,155.929c.048-.034.19.131.51.275a1.888,1.888,0,0,0,1.412.017c1.141-.43,2.09-2.253,2.127-4.206a6.243,6.243,0,0,0-.55-2.7,2.18,2.18,0,0,0-1.431-1.438.961.961,0,0,0-1.109.526c-.142.3-.072.52-.13.54-.03.026-.234-.18-.15-.628a1.2,1.2,0,0,1,.422-.682,1.429,1.429,0,0,1,1.041-.285,2.653,2.653,0,0,1,1.985,1.664,6.4,6.4,0,0,1,.679,3.015c-.052,2.183-1.153,4.235-2.715,4.7a2.02,2.02,0,0,1-1.729-.273c-.338-.264-.4-.507-.36-.526" transform="translate(49.61 21.887)" fill="#eb996e"/>
            <path id="Trazado_2528" data-name="Trazado 2528" d="M284.014,121.568a20.66,20.66,0,0,1,6.339-7.919,35.268,35.268,0,0,1,20.154-8.127,28.727,28.727,0,0,1,20.44,6.805,30.324,30.324,0,0,1,8.938,14.962,44.548,44.548,0,0,1,.805,17.545c-.355,2.562-.942,5.232-2.653,7.173-1.069,1.212-2.955,2.057-4.275,1.124a4.318,4.318,0,0,1-1.359-2.446c-2.415-8.266-4.828-17.162-2.092-25.327a24.869,24.869,0,0,0-7.726-6.551,12.866,12.866,0,0,0-9.883-.952c-4.765,1.678-7.548,6.488-11.267,9.907a22.877,22.877,0,0,1-20.123,5.384Z" transform="translate(41.789 15.668)" fill="#263238"/>
            <path id="Trazado_2529" data-name="Trazado 2529" d="M300.342,160.729a10.816,10.816,0,0,0,1.209,2.819,3.635,3.635,0,0,0,2.476,1.664,3.256,3.256,0,0,0,2.847-1.316,5.208,5.208,0,0,0,.974-3.075c.021-.989-.353-2.195-1.324-2.375a2.457,2.457,0,0,0-1.207.185q-2.643.872-5.287,1.747" transform="translate(44.569 23.534)" fill="#eb996e"/>
            <path id="Trazado_2530" data-name="Trazado 2530" d="M302.25,165.166a7.459,7.459,0,0,0,2.768-.157,3.936,3.936,0,0,0,2.2-1.749,4.145,4.145,0,0,0,.291-3.363,3.658,3.658,0,0,0-.4-.8c-.189-.227-.153-.215-.377-.2-.214.043-.563.179-.846.269l-.868.288c-1.131.373-2.155.7-3.018.956a9.365,9.365,0,0,1-2.859.658,9.429,9.429,0,0,1,2.643-1.273c.837-.338,1.838-.725,2.954-1.142l.858-.318a9.407,9.407,0,0,1,.966-.325,1.2,1.2,0,0,1,.762.072,1.41,1.41,0,0,1,.539.487,4.456,4.456,0,0,1,.513,1.014,4.834,4.834,0,0,1-.43,4.108,4.412,4.412,0,0,1-2.753,1.94,4.169,4.169,0,0,1-2.236-.061c-.5-.169-.73-.359-.708-.409" transform="translate(44.437 23.468)" fill="#263238"/>
            <path id="Trazado_2531" data-name="Trazado 2531" d="M273.4,110.69a2.856,2.856,0,0,0-.111.729,7.182,7.182,0,0,0,.225,2.108,9.92,9.92,0,0,0,4.779,5.989c2.909,1.707,7.163,1.958,11.334.705,4.236-1.2,8.258-3.883,12.51-6.378,4.23-2.492,8.7-4.4,12.961-4.227a16.962,16.962,0,0,1,10.245,4.088,22.652,22.652,0,0,1,4.947,5.774c.915,1.562,1.289,2.5,1.355,2.473a2.817,2.817,0,0,0-.233-.7,18.28,18.28,0,0,0-.884-1.911,21.5,21.5,0,0,0-4.864-6.018,17.246,17.246,0,0,0-10.545-4.354c-4.455-.216-9.07,1.754-13.335,4.266-4.286,2.518-8.242,5.17-12.34,6.364-4.044,1.25-8.119,1.047-10.91-.518a9.835,9.835,0,0,1-4.757-5.628,10.831,10.831,0,0,1-.377-2.763" transform="translate(40.596 16.185)" fill="#455a64"/>
            <path id="Trazado_2532" data-name="Trazado 2532" d="M339.97,131.7a7.625,7.625,0,0,0-.83-2.879,18.459,18.459,0,0,0-4.129-5.948,18.243,18.243,0,0,0-3.17-2.461,6.773,6.773,0,0,0-3.133-1.119,3.589,3.589,0,0,0-2.185.564c-.443.314-.586.587-.554.611a4.124,4.124,0,0,1,2.7-.679c1.732.192,3.865,1.724,5.853,3.588a21.439,21.439,0,0,1,4.168,5.655c.835,1.611,1.167,2.7,1.281,2.668" transform="translate(48.422 17.72)" fill="#455a64"/>
            <path id="Trazado_2533" data-name="Trazado 2533" d="M338.723,140.164a8.271,8.271,0,0,0-1.016-2.843,20.036,20.036,0,0,0-10.653-9.614,8.322,8.322,0,0,0-2.931-.721,28.152,28.152,0,0,0,2.74,1.18,22.989,22.989,0,0,1,10.406,9.393,28.7,28.7,0,0,0,1.454,2.606" transform="translate(48.148 18.861)" fill="#455a64"/>
            <path id="Trazado_2534" data-name="Trazado 2534" d="M274.919,274.669,217.3,297.876l9.186,16.46,65.341-10.021Z" transform="translate(32.279 40.802)" fill="#ffbe9d"/>
            <path id="Trazado_2535" data-name="Trazado 2535" d="M268.531,221.519c-.3,16.215.224,55.261.224,55.261l-9.237,14.514,16.165,21.772,18.674,2.629,1.856,14.482s32.714,14.644,58.891,5.766c20.366-6.907,44.167,16.319,44.167,16.319s2.174-3.793-1.356-36.553c-3.366-31.224-9.253-82.758-9.253-82.758l-18.825-47.082-28.274-4.9c-11.837,20.131-35.517,20.244-37.417,8.009l-18.8,7.826a26.7,26.7,0,0,0-16.817,24.719" transform="translate(38.551 26.882)" fill="#7fc6ba"/>
            <path id="Trazado_2536" data-name="Trazado 2536" d="M281.553,220.574c-.164.018,1.822,18.616,4.436,41.533s4.87,41.487,5.034,41.468-1.823-18.612-4.439-41.536-4.868-41.483-5.031-41.465" transform="translate(41.823 32.766)" fill="#263238"/>
            <path id="Trazado_2537" data-name="Trazado 2537" d="M289.671,257.119c-.09.139,9.147,6.237,20.628,13.618s20.863,13.254,20.953,13.115-9.145-6.234-20.629-13.618-20.862-13.254-20.952-13.115" transform="translate(43.03 38.194)" fill="#263238"/>
            <path id="Trazado_2538" data-name="Trazado 2538" d="M318.447,472.748h10.858l6.2-73.012H318.447Z" transform="translate(47.305 59.38)" fill="#263238"/>
            <path id="Trazado_2539" data-name="Trazado 2539" d="M392.091,472.748H402.95l6.2-73.012H392.091Z" transform="translate(58.245 59.38)" fill="#263238"/>
            <path id="Trazado_2540" data-name="Trazado 2540" d="M213.96,472.748h10.858l6.2-73.012H213.96Z" transform="translate(31.784 59.38)" fill="#263238"/>
            <path id="Trazado_2541" data-name="Trazado 2541" d="M389.519,363.562,379.176,205.271h97.609a11.879,11.879,0,0,1,11.681,14.042L449.2,431.347c-12.492-.176-240.217,0-240.217,0V363.562Z" transform="translate(31.044 30.493)" fill="#455a64"/>
            <path id="Trazado_2542" data-name="Trazado 2542" d="M240.089,381.839c0,.165,21.636.3,48.321.3s48.325-.133,48.325-.3-21.632-.3-48.325-.3-48.321.133-48.321.3" transform="translate(35.665 56.677)" fill="#263238"/>
            <path id="Trazado_2543" data-name="Trazado 2543" d="M170.7,413.866l-7.027,33.511s-36.423,4.113-38.325,10.18l64.489,15.958L202.93,421.75Z" transform="translate(18.621 61.479)" fill="#f1b20a"/>
            <path id="Trazado_2544" data-name="Trazado 2544" d="M177.169,444.947a2.713,2.713,0,0,1,1.077,3.456,2.607,2.607,0,0,1-3.416,1.1,2.861,2.861,0,0,1-1.122-3.666c.732-1.114,2.691-1.641,3.68-.748" transform="translate(25.759 66.05)" fill="#e0e0e0"/>
            <path id="Trazado_2545" data-name="Trazado 2545" d="M189.548,469.575l1.274-5.015-62.116-14.954s-3.18.539-3.356,2.642Z" transform="translate(18.621 66.789)" fill="#e0e0e0"/>
            <path id="Trazado_2546" data-name="Trazado 2546" d="M157.879,442.551c-.068.317,1.471.85,2.77,2.245,1.336,1.362,1.8,2.924,2.117,2.871.306.01.3-1.988-1.3-3.651s-3.583-1.771-3.587-1.466" transform="translate(23.453 65.72)" fill="#263238"/>
            <path id="Trazado_2547" data-name="Trazado 2547" d="M151.389,443.52c-.148.287,1.083,1.16,1.824,2.757.787,1.575.7,3.082,1.016,3.146.284.123.959-1.668,0-3.635-.939-1.975-2.759-2.566-2.84-2.267" transform="translate(22.487 65.874)" fill="#263238"/>
            <path id="Trazado_2548" data-name="Trazado 2548" d="M146.455,450.512c.27.138,1.1-1.327.716-3.252s-1.685-2.976-1.884-2.746c-.241.215.486,1.377.775,2.962.326,1.577.087,2.928.393,3.036" transform="translate(21.575 66.028)" fill="#263238"/>
            <path id="Trazado_2549" data-name="Trazado 2549" d="M160.011,436.11c.061.319,1.613.242,3.363.8,1.762.526,3,1.466,3.23,1.237.239-.183-.826-1.684-2.9-2.315-2.065-.648-3.791-.011-3.7.274" transform="translate(23.769 64.701)" fill="#263238"/>
            <g id="Grupo_192" data-name="Grupo 192" transform="translate(143.971 475.346)" opacity="0.3">
              <g id="Grupo_191" data-name="Grupo 191">
                <g id="Grupo_190" data-name="Grupo 190" clip-path="url(#clip-path-13)">
                  <path id="Trazado_2550" data-name="Trazado 2550" d="M170.7,413.866l-7.027,33.511s-36.423,4.113-38.325,10.18l64.2,17.327L202.93,421.75Z" transform="translate(-125.35 -413.866)"/>
                </g>
              </g>
            </g>
            <path id="Trazado_2551" data-name="Trazado 2551" d="M199.947,330.114,159.123,448.63l35.256,13.039,64.97-129.918,107.934-16.885L302.5,297.44l-92.4,23.342a14.492,14.492,0,0,0-10.153,9.332" transform="translate(23.638 44.184)" fill="#263238"/>
            <path id="Trazado_2552" data-name="Trazado 2552" d="M173.828,402.4l-23.316,25.606s-33.857-15.1-38.626-10.786l48.024,46.989,37.964-38.406Z" transform="translate(16.621 59.777)" fill="#f1b20a"/>
            <path id="Trazado_2553" data-name="Trazado 2553" d="M160.83,435.7a2.743,2.743,0,0,1-.834,3.565,2.636,2.636,0,0,1-3.54-.8,2.893,2.893,0,0,1,.9-3.771c1.209-.6,3.187-.049,3.592,1.236" transform="translate(23.19 64.538)" fill="#e0e0e0"/>
            <path id="Trazado_2554" data-name="Trazado 2554" d="M158.957,463.464l3.682-3.718-46.473-44.9s-3.048-1.161-4.279.581Z" transform="translate(16.621 61.569)" fill="#e0e0e0"/>
            <path id="Trazado_2555" data-name="Trazado 2555" d="M145.052,423.827c-.222.242.846,1.5,1.262,3.379.466,1.872.067,3.47.373,3.588.261.165,1.283-1.578.739-3.85-.523-2.275-2.214-3.383-2.374-3.117" transform="translate(21.543 62.953)" fill="#263238"/>
            <path id="Trazado_2556" data-name="Trazado 2556" d="M138.964,421.347c-.276.175.349,1.567.176,3.339-.122,1.776-.971,3.045-.727,3.263.184.253,1.691-.963,1.864-3.169.194-2.2-1.089-3.651-1.313-3.433" transform="translate(20.555 62.588)" fill="#263238"/>
            <path id="Trazado_2557" data-name="Trazado 2557" d="M131.264,424.91c.164.258,1.637-.594,2.291-2.467s.057-3.458-.233-3.359c-.32.063-.283,1.448-.843,2.979-.525,1.541-1.425,2.6-1.215,2.847" transform="translate(19.495 62.254)" fill="#263238"/>
            <path id="Trazado_2558" data-name="Trazado 2558" d="M150.239,419.267c-.111.31,1.282,1.039,2.519,2.426,1.266,1.362,1.862,2.816,2.181,2.735.3-.037.144-1.891-1.337-3.5s-3.3-1.955-3.363-1.657" transform="translate(22.317 62.267)" fill="#263238"/>
            <path id="Trazado_2559" data-name="Trazado 2559" d="M380.359,363.981l-94.118-.4-104.45,97.263L149.32,430.607s88.689-100.087,98.941-110.412,108.978-17.208,108.978-17.208l59.348,25.783L415.24,335.5a35.419,35.419,0,0,1-34.881,28.477" transform="translate(22.181 45.008)" fill="#263238"/>
            <path id="Trazado_2560" data-name="Trazado 2560" d="M270.636,344.98a56.829,56.829,0,0,0-1.431,11.549,56.632,56.632,0,0,0,1.431-11.549" transform="translate(39.981 51.246)" fill="#455a64"/>
            <path id="Trazado_2561" data-name="Trazado 2561" d="M158.764,403.6a10.407,10.407,0,0,0,1.168,1.367c.78.853,1.928,2.069,3.363,3.555,2.869,2.974,6.9,7.016,11.464,11.369s8.792,8.193,11.9,10.919c1.552,1.363,2.82,2.453,3.709,3.192a10.424,10.424,0,0,0,1.42,1.1,10.263,10.263,0,0,0-1.265-1.276l-3.581-3.332c-3.03-2.806-7.207-6.689-11.767-11.038s-8.633-8.34-11.576-11.235l-3.5-3.42a10.411,10.411,0,0,0-1.335-1.2" transform="translate(23.584 59.954)" fill="#455a64"/>
            <path id="Trazado_2562" data-name="Trazado 2562" d="M216.405,428.375s-.218.176-.625.541l-1.8,1.633-6.888,6.337-25.4,23.523h.287c-9.221-8.608-20.237-18.9-32.43-30.283l.022.371c13.682-15.953,30.07-33.427,47.241-52.012,7.592-8.205,15-16.224,22.074-24.037s13.833-15.42,20-22.9c3.071-3.729,6.122-7.362,9.753-10.124a25.421,25.421,0,0,1,5.784-3.368,36.921,36.921,0,0,1,6.229-1.912c4.191-.905,8.328-1.431,12.272-2.073l11.36-1.767c14.46-2.265,26.164-4.1,34.275-5.367l9.315-1.49,2.42-.4c.544-.093.821-.157.821-.157s-.284.023-.832.1l-2.429.343-9.331,1.378-34.3,5.18-11.366,1.73c-3.948.629-8.074,1.142-12.308,2.044a37.193,37.193,0,0,0-6.318,1.924,25.972,25.972,0,0,0-5.907,3.42c-3.7,2.8-6.78,6.467-9.859,10.193-6.169,7.458-12.932,15.047-20.008,22.855s-14.487,15.82-22.079,24.024c-17.171,18.585-33.545,36.074-47.213,52.071l-.167.2.188.176,32.511,30.2.144.134.144-.134,25.272-23.661,6.811-6.419,1.757-1.677c.393-.379.583-.585.583-.585" transform="translate(22.133 45.291)" fill="#455a64"/>
            <path id="Trazado_2563" data-name="Trazado 2563" d="M282.056,292.087l28.391,9.569,52.279-21.261,27.906,25.948-74.567,13.382a16.327,16.327,0,0,1-7.525-.538l-21.984-6.906s-7.185,8.117-8.683,8.237-4.53-.087-3.087-2.767a71.31,71.31,0,0,1,5.136-7.348s-10.095,8.327-11.24,7.214-.687-3.69,1.1-5.794,7.725-8.913,7.725-8.913-12.441,10.3-13.623,8.739-1.769-4.027,3.216-8.806c3.273-3.14,8.313-7.618,10.963-9.953a4.067,4.067,0,0,1,3.991-.8" transform="translate(39.079 41.652)" fill="#ffbe9d"/>
            <path id="Trazado_2564" data-name="Trazado 2564" d="M304.993,299.128a55.033,55.033,0,0,0,5.678,6.481,21.877,21.877,0,0,0-5.678-6.481" transform="translate(45.305 44.434)" fill="#eb996e"/>
            <path id="Trazado_2565" data-name="Trazado 2565" d="M268.532,310.024a11.722,11.722,0,0,0,2.394-2.451c1.37-1.608,3.184-3.89,5.234-6.361,2.094-2.364,3.849-5.059,6.119-4.619a4.863,4.863,0,0,1,2.282.693c.49.3.725.534.76.5s-.152-.311-.628-.69a4.6,4.6,0,0,0-2.383-.923,4.992,4.992,0,0,0-1.792.15,2.99,2.99,0,0,0-.944.447,9.657,9.657,0,0,0-.8.682,41,41,0,0,0-3.075,3.379c-2.061,2.483-3.821,4.806-5.1,6.478l-1.522,1.974c-.355.469-.574.7-.542.742" transform="translate(39.89 43.992)" fill="#eb996e"/>
            <path id="Trazado_2566" data-name="Trazado 2566" d="M288,302.043c.023-.023-.169-.286-.659-.595a4.379,4.379,0,0,0-2.352-.6,4.61,4.61,0,0,0-1.688.327,4.164,4.164,0,0,0-1.5,1.3c-.42.539-.78,1.143-1.177,1.727-.391.565-.876,1.162-1.327,1.77-3.7,4.859-6.444,9.015-6.2,9.167.041.017.208-.237.541-.685l1.418-1.891,4.714-6.231c.457-.62.913-1.18,1.336-1.8.4-.611.747-1.208,1.13-1.722a3.75,3.75,0,0,1,1.273-1.181,4.411,4.411,0,0,1,1.494-.354,5.241,5.241,0,0,1,2.994.773" transform="translate(40.566 44.69)" fill="#eb996e"/>
            <path id="Trazado_2567" data-name="Trazado 2567" d="M265.96,302.077a14.283,14.283,0,0,0,2.305-1.823c1.372-1.182,3.24-2.844,5.278-4.708L276.4,292.9a8.945,8.945,0,0,1,2.451-1.88,5.054,5.054,0,0,1,2.774-.4c.018-.036-.238-.194-.757-.277a4.261,4.261,0,0,0-2.183.292,6.665,6.665,0,0,0-1.34.745c-.447.333-.864.714-1.311,1.113l-2.891,2.613c-2.04,1.865-3.864,3.579-5.164,4.841a14.328,14.328,0,0,0-2.019,2.134" transform="translate(39.508 43.124)" fill="#eb996e"/>
            <path id="Trazado_2568" data-name="Trazado 2568" d="M382.334,321.208s10.609-11.915,9.942-27.812-5.228-61.909-7.257-74.536c-2.007-12.487-11.525-29.847-26.65-33.6-11.063-2.75-13.346,30.715-13.346,30.715l8.355,73.864-16.652,9.671,15.541,26.326Z" transform="translate(50.02 27.496)" fill="#7fc6ba"/>
            <path id="Trazado_2569" data-name="Trazado 2569" d="M345.2,211.677c.115.013.252-1.616.951-4.131a28.933,28.933,0,0,1,1.583-4.289,28.959,28.959,0,0,1,6.524-9.013,29.025,29.025,0,0,1,3.579-2.843c2.171-1.451,3.675-2.089,3.627-2.195a4.244,4.244,0,0,0-1.082.386,10.351,10.351,0,0,0-1.219.574,17.532,17.532,0,0,0-1.555.879,25.686,25.686,0,0,0-3.724,2.793,27.2,27.2,0,0,0-6.652,9.191,25.742,25.742,0,0,0-1.49,4.409,17.178,17.178,0,0,0-.349,1.753,10.5,10.5,0,0,0-.165,1.337,4.194,4.194,0,0,0-.028,1.149" transform="translate(51.276 28.106)" fill="#263238"/>
            <path id="Trazado_2570" data-name="Trazado 2570" d="M351.254,276.334a20.581,20.581,0,0,0,2.629,1.536,59.361,59.361,0,0,1,6.13,3.971,64.619,64.619,0,0,1,5.583,4.715,19.8,19.8,0,0,0,2.256,2.048,12.75,12.75,0,0,0-1.957-2.348,44.11,44.11,0,0,0-5.525-4.9,41.6,41.6,0,0,0-6.288-3.864,12.354,12.354,0,0,0-2.828-1.162" transform="translate(52.178 41.048)" fill="#263238"/>
            <path id="Trazado_2571" data-name="Trazado 2571" d="M266.637,262.038,284.9,328.379H199.6l-20.782-63.2a3.842,3.842,0,0,1,3.605-5.042l80.463-.919a3.843,3.843,0,0,1,3.748,2.822" transform="translate(26.535 38.506)" fill="#e0e0e0"/>
            <path id="Trazado_2572" data-name="Trazado 2572" d="M250.444,259.234c-.161.044,3.98,15.559,9.242,34.649s9.662,34.538,9.82,34.494-3.979-15.556-9.244-34.653-9.66-34.535-9.819-34.491" transform="translate(37.203 38.509)" fill="#263238"/>
            <path id="Trazado_2573" data-name="Trazado 2573" d="M222.628,288.746a3.6,3.6,0,1,1-4.992-2.131,3.855,3.855,0,0,1,4.992,2.131" transform="translate(32.049 42.53)" fill="#fff"/>
            <path id="Trazado_2574" data-name="Trazado 2574" d="M271.433,320.066h57.081a4.884,4.884,0,0,0-4.884-4.884H269.317Z" transform="translate(40.007 46.82)" fill="#e0e0e0"/>
            <path id="Trazado_2575" data-name="Trazado 2575" d="M392.328,287.379a3.226,3.226,0,0,0-.034.538c-.008.385-.02.905-.033,1.569a23.823,23.823,0,0,1-.175,2.538c-.055,1.005-.283,2.143-.493,3.427a43.258,43.258,0,0,1-2.869,9,45.122,45.122,0,0,1-6.508,10.586l.136-.074-30.076,4.567.291.138-12.1-20.529q-1.731-2.93-3.427-5.8l-.107.41,16.645-9.682.156-.092-.016-.179c-1.526-16.908-2.839-31.447-3.774-41.8-.485-5.131-.872-9.222-1.142-12.067-.14-1.378-.25-2.453-.328-3.218-.04-.342-.071-.616-.1-.828a1.254,1.254,0,0,0-.049-.28,1.28,1.28,0,0,0,0,.285c.013.214.029.487.049.833.056.766.134,1.843.237,3.225.23,2.848.562,6.944.976,12.082.882,10.355,2.12,24.9,3.562,41.816l.14-.27-16.659,9.658-.26.15.153.258,3.425,5.8,12.125,20.517.1.168.192-.03,30.057-4.683.087-.013.049-.061a44.711,44.711,0,0,0,9.287-19.845,33.792,33.792,0,0,0,.438-3.457,22.113,22.113,0,0,0,.111-2.553c-.014-.666-.024-1.188-.032-1.574a3.146,3.146,0,0,0-.033-.535" transform="translate(49.967 33.513)" fill="#263238"/>
            <path id="Trazado_2576" data-name="Trazado 2576" d="M436.857,297.44s-100.882,12.768-104.481,16.3c-3.163,3.107-7.2,85.043-8.1,84.645l94.144-3.569Z" transform="translate(48.172 44.184)" fill="#455a64"/>
            <path id="Trazado_2577" data-name="Trazado 2577" d="M349.837,415.553c.164.014,2.265-23.619,4.691-52.778s4.26-52.819,4.1-52.833-2.265,23.613-4.692,52.783-4.259,52.815-4.095,52.829" transform="translate(51.967 46.042)" fill="#263238"/>
            <path id="Trazado_2578" data-name="Trazado 2578" d="M448.946,205.271a2.039,2.039,0,0,0-.116.392c-.071.292-.164.676-.281,1.163-.243,1.06-.588,2.565-1.027,4.484-.874,3.936-2.126,9.57-3.668,16.516-3.047,13.988-7.243,33.256-11.878,54.538-1.15,5.328-2.273,10.529-3.357,15.554q-.81,3.768-1.591,7.4-.195.906-.388,1.8a9.6,9.6,0,0,1-.454,1.712,5.261,5.261,0,0,1-2.195,2.522,5.423,5.423,0,0,1-1.549.619c-.531.116-1.128.169-1.692.249l-3.376.442-6.454.848-11.582,1.532L382.572,317.3l-4.554.644-1.182.183a2.044,2.044,0,0,0-.4.082,1.982,1.982,0,0,0,.408-.022l1.19-.123,4.569-.533,16.791-2.071L410.984,314l6.457-.819,3.377-.428c.574-.082,1.135-.123,1.745-.253a6.019,6.019,0,0,0,1.708-.675,5.824,5.824,0,0,0,2.435-2.784,10.259,10.259,0,0,0,.488-1.807q.195-.9.392-1.8.787-3.623,1.606-7.393c1.088-5.024,2.214-10.224,3.369-15.551,4.568-21.3,8.7-40.577,11.707-54.574,1.464-6.964,2.652-12.611,3.482-16.556.393-1.93.7-3.442.917-4.508.094-.492.168-.881.224-1.176a2.044,2.044,0,0,0,.056-.4" transform="translate(55.919 30.493)" fill="#263238"/>
            <path id="Trazado_2579" data-name="Trazado 2579" d="M331.045,317.308c-.164-.014-2.09,21.78-4.3,48.671s-3.868,48.71-3.7,48.724,2.089-21.775,4.3-48.675,3.868-48.705,3.7-48.719" transform="translate(47.986 47.136)" fill="#263238"/>
          </g>
        </g>
      </g>
    </g>
  </g>
</svg>
