<svg xmlns="http://www.w3.org/2000/svg" xmlns:xlink="http://www.w3.org/1999/xlink" width="150" height="30.368" viewBox="0 0 150 30.368">
  <defs>
    <clipPath id="clip-path">
      <rect id="Rectángulo_2" data-name="Rectángulo 2" width="150" height="30.368" fill="none"/>
    </clipPath>
  </defs>
  <g id="Grupo_2" data-name="Grupo 2" transform="translate(-5 18)">
    <g id="Grupo_1" data-name="Grupo 1" transform="translate(5 -18)" clip-path="url(#clip-path)">
      <path id="Trazado_1" data-name="Trazado 1" d="M306.757,19.881a8.808,8.808,0,0,0-4.794-1.526,23.08,23.08,0,0,0-6.362.559,28.688,28.688,0,0,0-6.451,2.238,18.4,18.4,0,0,0-2.1,1.284,13.465,13.465,0,0,0-2.3,2.014,3.5,3.5,0,0,0-1.092,2.358c.017.858.688,1.525,2.053,2.039a.641.641,0,0,0,.838-.306.722.722,0,0,0-.387-.891c-1.029-.45-.952-.873-.927-1.012a3.063,3.063,0,0,1,.987-1.56,13.993,13.993,0,0,1,1.988-1.571,15.776,15.776,0,0,1,1.587-.952,27.57,27.57,0,0,1,5.7-2.024,24,24,0,0,1,5.815-.692,7.994,7.994,0,0,1,4.242,1.015,2.7,2.7,0,0,1,1.185,2.923c-.174,1.429-1.247,3.382-3.188,5.8-2.255,2.7-4.808,4.251-8.041,6.219l-.029.018a33.537,33.537,0,0,1-10.088,4.168l-.205.043c-.53.122-1.173.246-1.912.368a3.53,3.53,0,0,1-1.438.014.718.718,0,0,0-1.038.976c.222.383.724.562,1.581.562a13.678,13.678,0,0,0,2.256-.245,33.7,33.7,0,0,0,11.107-4.238c3.808-2.227,6.488-3.909,8.961-6.883,2.119-2.625,3.313-4.838,3.547-6.579a4.1,4.1,0,0,0-1.485-4.119" transform="translate(-192.964 -12.593)" fill="#7fc6ba"/>
      <path id="Trazado_2" data-name="Trazado 2" d="M307.7,31.869v0c-.892,1.363-1.952,3.057-3.338,5.332a30.106,30.106,0,0,0-2.58,5.108.786.786,0,0,0,.166.779.566.566,0,0,0,.4.17.539.539,0,0,0,.146-.02.675.675,0,0,0,.463-.533,22.831,22.831,0,0,1,2.162-4.183c1.27-2.033,2.343-3.7,3.378-5.243.771-1.162,1.479-2.265,2.038-3.175a1.361,1.361,0,0,0,.121-.174l.089-.139c.328-.51.823-1.281.272-1.708-.194-.144-.712-.527-2.78,1.813a.719.719,0,0,0-.207.681.462.462,0,0,0,.306.282,1.861,1.861,0,0,1-.141.249c-.168.272-.321.507-.494.762" transform="translate(-207.449 -19.228)" fill="#7fc6ba"/>
      <path id="Trazado_3" data-name="Trazado 3" d="M302.28,43.225a.6.6,0,0,1-.422-.179.815.815,0,0,1-.173-.809,30.131,30.131,0,0,1,2.582-5.115c1.389-2.281,2.45-3.975,3.339-5.334v0h0c.174-.255.326-.49.493-.761a1.976,1.976,0,0,0,.125-.215.493.493,0,0,1-.293-.289.745.745,0,0,1,.212-.711c2.088-2.362,2.621-1.967,2.822-1.818.575.445.07,1.23-.264,1.749l-.088.139a1.437,1.437,0,0,1-.123.178c-.555.905-1.26,2-2.036,3.173-1.034,1.542-2.107,3.208-3.377,5.243a22.8,22.8,0,0,0-2.159,4.177.7.7,0,0,1-.483.553.579.579,0,0,1-.154.021m5.378-11.4c-.891,1.362-1.951,3.055-3.338,5.333a30.039,30.039,0,0,0-2.577,5.1A.754.754,0,0,0,301.9,43a.534.534,0,0,0,.378.162.511.511,0,0,0,.138-.019.645.645,0,0,0,.442-.511,22.812,22.812,0,0,1,2.166-4.192c1.271-2.035,2.344-3.7,3.378-5.244.776-1.169,1.48-2.266,2.038-3.174a1.468,1.468,0,0,0,.121-.175l.089-.139c.322-.5.809-1.258.278-1.668-.187-.14-.688-.51-2.738,1.809a.691.691,0,0,0-.2.649.434.434,0,0,0,.287.264l.033.01-.014.031a1.851,1.851,0,0,1-.143.253c-.167.271-.32.507-.494.762Z" transform="translate(-207.382 -19.163)" fill="#7fc6ba"/>
      <path id="Trazado_4" data-name="Trazado 4" d="M382.043,43.162a.518.518,0,0,0-.446.216C380.218,45.133,375.542,49,373.789,49c-.492,0-.595-.376-.595-.692v-.16a8.012,8.012,0,0,1,.718-3.3c.175-.444.356-.9.515-1.454a3.048,3.048,0,0,0,.129-.716.769.769,0,0,0-.148-.472.8.8,0,0,1-.141-.526,1.77,1.77,0,0,1,.038-.41l0-.03c0-.99-.178-2.305-1.716-2.305a2.854,2.854,0,0,0-1.213.292c-3.169,1.364-6.2,5.5-7.458,7.935a5.232,5.232,0,0,0-.762,2.39,1.014,1.014,0,0,0,1.055,1.146,4.76,4.76,0,0,0,2.654-1.313l5.043-4.243a1.185,1.185,0,0,1,.283-.215,5.605,5.605,0,0,1-.18.775,9.784,9.784,0,0,0-.436,2.531,2.634,2.634,0,0,0,.02.264,3.122,3.122,0,0,1,.023.316,1.874,1.874,0,0,0,2.044,1.725,2.162,2.162,0,0,0,.514-.041c2.569-.332,7.037-4.456,8.309-6.407a.477.477,0,0,0,.114-.373.555.555,0,0,0-.56-.547m-9.268-1.451a1.2,1.2,0,0,1-.24.77q-.53.48-1.057.963c-1.55,1.416-3.152,2.881-4.836,4.185a7.151,7.151,0,0,1-1.781,1.2,9.54,9.54,0,0,1,1.009-1.973,15.684,15.684,0,0,1,5.972-6.18,1.12,1.12,0,0,1,.5-.18c.27,0,.43.453.43,1.211" transform="translate(-249.672 -26.762)" fill="#7fc6ba"/>
      <path id="Trazado_5" data-name="Trazado 5" d="M423.387,7.093h0a10.829,10.829,0,0,0-1.93-.158c-1.142-.016-4.632.2-5.664.194h-.034a.4.4,0,0,0-.043,0,.739.739,0,0,1,.082-.191.611.611,0,0,0,.036-.07,16.069,16.069,0,0,1,1.823-2.712l.2.014c.3.022.539-.2.828-.747.14-.251.466-.7.781-1.131a7.578,7.578,0,0,0,.88-1.337L420.36.8a.766.766,0,0,0-.692-.8c-1.188-.085-5.043,6.147-5.417,6.815-.247.39-.551.438-1.217.542l-.24.038c-1.918.159-7.778.905-9.538,1.33a.581.581,0,0,0-.413.548.684.684,0,0,0,.629.761A.192.192,0,0,0,403.6,10l.052-.006A69.586,69.586,0,0,1,411.23,8.93c.523-.057.964-.1,1.295-.144a.984.984,0,0,1,.315-.01c.206.015.247.064.244.064a.309.309,0,0,0-.038.085l-.4.749c-1.241,2.265-8.788,17.031-8.99,19.85a.716.716,0,0,0,.728.841c.551.039,1.253-.33,1.288-.817a.469.469,0,0,0-.086-.379.725.725,0,0,1-.134-.478,2.285,2.285,0,0,1,.167-.6l.037-.1a186.126,186.126,0,0,1,8.9-18.887,1.3,1.3,0,0,1,1.039-.566,47.74,47.74,0,0,1,6.85-.224c.277.042.511.077.717.1l.04,0c.314.023.539-.421.563-.748s-.132-.557-.367-.573" transform="translate(-276.954 0)" fill="#7fc6ba"/>
      <path id="Trazado_6" data-name="Trazado 6" d="M447.134,47.739a.557.557,0,0,0-.358-.188.432.432,0,0,0-.347.081c-1.584,1.112-8.882,5.3-11.477,5.031a.92.92,0,0,1-.7-.325,1.224,1.224,0,0,1-.062-.983l.039-.132c.093-.318.144-.493.489-.636,1.928-.814,6.99-3.486,7.258-6.04a.944.944,0,0,0-.914-1.128c-1.984-.209-4.443,2.115-5.406,3.123-1.787,1.871-3.125,4.042-3.254,5.28a2.017,2.017,0,0,0,1.835,2.309,3.426,3.426,0,0,0,.362.018c3.029,0,9.478-3.316,12.423-5.634a.5.5,0,0,0,.113-.774m-11.662,1.17a17.614,17.614,0,0,1,2.664-2.687c1.385-1.03,1.766-1.145,1.86-1.145l.017,0c.025.111-.311.682-1.5,1.728L436.3,48.459a7.674,7.674,0,0,1-.828.45" transform="translate(-297.266 -29.841)" fill="#7fc6ba"/>
      <path id="Trazado_7" data-name="Trazado 7" d="M0,44.9V29.116a.182.182,0,0,1,.182-.182H10.557a.182.182,0,0,1,.182.182v1.531a.182.182,0,0,1-.182.182H2.283a.182.182,0,0,0-.182.182V35.7a.182.182,0,0,0,.182.182H9.141a.182.182,0,0,1,.182.182V37.6a.182.182,0,0,1-.182.182H2.283a.182.182,0,0,0-.182.182V43a.182.182,0,0,0,.182.182h8.275a.182.182,0,0,1,.182.182V44.9a.182.182,0,0,1-.182.182H.182A.182.182,0,0,1,0,44.9" transform="translate(0 -19.892)" fill="#fff"/>
      <path id="Trazado_8" data-name="Trazado 8" d="M57.9,44.958l-5.56-15.781a.182.182,0,0,1,.172-.242h1.8a.182.182,0,0,1,.172.121l4.731,13.42a.182.182,0,0,0,.343,0l4.777-13.421a.182.182,0,0,1,.171-.121h1.8a.182.182,0,0,1,.171.242l-5.56,15.781a.182.182,0,0,1-.171.121H58.073a.182.182,0,0,1-.172-.121" transform="translate(-35.977 -19.893)" fill="#fff"/>
      <path id="Trazado_9" data-name="Trazado 9" d="M117.1,44.9V29.116a.182.182,0,0,1,.182-.182h10.376a.182.182,0,0,1,.182.182v1.531a.182.182,0,0,1-.182.182h-8.275a.182.182,0,0,0-.182.182V35.7a.182.182,0,0,0,.182.182h6.859a.182.182,0,0,1,.182.182V37.6a.182.182,0,0,1-.182.182h-6.859a.182.182,0,0,0-.182.182V43a.182.182,0,0,0,.182.182h8.275a.182.182,0,0,1,.182.182V44.9a.182.182,0,0,1-.182.182H117.281a.182.182,0,0,1-.182-.182" transform="translate(-80.506 -19.892)" fill="#fff"/>
      <path id="Trazado_10" data-name="Trazado 10" d="M174.1,44.9V29.116a.182.182,0,0,1,.182-.182h1.848a.182.182,0,0,1,.149.077l8.478,12.065a.182.182,0,0,0,.331-.1V29.116a.182.182,0,0,1,.182-.182h1.76a.182.182,0,0,1,.182.182V44.9a.182.182,0,0,1-.182.182h-1.848a.182.182,0,0,1-.149-.078l-8.478-12.076a.182.182,0,0,0-.331.1V44.9a.182.182,0,0,1-.182.182h-1.761a.182.182,0,0,1-.182-.182" transform="translate(-119.693 -19.892)" fill="#fff"/>
      <path id="Trazado_11" data-name="Trazado 11" d="M241.464,44.9V31.011a.182.182,0,0,0-.182-.182h-5.431a.182.182,0,0,1-.182-.182V29.116a.182.182,0,0,1,.182-.182h13.325a.182.182,0,0,1,.182.182v1.531a.182.182,0,0,1-.182.182h-5.43a.182.182,0,0,0-.182.182V44.9a.182.182,0,0,1-.182.182h-1.737a.182.182,0,0,1-.182-.182" transform="translate(-162.023 -19.892)" fill="#fff"/>
    </g>
  </g>
</svg>
