<svg id="Grupo_175" data-name="Grupo 175" xmlns="http://www.w3.org/2000/svg" xmlns:xlink="http://www.w3.org/1999/xlink" width="39.551" height="44.057" viewBox="0 0 39.551 44.057">
  <defs>
    <clipPath id="clip-path">
      <rect id="Rectángulo_68" data-name="Rectángulo 68" width="39.551" height="44.057" fill="none"/>
    </clipPath>
  </defs>
  <g id="Grupo_174" data-name="Grupo 174" transform="translate(0 0)" clip-path="url(#clip-path)">
    <path id="Trazado_2028" data-name="Trazado 2028" d="M42.272,21.306c-4.037-.3-8.284-.618-12.531-.939-3.627-.275-7.252-.582-10.881-.818a1.591,1.591,0,0,1-1.741-1.4c-.545-2.167-.726-4.389-1.193-6.563a1.541,1.541,0,0,0-.936-1.245,2.917,2.917,0,0,1-1.549-3.932A3.037,3.037,0,0,1,17.3,5a3,3,0,0,1,1.4,3.944c-.3.628-.056.8.4,1.026Q21.453,11.1,23.8,12.238a1.069,1.069,0,0,0,1.514-.4c1.47-2,2.979-3.965,4.463-5.952a.868.868,0,0,0,0-1.155A2.817,2.817,0,0,1,29.941.958a2.922,2.922,0,0,1,3.771-.47,3.146,3.146,0,0,1,1.026,3.78,2.422,2.422,0,0,1-.629.756c-.961.527-.407.954-.031,1.628,1.18,2.115,2.376,4.221,3.549,6.341a.9.9,0,0,0,1.228.456,34.532,34.532,0,0,1,5.05-1.6c.691-.111.6-.59.474-1.13A2.788,2.788,0,0,1,47.012,7.1a2.915,2.915,0,0,1,3.1,2.432,2.851,2.851,0,0,1-2.138,3.23,1.472,1.472,0,0,0-1.219,1.177c-.658,1.989-1.375,3.959-2.083,5.932-.544,1.516-.552,1.513-2.4,1.439" transform="translate(-10.572 0)" fill="#fff"/>
    <path id="Trazado_2029" data-name="Trazado 2029" d="M87.136,119.817a10.394,10.394,0,0,1,5.042-.262,7.094,7.094,0,0,1,5.674,5.975,8.727,8.727,0,0,1-2.506,7.568c-2.954,3.055-9.026,2.612-11.28,1.6-1.716-.769-4.62-3.568-4.892-5.54-.075-.541.069-.926.655-1,1.789-.214,3.579-.425,5.372-.6a.831.831,0,0,1,.919.587c.15.394.419.745.563,1.14.375,1.031,1.243,1.06,2.105,1.056a1.714,1.714,0,0,0,1.686-1.143,5.11,5.11,0,0,0-.072-4.027c-.521-1.179-2.606-1.457-3.8-.4a3.025,3.025,0,0,1-2.815.635c-1.031-.181-2.07-.316-3.105-.473-.647-.1-.875-.458-.764-1.111q.788-4.654,1.531-9.315c.094-.593.353-.734.924-.689q6.713.538,13.431,1.022c.807.059,1.215.4,1.119,1.243a2.537,2.537,0,0,0,0,.295c.007,1.7-.089,1.8-1.752,1.807-2.2,0-4.4-.009-6.6.008a5.555,5.555,0,0,0-1.318.118c-.34.188-.133.812-.114,1.5" transform="translate(-63.567 -91.398)" fill="#fff"/>
    <path id="Trazado_2030" data-name="Trazado 2030" d="M13.3,120.943c0,3.184-.025,6.367.018,9.551.01.771-.265,1.053-.992,1.122a45.587,45.587,0,0,1-5.114.055c-.944-.017-1.048-.715-1.048-1.462q0-5.169,0-10.338a.743.743,0,0,0,0-.1c-.07-.5-.008-1.368-.254-1.457-.17-.061-.773.485-1.179.658-1.26.537-2.569.964-3.868,1.4-.524.178-.826-.068-.831-.621C.01,118.215.011,116.672,0,115.13c0-.4.25-.583.58-.7,2.488-.867,4.757-2.048,6.243-4.351.194-.3.489-.275.789-.272,1.577.017,3.142.184,4.71.329.764.071.981.437.976,1.155-.024,3.216-.01,6.433-.01,9.649Z" transform="translate(-0.001 -88.182)" fill="#fff"/>
  </g>
</svg>
