<svg xmlns="http://www.w3.org/2000/svg" xmlns:xlink="http://www.w3.org/1999/xlink" width="28.965" height="32.266" viewBox="0 0 28.965 32.266">
  <defs>
    <clipPath id="clip-path">
      <rect id="Rectángulo_68" data-name="Rectángulo 68" width="28.965" height="32.266" fill="none"/>
    </clipPath>
  </defs>
  <g id="Grupo_175" data-name="Grupo 175" transform="translate(0.017 -1.275)">
    <g id="Grupo_174" data-name="Grupo 174" transform="translate(-0.017 1.275)" clip-path="url(#clip-path)">
      <path id="Trazado_2028" data-name="Trazado 2028" d="M34.482,15.6c-2.956-.221-6.067-.452-9.177-.688-2.656-.2-5.311-.426-7.969-.6a1.165,1.165,0,0,1-1.275-1.028c-.4-1.587-.532-3.214-.873-4.807a1.129,1.129,0,0,0-.686-.912,2.136,2.136,0,0,1-1.134-2.88A2.224,2.224,0,0,1,16.2,3.662,2.2,2.2,0,0,1,17.218,6.55c-.218.46-.041.589.3.751q1.72.825,3.436,1.661a.783.783,0,0,0,1.109-.3c1.076-1.463,2.181-2.9,3.268-4.359a.636.636,0,0,0,0-.846A2.063,2.063,0,0,1,25.451.7,2.14,2.14,0,0,1,28.213.358a2.3,2.3,0,0,1,.751,2.768,1.774,1.774,0,0,1-.461.554c-.7.386-.3.7-.022,1.193.864,1.549,1.74,3.092,2.6,4.644a.66.66,0,0,0,.9.334,25.29,25.29,0,0,1,3.7-1.169c.506-.081.438-.432.347-.827A2.042,2.042,0,0,1,37.953,5.2a2.135,2.135,0,0,1,2.273,1.781A2.088,2.088,0,0,1,38.66,9.343a1.078,1.078,0,0,0-.892.862c-.482,1.457-1.007,2.9-1.525,4.345-.4,1.11-.4,1.108-1.761,1.054" transform="translate(-11.266 0)" fill="#fff"/>
      <path id="Trazado_2029" data-name="Trazado 2029" d="M85,118.21a7.612,7.612,0,0,1,3.692-.192,5.2,5.2,0,0,1,4.156,4.376,6.391,6.391,0,0,1-1.836,5.543c-2.164,2.238-6.61,1.913-8.261,1.173-1.256-.563-3.384-2.613-3.583-4.057-.055-.4.05-.678.479-.73,1.31-.157,2.621-.311,3.934-.443a.609.609,0,0,1,.673.43c.11.289.306.545.412.835.274.755.91.777,1.542.773a1.255,1.255,0,0,0,1.235-.837,3.742,3.742,0,0,0-.053-2.949,1.864,1.864,0,0,0-2.786-.294,2.215,2.215,0,0,1-2.062.465c-.755-.133-1.516-.231-2.274-.347-.474-.072-.641-.336-.56-.814q.577-3.408,1.122-6.822c.069-.434.259-.538.677-.5q4.917.394,9.836.749c.591.043.89.3.82.91a1.859,1.859,0,0,0,0,.216c.005,1.246-.065,1.322-1.283,1.323-1.61,0-3.221-.007-4.831.005a4.069,4.069,0,0,0-.965.087c-.249.137-.1.595-.084,1.1" transform="translate(-67.739 -97.397)" fill="#fff"/>
      <path id="Trazado_2030" data-name="Trazado 2030" d="M9.739,117.962c0,2.332-.018,4.663.013,6.994.008.564-.194.771-.726.821a33.385,33.385,0,0,1-3.745.04c-.691-.013-.768-.523-.767-1.071q0-3.786,0-7.571a.544.544,0,0,0,0-.072c-.051-.366-.006-1-.186-1.067-.124-.045-.566.356-.863.482-.923.393-1.881.706-2.833,1.029-.384.13-.605-.05-.609-.454-.01-1.13-.01-2.259-.017-3.389,0-.295.183-.427.425-.511A8.311,8.311,0,0,0,5,110.008c.142-.22.358-.2.578-.2,1.155.013,2.3.134,3.449.241.559.052.719.32.715.846-.017,2.356-.008,4.711-.008,7.067Z" transform="translate(-0.001 -93.97)" fill="#fff"/>
    </g>
  </g>
</svg>
