<svg id="Grupo_155" data-name="Grupo 155" xmlns="http://www.w3.org/2000/svg" xmlns:xlink="http://www.w3.org/1999/xlink" width="9.186" height="8.774" viewBox="0 0 9.186 8.774">
  <defs>
    <clipPath id="clip-path">
      <rect id="Rectángulo_58" data-name="Rectángulo 58" width="9.186" height="8.774" fill="none"/>
    </clipPath>
  </defs>
  <g id="Grupo_154" data-name="Grupo 154" transform="translate(0 0)" clip-path="url(#clip-path)">
    <path id="Trazado_2022" data-name="Trazado 2022" d="M4.933.211,6.059,2.492a.378.378,0,0,0,.286.207l2.517.366a.379.379,0,0,1,.21.647L7.25,5.488a.379.379,0,0,0-.109.336l.43,2.507a.379.379,0,0,1-.55.4L4.769,7.546a.379.379,0,0,0-.353,0L2.165,8.73a.379.379,0,0,1-.55-.4l.43-2.507a.379.379,0,0,0-.109-.336L.115,3.712a.379.379,0,0,1,.21-.647L2.842,2.7a.378.378,0,0,0,.286-.207L4.253.211a.379.379,0,0,1,.68,0" transform="translate(0 0)" fill="#fc0"/>
  </g>
</svg>
